<svg xmlns="http://www.w3.org/2000/svg" xmlns:xlink="http://www.w3.org/1999/xlink" viewBox="0 0 2280 1108.06"><defs><style>.cls-1{fill:none;}.cls-2{isolation:isolate;}.cls-3{opacity:0.5;}.cls-4{clip-path:url(#clip-path);}.cls-5{fill:#231815;}.cls-6{opacity:0.77;}.cls-7{clip-path:url(#clip-path-2);}.cls-8{clip-path:url(#clip-path-3);}.cls-9{opacity:0.9;mix-blend-mode:multiply;}.cls-10{clip-path:url(#clip-path-4);}.cls-11{clip-path:url(#clip-path-5);}.cls-12{fill:url(#未命名漸層_109);}.cls-13{clip-path:url(#clip-path-6);}.cls-14{fill:url(#未命名漸層_110);}.cls-15{clip-path:url(#clip-path-8);}.cls-16{clip-path:url(#clip-path-9);}.cls-17{fill:url(#未命名漸層_109-2);}.cls-18{clip-path:url(#clip-path-10);}.cls-19{fill:url(#未命名漸層_110-2);}.cls-20{clip-path:url(#clip-path-12);}.cls-21{clip-path:url(#clip-path-13);}.cls-22{fill:url(#未命名漸層_109-3);}.cls-23{clip-path:url(#clip-path-14);}.cls-24{fill:url(#未命名漸層_110-3);}.cls-25{clip-path:url(#clip-path-16);}.cls-26{clip-path:url(#clip-path-17);}.cls-27{fill:url(#未命名漸層_109-4);}.cls-28{clip-path:url(#clip-path-18);}.cls-29{fill:url(#未命名漸層_110-4);}.cls-30{clip-path:url(#clip-path-20);}.cls-31{clip-path:url(#clip-path-21);}.cls-32{fill:url(#未命名漸層_109-5);}.cls-33{clip-path:url(#clip-path-22);}.cls-34{fill:url(#未命名漸層_110-5);}.cls-35{clip-path:url(#clip-path-24);}.cls-36{clip-path:url(#clip-path-25);}.cls-37{fill:url(#未命名漸層_109-6);}.cls-38{clip-path:url(#clip-path-26);}.cls-39{fill:url(#未命名漸層_110-6);}.cls-40{clip-path:url(#clip-path-28);}.cls-41{clip-path:url(#clip-path-29);}.cls-42{fill:url(#未命名漸層_109-7);}.cls-43{clip-path:url(#clip-path-30);}.cls-44{fill:url(#未命名漸層_110-7);}.cls-45{clip-path:url(#clip-path-32);}.cls-46{clip-path:url(#clip-path-33);}.cls-47{fill:url(#未命名漸層_109-8);}.cls-48{clip-path:url(#clip-path-34);}.cls-49{fill:url(#未命名漸層_110-8);}.cls-50{clip-path:url(#clip-path-36);}.cls-51{clip-path:url(#clip-path-37);}.cls-52{fill:url(#未命名漸層_109-9);}.cls-53{clip-path:url(#clip-path-38);}.cls-54{fill:url(#未命名漸層_110-9);}.cls-55{clip-path:url(#clip-path-40);}.cls-56{clip-path:url(#clip-path-41);}.cls-57{fill:url(#未命名漸層_109-10);}.cls-58{clip-path:url(#clip-path-42);}.cls-59{fill:url(#未命名漸層_110-10);}.cls-60{clip-path:url(#clip-path-44);}.cls-61{clip-path:url(#clip-path-45);}.cls-62{fill:url(#未命名漸層_109-11);}.cls-63{clip-path:url(#clip-path-46);}.cls-64{fill:url(#未命名漸層_110-11);}.cls-65{clip-path:url(#clip-path-48);}.cls-66{clip-path:url(#clip-path-49);}.cls-67{fill:url(#未命名漸層_109-12);}.cls-68{clip-path:url(#clip-path-50);}.cls-69{fill:url(#未命名漸層_110-12);}.cls-70{clip-path:url(#clip-path-52);}.cls-71{clip-path:url(#clip-path-53);}.cls-72{fill:url(#未命名漸層_109-13);}.cls-73{clip-path:url(#clip-path-54);}.cls-74{fill:url(#未命名漸層_110-13);}.cls-75{clip-path:url(#clip-path-56);}.cls-76{clip-path:url(#clip-path-57);}.cls-77{fill:url(#未命名漸層_109-14);}.cls-78{clip-path:url(#clip-path-58);}.cls-79{fill:url(#未命名漸層_110-14);}.cls-80{clip-path:url(#clip-path-60);}.cls-81{clip-path:url(#clip-path-61);}.cls-82{fill:url(#未命名漸層_109-15);}.cls-83{clip-path:url(#clip-path-62);}.cls-84{fill:url(#未命名漸層_110-15);}.cls-85{clip-path:url(#clip-path-64);}.cls-86{clip-path:url(#clip-path-65);}.cls-87{fill:url(#未命名漸層_109-16);}.cls-88{clip-path:url(#clip-path-66);}.cls-89{fill:url(#未命名漸層_110-16);}.cls-90{clip-path:url(#clip-path-68);}.cls-91{clip-path:url(#clip-path-69);}.cls-92{fill:url(#未命名漸層_109-17);}.cls-93{clip-path:url(#clip-path-70);}.cls-94{fill:url(#未命名漸層_110-17);}.cls-95{clip-path:url(#clip-path-72);}.cls-96{clip-path:url(#clip-path-73);}.cls-97{fill:url(#未命名漸層_109-18);}.cls-98{clip-path:url(#clip-path-74);}.cls-99{fill:url(#未命名漸層_110-18);}.cls-100{clip-path:url(#clip-path-76);}.cls-101{clip-path:url(#clip-path-77);}.cls-102{fill:url(#未命名漸層_109-19);}.cls-103{clip-path:url(#clip-path-78);}.cls-104{fill:url(#未命名漸層_110-19);}.cls-105{clip-path:url(#clip-path-80);}.cls-106{clip-path:url(#clip-path-81);}.cls-107{fill:url(#未命名漸層_109-20);}.cls-108{clip-path:url(#clip-path-82);}.cls-109{fill:url(#未命名漸層_110-20);}.cls-110{clip-path:url(#clip-path-84);}.cls-111{clip-path:url(#clip-path-85);}.cls-112{fill:url(#未命名漸層_109-21);}.cls-113{clip-path:url(#clip-path-86);}.cls-114{fill:url(#未命名漸層_110-21);}.cls-115{clip-path:url(#clip-path-88);}.cls-116{clip-path:url(#clip-path-89);}.cls-117{fill:url(#未命名漸層_109-22);}.cls-118{clip-path:url(#clip-path-90);}.cls-119{fill:url(#未命名漸層_110-22);}.cls-120{clip-path:url(#clip-path-92);}.cls-121{clip-path:url(#clip-path-93);}.cls-122{fill:url(#未命名漸層_109-23);}.cls-123{clip-path:url(#clip-path-94);}.cls-124{fill:url(#未命名漸層_110-23);}.cls-125{clip-path:url(#clip-path-96);}.cls-126{clip-path:url(#clip-path-97);}.cls-127{fill:url(#未命名漸層_109-24);}.cls-128{clip-path:url(#clip-path-98);}.cls-129{fill:url(#未命名漸層_110-24);}.cls-130{clip-path:url(#clip-path-100);}.cls-131{clip-path:url(#clip-path-101);}.cls-132{fill:url(#未命名漸層_109-25);}.cls-133{clip-path:url(#clip-path-102);}.cls-134{fill:url(#未命名漸層_110-25);}.cls-135{clip-path:url(#clip-path-104);}.cls-136{clip-path:url(#clip-path-105);}.cls-137{fill:url(#未命名漸層_109-26);}.cls-138{clip-path:url(#clip-path-106);}.cls-139{fill:url(#未命名漸層_110-26);}.cls-140{clip-path:url(#clip-path-108);}.cls-141{clip-path:url(#clip-path-109);}.cls-142{fill:url(#未命名漸層_109-27);}.cls-143{clip-path:url(#clip-path-110);}.cls-144{fill:url(#未命名漸層_110-27);}</style><clipPath id="clip-path" transform="translate(0 -19.7)"><rect class="cls-1" y="47.76" width="2280.01" height="1080"/></clipPath><clipPath id="clip-path-2" transform="translate(0 -19.7)"><rect class="cls-1" x="1.77" width="2278.24" height="1132.31"/></clipPath><clipPath id="clip-path-3" transform="translate(0 -19.7)"><rect class="cls-1" x="1.77" y="47.76" width="2278.23" height="1084.55"/></clipPath><clipPath id="clip-path-4" transform="translate(0 -19.7)"><rect class="cls-1" x="466.66" y="196.05" width="220.33" height="121.48"/></clipPath><clipPath id="clip-path-5" transform="translate(0 -19.7)"><path class="cls-1" d="M687,256c.47,33.55-48.47,61.08-109.3,61.5s-110.55-26.42-111-60,48.47-61.08,109.3-61.51,110.55,26.42,111,60"/></clipPath><radialGradient id="未命名漸層_109" cx="-7625.72" cy="7613.87" r="1" gradientTransform="matrix(110.15, -0.77, -0.87, -60.74, 847165.18, 456837.09)" gradientUnits="userSpaceOnUse"><stop offset="0" stop-color="#474443"/><stop offset="0.81" stop-color="#fff"/><stop offset="1" stop-color="#fff"/></radialGradient><clipPath id="clip-path-6" transform="translate(0 -19.7)"><path class="cls-1" d="M569.07,170.63c-21.19,1.5-38.49,16.77-45.29,37.44a27.81,27.81,0,0,0-9.32-.91c-16.86,1.19-29.51,17.3-28.27,36s16,32.86,32.83,31.66a28.4,28.4,0,0,0,16.29-6.65c10.43,12.08,25.41,19.18,41.55,18,14.6-1,27.38-8.63,36.12-20a29.27,29.27,0,0,0,23.89,10.06c15.27-1.08,27.1-14.39,28.25-30.77a16.79,16.79,0,0,0,2.93.06c9.82-.7,17.21-10.1,16.47-21s-9.3-19.17-19.14-18.48a17.34,17.34,0,0,0-13.51,8.57,30.71,30.71,0,0,0-5.52-3.38,30.61,30.61,0,0,0,0-3.45c-1-15.08-12.88-26.53-26.49-25.56a22.67,22.67,0,0,0-11.41,4.05c-9.51-9.81-22.22-15.76-36-15.76-1.12,0-2.25,0-3.38.12"/></clipPath><radialGradient id="未命名漸層_110" cx="-7622.68" cy="7622.41" r="1" gradientTransform="matrix(200.69, 0, 0.03, -222.32, 1530214.58, 1694773.76)" gradientUnits="userSpaceOnUse"><stop offset="0" stop-color="#fbfbfc"/><stop offset="0.82" stop-color="#d3d4d4"/><stop offset="1" stop-color="#d3d4d4"/></radialGradient><clipPath id="clip-path-8" transform="translate(0 -19.7)"><rect class="cls-1" x="880.16" y="452.01" width="232.69" height="128.3"/></clipPath><clipPath id="clip-path-9" transform="translate(0 -19.7)"><path class="cls-1" d="M1112.85,515.35c.5,35.43-51.18,64.51-115.43,65S880.67,552.4,880.16,517s51.18-64.5,115.43-65,116.75,27.9,117.26,63.33"/></clipPath><radialGradient id="未命名漸層_109-2" cx="-7625.35" cy="7614.49" r="1" gradientTransform="matrix(116.33, -0.81, -0.92, -64.15, 895060.88, 482765.01)" xlink:href="#未命名漸層_109"/><clipPath id="clip-path-10" transform="translate(0 -19.7)"><path class="cls-1" d="M988.31,425.17c-22.37,1.58-40.64,17.71-47.83,39.54a29,29,0,0,0-9.84-1c-17.81,1.25-31.17,18.27-29.85,38s16.86,34.7,34.67,33.44a30,30,0,0,0,17.2-7c11,12.76,26.84,20.26,43.88,19.05,15.43-1.09,28.92-9.12,38.15-21.15,6.43,7.14,15.48,11.31,25.23,10.62,16.13-1.15,28.61-15.2,29.84-32.5a16.71,16.71,0,0,0,3.09.06c10.37-.73,18.18-10.66,17.4-22.17s-9.83-20.25-20.21-19.51a18.31,18.31,0,0,0-14.28,9,32.26,32.26,0,0,0-5.83-3.56,29.51,29.51,0,0,0,0-3.64c-1.07-15.93-13.61-28-28-27a24,24,0,0,0-12.06,4.27c-10-10.35-23.47-16.64-38-16.64-1.18,0-2.37,0-3.57.13"/></clipPath><radialGradient id="未命名漸層_110-2" cx="-7622.47" cy="7622.57" gradientTransform="matrix(211.96, 0, 0.03, -234.79, 1616447.82, 1790183.59)" xlink:href="#未命名漸層_110"/><clipPath id="clip-path-12" transform="translate(0 -19.7)"><rect class="cls-1" x="1650.21" y="335.3" width="232.7" height="128.3"/></clipPath><clipPath id="clip-path-13" transform="translate(0 -19.7)"><path class="cls-1" d="M1882.87,398.64c.51,35.43-51.18,64.51-115.43,64.95s-116.75-27.9-117.26-63.33,51.19-64.5,115.43-65,116.76,27.91,117.26,63.34"/></clipPath><radialGradient id="未命名漸層_109-3" cx="-7625.35" cy="7614.49" r="1" gradientTransform="matrix(116.33, -0.81, -0.92, -64.15, 895830.9, 482648.29)" xlink:href="#未命名漸層_109"/><clipPath id="clip-path-14" transform="translate(0 -19.7)"><path class="cls-1" d="M1758.33,308.45C1736,310,1717.69,326.16,1710.5,348a29.3,29.3,0,0,0-9.84-1c-17.81,1.26-31.17,18.27-29.85,38s16.86,34.71,34.67,33.44a30,30,0,0,0,17.2-7c11,12.75,26.84,20.25,43.88,19,15.43-1.09,28.92-9.12,38.15-21.15,6.43,7.14,15.49,11.31,25.23,10.62,16.13-1.14,28.62-15.2,29.84-32.5a17.64,17.64,0,0,0,3.09.07c10.38-.74,18.18-10.67,17.4-22.18s-9.82-20.24-20.22-19.51a18.32,18.32,0,0,0-14.27,9,31.75,31.75,0,0,0-5.83-3.57,29.54,29.54,0,0,0,0-3.64c-1.07-15.93-13.6-28-28-27a24,24,0,0,0-12.06,4.28c-10-10.36-23.46-16.65-38-16.65-1.19,0-2.38.05-3.58.13"/></clipPath><radialGradient id="未命名漸層_110-3" cx="-7622.47" cy="7622.57" gradientTransform="matrix(211.96, 0, 0.03, -234.79, 1617217.42, 1790067.26)" xlink:href="#未命名漸層_110"/><clipPath id="clip-path-16" transform="translate(0 -19.7)"><rect class="cls-1" x="976.35" y="68.06" width="587.13" height="323.72"/></clipPath><clipPath id="clip-path-17" transform="translate(0 -19.7)"><path class="cls-1" d="M1563.47,227.88c1.28,89.39-129.14,162.77-291.26,163.89S977.63,321.36,976.36,232,1105.51,69.22,1267.62,68.08s294.58,70.4,295.85,159.8"/></clipPath><radialGradient id="未命名漸層_109-4" cx="-7621.33" cy="7621.07" r="1" gradientTransform="matrix(293.53, -2.05, -2.31, -161.86, 2255966.17, 1218121.72)" xlink:href="#未命名漸層_109"/><clipPath id="clip-path-18" transform="translate(0 -19.7)"><path class="cls-1" d="M1157.75,47.76a156,156,0,0,0-29.2,52.34,73.75,73.75,0,0,0-24.82-2.43c-44.94,3.17-78.65,46.1-75.32,95.9S1071,281.13,1115.89,278a75.8,75.8,0,0,0,43.39-17.72c27.8,32.18,67.72,51.1,110.73,48,38.92-2.75,73-23,96.25-53.38,16.22,18,39.07,28.55,63.67,26.82,40.69-2.9,72.19-38.36,75.28-82a44,44,0,0,0,7.8.16c26.18-1.86,45.87-26.91,43.9-56s-24.79-51.08-51-49.22c-15.18,1.08-28.19,9.92-36,22.82a80.75,80.75,0,0,0-14.71-9,74.3,74.3,0,0,0-.08-9.19c-1.41-20.91-10.64-39.19-24.28-51.57Z"/></clipPath><radialGradient id="未命名漸層_110-4" cx="-7620.19" cy="7624.27" gradientTransform="matrix(534.8, 0, 0.07, -592.42, 4076077, 4516850.58)" xlink:href="#未命名漸層_110"/><clipPath id="clip-path-20" transform="translate(0 -19.7)"><rect class="cls-1" x="664.1" y="310.38" width="296.1" height="163.25"/></clipPath><clipPath id="clip-path-21" transform="translate(0 -19.7)"><path class="cls-1" d="M960.2,391c.64,45.09-65.13,82.09-146.89,82.66S664.75,438.12,664.11,393,729.24,311,811,310.38,959.56,345.89,960.2,391"/></clipPath><radialGradient id="未命名漸層_109-5" cx="-7623.92" cy="7616.82" r="1" gradientTransform="matrix(148.03, -1.03, -1.17, -81.63, 1138287.9, 614244.32)" xlink:href="#未命名漸層_109"/><clipPath id="clip-path-22" transform="translate(0 -19.7)"><path class="cls-1" d="M801.72,276.21c-28.46,2-51.71,22.54-60.86,50.32a37.27,37.27,0,0,0-12.52-1.22c-22.67,1.59-39.66,23.24-38,48.36s21.46,44.16,44.12,42.56a38.32,38.32,0,0,0,21.89-8.94c14,16.23,34.15,25.77,55.84,24.23,19.63-1.38,36.8-11.61,48.54-26.92,8.18,9.09,19.71,14.4,32.11,13.52,20.52-1.46,36.41-19.34,38-41.35a22.32,22.32,0,0,0,3.93.08c13.2-.94,23.13-13.57,22.14-28.22s-12.5-25.76-25.72-24.82A23.27,23.27,0,0,0,913,335.32a40.09,40.09,0,0,0-7.42-4.54,36,36,0,0,0,0-4.64c-1.36-20.27-17.3-35.65-35.59-34.35a30.49,30.49,0,0,0-15.34,5.44c-12.78-13.18-29.86-21.18-48.34-21.18-1.51,0-3,.05-4.55.16"/></clipPath><radialGradient id="未命名漸層_110-5" cx="-7621.66" cy="7623.17" gradientTransform="matrix(269.71, 0, 0.04, -298.77, 2056231.05, 2277900.92)" xlink:href="#未命名漸層_110"/><clipPath id="clip-path-24" transform="translate(0 -19.7)"><rect class="cls-1" x="651.97" y="593.83" width="296.11" height="163.26"/></clipPath><clipPath id="clip-path-25" transform="translate(0 -19.7)"><path class="cls-1" d="M948.07,674.43c.65,45.08-65.13,82.09-146.89,82.65S652.62,721.57,652,676.49s65.13-82.08,146.89-82.65,148.56,35.5,149.2,80.59"/></clipPath><radialGradient id="未命名漸層_109-6" cx="-7623.92" cy="7616.82" r="1" gradientTransform="matrix(148.03, -1.03, -1.17, -81.63, 1138275.77, 614527.77)" xlink:href="#未命名漸層_109"/><clipPath id="clip-path-26" transform="translate(0 -19.7)"><path class="cls-1" d="M789.6,559.66c-28.47,2-51.72,22.54-60.87,50.32a37.24,37.24,0,0,0-12.52-1.22c-22.66,1.6-39.66,23.25-38,48.37s21.46,44.15,44.13,42.55a38.23,38.23,0,0,0,21.88-8.94c14,16.23,34.15,25.77,55.84,24.23,19.63-1.38,36.8-11.6,48.54-26.92,8.18,9.1,19.71,14.4,32.11,13.53,20.52-1.46,36.41-19.35,38-41.36a21.4,21.4,0,0,0,3.93.08c13.21-.94,23.13-13.57,22.14-28.21s-12.5-25.77-25.72-24.83a23.31,23.31,0,0,0-18.16,11.51,41.55,41.55,0,0,0-7.42-4.54,39.79,39.79,0,0,0,0-4.63c-1.37-20.27-17.31-35.66-35.59-34.36a30.62,30.62,0,0,0-15.35,5.44c-12.78-13.17-29.86-21.18-48.34-21.18-1.5,0-3,0-4.54.16"/></clipPath><radialGradient id="未命名漸層_110-6" cx="-7621.66" cy="7623.17" gradientTransform="matrix(269.71, 0, 0.04, -298.77, 2056216.18, 2278186.85)" xlink:href="#未命名漸層_110"/><clipPath id="clip-path-28" transform="translate(0 -19.7)"><rect class="cls-1" x="851.96" y="521.54" width="296.11" height="163.26"/></clipPath><clipPath id="clip-path-29" transform="translate(0 -19.7)"><path class="cls-1" d="M1148.06,602.14c.65,45.08-65.13,82.09-146.89,82.65S852.61,649.29,852,604.2s65.13-82.08,146.89-82.65,148.56,35.5,149.2,80.59"/></clipPath><radialGradient id="未命名漸層_109-7" cx="-7623.92" cy="7616.82" r="1" gradientTransform="matrix(148.03, -1.03, -1.17, -81.63, 1138475.76, 614455.48)" xlink:href="#未命名漸層_109"/><clipPath id="clip-path-30" transform="translate(0 -19.7)"><path class="cls-1" d="M989.59,487.38c-28.47,2-51.72,22.54-60.87,50.32a37.27,37.27,0,0,0-12.52-1.23c-22.66,1.6-39.66,23.25-38,48.37s21.45,44.16,44.11,42.55a38.22,38.22,0,0,0,21.89-8.93c14,16.22,34.15,25.77,55.84,24.23,19.63-1.39,36.8-11.61,48.55-26.92,8.17,9.09,19.7,14.4,32.1,13.52,20.52-1.46,36.41-19.34,38-41.35a22.35,22.35,0,0,0,3.93.07c13.2-.93,23.13-13.57,22.14-28.21S1132.25,534,1119,535a23.31,23.31,0,0,0-18.16,11.51,41.55,41.55,0,0,0-7.42-4.54,39.83,39.83,0,0,0,0-4.63C1092,517,1076.1,501.66,1057.81,503a30.54,30.54,0,0,0-15.34,5.45c-12.78-13.18-29.86-21.18-48.34-21.19-1.51,0-3,.06-4.54.17"/></clipPath><radialGradient id="未命名漸層_110-7" cx="-7621.66" cy="7623.17" gradientTransform="matrix(269.71, 0, 0.04, -298.77, 2056419.33, 2278111.71)" xlink:href="#未命名漸層_110"/><clipPath id="clip-path-32" transform="translate(0 -19.7)"><rect class="cls-1" x="1103.75" y="323.61" width="296.1" height="163.26"/></clipPath><clipPath id="clip-path-33" transform="translate(0 -19.7)"><path class="cls-1" d="M1399.84,404.21c.65,45.08-65.13,82.09-146.88,82.65s-148.57-35.51-149.21-80.59,65.13-82.08,146.89-82.65,148.56,35.5,149.2,80.59"/></clipPath><radialGradient id="未命名漸層_109-8" cx="-7623.92" cy="7616.82" r="1" gradientTransform="matrix(148.03, -1.03, -1.17, -81.63, 1138727.55, 614257.55)" xlink:href="#未命名漸層_109"/><clipPath id="clip-path-34" transform="translate(0 -19.7)"><path class="cls-1" d="M1241.37,289.44c-28.47,2-51.71,22.54-60.86,50.33a37.33,37.33,0,0,0-12.53-1.23c-22.66,1.6-39.66,23.25-38,48.37s21.45,44.16,44.12,42.55a38.2,38.2,0,0,0,21.88-8.94c14,16.23,34.16,25.77,55.85,24.23,19.62-1.38,36.8-11.6,48.54-26.91,8.17,9.09,19.7,14.39,32.11,13.52,20.52-1.46,36.4-19.35,38-41.36a21.51,21.51,0,0,0,3.94.08c13.2-.93,23.13-13.57,22.13-28.21S1384,336.1,1370.81,337a23.31,23.31,0,0,0-18.16,11.51,41.2,41.2,0,0,0-7.42-4.54,35.83,35.83,0,0,0,0-4.63c-1.36-20.27-17.31-35.65-35.59-34.36a30.53,30.53,0,0,0-15.35,5.44c-12.78-13.17-29.86-21.18-48.33-21.18-1.51,0-3,.06-4.55.16"/></clipPath><radialGradient id="未命名漸層_110-8" cx="-7621.66" cy="7623.17" gradientTransform="matrix(269.71, 0, 0.04, -298.77, 2056671.12, 2277913.77)" xlink:href="#未命名漸層_110"/><clipPath id="clip-path-36" transform="translate(0 -19.7)"><rect class="cls-1" x="1102.23" y="687.4" width="296.1" height="163.26"/></clipPath><clipPath id="clip-path-37" transform="translate(0 -19.7)"><path class="cls-1" d="M1398.33,768c.64,45.08-65.13,82.09-146.89,82.65s-148.56-35.51-149.2-80.59,65.13-82.08,146.88-82.65,148.57,35.5,149.21,80.59"/></clipPath><radialGradient id="未命名漸層_109-9" cx="-7623.92" cy="7616.82" r="1" gradientTransform="matrix(148.03, -1.03, -1.17, -81.63, 1138726.03, 614621.34)" xlink:href="#未命名漸層_109"/><clipPath id="clip-path-38" transform="translate(0 -19.7)"><path class="cls-1" d="M1239.85,653.23c-28.46,2-51.71,22.54-60.86,50.33a37.27,37.27,0,0,0-12.52-1.23c-22.66,1.6-39.66,23.25-38,48.37s21.46,44.15,44.12,42.55a38.16,38.16,0,0,0,21.89-8.94c14,16.23,34.15,25.77,55.84,24.23,19.63-1.38,36.8-11.6,48.54-26.92,8.18,9.1,19.71,14.4,32.11,13.53,20.52-1.46,36.41-19.35,38-41.36a21.4,21.4,0,0,0,3.93.08c13.2-.94,23.13-13.57,22.14-28.22s-12.5-25.76-25.72-24.82a23.32,23.32,0,0,0-18.17,11.51,41.2,41.2,0,0,0-7.42-4.54,35.82,35.82,0,0,0,0-4.63c-1.36-20.27-17.31-35.66-35.59-34.36a30.62,30.62,0,0,0-15.34,5.44c-12.78-13.17-29.86-21.18-48.34-21.18-1.51,0-3,0-4.55.16"/></clipPath><radialGradient id="未命名漸層_110-9" cx="-7621.66" cy="7623.17" gradientTransform="matrix(269.71, 0, 0.04, -298.77, 2056666.44, 2278280.42)" xlink:href="#未命名漸層_110"/><clipPath id="clip-path-40" transform="translate(0 -19.7)"><rect class="cls-1" x="335.12" y="392.92" width="354.68" height="187.57"/></clipPath><clipPath id="clip-path-41" transform="translate(0 -19.7)"><path class="cls-1" d="M689.7,497.64c-3.35,51.44-85.41,88.24-183.29,82.2S331.89,527.21,335.23,475.77s85.4-88.24,183.28-82.2S693,446.21,689.7,497.64"/></clipPath><radialGradient id="未命名漸層_109-10" cx="-7622.73" cy="7617.35" r="1" gradientTransform="matrix(177.22, 10.94, 6.05, -93.14, 1305346.81, 793385.83)" xlink:href="#未命名漸層_109"/><clipPath id="clip-path-42" transform="translate(0 -19.7)"><path class="cls-1" d="M433.12,406.23a47.23,47.23,0,0,0-14.87-2.42c-27.26,0-49.58,23.27-49.84,52S390,507.93,417.3,508a47.51,47.51,0,0,0,27-8.39c15.3,19.65,38.51,32.17,64.6,32.19,23.64,0,45.08-10.21,60.55-26.71a47.84,47.84,0,0,0,37.17,18c24.69,0,45.32-19.07,49.2-44a27,27,0,0,0,4.69.41c15.91,0,28.92-13.57,29.08-30.34S677,418.72,661.07,418.7a28.49,28.49,0,0,0-22.78,11.64,49,49,0,0,0-8.46-5.78,42.09,42.09,0,0,0,.36-5.29c.22-23.22-17.45-42-39.46-42.07a38.1,38.1,0,0,0-18.84,4.95c-15.24-17.39-37-28.26-61.37-28.29h-.07c-34.21,0-63.86,21.48-77.33,52.37"/></clipPath><radialGradient id="未命名漸層_110-10" cx="-7621" cy="7623.29" gradientTransform="matrix(323.59, 5.85, 8.41, -341.33, 2402521.25, 2647005.95)" xlink:href="#未命名漸層_110"/><clipPath id="clip-path-44" transform="translate(0 -19.7)"><rect class="cls-1" x="695.72" y="866.13" width="296.1" height="163.26"/></clipPath><clipPath id="clip-path-45" transform="translate(0 -19.7)"><path class="cls-1" d="M991.81,946.73c.65,45.08-65.13,82.09-146.89,82.65s-148.56-35.5-149.2-80.59,65.13-82.08,146.89-82.65,148.56,35.5,149.2,80.59"/></clipPath><radialGradient id="未命名漸層_109-11" cx="-7623.92" cy="7616.82" r="1" gradientTransform="matrix(148.03, -1.03, -1.17, -81.63, 1138319.51, 614800.07)" xlink:href="#未命名漸層_109"/><clipPath id="clip-path-46" transform="translate(0 -19.7)"><path class="cls-1" d="M833.34,832c-28.47,2-51.72,22.53-60.87,50.32A37.27,37.27,0,0,0,760,881.06c-22.66,1.6-39.66,23.25-38,48.37s21.45,44.16,44.12,42.55A38.23,38.23,0,0,0,788,963c14,16.23,34.15,25.77,55.84,24.24,19.63-1.39,36.8-11.61,48.55-26.92,8.17,9.09,19.7,14.39,32.1,13.52,20.52-1.46,36.41-19.34,38-41.36a21.42,21.42,0,0,0,3.93.08c13.21-.93,23.13-13.57,22.14-28.21s-12.5-25.76-25.72-24.83a23.31,23.31,0,0,0-18.16,11.51,41.55,41.55,0,0,0-7.42-4.54,39.81,39.81,0,0,0,0-4.63c-1.36-20.27-17.31-35.65-35.59-34.36A30.62,30.62,0,0,0,886.22,853c-12.78-13.17-29.86-21.17-48.33-21.17-1.51,0-3,.05-4.55.16"/></clipPath><radialGradient id="未命名漸層_110-11" cx="-7621.66" cy="7623.17" gradientTransform="matrix(269.71, 0, 0.04, -298.77, 2056263.08, 2278456.29)" xlink:href="#未命名漸層_110"/><clipPath id="clip-path-48" transform="translate(0 -19.7)"><rect class="cls-1" x="679.7" y="206.86" width="493.29" height="270.59"/></clipPath><clipPath id="clip-path-49" transform="translate(0 -19.7)"><path class="cls-1" d="M1172.84,357.94c-4.66,74.21-118.79,127.3-254.92,118.58S675.2,400.59,679.85,326.38,798.62,199.09,934.75,207.8s242.74,75.94,238.09,150.14"/></clipPath><radialGradient id="未命名漸層_109-12" cx="-7621.6" cy="7619.8" r="1" gradientTransform="matrix(246.47, 15.79, 8.41, -134.37, 1815393.69, 1144518.24)" xlink:href="#未命名漸層_109"/><clipPath id="clip-path-50" transform="translate(0 -19.7)"><path class="cls-1" d="M816,226.07a63.17,63.17,0,0,0-20.68-3.49c-37.91-.05-69,33.56-69.32,75s30.07,75.15,68,75.18a64.52,64.52,0,0,0,37.56-12.11c21.27,28.35,53.55,46.41,89.83,46.45,32.88,0,62.71-14.74,84.22-38.54,12.45,15.91,31,26,51.7,26,34.34,0,63-27.52,68.43-63.53a36.91,36.91,0,0,0,6.51.59c22.13,0,40.23-19.58,40.45-43.78s-17.55-43.83-39.66-43.86c-12.81,0-24.28,6.56-31.7,16.78a68.22,68.22,0,0,0-11.75-8.34,63.87,63.87,0,0,0,.5-7.62c.3-33.5-24.27-60.66-54.88-60.69a51.65,51.65,0,0,0-26.21,7.14c-21.19-25.09-51.52-40.78-85.34-40.82h-.1c-47.58,0-88.82,31-107.56,75.56"/></clipPath><radialGradient id="未命名漸層_110-12" cx="-7620.35" cy="7623.93" gradientTransform="matrix(450.05, 8.44, 11.7, -492.41, 3341346.04, 3818594.47)" xlink:href="#未命名漸層_110"/><clipPath id="clip-path-52" transform="translate(0 -19.7)"><rect class="cls-1" x="556.2" y="781.94" width="216.75" height="114.63"/></clipPath><clipPath id="clip-path-53" transform="translate(0 -19.7)"><path class="cls-1" d="M772.88,845.94c-2,31.44-52.19,53.93-112,50.23S554.22,864,556.26,832.57s52.19-53.92,112-50.23,106.66,32.17,104.61,63.6"/></clipPath><radialGradient id="未命名漸層_109-13" cx="-7625.3" cy="7612.23" r="1" gradientTransform="matrix(108.3, 6.69, 3.69, -56.92, 798381.78, 485119.64)" xlink:href="#未命名漸層_109"/><clipPath id="clip-path-54" transform="translate(0 -19.7)"><path class="cls-1" d="M616.08,790.08A28.47,28.47,0,0,0,607,788.6c-16.66,0-30.3,14.22-30.46,31.79s13.21,31.84,29.87,31.85a29.08,29.08,0,0,0,16.51-5.13,50,50,0,0,0,39.47,19.68,50.56,50.56,0,0,0,37-16.33,29.26,29.26,0,0,0,22.72,11c15.09,0,27.69-11.66,30.07-26.91a16.81,16.81,0,0,0,2.86.25c9.72,0,17.67-8.3,17.77-18.55s-7.71-18.57-17.43-18.58a17.45,17.45,0,0,0-13.93,7.11,29.26,29.26,0,0,0-5.16-3.53,26.54,26.54,0,0,0,.22-3.23c.13-14.19-10.67-25.7-24.11-25.71a23.24,23.24,0,0,0-11.52,3,49.8,49.8,0,0,0-37.5-17.29h0c-20.91,0-39,13.13-47.27,32"/></clipPath><radialGradient id="未命名漸層_110-13" cx="-7622.47" cy="7621.95" gradientTransform="matrix(197.76, 3.57, 5.14, -208.6, 1468895.22, 1617917.58)" xlink:href="#未命名漸層_110"/><clipPath id="clip-path-56" transform="translate(0 -19.7)"><rect class="cls-1" x="470.95" y="708.24" width="266.09" height="140.72"/></clipPath><clipPath id="clip-path-57" transform="translate(0 -19.7)"><path class="cls-1" d="M737,786.81c-2.51,38.59-64.08,66.2-137.51,61.66S468.53,809,471,770.4s64.07-66.2,137.5-61.67S739.47,748.22,737,786.81"/></clipPath><radialGradient id="未命名漸層_109-14" cx="-7624.08" cy="7614.67" r="1" gradientTransform="matrix(132.95, 8.21, 4.54, -69.88, 979703.43, 595443.7)" xlink:href="#未命名漸層_109"/><clipPath id="clip-path-58" transform="translate(0 -19.7)"><path class="cls-1" d="M544.47,718.23a35.5,35.5,0,0,0-11.15-1.82c-20.45,0-37.2,17.46-37.4,39s16.22,39.09,36.68,39.1a35.68,35.68,0,0,0,20.26-6.29c11.48,14.74,28.89,24.13,48.46,24.15a62.08,62.08,0,0,0,45.43-20,35.88,35.88,0,0,0,27.89,13.53c18.52,0,34-14.3,36.91-33a20.45,20.45,0,0,0,3.51.3c11.94,0,21.7-10.18,21.82-22.76s-9.47-22.8-21.4-22.81a21.37,21.37,0,0,0-17.09,8.73,36.49,36.49,0,0,0-6.34-4.34,32.4,32.4,0,0,0,.27-4c.16-17.42-13.1-31.54-29.6-31.56a28.75,28.75,0,0,0-14.14,3.71,61.12,61.12,0,0,0-46-21.22h0c-25.67,0-47.91,16.12-58,39.29"/></clipPath><radialGradient id="未命名漸層_110-14" cx="-7621.77" cy="7622.59" gradientTransform="matrix(242.76, 4.39, 6.31, -256.07, 1802822.3, 1986060.58)" xlink:href="#未命名漸層_110"/><clipPath id="clip-path-60" transform="translate(0 -19.7)"><rect class="cls-1" x="478.75" y="632.96" width="97.62" height="51.62"/></clipPath><clipPath id="clip-path-61" transform="translate(0 -19.7)"><path class="cls-1" d="M576.34,661.78c-.93,14.15-23.51,24.28-50.45,22.62s-48-14.49-47.11-28.64,23.5-24.29,50.44-22.63,48,14.49,47.12,28.65"/></clipPath><radialGradient id="未命名漸層_109-15" cx="-7633.37" cy="7596.16" r="1" gradientTransform="matrix(48.77, 3.01, 1.66, -25.63, 360193.83, 218352.26)" xlink:href="#未命名漸層_109"/><clipPath id="clip-path-62" transform="translate(0 -19.7)"><path class="cls-1" d="M505.72,636.62a12.89,12.89,0,0,0-4.09-.67c-7.5,0-13.64,6.41-13.72,14.32s5.95,14.34,13.46,14.34a13,13,0,0,0,7.43-2.31,22.52,22.52,0,0,0,17.78,8.87,22.75,22.75,0,0,0,16.66-7.36,13.19,13.19,0,0,0,10.23,5c6.8,0,12.48-5.25,13.55-12.12a7.71,7.71,0,0,0,1.28.11,8.23,8.23,0,0,0,8-8.35,8.08,8.08,0,0,0-7.85-8.37,7.86,7.86,0,0,0-6.28,3.2,13.23,13.23,0,0,0-2.32-1.59,11.51,11.51,0,0,0,.1-1.45c.06-6.39-4.81-11.57-10.86-11.58a10.57,10.57,0,0,0-5.19,1.36A22.43,22.43,0,0,0,527,622.2a23.44,23.44,0,0,0-21.3,14.42"/></clipPath><radialGradient id="未命名漸層_110-15" cx="-7627.08" cy="7617.74" gradientTransform="matrix(89.06, 1.61, 2.31, -93.94, 662154.39, 728499.16)" xlink:href="#未命名漸層_110"/><clipPath id="clip-path-64" transform="translate(0 -19.7)"><rect class="cls-1" x="720.37" y="464.42" width="144" height="76.16"/></clipPath><clipPath id="clip-path-65" transform="translate(0 -19.7)"><path class="cls-1" d="M864.32,506.94c-1.36,20.89-34.67,35.83-74.41,33.37s-70.86-21.37-69.5-42.25,34.67-35.82,74.41-33.37,70.86,21.37,69.5,42.25"/></clipPath><radialGradient id="未命名漸層_109-16" cx="-7628.64" cy="7605.58" r="1" gradientTransform="matrix(71.95, 4.44, 2.45, -37.82, 531012.3, 321990.69)" xlink:href="#未命名漸層_109"/><clipPath id="clip-path-66" transform="translate(0 -19.7)"><path class="cls-1" d="M760.15,469.83a18.86,18.86,0,0,0-6-1c-11.07,0-20.14,9.44-20.24,21.12s8.78,21.15,19.85,21.16a19.35,19.35,0,0,0,11-3.41,33.19,33.19,0,0,0,26.23,13.07,33.54,33.54,0,0,0,24.58-10.85,19.44,19.44,0,0,0,15.1,7.33c10,0,18.39-7.74,20-17.88a10.83,10.83,0,0,0,1.9.17c6.46,0,11.75-5.51,11.81-12.32s-5.12-12.34-11.58-12.35a11.57,11.57,0,0,0-9.25,4.73,20,20,0,0,0-3.43-2.35,16.88,16.88,0,0,0,.14-2.15c.09-9.42-7.08-17.07-16-17.08a15.59,15.59,0,0,0-7.65,2,33.06,33.06,0,0,0-24.91-11.48c-13.9,0-26,8.71-31.43,21.26"/></clipPath><radialGradient id="未命名漸層_110-16" cx="-7624.38" cy="7620.21" gradientTransform="matrix(131.38, 2.37, 3.41, -138.58, 976467.53, 1074564.56)" xlink:href="#未命名漸層_110"/><clipPath id="clip-path-68" transform="translate(0 -19.7)"><rect class="cls-1" x="1475.83" y="341.16" width="81.25" height="42.97"/></clipPath><clipPath id="clip-path-69" transform="translate(0 -19.7)"><path class="cls-1" d="M1557.06,365.15c-.77,11.78-19.57,20.21-42,18.83s-40-12.06-39.22-23.84,19.57-20.21,42-18.83,40,12.06,39.22,23.84"/></clipPath><radialGradient id="未命名漸層_109-17" cx="-7636.33" cy="7590.27" r="1" gradientTransform="matrix(40.6, 2.51, 1.38, -21.34, 301025.78, 181446.13)" xlink:href="#未命名漸層_109"/><clipPath id="clip-path-70" transform="translate(0 -19.7)"><path class="cls-1" d="M1498.28,344.21a11,11,0,0,0-3.41-.56c-6.24,0-11.36,5.33-11.42,11.92s5,11.94,11.2,11.94a10.9,10.9,0,0,0,6.19-1.92,18.71,18.71,0,0,0,14.8,7.37,19,19,0,0,0,13.87-6.11A11,11,0,0,0,1538,371a11.65,11.65,0,0,0,11.27-10.09,6.26,6.26,0,0,0,1.07.09,6.84,6.84,0,0,0,6.66-7,6.71,6.71,0,0,0-6.53-7,6.51,6.51,0,0,0-5.22,2.66,11.06,11.06,0,0,0-1.94-1.32,9.71,9.71,0,0,0,.08-1.21,9.29,9.29,0,0,0-9-9.64,8.83,8.83,0,0,0-4.32,1.13,18.69,18.69,0,0,0-14.06-6.48,19.52,19.52,0,0,0-17.73,12"/></clipPath><radialGradient id="未命名漸層_110-17" cx="-7628.77" cy="7616.2" gradientTransform="matrix(74.13, 1.34, 1.93, -78.19, 552373.5, 606085.22)" xlink:href="#未命名漸層_110"/><clipPath id="clip-path-72" transform="translate(0 -19.7)"><rect class="cls-1" x="1258.92" y="901.47" width="81.25" height="42.97"/></clipPath><clipPath id="clip-path-73" transform="translate(0 -19.7)"><path class="cls-1" d="M1340.15,925.46c-.77,11.78-19.57,20.21-42,18.83s-40-12.06-39.22-23.84,19.57-20.22,42-18.83,40,12,39.22,23.84"/></clipPath><radialGradient id="未命名漸層_109-18" cx="-7636.33" cy="7590.27" r="1" gradientTransform="matrix(40.6, 2.51, 1.38, -21.34, 300808.87, 182006.44)" xlink:href="#未命名漸層_109"/><clipPath id="clip-path-74" transform="translate(0 -19.7)"><path class="cls-1" d="M1281.37,904.52A10.74,10.74,0,0,0,1278,904c-6.24,0-11.36,5.33-11.42,11.92s5,11.93,11.2,11.94a11,11,0,0,0,6.19-1.92,18.71,18.71,0,0,0,14.8,7.37,19,19,0,0,0,13.87-6.12,10.93,10.93,0,0,0,8.52,4.13,11.64,11.64,0,0,0,11.27-10.08,6.26,6.26,0,0,0,1.07.09,6.85,6.85,0,0,0,6.66-6.95,6.73,6.73,0,0,0-6.53-7,6.55,6.55,0,0,0-5.22,2.67,11.69,11.69,0,0,0-1.94-1.33,9.58,9.58,0,0,0,.08-1.21,9.28,9.28,0,0,0-9-9.63,8.62,8.62,0,0,0-4.32,1.13,18.69,18.69,0,0,0-14.06-6.48,19.49,19.49,0,0,0-17.73,12"/></clipPath><radialGradient id="未命名漸層_110-18" cx="-7628.77" cy="7616.2" gradientTransform="matrix(74.13, 1.34, 1.93, -78.19, 552156.59, 606645.53)" xlink:href="#未命名漸層_110"/><clipPath id="clip-path-76" transform="translate(0 -19.7)"><rect class="cls-1" x="1688.11" y="514.23" width="128.8" height="68.14"/></clipPath><clipPath id="clip-path-77" transform="translate(0 -19.7)"><path class="cls-1" d="M1816.9,552.27c-1.22,18.69-31,32.06-66.58,29.86s-63.4-19.12-62.18-37.8,31-32.06,66.57-29.86,63.4,19.12,62.19,37.8"/></clipPath><radialGradient id="未命名漸層_109-19" cx="-7629.81" cy="7603.24" r="1" gradientTransform="matrix(64.38, 3.98, 2.2, -33.84, 476240.3, 288119.31)" xlink:href="#未命名漸層_109"/><clipPath id="clip-path-78" transform="translate(0 -19.7)"><path class="cls-1" d="M1723.69,519.07a16.93,16.93,0,0,0-5.4-.88c-9.9,0-18,8.45-18.1,18.9S1708,556,1718,556a17.27,17.27,0,0,0,9.81-3,29.69,29.69,0,0,0,23.46,11.69,30.06,30.06,0,0,0,22-9.7,17.33,17.33,0,0,0,13.5,6.55c9,0,16.47-6.92,17.88-16a10.54,10.54,0,0,0,1.7.15c5.78,0,10.5-4.93,10.56-11a10.65,10.65,0,0,0-10.36-11,10.39,10.39,0,0,0-8.28,4.22,17.54,17.54,0,0,0-3.07-2.1,15.22,15.22,0,0,0,.14-1.92c.07-8.43-6.34-15.27-14.34-15.28a13.88,13.88,0,0,0-6.84,1.8,29.59,29.59,0,0,0-22.3-10.28h0c-12.43,0-23.2,7.81-28.1,19"/></clipPath><radialGradient id="未命名漸層_110-19" cx="-7625.05" cy="7619.6" gradientTransform="matrix(117.55, 2.12, 3.06, -123.99, 874805.64, 961474.95)" xlink:href="#未命名漸層_110"/><clipPath id="clip-path-80" transform="translate(0 -19.7)"><rect class="cls-1" x="1704.81" y="336.88" width="128.8" height="68.14"/></clipPath><clipPath id="clip-path-81" transform="translate(0 -19.7)"><path class="cls-1" d="M1833.58,374.92c-1.22,18.69-31,32.06-66.59,29.86s-63.39-19.11-62.18-37.8,31-32.05,66.58-29.86,63.4,19.12,62.19,37.8"/></clipPath><radialGradient id="未命名漸層_109-20" cx="-7629.81" cy="7603.24" r="1" gradientTransform="matrix(64.38, 3.98, 2.2, -33.84, 476256.97, 287941.96)" xlink:href="#未命名漸層_109"/><clipPath id="clip-path-82" transform="translate(0 -19.7)"><path class="cls-1" d="M1740.37,341.72a17,17,0,0,0-5.4-.88c-9.91,0-18,8.45-18.11,18.9s7.86,18.92,17.76,18.93a17.27,17.27,0,0,0,9.81-3.05,29.72,29.72,0,0,0,23.47,11.7,30.09,30.09,0,0,0,22-9.71,17.35,17.35,0,0,0,13.5,6.56c9,0,16.46-6.93,17.87-16a9.6,9.6,0,0,0,1.7.15c5.78,0,10.51-4.93,10.57-11a10.66,10.66,0,0,0-10.36-11,10.36,10.36,0,0,0-8.28,4.23,18.38,18.38,0,0,0-3.07-2.11,14.94,14.94,0,0,0,.13-1.91c.08-8.44-6.34-15.28-14.33-15.29a13.89,13.89,0,0,0-6.85,1.8,29.59,29.59,0,0,0-22.29-10.28h0c-12.43,0-23.2,7.81-28.09,19"/></clipPath><radialGradient id="未命名漸層_110-20" cx="-7625.05" cy="7619.6" gradientTransform="matrix(117.55, 2.12, 3.06, -123.99, 874822.32, 961297.61)" xlink:href="#未命名漸層_110"/><clipPath id="clip-path-84" transform="translate(0 -19.7)"><rect class="cls-1" x="845.8" y="657.13" width="377.61" height="208.2"/></clipPath><clipPath id="clip-path-85" transform="translate(0 -19.7)"><path class="cls-1" d="M1223.4,759.92c.82,57.49-83.06,104.68-187.32,105.4S846.62,820,845.8,762.55s83.06-104.68,187.32-105.41,189.46,45.28,190.28,102.78"/></clipPath><radialGradient id="未命名漸層_109-21" cx="-7622.79" cy="7618.67" r="1" gradientTransform="matrix(188.78, -1.32, -1.49, -104.1, 1451421.5, 783792.92)" xlink:href="#未命名漸層_109"/><clipPath id="clip-path-86" transform="translate(0 -19.7)"><path class="cls-1" d="M1021.3,613.56c-36.3,2.57-65.95,28.74-77.62,64.18a47.66,47.66,0,0,0-16-1.57c-28.9,2-50.57,29.65-48.44,61.68s27.36,56.32,56.27,54.27a48.75,48.75,0,0,0,27.91-11.4c17.88,20.7,43.55,32.87,71.21,30.9,25-1.76,46.93-14.79,61.91-34.32,10.42,11.59,25.12,18.36,40.94,17.24,26.17-1.86,46.44-24.67,48.42-52.74a27.92,27.92,0,0,0,5,.1c16.84-1.19,29.5-17.31,28.23-36s-15.94-32.85-32.8-31.66c-9.76.7-18.13,6.38-23.17,14.68a52.13,52.13,0,0,0-9.46-5.79,46.7,46.7,0,0,0,0-5.91c-1.74-25.85-22.07-45.47-45.39-43.81a39.07,39.07,0,0,0-19.57,6.93c-16.3-16.8-38.08-27-61.64-27-1.92,0-3.85.06-5.8.2"/></clipPath><radialGradient id="未命名漸層_110-21" cx="-7621.02" cy="7623.65" gradientTransform="matrix(343.96, 0, 0.05, -381.02, 2622042.48, 2905401.57)" xlink:href="#未命名漸層_110"/><clipPath id="clip-path-88" transform="translate(0 -19.7)"><rect class="cls-1" x="1107.05" y="454.64" width="537.96" height="327.65"/></clipPath><clipPath id="clip-path-89" transform="translate(0 -19.7)"><path class="cls-1" d="M1645,616.4c1.17,90.48-118.33,164.75-266.86,165.88S1108.23,711,1107.06,620.54s118.33-164.73,266.86-165.89S1643.82,525.91,1645,616.4"/></clipPath><radialGradient id="未命名漸層_109-22" cx="-7621.57" cy="7621.13" r="1" gradientTransform="matrix(268.94, -2.08, -2.12, -163.83, 2067261.65, 1233324.6)" xlink:href="#未命名漸層_109"/><clipPath id="clip-path-90" transform="translate(0 -19.7)"><path class="cls-1" d="M1357.08,386.07c-51.71,4.05-93.95,45.23-110.58,101a61.33,61.33,0,0,0-22.74-2.46c-41.18,3.2-72.06,46.65-69,97.06s39,88.63,80.15,85.41c15-1.17,28.65-7.7,39.76-17.94,25.47,32.57,62,51.72,101.45,48.63,35.66-2.77,66.86-23.29,88.19-54,14.86,18.25,35.8,28.9,58.33,27.14,37.29-2.94,66.15-38.82,69-83a37,37,0,0,0,7.15.16c24-1.88,42-27.24,40.21-56.63s-22.7-51.7-46.72-49.82c-13.9,1.09-25.83,10-33,23.09a74,74,0,0,0-13.48-9.1,80.29,80.29,0,0,0-.08-9.3c-2.47-40.68-31.44-71.55-64.66-69a52.28,52.28,0,0,0-27.87,10.93c-23.22-26.45-54.25-42.51-87.82-42.51q-4.11,0-8.26.32"/></clipPath><radialGradient id="未命名漸層_110-22" cx="-7620.32" cy="7624.29" gradientTransform="matrix(489.32, -28.5, -28.51, -598.8, 3947584.51, 4348675.17)" xlink:href="#未命名漸層_110"/><clipPath id="clip-path-92" transform="translate(0 -19.7)"><rect class="cls-1" x="1531.31" y="251.72" width="326.2" height="179.87"/></clipPath><clipPath id="clip-path-93" transform="translate(0 -19.7)"><path class="cls-1" d="M1857.54,340.52c.71,49.67-71.75,90.45-161.83,91.07S1532,392.47,1531.32,342.8s71.76-90.44,161.83-91.07,163.69,39.12,164.39,88.79"/></clipPath><radialGradient id="未命名漸層_109-23" cx="-7623.44" cy="7617.61" r="1" gradientTransform="matrix(163.1, -1.14, -1.29, -89.94, 1254858.74, 676742.45)" xlink:href="#未命名漸層_109"/><clipPath id="clip-path-94" transform="translate(0 -19.7)"><path class="cls-1" d="M1682.94,214.08c-31.36,2.22-57,24.83-67.06,55.44a41.11,41.11,0,0,0-13.79-1.35c-25,1.76-43.7,25.62-41.85,53.29s23.64,48.65,48.61,46.88A42.14,42.14,0,0,0,1633,358.5c15.44,17.88,37.63,28.39,61.52,26.7,21.63-1.53,40.55-12.79,53.49-29.66,9,10,21.7,15.86,35.37,14.9,22.61-1.61,40.12-21.32,41.83-45.57a24.1,24.1,0,0,0,4.34.09c14.54-1,25.48-15,24.39-31.09s-13.77-28.38-28.34-27.35a25.64,25.64,0,0,0-20,12.68,45.13,45.13,0,0,0-8.18-5,39.51,39.51,0,0,0,0-5.1c-1.5-22.34-19.07-39.29-39.22-37.86a33.65,33.65,0,0,0-16.9,6c-14.08-14.52-32.9-23.34-53.26-23.34q-2.49,0-5,.18"/></clipPath><radialGradient id="未命名漸層_110-23" cx="-7621.38" cy="7623.38" gradientTransform="matrix(297.16, 0, 0.04, -329.18, 2266223.39, 2509709.58)" xlink:href="#未命名漸層_110"/><clipPath id="clip-path-96" transform="translate(0 -19.7)"><rect class="cls-1" x="1705.41" y="795.43" width="296.1" height="163.26"/></clipPath><clipPath id="clip-path-97" transform="translate(0 -19.7)"><path class="cls-1" d="M2001.54,876c.65,45.08-65.12,82.08-146.88,82.65s-148.57-35.51-149.21-80.59,65.13-82.08,146.89-82.65,148.56,35.5,149.2,80.59"/></clipPath><radialGradient id="未命名漸層_109-24" cx="-7623.92" cy="7616.82" r="1" gradientTransform="matrix(148.03, -1.03, -1.17, -81.63, 1139329.25, 614729.37)" xlink:href="#未命名漸層_109"/><clipPath id="clip-path-98" transform="translate(0 -19.7)"><path class="cls-1" d="M1843.07,761.26c-28.46,2-51.71,22.54-60.86,50.32a37.58,37.58,0,0,0-12.53-1.22c-22.66,1.6-39.66,23.25-38,48.37s21.45,44.16,44.12,42.55a38.23,38.23,0,0,0,21.88-8.94c14,16.23,34.16,25.77,55.85,24.23,19.63-1.38,36.8-11.6,48.54-26.92,8.17,9.1,19.7,14.4,32.11,13.53,20.52-1.46,36.41-19.35,38-41.36a21.38,21.38,0,0,0,3.93.08c13.2-.93,23.13-13.57,22.14-28.22s-12.5-25.76-25.72-24.82a23.28,23.28,0,0,0-18.17,11.51,41.2,41.2,0,0,0-7.42-4.54,35.82,35.82,0,0,0,0-4.63c-1.36-20.27-17.31-35.66-35.59-34.36a30.62,30.62,0,0,0-15.35,5.44c-12.78-13.17-29.86-21.18-48.33-21.18-1.51,0-3,.06-4.55.16"/></clipPath><radialGradient id="未命名漸層_110-24" cx="-7621.66" cy="7623.17" gradientTransform="matrix(269.71, 0, 0.04, -298.77, 2057273.66, 2278384.83)" xlink:href="#未命名漸層_110"/><clipPath id="clip-path-100" transform="translate(0 -19.7)"><rect class="cls-1" x="1349.76" y="782.93" width="296.05" height="163.26"/></clipPath><clipPath id="clip-path-101" transform="translate(0 -19.7)"><path class="cls-1" d="M1645.85,863.53c.65,45.08-65.13,82.08-146.89,82.65s-148.56-35.51-149.2-80.59,65.13-82.08,146.89-82.65,148.56,35.5,149.2,80.59"/></clipPath><radialGradient id="未命名漸層_109-25" cx="-7623.92" cy="7616.82" r="1" gradientTransform="matrix(148.03, -1.03, -1.17, -81.63, 1138973.55, 614716.87)" xlink:href="#未命名漸層_109"/><clipPath id="clip-path-102" transform="translate(0 -19.7)"><path class="cls-1" d="M1487.38,748.76c-28.47,2-51.71,22.54-60.87,50.33a37,37,0,0,0-12.52-1.23c-22.66,1.6-39.66,23.25-38,48.37s21.46,44.15,44.13,42.55a38.23,38.23,0,0,0,21.88-8.94c14,16.23,34.15,25.77,55.84,24.23,19.63-1.38,36.8-11.6,48.54-26.92,8.18,9.1,19.71,14.4,32.11,13.53,20.52-1.46,36.41-19.35,38-41.36a21.42,21.42,0,0,0,3.93.08c13.21-.94,23.14-13.57,22.14-28.22s-12.5-25.75-25.72-24.82a23.28,23.28,0,0,0-18.16,11.51,41.55,41.55,0,0,0-7.42-4.54,39.79,39.79,0,0,0,0-4.63c-1.37-20.27-17.31-35.66-35.59-34.36a30.62,30.62,0,0,0-15.35,5.44c-12.78-13.18-29.86-21.18-48.33-21.18-1.51,0-3,.06-4.55.16"/></clipPath><radialGradient id="未命名漸層_110-25" cx="-7621.66" cy="7623.17" gradientTransform="matrix(269.71, 0, 0.04, -298.77, 2056918.39, 2278371.95)" xlink:href="#未命名漸層_110"/><clipPath id="clip-path-104" transform="translate(0 -19.7)"><rect class="cls-1" x="1599.54" y="671.97" width="162.17" height="89.42"/></clipPath><clipPath id="clip-path-105" transform="translate(0 -19.7)"><path class="cls-1" d="M1761.71,716.12c.35,24.69-35.67,45-80.45,45.27s-81.37-19.45-81.72-44.14,35.67-45,80.45-45.27,81.37,19.44,81.72,44.14"/></clipPath><radialGradient id="未命名漸層_109-26" cx="-7628.25" cy="7609.74" r="1" gradientTransform="matrix(81.08, -0.57, -0.64, -44.71, 625028.86, 336599.38)" xlink:href="#未命名漸層_109"/><clipPath id="clip-path-106" transform="translate(0 -19.7)"><path class="cls-1" d="M1674.91,653.26c-15.59,1.1-28.32,12.34-33.33,27.56a20.35,20.35,0,0,0-6.86-.67c-12.42.87-21.72,12.73-20.8,26.49s11.75,24.19,24.16,23.31a20.88,20.88,0,0,0,12-4.9c7.68,8.89,18.71,14.12,30.59,13.27a36.77,36.77,0,0,0,26.59-14.74,21.58,21.58,0,0,0,17.58,7.41c11.24-.8,19.94-10.6,20.8-22.66a11.82,11.82,0,0,0,2.15,0c7.23-.51,12.67-7.43,12.13-15.45s-6.85-14.11-14.09-13.6a12.76,12.76,0,0,0-10,6.3,21.71,21.71,0,0,0-4.07-2.48,18,18,0,0,0,0-2.54c-.74-11.1-9.48-19.53-19.49-18.82a16.79,16.79,0,0,0-8.4,3,36.89,36.89,0,0,0-26.48-11.6q-1.23,0-2.49.09"/></clipPath><radialGradient id="未命名漸層_110-26" cx="-7624.11" cy="7621.34" gradientTransform="matrix(147.72, 0, 0.02, -163.64, 1127806.81, 1247822.95)" xlink:href="#未命名漸層_110"/><clipPath id="clip-path-108" transform="translate(0 -19.7)"><rect class="cls-1" x="1578.45" y="642.78" width="162.16" height="89.41"/></clipPath><clipPath id="clip-path-109" transform="translate(0 -19.7)"><path class="cls-1" d="M1740.63,686.92c.35,24.69-35.67,45-80.45,45.27s-81.37-19.45-81.72-44.14,35.67-44.95,80.45-45.27,81.37,19.45,81.72,44.14"/></clipPath><radialGradient id="未命名漸層_109-27" cx="-7628.25" cy="7609.74" r="1" gradientTransform="matrix(81.08, -0.57, -0.64, -44.71, 625007.78, 336570.19)" xlink:href="#未命名漸層_109"/><clipPath id="clip-path-110" transform="translate(0 -19.7)"><path class="cls-1" d="M1653.83,624.06c-15.59,1.11-28.32,12.35-33.33,27.57a20.63,20.63,0,0,0-6.86-.68c-12.42.88-21.73,12.74-20.81,26.5s11.75,24.18,24.17,23.3a20.93,20.93,0,0,0,12-4.89c7.68,8.89,18.71,14.11,30.59,13.27a36.84,36.84,0,0,0,26.59-14.74,21.55,21.55,0,0,0,17.58,7.4c11.24-.8,19.94-10.59,20.8-22.65a11.8,11.8,0,0,0,2.15.05c7.23-.52,12.67-7.44,12.12-15.46s-6.84-14.11-14.08-13.59a12.73,12.73,0,0,0-10,6.3,22.64,22.64,0,0,0-4.07-2.49,17.83,17.83,0,0,0,0-2.53c-.74-11.11-9.48-19.53-19.49-18.82a16.76,16.76,0,0,0-8.41,3,36.87,36.87,0,0,0-26.47-11.6c-.82,0-1.65,0-2.49.08"/></clipPath><radialGradient id="未命名漸層_110-27" cx="-7624.11" cy="7621.34" gradientTransform="matrix(147.72, 0, 0.02, -163.64, 1127786.58, 1247792.99)" xlink:href="#未命名漸層_110"/></defs><title>資產 7</title><g class="cls-2"><g id="圖層_2" data-name="圖層 2"><g id="圖層_1-2" data-name="圖層 1"><g class="cls-3"><g class="cls-4"><rect class="cls-5" y="28.06" width="2280" height="1080"/></g></g><g class="cls-6"><g class="cls-7"><g class="cls-8"><g class="cls-9"><g class="cls-10"><g class="cls-11"><polygon class="cls-12" points="464.45 175.94 687.44 174.38 689.21 298.24 466.22 299.79 464.45 175.94"/></g></g></g></g><g class="cls-13"><rect class="cls-14" x="482.02" y="165.32" width="206.17" height="127.21" transform="translate(-11.24 11.42) rotate(-3.02)"/></g><g class="cls-8"><g class="cls-9"><g class="cls-15"><g class="cls-16"><polygon class="cls-17" points="877.82 431.88 1113.33 430.23 1115.2 561.04 879.69 562.69 877.82 431.88"/></g></g></g></g><g class="cls-18"><rect class="cls-19" x="896.37" y="419.56" width="217.75" height="134.35" transform="translate(-24.23 33.89) rotate(-3.02)"/></g><g class="cls-8"><g class="cls-9"><g class="cls-20"><g class="cls-21"><polygon class="cls-22" points="1647.84 315.16 1883.35 313.52 1885.22 444.33 1649.71 445.97 1647.84 315.16"/></g></g></g></g><g class="cls-23"><rect class="cls-24" x="1666.4" y="302.84" width="217.75" height="134.35" transform="translate(-17.02 74.27) rotate(-3.02)"/></g><g class="cls-8"><g class="cls-9"><g class="cls-25"><g class="cls-26"><polygon class="cls-27" points="970.46 47.27 1564.69 43.12 1569.41 373.17 975.18 377.32 970.46 47.27"/></g></g></g></g><g class="cls-28"><rect class="cls-29" x="1018.53" y="33.9" width="546.9" height="291.3" transform="translate(-7.66 48.56) rotate(-3.02)"/></g><g class="cls-8"><g class="cls-9"><g class="cls-30"><g class="cls-31"><polygon class="cls-32" points="661.13 290.12 960.81 288.03 963.19 454.48 663.51 456.58 661.13 290.12"/></g></g></g></g><g class="cls-33"><rect class="cls-34" x="684.74" y="269.07" width="277.08" height="170.96" transform="translate(-17.52 24.13) rotate(-3.02)"/></g><g class="cls-8"><g class="cls-9"><g class="cls-35"><g class="cls-36"><polygon class="cls-37" points="649 573.58 948.69 571.48 951.07 737.93 651.38 740.03 649 573.58"/></g></g></g></g><g class="cls-38"><rect class="cls-39" x="672.61" y="552.52" width="277.08" height="170.96" transform="matrix(1, -0.05, 0.05, 1, -32.46, 23.88)"/></g><g class="cls-8"><g class="cls-9"><g class="cls-40"><g class="cls-41"><polygon class="cls-42" points="848.99 501.29 1148.67 499.19 1151.06 665.65 851.37 667.74 848.99 501.29"/></g></g></g></g><g class="cls-43"><rect class="cls-44" x="872.6" y="480.24" width="277.08" height="170.97" transform="translate(-28.38 34.31) rotate(-3.02)"/></g><g class="cls-8"><g class="cls-9"><g class="cls-45"><g class="cls-46"><polygon class="cls-47" points="1100.78 303.35 1400.46 301.26 1402.84 467.71 1103.16 469.81 1100.78 303.35"/></g></g></g></g><g class="cls-48"><rect class="cls-49" x="1124.39" y="282.31" width="277.08" height="170.96" transform="translate(-17.61 47.29) rotate(-3.02)"/></g><g class="cls-8"><g class="cls-9"><g class="cls-50"><g class="cls-51"><polygon class="cls-52" points="1099.26 667.15 1398.94 665.05 1401.32 831.5 1101.64 833.6 1099.26 667.15"/></g></g></g></g><g class="cls-53"><rect class="cls-54" x="1122.87" y="646.09" width="277.08" height="170.96" transform="matrix(1, -0.05, 0.05, 1, -36.76, 47.72)"/></g><g class="cls-8"><g class="cls-9"><g class="cls-55"><g class="cls-56"><polygon class="cls-57" points="333.33 345.62 705.86 368.62 691.59 588.39 319.07 565.39 333.33 345.62"/></g></g></g></g><g class="cls-58"><polygon class="cls-59" points="368.28 328.35 694.13 334.23 689.6 517.88 363.76 511.99 368.28 328.35"/></g><g class="cls-8"><g class="cls-9"><g class="cls-60"><g class="cls-61"><polygon class="cls-62" points="692.75 845.88 992.43 843.78 994.81 1010.24 695.13 1012.33 692.75 845.88"/></g></g></g></g><g class="cls-63"><rect class="cls-64" x="716.35" y="824.83" width="277.08" height="170.96" transform="translate(-46.74 26.56) rotate(-3.02)"/></g><g class="cls-8"><g class="cls-9"><g class="cls-65"><g class="cls-66"><polygon class="cls-67" points="677.21 147.35 1195.32 180.53 1175.48 497.58 657.37 464.39 677.21 147.35"/></g></g></g></g><g class="cls-68"><polygon class="cls-69" points="725.82 122.42 1179 130.92 1172.71 395.85 719.53 387.36 725.82 122.42"/></g><g class="cls-8"><g class="cls-9"><g class="cls-70"><g class="cls-71"><polygon class="cls-72" points="555.1 745.37 782.76 759.43 774.04 893.74 546.38 879.68 555.1 745.37"/></g></g></g></g><g class="cls-73"><polygon class="cls-74" points="576.46 734.82 775.59 738.41 772.83 850.65 573.7 847.05 576.46 734.82"/></g><g class="cls-8"><g class="cls-9"><g class="cls-75"><g class="cls-76"><polygon class="cls-77" points="469.61 667.84 749.08 685.09 738.38 849.97 458.91 832.71 469.61 667.84"/></g></g></g></g><g class="cls-78"><polygon class="cls-79" points="495.83 654.88 740.28 659.29 736.89 797.07 492.44 792.65 495.83 654.88"/></g><g class="cls-8"><g class="cls-9"><g class="cls-80"><g class="cls-81"><polygon class="cls-82" points="478.26 605.66 580.78 611.99 576.86 672.47 474.33 666.14 478.26 605.66"/></g></g></g></g><g class="cls-83"><polygon class="cls-84" points="487.88 600.89 577.56 602.51 576.31 653.07 486.63 651.45 487.88 600.89"/></g><g class="cls-8"><g class="cls-9"><g class="cls-85"><g class="cls-86"><polygon class="cls-87" points="719.64 433.52 870.88 442.86 865.09 532.08 713.85 522.74 719.64 433.52"/></g></g></g></g><g class="cls-88"><polygon class="cls-89" points="733.83 426.49 866.12 428.88 864.28 503.45 731.99 501.06 733.83 426.49"/></g><g class="cls-8"><g class="cls-9"><g class="cls-90"><g class="cls-91"><polygon class="cls-92" points="1475.42 315.13 1560.76 320.4 1557.49 370.75 1472.15 365.48 1475.42 315.13"/></g></g></g></g><g class="cls-93"><polygon class="cls-94" points="1483.42 311.17 1558.07 312.52 1557.03 354.6 1482.39 353.25 1483.42 311.17"/></g><g class="cls-8"><g class="cls-9"><g class="cls-95"><g class="cls-96"><polygon class="cls-97" points="1258.51 875.44 1343.85 880.71 1340.58 931.06 1255.24 925.79 1258.51 875.44"/></g></g></g></g><g class="cls-98"><polygon class="cls-99" points="1266.51 871.48 1341.16 872.83 1340.12 914.9 1265.48 913.55 1266.51 871.48"/></g><g class="cls-8"><g class="cls-9"><g class="cls-100"><g class="cls-101"><polygon class="cls-102" points="1687.44 484.5 1822.77 492.86 1817.59 572.69 1682.26 564.34 1687.44 484.5"/></g></g></g></g><g class="cls-103"><polygon class="cls-104" points="1700.14 478.23 1818.51 480.37 1816.87 547.08 1698.5 544.94 1700.14 478.23"/></g><g class="cls-8"><g class="cls-9"><g class="cls-105"><g class="cls-106"><polygon class="cls-107" points="1704.12 307.15 1839.44 315.51 1834.26 395.35 1698.94 386.99 1704.12 307.15"/></g></g></g></g><g class="cls-108"><polygon class="cls-109" points="1716.82 300.88 1835.18 303.02 1833.54 369.73 1715.17 367.59 1716.82 300.88"/></g><g class="cls-8"><g class="cls-9"><g class="cls-110"><g class="cls-111"><polygon class="cls-112" points="842.01 636.73 1224.18 634.05 1227.22 846.33 845.04 849 842.01 636.73"/></g></g></g></g><g class="cls-113"><rect class="cls-114" x="872.11" y="604.46" width="353.35" height="218.03" transform="translate(-36.11 36.5) rotate(-3.02)"/></g><g class="cls-8"><g class="cls-9"><g class="cls-115"><g class="cls-116"><polygon class="cls-117" points="1101.66 433.83 1646.1 429.63 1650.43 763.7 1105.98 767.9 1101.66 433.83"/></g></g></g></g><g class="cls-118"><polygon class="cls-119" points="1136.74 366.92 1639.42 337.64 1655.74 680.28 1153.05 709.56 1136.74 366.92"/></g><g class="cls-8"><g class="cls-9"><g class="cls-120"><g class="cls-121"><polygon class="cls-122" points="1528.04 231.41 1858.22 229.1 1860.84 412.5 1530.66 414.81 1528.04 231.41"/></g></g></g></g><g class="cls-123"><rect class="cls-124" x="1554.05" y="206.21" width="305.28" height="188.36" transform="translate(-13.45 70.56) rotate(-3.02)"/></g><g class="cls-8"><g class="cls-9"><g class="cls-125"><g class="cls-126"><polygon class="cls-127" points="1702.48 775.17 2002.16 773.08 2004.54 939.53 1704.86 941.63 1702.48 775.17"/></g></g></g></g><g class="cls-128"><rect class="cls-129" x="1726.09" y="754.13" width="277.08" height="170.96" transform="translate(-41.61 79.62) rotate(-3.02)"/></g><g class="cls-8"><g class="cls-9"><g class="cls-130"><g class="cls-131"><polygon class="cls-132" points="1346.78 762.67 1646.46 760.58 1648.85 927.03 1349.16 929.13 1346.78 762.67"/></g></g></g></g><g class="cls-133"><rect class="cls-134" x="1370.39" y="741.63" width="277.08" height="170.96" transform="translate(-41.45 60.88) rotate(-3.02)"/></g><g class="cls-8"><g class="cls-9"><g class="cls-135"><g class="cls-136"><polygon class="cls-137" points="1597.91 651.97 1762.05 650.82 1763.35 741.99 1599.21 743.13 1597.91 651.97"/></g></g></g></g><g class="cls-138"><rect class="cls-139" x="1610.84" y="649.35" width="151.76" height="93.64" transform="translate(-34.31 70.06) rotate(-3.02)"/></g><g class="cls-8"><g class="cls-9"><g class="cls-140"><g class="cls-141"><polygon class="cls-142" points="1576.83 622.77 1740.96 621.63 1742.27 712.79 1578.13 713.94 1576.83 622.77"/></g></g></g></g><g class="cls-143"><rect class="cls-144" x="1589.76" y="620.16" width="151.76" height="93.64" transform="translate(-32.8 68.91) rotate(-3.02)"/></g></g></g></g></g></g></svg>