<svg xmlns="http://www.w3.org/2000/svg" viewBox="0 0 1204.47 685.57"><defs><style>.cls-1{isolation:isolate;}.cls-2{fill:#5fa7ae;}.cls-3{fill:#3b706f;}.cls-4{fill:#f0e8c7;}.cls-5{fill:#c1b47b;}.cls-6{fill:#80a32b;}.cls-7{fill:#9fca50;}.cls-13,.cls-16,.cls-8{mix-blend-mode:multiply;}.cls-33,.cls-35,.cls-9{fill:none;}.cls-10{fill:#cbcbcb;}.cls-11{fill:#a3d9ed;}.cls-12{fill:#eaeec6;}.cls-13{opacity:0.3;}.cls-14{fill:#5b2a8c;}.cls-15{fill:#9c4327;}.cls-16{opacity:0.5;}.cls-17{fill:#4d2d13;}.cls-18{fill:#59662d;}.cls-19{fill:#83a92e;}.cls-20{fill:#a2b832;}.cls-21{fill:#cfc634;}.cls-22{fill:#abc634;}.cls-23{fill:#c39c6d;}.cls-24{fill:#7d4421;}.cls-25{fill:#af7f54;}.cls-26{fill:#25a539;}.cls-27{fill:#a06841;}.cls-28{fill:#914f28;}.cls-29{fill:#73391d;}.cls-30{fill:#fff;}.cls-31{fill:#74bee3;}.cls-32{fill:#46aad7;}.cls-33{stroke:#addef6;}.cls-33,.cls-35{stroke-miterlimit:10;stroke-width:1.04px;}.cls-34{fill:#7d3f20;}.cls-35{stroke:#46aad7;}.cls-36{opacity:0.36;mix-blend-mode:overlay;}.cls-37{fill:#040000;}.cls-38{fill:#eaeaee;}.cls-39{fill:#d1d1d5;}.cls-40{fill:#7d331f;}.cls-41{fill:#aa5c2f;}.cls-42{fill:#d6b980;}.cls-43{fill:#e2eff3;}.cls-44{fill:#85aab3;}.cls-45{fill:#62432d;}.cls-46{fill:#e2e1e1;}.cls-47{fill:#885e3c;}.cls-48{fill:#d5c3ab;}.cls-49{fill:#d4e1a5;}.cls-50{fill:#5d3c1b;}.cls-51{fill:#a17f4c;}.cls-52{fill:#cb9f65;}.cls-53{fill:#595958;}.cls-54{fill:#f2ab95;}.cls-55{fill:#5f3819;}.cls-56{fill:#41210d;}.cls-57{fill:#87bd43;}.cls-58{fill:#678c32;}</style></defs><title>資產 19</title><g class="cls-1"><g id="圖層_2" data-name="圖層 2"><g id="圖層_1-2" data-name="圖層 1"><path class="cls-2" d="M706.24,685.57c-57.28,0-103.87-45.2-103.87-100.77V501H560.16v74.22c0,55.56-46.6,100.76-103.87,100.76H103.87C46.6,676,0,630.8,0,575.24V168.71C0,113.15,46.6,68,103.87,68h672.9c57.28,0,103.87,45.2,103.87,100.76V388.45h178c57.27,0,103.87,45.2,103.87,100.76V584.8c0,55.57-46.6,100.77-103.87,100.77Zm294-330.16c-57.28,0-103.88-45.2-103.88-100.77v-6.46c0-55.55,46.6-100.76,103.88-100.76h100.38c57.28,0,103.88,45.21,103.88,100.76v6.46c0,55.57-46.6,100.77-103.88,100.77Z"/><path class="cls-3" d="M706.24,668.39a83.2,83.2,0,0,1-83.1-83.1V486.75a83.33,83.33,0,0,1,.46-8.6H539.39v97.28a83.2,83.2,0,0,1-83.1,83.1H103.87a83.2,83.2,0,0,1-83.1-83.1V156.36a83.2,83.2,0,0,1,83.1-83.1h672.9a83.2,83.2,0,0,1,83.1,83.1v238.7a83.33,83.33,0,0,1-.46,8.6h199.25a83.18,83.18,0,0,1,83.09,83.09v98.54a83.19,83.19,0,0,1-83.09,83.1Zm294-340.35a83.19,83.19,0,0,1-83.1-83.1v-6.65a83.2,83.2,0,0,1,83.1-83.1h100.38a83.2,83.2,0,0,1,83.1,83.1v6.65a83.19,83.19,0,0,1-83.1,83.1Z"/><path class="cls-4" d="M1053.1,408.85H847.86a77.47,77.47,0,0,0,1.26-13.79V156.36a78.13,78.13,0,0,0-77.9-77.9H98.32a78.13,78.13,0,0,0-77.91,77.9V575.43a78.13,78.13,0,0,0,77.91,77.9H450.73a78.13,78.13,0,0,0,77.91-77.9V473H624a77.38,77.38,0,0,0-1.26,13.79v98.54a78.14,78.14,0,0,0,77.9,77.91H1053.1A78.14,78.14,0,0,0,1131,585.29V486.75a78.14,78.14,0,0,0-77.91-77.9M1095,160.38H994.65a78.14,78.14,0,0,0-77.9,77.91V245a78.14,78.14,0,0,0,77.9,77.9H1095a78.13,78.13,0,0,0,77.9-77.9v-6.66a78.13,78.13,0,0,0-77.9-77.91"/><path class="cls-5" d="M1051.86,402H846.62a77.58,77.58,0,0,0,1.26-13.8V149.52A78.14,78.14,0,0,0,770,71.61H97.07a78.14,78.14,0,0,0-77.9,77.91V568.59a78.13,78.13,0,0,0,77.9,77.9H449.49a78.12,78.12,0,0,0,77.9-77.9V466.12h95.4a77.39,77.39,0,0,0-1.25,13.79v98.54a78.12,78.12,0,0,0,77.9,77.9h352.42a78.13,78.13,0,0,0,77.9-77.9V479.91a78.13,78.13,0,0,0-77.9-77.9m41.94-248.47H993.41a78.14,78.14,0,0,0-77.91,77.9v6.66A78.14,78.14,0,0,0,993.41,316H1093.8a78.14,78.14,0,0,0,77.9-77.91v-6.66a78.14,78.14,0,0,0-77.9-77.9"/><path class="cls-4" d="M1050.82,393.68H845.58a77.58,77.58,0,0,0,1.26-13.8V141.19a78.14,78.14,0,0,0-77.91-77.91H96a78.13,78.13,0,0,0-77.9,77.91V560.26A78.13,78.13,0,0,0,96,638.16H448.45a78.13,78.13,0,0,0,77.9-77.9V457.78h95.4a77.58,77.58,0,0,0-1.26,13.8v98.54A78.13,78.13,0,0,0,698.4,648h352.42a78.13,78.13,0,0,0,77.9-77.9V471.58a78.13,78.13,0,0,0-77.9-77.9m41.93-248.47H992.37a78.14,78.14,0,0,0-77.91,77.9v6.66a78.14,78.14,0,0,0,77.91,77.91h100.38a78.14,78.14,0,0,0,77.91-77.91v-6.66a78.14,78.14,0,0,0-77.91-77.9"/><path class="cls-5" d="M1049.77,387.77H844.54A77.39,77.39,0,0,0,845.79,374V135.29a78.13,78.13,0,0,0-77.9-77.91H95a78.13,78.13,0,0,0-77.9,77.91V554.36A78.13,78.13,0,0,0,95,632.26H447.41a78.14,78.14,0,0,0,77.9-77.9V451.88h95.4a77.58,77.58,0,0,0-1.26,13.8v98.54a78.14,78.14,0,0,0,77.91,77.9h352.41a78.14,78.14,0,0,0,77.91-77.9V465.68a78.14,78.14,0,0,0-77.91-77.91m41.94-248.46H991.32a78.14,78.14,0,0,0-77.9,77.9v6.66a78.13,78.13,0,0,0,77.9,77.9h100.39a78.13,78.13,0,0,0,77.91-77.9v-6.66a78.14,78.14,0,0,0-77.91-77.9"/><path class="cls-6" d="M1052.9,384.3H847.66a77.38,77.38,0,0,0,1.26-13.79V131.81A78.14,78.14,0,0,0,771,53.91H98.11a78.14,78.14,0,0,0-77.9,77.9V550.88a78.14,78.14,0,0,0,77.9,77.91H450.53a78.13,78.13,0,0,0,77.9-77.91V448.41h95.4a77.58,77.58,0,0,0-1.25,13.8v98.54a78.13,78.13,0,0,0,77.9,77.9H1052.9a78.13,78.13,0,0,0,77.9-77.9V462.21a78.13,78.13,0,0,0-77.9-77.91m41.94-248.46H994.45a78.12,78.12,0,0,0-77.9,77.9v6.66a78.12,78.12,0,0,0,77.9,77.9h100.39a78.13,78.13,0,0,0,77.9-77.9v-6.66a78.13,78.13,0,0,0-77.9-77.9"/><path class="cls-7" d="M1049.43,377.71H844.19a77.58,77.58,0,0,0,1.26-13.8V125.22a78.14,78.14,0,0,0-77.91-77.91H94.64a78.13,78.13,0,0,0-77.9,77.91V544.29a78.13,78.13,0,0,0,77.9,77.9H447.06a78.13,78.13,0,0,0,77.9-77.9V441.82h95.4a77.39,77.39,0,0,0-1.25,13.79v98.54a78.12,78.12,0,0,0,77.9,77.9h352.42a78.13,78.13,0,0,0,77.9-77.9V455.61a78.13,78.13,0,0,0-77.9-77.9m41.94-248.47H991a78.14,78.14,0,0,0-77.91,77.9v6.66A78.14,78.14,0,0,0,991,291.71h100.39a78.14,78.14,0,0,0,77.9-77.91v-6.66a78.14,78.14,0,0,0-77.9-77.9"/><g class="cls-8"><rect class="cls-9" x="91.05" y="129.54" width="955.35" height="436.7"/><path class="cls-10" d="M1004.74,474.28H762V271.59c0-.1,0-.2,0-.31a41.78,41.78,0,0,0-41.66-41.66H377.05c-.88-.05-1.77-.09-2.66-.09a41.79,41.79,0,0,0-41.66,41.66V482.93H174.36V171.22a41.66,41.66,0,0,0-83.32,0V524.59a41.79,41.79,0,0,0,41.66,41.66H374.39a41.79,41.79,0,0,0,41.66-41.66V312.94H678.69v203a41.83,41.83,0,0,0,41.69,41.7h284.36a41.66,41.66,0,1,0,0-83.32"/></g><path class="cls-11" d="M1019.64,56.06a7.65,7.65,0,0,0-1-.28,7.5,7.5,0,0,1-5-4.05A11.83,11.83,0,0,0,996.88,47a7.57,7.57,0,0,1-7.7.3,16.89,16.89,0,0,0-3-1.31,8.68,8.68,0,0,1-5.5-5,20.53,20.53,0,0,0-19-12.74,20.14,20.14,0,0,0-4.76.56,8.57,8.57,0,0,1-8.11-2.48,32.18,32.18,0,0,0-53.14,10.91,9.68,9.68,0,0,1-9.29,6.1c-.62,0-1.25,0-1.88,0a20.52,20.52,0,0,0,1.46,41,20.38,20.38,0,0,0,10.39-2.84,10.61,10.61,0,0,0,20.55-1.79,32.58,32.58,0,0,0,8.83,1.22,32.06,32.06,0,0,0,21.91-8.62,6.69,6.69,0,0,0,11-3.29,20.6,20.6,0,0,0,3.06.24c.38,0,.77,0,1.15,0a4.48,4.48,0,0,0,5.42,2.56,16.47,16.47,0,0,0,24.67,1.46,7.65,7.65,0,0,0,14.11-.72,8,8,0,0,0,2.86.53,8.07,8.07,0,0,0,4.48-1.35,8.33,8.33,0,0,0,11-8.2,8.45,8.45,0,0,0-5.71-7.56"/><path class="cls-11" d="M1129.83,92.16a2.71,2.71,0,0,0-.44-.13,3.36,3.36,0,0,1-2.27-1.82,5.31,5.31,0,0,0-7.52-2.11,3.41,3.41,0,0,1-3.46.14,7.55,7.55,0,0,0-1.37-.59,3.93,3.93,0,0,1-2.48-2.23,9.21,9.21,0,0,0-8.53-5.72,8.83,8.83,0,0,0-2.14.25,3.87,3.87,0,0,1-3.65-1.12,14.48,14.48,0,0,0-23.89,4.91,4.34,4.34,0,0,1-4.17,2.74,8.1,8.1,0,0,0-.85,0,9.22,9.22,0,0,0,.66,18.42,9.13,9.13,0,0,0,4.67-1.27,4.77,4.77,0,0,0,9.24-.81,14.5,14.5,0,0,0,13.82-3.32,3,3,0,0,0,4.93-1.48,10.42,10.42,0,0,0,1.38.1h.51a2,2,0,0,0,1.87,1.23,2.12,2.12,0,0,0,.57-.08,7.39,7.39,0,0,0,11.09.65,3.44,3.44,0,0,0,6.34-.32,3.74,3.74,0,0,0,1.29.24,3.64,3.64,0,0,0,2-.61,3.75,3.75,0,0,0,5-3.69,3.79,3.79,0,0,0-2.57-3.39"/><path class="cls-12" d="M1010.9,469.34H768.16V266.65c0-.1,0-.2,0-.31a41.78,41.78,0,0,0-41.66-41.66H383.21c-.88-.05-1.77-.09-2.66-.09h0a41.79,41.79,0,0,0-41.66,41.66V478H180.52V166.28a41.78,41.78,0,0,0-41.66-41.65h0A41.78,41.78,0,0,0,97.2,166.28V519.65a41.79,41.79,0,0,0,41.66,41.66H380.55a41.79,41.79,0,0,0,41.66-41.66V308H684.85V511a41.83,41.83,0,0,0,41.69,41.7H1010.9a41.66,41.66,0,0,0,0-83.32"/><g class="cls-13"><rect class="cls-9" x="781.73" y="190.64" width="39.51" height="21.4"/><path class="cls-14" d="M811.77,194.08c-.86-2-3.87-3.41-7.47-3.41a9.61,9.61,0,0,0-6.64,2.24,20.1,20.1,0,0,0-4-.42c-6.57,0-11.89,3.13-11.89,7,0,3.24,3.75,6,8.82,6.75,2.4,3.41,8.09,5.81,14.74,5.81,8.81,0,16-4.21,16-9.39,0-3.83-3.9-7.11-9.47-8.58"/></g><path class="cls-15" d="M819.87,172.46h-6.63v35.37h0c0,.87,1.48,1.57,3.31,1.57s3.32-.7,3.32-1.57h0Z"/><g class="cls-16"><rect class="cls-9" x="813.24" y="151.14" width="6.63" height="39.2"/><path class="cls-17" d="M819.87,151.18l-6.63,3.16v35.37h0c0,.87,1.48.87,3.31,0s3.32-2.29,3.32-3.16h0Z"/></g><path class="cls-18" d="M798.38,173.46a12.74,12.74,0,1,0,12.74-12.73,12.73,12.73,0,0,0-12.74,12.73"/><path class="cls-18" d="M789.68,133.61a12.74,12.74,0,1,0,12.73-12.73,12.73,12.73,0,0,0-12.73,12.73"/><path class="cls-18" d="M782.81,159.72A12.74,12.74,0,1,0,795.54,147a12.73,12.73,0,0,0-12.73,12.74"/><path class="cls-19" d="M789,156.83A25.79,25.79,0,1,0,814.74,131,25.79,25.79,0,0,0,789,156.83"/><path class="cls-18" d="M808,131.94a25.79,25.79,0,0,0,14.95,46.8,26.1,26.1,0,0,0,6.78-.9A25.79,25.79,0,1,1,808,131.94"/><path class="cls-19" d="M814.43,157.54a17.76,17.76,0,1,0,17.76-17.76,17.76,17.76,0,0,0-17.76,17.76"/><path class="cls-19" d="M798.55,131.23A16.5,16.5,0,1,0,815,114.74a16.49,16.49,0,0,0-16.49,16.49"/><path class="cls-19" d="M783.82,144.07a15.33,15.33,0,1,0,15.33-15.33,15.33,15.33,0,0,0-15.33,15.33"/><path class="cls-19" d="M793.35,162a12.73,12.73,0,1,0,12.73-12.73A12.73,12.73,0,0,0,793.35,162"/><path class="cls-19" d="M820.6,138.23A12.23,12.23,0,1,0,832.82,126a12.22,12.22,0,0,0-12.22,12.22"/><g class="cls-13"><rect class="cls-9" x="870.92" y="419.74" width="39.51" height="21.4"/><path class="cls-14" d="M901,423.2c-.85-2-3.87-3.41-7.46-3.41a9.62,9.62,0,0,0-6.65,2.24,19.33,19.33,0,0,0-4-.42c-6.57,0-11.89,3.13-11.89,7,0,3.24,3.75,6,8.83,6.75,2.39,3.41,8.08,5.81,14.73,5.81,8.81,0,15.95-4.21,15.95-9.39,0-3.83-3.89-7.11-9.47-8.58"/></g><path class="cls-15" d="M909.06,401.58h-6.63v35.36h0c0,.87,1.48,1.58,3.32,1.58s3.31-.71,3.31-1.58h0Z"/><g class="cls-16"><rect class="cls-9" x="902.43" y="380.34" width="6.63" height="39.1"/><path class="cls-17" d="M909.06,380.3l-6.63,3.16v35.37h0c0,.87,1.48.87,3.32,0s3.31-2.28,3.31-3.15h0Z"/></g><path class="cls-18" d="M887.58,402.58a12.73,12.73,0,1,0,12.73-12.74,12.73,12.73,0,0,0-12.73,12.74"/><path class="cls-18" d="M878.87,362.73A12.74,12.74,0,1,0,891.61,350a12.74,12.74,0,0,0-12.74,12.74"/><path class="cls-18" d="M872,388.83a12.74,12.74,0,1,0,12.74-12.73A12.74,12.74,0,0,0,872,388.83"/><path class="cls-19" d="M878.14,385.94a25.79,25.79,0,1,0,25.79-25.79,25.79,25.79,0,0,0-25.79,25.79"/><path class="cls-18" d="M897.16,361.06A25.78,25.78,0,0,0,918.88,407a25.79,25.79,0,1,1-21.72-45.89"/><path class="cls-19" d="M903.63,386.66a17.76,17.76,0,1,0,17.75-17.76,17.76,17.76,0,0,0-17.75,17.76"/><path class="cls-19" d="M887.74,360.35a16.5,16.5,0,1,0,16.5-16.49,16.5,16.5,0,0,0-16.5,16.49"/><path class="cls-19" d="M873,373.19a15.33,15.33,0,1,0,15.33-15.33A15.33,15.33,0,0,0,873,373.19"/><path class="cls-19" d="M882.54,391.13a12.74,12.74,0,1,0,12.73-12.74,12.73,12.73,0,0,0-12.73,12.74"/><path class="cls-19" d="M909.8,367.34A12.22,12.22,0,1,0,922,355.12a12.23,12.23,0,0,0-12.22,12.22"/><g class="cls-13"><rect class="cls-9" x="39.53" y="419.14" width="39.51" height="21.3"/><path class="cls-14" d="M69.56,422.51c-.85-2-3.86-3.41-7.46-3.41a9.61,9.61,0,0,0-6.64,2.24,19.42,19.42,0,0,0-4.05-.43c-6.56,0-11.88,3.14-11.88,7,0,3.24,3.74,6,8.82,6.76,2.4,3.4,8.09,5.8,14.74,5.8,8.8,0,15.94-4.2,15.94-9.39,0-3.82-3.89-7.11-9.47-8.57"/></g><path class="cls-15" d="M77.67,400.88H71v35.37h0c0,.87,1.49,1.58,3.32,1.58s3.32-.71,3.32-1.58h0Z"/><g class="cls-16"><rect class="cls-9" x="71.04" y="379.64" width="6.63" height="39.1"/><path class="cls-17" d="M77.67,379.6,71,382.77v35.36h0c0,.87,1.49.86,3.32,0s3.32-2.29,3.32-3.16h0Z"/></g><path class="cls-18" d="M56.18,401.88a12.74,12.74,0,1,0,12.74-12.73,12.74,12.74,0,0,0-12.74,12.73"/><path class="cls-18" d="M47.48,362A12.74,12.74,0,1,0,60.21,349.3,12.73,12.73,0,0,0,47.48,362"/><path class="cls-18" d="M40.61,388.14a12.74,12.74,0,1,0,12.73-12.73,12.74,12.74,0,0,0-12.73,12.73"/><path class="cls-19" d="M46.75,385.25a25.79,25.79,0,1,0,25.79-25.79,25.79,25.79,0,0,0-25.79,25.79"/><path class="cls-18" d="M65.76,360.37a25.79,25.79,0,0,0,14.95,46.8,26.1,26.1,0,0,0,6.78-.91,25.79,25.79,0,1,1-21.73-45.89"/><path class="cls-19" d="M72.23,386A17.76,17.76,0,1,0,90,368.21,17.76,17.76,0,0,0,72.23,386"/><path class="cls-19" d="M56.35,359.66a16.5,16.5,0,1,0,16.49-16.5,16.49,16.49,0,0,0-16.49,16.5"/><path class="cls-19" d="M41.62,372.5A15.33,15.33,0,1,0,57,357.17,15.33,15.33,0,0,0,41.62,372.5"/><path class="cls-19" d="M51.14,390.43A12.74,12.74,0,1,0,63.88,377.7a12.74,12.74,0,0,0-12.74,12.73"/><path class="cls-19" d="M78.4,366.65a12.22,12.22,0,1,0,12.22-12.22A12.22,12.22,0,0,0,78.4,366.65"/><g class="cls-13"><rect class="cls-9" x="241.05" y="375.64" width="39.5" height="21.4"/><path class="cls-14" d="M271.08,379.07c-.85-2-3.86-3.41-7.46-3.41A9.61,9.61,0,0,0,257,377.9a19.43,19.43,0,0,0-4.05-.42c-6.56,0-11.88,3.13-11.88,7,0,3.25,3.74,6,8.82,6.76,2.4,3.41,8.09,5.81,14.74,5.81,8.8,0,15.94-4.21,15.94-9.39,0-3.83-3.89-7.11-9.47-8.58"/></g><path class="cls-15" d="M279.19,357.44h-6.64v35.37h0c0,.87,1.49,1.58,3.32,1.58s3.32-.71,3.32-1.58h0Z"/><g class="cls-16"><rect class="cls-9" x="272.56" y="336.14" width="6.63" height="39.2"/><path class="cls-17" d="M279.19,336.17l-6.64,3.16V374.7h0c0,.87,1.49.87,3.32,0s3.32-2.28,3.32-3.15h0Z"/></g><path class="cls-18" d="M257.7,358.45a12.74,12.74,0,1,0,12.74-12.74,12.73,12.73,0,0,0-12.74,12.74"/><path class="cls-18" d="M249,318.6a12.74,12.74,0,1,0,12.73-12.74A12.73,12.73,0,0,0,249,318.6"/><path class="cls-18" d="M242.13,344.7A12.74,12.74,0,1,0,254.86,332a12.73,12.73,0,0,0-12.73,12.73"/><path class="cls-19" d="M248.27,341.81A25.79,25.79,0,1,0,274.06,316a25.78,25.78,0,0,0-25.79,25.79"/><path class="cls-18" d="M267.28,316.93A25.78,25.78,0,0,0,289,362.82a25.79,25.79,0,1,1-21.73-45.89"/><path class="cls-20" d="M273.49,341a19.32,19.32,0,1,0,19.31-19.31A19.31,19.31,0,0,0,273.49,341"/><path class="cls-21" d="M257.87,316.22a16.5,16.5,0,1,0,16.49-16.49,16.49,16.49,0,0,0-16.49,16.49"/><path class="cls-20" d="M241.4,327.54a16.07,16.07,0,1,0,16.07-16.06,16.07,16.07,0,0,0-16.07,16.06"/><path class="cls-20" d="M251.39,346.33A13.35,13.35,0,1,0,264.73,333a13.34,13.34,0,0,0-13.34,13.34"/><path class="cls-22" d="M280,321.41a12.81,12.81,0,1,0,12.81-12.81A12.81,12.81,0,0,0,280,321.41"/><g class="cls-13"><rect class="cls-9" x="833.76" y="423.34" width="18.93" height="10.3"/><path class="cls-14" d="M848.15,425c-.4-.94-1.85-1.63-3.57-1.63a4.62,4.62,0,0,0-3.19,1.07,9.24,9.24,0,0,0-1.94-.2c-3.14,0-5.7,1.5-5.7,3.35,0,1.56,1.8,2.86,4.24,3.24,1.14,1.63,3.87,2.78,7.06,2.78,4.22,0,7.64-2,7.64-4.5,0-1.83-1.86-3.41-4.54-4.11"/></g><path class="cls-15" d="M852,414.64h-3.18v17c0,.42.71.76,1.59.76S852,432,852,431.6Z"/><g class="cls-16"><rect class="cls-9" x="848.86" y="404.44" width="3.18" height="18.8"/><path class="cls-17" d="M852,404.44,848.86,406v17c0,.41.71.41,1.59,0s1.59-1.09,1.59-1.51h0Z"/></g><path class="cls-18" d="M841.74,415.12a6.11,6.11,0,1,0,6.1-6.1,6.1,6.1,0,0,0-6.1,6.1"/><path class="cls-18" d="M837.57,396a6.1,6.1,0,1,0,6.1-6.1,6.11,6.11,0,0,0-6.1,6.1"/><path class="cls-18" d="M834.27,408.54a6.11,6.11,0,1,0,6.11-6.11,6.11,6.11,0,0,0-6.11,6.11"/><path class="cls-19" d="M837.22,407.15a12.36,12.36,0,1,0,12.36-12.36,12.36,12.36,0,0,0-12.36,12.36"/><path class="cls-18" d="M846.33,395.22a12.36,12.36,0,0,0,7.17,22.44,12.49,12.49,0,0,0,3.25-.44,12.36,12.36,0,1,1-10.42-22"/><path class="cls-19" d="M849.43,407.49a8.52,8.52,0,1,0,8.51-8.51,8.51,8.51,0,0,0-8.51,8.51"/><path class="cls-19" d="M841.82,394.88a7.91,7.91,0,1,0,7.91-7.9,7.91,7.91,0,0,0-7.91,7.9"/><path class="cls-19" d="M834.76,401a7.35,7.35,0,1,0,7.35-7.35,7.35,7.35,0,0,0-7.35,7.35"/><path class="cls-19" d="M839.32,409.63a6.11,6.11,0,1,0,6.11-6.1,6.11,6.11,0,0,0-6.11,6.1"/><path class="cls-19" d="M852.39,398.23a5.86,5.86,0,1,0,5.86-5.85,5.86,5.86,0,0,0-5.86,5.85"/><g class="cls-13"><rect class="cls-9" x="215.51" y="413.64" width="18.94" height="10.3"/><path class="cls-14" d="M229.91,415.29c-.41-.94-1.86-1.63-3.58-1.63a4.64,4.64,0,0,0-3.19,1.07,9.14,9.14,0,0,0-1.93-.2c-3.15,0-5.7,1.5-5.7,3.35,0,1.56,1.79,2.86,4.23,3.24,1.15,1.63,3.88,2.78,7.06,2.78,4.22,0,7.65-2,7.65-4.5,0-1.83-1.87-3.41-4.54-4.11"/></g><path class="cls-15" d="M233.79,404.92h-3.18v17h0c0,.42.71.76,1.59.76s1.59-.34,1.59-.76h0Z"/><g class="cls-16"><rect class="cls-9" x="230.61" y="394.74" width="3.18" height="18.8"/><path class="cls-17" d="M233.79,394.72l-3.18,1.52v17h0c0,.41.71.41,1.59,0s1.59-1.09,1.59-1.51Z"/></g><path class="cls-18" d="M223.49,405.4a6.11,6.11,0,1,0,6.11-6.1,6.11,6.11,0,0,0-6.11,6.1"/><path class="cls-18" d="M219.32,386.3a6.11,6.11,0,1,0,6.1-6.1,6.11,6.11,0,0,0-6.1,6.1"/><path class="cls-18" d="M216,398.82a6.1,6.1,0,1,0,6.1-6.11,6.1,6.1,0,0,0-6.1,6.11"/><path class="cls-19" d="M219,397.43a12.37,12.37,0,1,0,12.36-12.36A12.36,12.36,0,0,0,219,397.43"/><path class="cls-18" d="M228.08,385.5a12.36,12.36,0,0,0,10.42,22,12.36,12.36,0,1,1-10.42-22"/><path class="cls-19" d="M231.19,397.77a8.51,8.51,0,1,0,8.51-8.51,8.51,8.51,0,0,0-8.51,8.51"/><path class="cls-19" d="M223.57,385.16a7.91,7.91,0,1,0,7.91-7.9,7.91,7.91,0,0,0-7.91,7.9"/><path class="cls-19" d="M216.51,391.32a7.35,7.35,0,1,0,7.35-7.35,7.35,7.35,0,0,0-7.35,7.35"/><path class="cls-19" d="M221.08,399.92a6.1,6.1,0,1,0,6.1-6.11,6.1,6.1,0,0,0-6.1,6.11"/><path class="cls-19" d="M234.14,388.51a5.86,5.86,0,1,0,5.86-5.85,5.86,5.86,0,0,0-5.86,5.85"/><g class="cls-13"><rect class="cls-9" x="284.8" y="227.14" width="18.94" height="10.3"/><path class="cls-14" d="M299.2,228.82c-.41-.94-1.85-1.63-3.58-1.63a4.6,4.6,0,0,0-3.18,1.07,9.31,9.31,0,0,0-1.94-.2c-3.15,0-5.7,1.5-5.7,3.36,0,1.55,1.8,2.85,4.23,3.23,1.15,1.64,3.88,2.79,7.07,2.79,4.22,0,7.64-2,7.64-4.51,0-1.83-1.87-3.4-4.54-4.11"/></g><path class="cls-15" d="M303.08,218.46h-3.17v16.95h0c0,.42.71.76,1.59.76s1.58-.34,1.58-.76h0Z"/><g class="cls-16"><rect class="cls-9" x="299.91" y="208.24" width="3.18" height="18.8"/><path class="cls-17" d="M303.08,208.26l-3.17,1.51v17h0c0,.42.71.41,1.59,0s1.58-1.1,1.58-1.52h0Z"/></g><path class="cls-18" d="M292.79,218.94a6.1,6.1,0,1,0,6.1-6.11,6.1,6.1,0,0,0-6.1,6.11"/><path class="cls-18" d="M288.61,199.83a6.11,6.11,0,1,0,6.11-6.1,6.11,6.11,0,0,0-6.11,6.1"/><path class="cls-18" d="M285.32,212.35a6.11,6.11,0,1,0,6.1-6.1,6.1,6.1,0,0,0-6.1,6.1"/><path class="cls-19" d="M288.26,211a12.37,12.37,0,1,0,12.37-12.36A12.37,12.37,0,0,0,288.26,211"/><path class="cls-18" d="M297.38,199a12.36,12.36,0,0,0,7.16,22.44,12,12,0,0,0,3.25-.44,12.23,12.23,0,0,1-7.16,2.3,12.37,12.37,0,0,1-3.25-24.3"/><path class="cls-19" d="M300.48,211.31a8.51,8.51,0,1,0,8.51-8.52,8.51,8.51,0,0,0-8.51,8.52"/><path class="cls-19" d="M292.86,198.69a7.91,7.91,0,1,0,7.91-7.9,7.91,7.91,0,0,0-7.91,7.9"/><path class="cls-19" d="M285.8,204.85a7.35,7.35,0,1,0,7.35-7.35,7.35,7.35,0,0,0-7.35,7.35"/><path class="cls-19" d="M290.37,213.45a6.11,6.11,0,1,0,6.1-6.11,6.1,6.1,0,0,0-6.1,6.11"/><path class="cls-19" d="M303.44,202.05a5.86,5.86,0,1,0,5.85-5.86,5.86,5.86,0,0,0-5.85,5.86"/><g class="cls-13"><rect class="cls-9" x="34.84" y="144.14" width="18.94" height="10.3"/><path class="cls-14" d="M49.23,145.8c-.4-.94-1.85-1.64-3.57-1.64a4.63,4.63,0,0,0-3.19,1.08,9.24,9.24,0,0,0-1.94-.2c-3.14,0-5.69,1.5-5.69,3.35,0,1.56,1.79,2.86,4.23,3.24,1.14,1.63,3.87,2.78,7.06,2.78,4.22,0,7.64-2,7.64-4.5,0-1.83-1.86-3.41-4.54-4.11"/></g><path class="cls-15" d="M53.12,135.43H49.94v17c0,.41.71.75,1.59.75s1.59-.34,1.59-.75Z"/><g class="cls-16"><rect class="cls-9" x="49.94" y="125.24" width="3.18" height="18.8"/><path class="cls-17" d="M53.12,125.23l-3.18,1.52v17c0,.41.71.41,1.59,0s1.59-1.09,1.59-1.51h0Z"/></g><path class="cls-18" d="M42.82,135.91a6.11,6.11,0,1,0,6.1-6.1,6.11,6.11,0,0,0-6.1,6.1"/><path class="cls-18" d="M38.65,116.81a6.1,6.1,0,1,0,6.1-6.1,6.1,6.1,0,0,0-6.1,6.1"/><path class="cls-18" d="M35.35,129.33a6.11,6.11,0,1,0,6.11-6.11,6.11,6.11,0,0,0-6.11,6.11"/><path class="cls-19" d="M38.3,127.94a12.36,12.36,0,1,0,12.36-12.36A12.36,12.36,0,0,0,38.3,127.94"/><path class="cls-18" d="M47.41,116a12.36,12.36,0,0,0,7.17,22.44,12.49,12.49,0,0,0,3.25-.44,12.36,12.36,0,1,1-10.42-22"/><path class="cls-19" d="M50.51,128.28A8.52,8.52,0,1,0,59,119.77a8.52,8.52,0,0,0-8.52,8.51"/><path class="cls-19" d="M42.9,115.67a7.91,7.91,0,1,0,7.91-7.91,7.91,7.91,0,0,0-7.91,7.91"/><path class="cls-19" d="M35.84,121.83a7.35,7.35,0,1,0,7.35-7.35,7.35,7.35,0,0,0-7.35,7.35"/><path class="cls-19" d="M40.4,130.42a6.11,6.11,0,1,0,6.11-6.1,6.12,6.12,0,0,0-6.11,6.1"/><path class="cls-19" d="M53.47,119a5.86,5.86,0,1,0,5.86-5.85A5.86,5.86,0,0,0,53.47,119"/><g class="cls-13"><rect class="cls-9" x="786.21" y="600.94" width="18.94" height="10.2"/><path class="cls-14" d="M800.61,602.53c-.41-.94-1.85-1.64-3.58-1.64a4.6,4.6,0,0,0-3.18,1.08,9.31,9.31,0,0,0-1.94-.2c-3.15,0-5.7,1.5-5.7,3.35,0,1.56,1.8,2.86,4.23,3.24,1.15,1.63,3.88,2.78,7.07,2.78,4.22,0,7.64-2,7.64-4.5,0-1.83-1.87-3.41-4.54-4.11"/></g><path class="cls-15" d="M804.49,592.16h-3.18v17h0c0,.42.72.76,1.59.76s1.59-.34,1.59-.76h0Z"/><g class="cls-16"><rect class="cls-9" x="801.32" y="581.94" width="3.18" height="18.8"/><path class="cls-17" d="M804.49,582l-3.18,1.52v17h0c0,.41.72.41,1.59,0s1.59-1.09,1.59-1.51h0Z"/></g><path class="cls-18" d="M794.2,592.64a6.1,6.1,0,1,0,6.1-6.1,6.11,6.11,0,0,0-6.1,6.1"/><path class="cls-18" d="M790,573.54a6.11,6.11,0,1,0,6.11-6.1,6.11,6.11,0,0,0-6.11,6.1"/><path class="cls-18" d="M786.73,586.06a6.11,6.11,0,1,0,6.1-6.11,6.1,6.1,0,0,0-6.1,6.11"/><path class="cls-19" d="M789.67,584.67A12.37,12.37,0,1,0,802,572.31a12.36,12.36,0,0,0-12.37,12.36"/><path class="cls-18" d="M798.79,572.74a12.36,12.36,0,0,0,10.41,22,12.36,12.36,0,1,1-10.41-22"/><path class="cls-19" d="M801.89,585a8.51,8.51,0,1,0,8.51-8.51,8.52,8.52,0,0,0-8.51,8.51"/><path class="cls-19" d="M794.27,572.4a7.91,7.91,0,1,0,7.91-7.9,7.91,7.91,0,0,0-7.91,7.9"/><path class="cls-19" d="M787.21,578.56a7.35,7.35,0,1,0,7.35-7.35,7.35,7.35,0,0,0-7.35,7.35"/><path class="cls-19" d="M791.78,587.15a6.11,6.11,0,1,0,6.1-6.1,6.1,6.1,0,0,0-6.1,6.1"/><path class="cls-19" d="M804.85,575.75a5.86,5.86,0,1,0,5.85-5.85,5.85,5.85,0,0,0-5.85,5.85"/><rect class="cls-23" x="304.68" y="64.99" width="137.73" height="95.6"/><rect class="cls-24" x="304.68" y="64.99" width="137.73" height="6.02"/><rect class="cls-25" x="304.68" y="137.88" width="137.73" height="22.71"/><rect class="cls-26" x="304.68" y="156.19" width="137.73" height="4.4"/><polygon class="cls-27" points="442.41 16.04 304.68 16.04 295.96 64.99 451.12 64.99 442.41 16.04"/><rect class="cls-28" x="295.96" y="64.88" width="155.15" height="4.27"/><rect class="cls-28" x="357.08" y="89.2" width="32.92" height="48.68"/><rect class="cls-29" x="360.61" y="92.99" width="25.87" height="44.89"/><rect class="cls-23" x="352.85" y="153.02" width="41.38" height="7.57"/><rect class="cls-30" x="352.85" y="153.02" width="41.38" height="1.56"/><rect class="cls-23" x="355" y="145.45" width="37.09" height="7.57"/><rect class="cls-30" x="355" y="145.45" width="37.09" height="1.56"/><rect class="cls-23" x="357.08" y="137.88" width="32.92" height="7.57"/><rect class="cls-30" x="357.08" y="137.88" width="32.92" height="1.56"/><polygon class="cls-31" points="406.31 54.41 340.77 54.41 344.5 28.28 402.58 28.28 406.31 54.41"/><polygon class="cls-32" points="403.55 35.07 402.58 28.28 344.5 28.28 343.53 35.07 403.55 35.07"/><path class="cls-28" d="M399.87,31.4l2.85,19.89H344.37l2.84-19.89Zm2.71-3.12H344.5l-3.73,26.14h65.54Z"/><polyline class="cls-33" points="374.76 40.52 376.48 40.52 376.48 43.96"/><polyline class="cls-33" points="372.32 40.52 370.6 40.52 370.6 43.96"/><rect class="cls-28" x="371.98" y="31.39" width="3.12" height="19.9"/><rect class="cls-34" x="371.98" y="31.39" width="3.12" height="2.25"/><polygon class="cls-34" points="402.58 28.28 399.91 31.39 402.58 51.3 406.31 54.41 402.58 28.28"/><polygon class="cls-23" points="344.23 51.29 340.77 54.41 406.31 54.41 402.58 51.29 344.23 51.29"/><rect class="cls-31" x="315.48" y="78.83" width="31.21" height="42.6"/><rect class="cls-32" x="318.6" y="81.95" width="24.97" height="4.79"/><polygon class="cls-32" points="321.93 118.3 318.6 118.3 318.6 102.51 320.89 102.51 321.93 118.3"/><polygon class="cls-32" points="340.25 118.3 343.57 118.3 343.57 102.51 341.29 102.51 340.25 118.3"/><line class="cls-35" x1="324.85" y1="85.78" x2="324.85" y2="90.24"/><line class="cls-35" x1="327.97" y1="85.78" x2="327.97" y2="90.24"/><line class="cls-35" x1="331.09" y1="85.78" x2="331.09" y2="90.24"/><line class="cls-35" x1="334.21" y1="85.78" x2="334.21" y2="90.24"/><line class="cls-35" x1="337.33" y1="85.78" x2="337.33" y2="90.24"/><path class="cls-32" d="M323.18,99.57a3,3,0,0,1-3,3H318.6V82h4.58Z"/><path class="cls-32" d="M341.9,102.69h1.56V82h-4.6v17.7a3,3,0,0,0,3,3"/><g class="cls-36"><rect class="cls-9" x="315.48" y="78.84" width="31.22" height="4.9"/><rect class="cls-37" x="315.48" y="78.83" width="31.21" height="4.96"/></g><g class="cls-36"><rect class="cls-9" x="315.48" y="90.24" width="31.22" height="2.5"/><rect class="cls-37" x="315.48" y="90.24" width="31.21" height="2.48"/></g><g class="cls-36"><rect class="cls-9" x="315.48" y="105.84" width="31.22" height="2.5"/><rect class="cls-37" x="315.48" y="105.85" width="31.21" height="2.48"/></g><rect class="cls-38" x="330.05" y="80.53" width="2.08" height="38.84"/><rect class="cls-39" x="330.05" y="90.24" width="2.08" height="1.24"/><rect class="cls-39" x="330.05" y="81.95" width="2.08" height="1.24"/><rect class="cls-39" x="330.05" y="105.85" width="2.08" height="1.24"/><rect class="cls-30" x="316.87" y="88.16" width="28.44" height="2.08"/><rect class="cls-30" x="316.87" y="103.77" width="28.44" height="2.08"/><path class="cls-30" d="M315.48,121.42H346.7V78.83H315.48ZM318.6,82h25V118.3h-25Z"/><polygon class="cls-39" points="345.08 119.78 345.12 80.64 343.57 81.95 343.57 119.78 345.08 119.78"/><polygon class="cls-38" points="345.08 119.78 343.57 118.3 318.6 118.3 317.56 119.78 345.08 119.78"/><rect class="cls-30" x="312.42" y="121.42" width="37.34" height="3.86"/><rect class="cls-31" x="402.4" y="137.88" width="28" height="14.47"/><rect class="cls-32" x="402.4" y="148.69" width="28" height="3.66"/><polygon class="cls-32" points="418.1 142.18 412.29 142.18 412.29 139.44 413.33 139.44 413.33 141.15 418.1 141.15 418.1 142.18"/><rect class="cls-31" x="400.79" y="78.83" width="31.21" height="42.6"/><rect class="cls-32" x="403.92" y="81.95" width="24.97" height="4.79"/><polygon class="cls-32" points="407.24 118.3 403.92 118.3 403.92 102.51 406.2 102.51 407.24 118.3"/><polygon class="cls-32" points="425.56 118.3 428.89 118.3 428.89 102.51 426.6 102.51 425.56 118.3"/><line class="cls-35" x1="410.16" y1="85.78" x2="410.16" y2="90.24"/><line class="cls-35" x1="413.28" y1="85.78" x2="413.28" y2="90.24"/><line class="cls-35" x1="416.4" y1="85.78" x2="416.4" y2="90.24"/><line class="cls-35" x1="419.52" y1="85.78" x2="419.52" y2="90.24"/><line class="cls-35" x1="422.64" y1="85.78" x2="422.64" y2="90.24"/><path class="cls-32" d="M408.49,99.57a3,3,0,0,1-3,3h-1.54V82h4.57Z"/><path class="cls-32" d="M427.22,102.69h1.55V82h-4.6v17.7a3,3,0,0,0,3.05,3"/><g class="cls-36"><rect class="cls-9" x="400.8" y="78.84" width="31.21" height="4.9"/><rect class="cls-37" x="400.79" y="78.83" width="31.21" height="4.96"/></g><g class="cls-36"><rect class="cls-9" x="400.8" y="90.24" width="31.21" height="2.5"/><rect class="cls-37" x="400.79" y="90.24" width="31.21" height="2.48"/></g><g class="cls-36"><rect class="cls-9" x="400.8" y="105.84" width="31.21" height="2.5"/><rect class="cls-37" x="400.79" y="105.85" width="31.21" height="2.48"/></g><rect class="cls-38" x="415.36" y="80.53" width="2.08" height="38.84"/><rect class="cls-39" x="415.36" y="90.24" width="2.08" height="1.24"/><rect class="cls-39" x="415.36" y="81.95" width="2.08" height="1.24"/><rect class="cls-39" x="415.36" y="105.85" width="2.08" height="1.24"/><rect class="cls-30" x="402.18" y="88.16" width="28.44" height="2.08"/><rect class="cls-30" x="402.18" y="103.77" width="28.44" height="2.08"/><path class="cls-30" d="M400.79,121.42H432V78.83H400.79ZM403.92,82h25V118.3h-25Z"/><polygon class="cls-39" points="430.4 119.78 430.43 80.64 428.89 81.95 428.89 119.78 430.4 119.78"/><polygon class="cls-38" points="430.4 119.78 428.89 118.3 403.92 118.3 402.88 119.78 430.4 119.78"/><rect class="cls-30" x="397.73" y="121.42" width="37.34" height="3.86"/><path class="cls-28" d="M402.4,152.35h28V137.88h-28Zm25.92-2.08H404.48V140h23.84Z"/><polygon class="cls-40" points="430.4 137.88 428.32 139.96 428.32 150.27 430.4 152.35 430.4 137.88"/><polygon class="cls-27" points="402.4 152.35 404.48 150.27 428.32 150.27 430.4 152.35 402.4 152.35"/><rect class="cls-31" x="363.04" y="95.06" width="9.67" height="7.37"/><rect class="cls-32" x="363.04" y="100.41" width="9.67" height="2.03"/><path class="cls-28" d="M362.82,102.6h10.1V94.9h-10.1Zm8.54-1.56h-7V96.46h7Z"/><polygon class="cls-41" points="371.37 101.04 364.38 101.04 362.82 102.6 372.93 102.6 371.37 101.04"/><polygon class="cls-29" points="372.93 94.9 371.36 96.46 371.36 101.04 372.93 102.6 372.93 94.9"/><rect class="cls-31" x="374.48" y="95.06" width="9.67" height="7.37"/><rect class="cls-32" x="374.48" y="100.41" width="9.67" height="2.03"/><path class="cls-28" d="M374.26,102.6h10.11V94.9H374.26Zm8.55-1.56h-7V96.46h7Z"/><polygon class="cls-41" points="382.81 101.04 375.82 101.04 374.26 102.6 384.37 102.6 382.81 101.04"/><polygon class="cls-29" points="384.37 94.9 382.81 96.46 382.81 101.04 384.37 102.6 384.37 94.9"/><polygon class="cls-41" points="357.08 89.2 360.61 92.99 386.48 92.99 390 89.2 357.08 89.2"/><path class="cls-29" d="M374.26,107.14a.67.67,0,1,1-.67-.67.67.67,0,0,1,.67.67"/><path class="cls-28" d="M365.94,115.48h-5.33v1.86H365V119a.93.93,0,0,0,1.85,0v-2.54a.93.93,0,0,0-.92-.93"/><rect class="cls-42" x="363.74" y="135.86" width="19.07" height="2.02"/><rect class="cls-43" x="320.14" y="4.16" width="20.5" height="11.88"/><polygon class="cls-44" points="340.64 8.32 320.14 4.16 340.64 4.16 340.64 8.32"/><rect class="cls-27" x="318.73" width="23.31" height="4.16"/><polygon class="cls-45" points="529.08 1 609.01 161.27 456.04 157.57 529.08 1"/><polygon class="cls-46" points="529.08 1 513.08 35.31 516.06 41.74 523.39 34.1 528.95 44.63 533.47 34.1 542.32 43.37 544.82 32.56 529.08 1"/><polygon class="cls-45" points="655.2 34.71 740.82 122.02 576.95 120 655.2 34.71"/><polygon class="cls-46" points="655.2 34.71 638.05 53.4 641.25 56.9 649.1 52.74 655.06 58.48 659.9 52.74 669.38 57.79 672.06 51.9 655.2 34.71"/><polygon class="cls-47" points="582.89 18.14 662.83 178.41 509.85 174.71 582.89 18.14"/><polyline class="cls-46" points="582.89 18.14 561.81 63.33 569.82 70.97 578.89 63.98 588.45 77.41 597 63.67 603.72 67.95 605.59 63.65 583.7 18.14"/><g class="cls-13"><rect class="cls-9" x="661.82" y="128.44" width="39.5" height="21.4"/><path class="cls-14" d="M691.85,131.87c-.85-2-3.87-3.41-7.46-3.41a9.62,9.62,0,0,0-6.65,2.24,19.32,19.32,0,0,0-4-.43c-6.56,0-11.89,3.14-11.89,7,0,3.24,3.75,6,8.83,6.76,2.39,3.4,8.09,5.8,14.74,5.8,8.8,0,15.94-4.2,15.94-9.39,0-3.82-3.89-7.11-9.47-8.57"/></g><path class="cls-15" d="M700,110.24h-6.63v35.37h0c0,.87,1.49,1.58,3.32,1.58s3.31-.71,3.31-1.58h0Z"/><g class="cls-16"><rect class="cls-9" x="693.32" y="88.94" width="6.63" height="39.2"/><path class="cls-17" d="M700,89l-6.63,3.17V127.5h0c0,.87,1.49.86,3.32,0s3.31-2.29,3.31-3.16h0Z"/></g><path class="cls-18" d="M678.47,111.24A12.74,12.74,0,1,0,691.2,98.51a12.73,12.73,0,0,0-12.73,12.73"/><path class="cls-18" d="M669.77,71.39A12.73,12.73,0,1,0,682.5,58.66a12.73,12.73,0,0,0-12.73,12.73"/><path class="cls-18" d="M662.9,97.5a12.73,12.73,0,1,0,12.73-12.73A12.73,12.73,0,0,0,662.9,97.5"/><path class="cls-19" d="M669,94.61a25.79,25.79,0,1,0,25.79-25.79A25.79,25.79,0,0,0,669,94.61"/><path class="cls-18" d="M688.05,69.73a25.78,25.78,0,0,0,21.72,45.89,25.79,25.79,0,1,1-21.72-45.89"/><path class="cls-19" d="M694.52,95.33a17.76,17.76,0,1,0,17.75-17.76,17.75,17.75,0,0,0-17.75,17.76"/><path class="cls-19" d="M678.63,69a16.5,16.5,0,1,0,16.5-16.5A16.49,16.49,0,0,0,678.63,69"/><path class="cls-19" d="M663.9,81.86a15.34,15.34,0,1,0,15.34-15.33A15.33,15.33,0,0,0,663.9,81.86"/><path class="cls-19" d="M673.43,99.79a12.74,12.74,0,1,0,12.73-12.73,12.74,12.74,0,0,0-12.73,12.73"/><path class="cls-19" d="M700.69,76a12.22,12.22,0,1,0,12.22-12.22A12.22,12.22,0,0,0,700.69,76"/><g class="cls-13"><rect class="cls-9" x="714.56" y="132.74" width="26.1" height="14.1"/><path class="cls-14" d="M734.4,135c-.57-1.3-2.56-2.26-4.93-2.26a6.32,6.32,0,0,0-4.39,1.49,12.71,12.71,0,0,0-2.67-.28c-4.34,0-7.85,2.07-7.85,4.62,0,2.14,2.47,3.94,5.83,4.46,1.58,2.25,5.34,3.84,9.73,3.84,5.82,0,10.54-2.78,10.54-6.21,0-2.52-2.58-4.69-6.26-5.66"/></g><path class="cls-15" d="M739.75,120.72h-4.38v23.37h0c0,.57,1,1,2.19,1s2.19-.47,2.19-1h0Z"/><g class="cls-16"><rect class="cls-9" x="735.37" y="106.64" width="4.38" height="25.9"/><path class="cls-17" d="M739.75,106.66l-4.38,2.09v23.37h0c0,.58,1,.57,2.19,0s2.19-1.51,2.19-2.09h0Z"/></g><path class="cls-18" d="M725.56,121.38A8.41,8.41,0,1,0,734,113a8.4,8.4,0,0,0-8.41,8.41"/><path class="cls-18" d="M719.81,95.06a8.41,8.41,0,1,0,8.41-8.42,8.42,8.42,0,0,0-8.41,8.42"/><path class="cls-18" d="M715.27,112.3a8.41,8.41,0,1,0,8.41-8.41,8.42,8.42,0,0,0-8.41,8.41"/><path class="cls-19" d="M719.33,110.39a17,17,0,1,0,17-17,17,17,0,0,0-17,17"/><path class="cls-18" d="M731.89,94a17,17,0,0,0,14.35,30.31A17,17,0,1,1,731.89,94"/><path class="cls-19" d="M736.16,110.87a11.73,11.73,0,1,0,11.73-11.73,11.73,11.73,0,0,0-11.73,11.73"/><path class="cls-19" d="M725.67,93.49a10.9,10.9,0,1,0,10.89-10.9,10.9,10.9,0,0,0-10.89,10.9"/><path class="cls-19" d="M715.94,102a10.13,10.13,0,1,0,10.12-10.13A10.12,10.12,0,0,0,715.94,102"/><path class="cls-19" d="M722.23,113.82a8.41,8.41,0,1,0,8.41-8.41,8.42,8.42,0,0,0-8.41,8.41"/><path class="cls-19" d="M740.24,98.11A8.07,8.07,0,1,0,748.31,90a8.07,8.07,0,0,0-8.07,8.08"/><g class="cls-13"><rect class="cls-9" x="953.08" y="402.04" width="26.1" height="14.1"/><path class="cls-14" d="M972.92,404.26c-.56-1.3-2.55-2.26-4.93-2.26a6.39,6.39,0,0,0-4.39,1.48,13.33,13.33,0,0,0-2.67-.28c-4.34,0-7.85,2.07-7.85,4.63,0,2.14,2.47,3.93,5.83,4.46,1.58,2.25,5.34,3.83,9.73,3.83,5.82,0,10.54-2.77,10.54-6.2,0-2.53-2.58-4.7-6.26-5.66"/></g><path class="cls-15" d="M978.27,390h-4.38v23.36h0c0,.57,1,1,2.19,1s2.19-.47,2.19-1h0Z"/><g class="cls-16"><rect class="cls-9" x="973.89" y="375.94" width="4.38" height="25.9"/><path class="cls-17" d="M978.27,375.91,973.89,378v23.37c0,.57,1,.57,2.19,0s2.19-1.51,2.19-2.08h0Z"/></g><path class="cls-18" d="M964.08,390.63a8.41,8.41,0,1,0,8.41-8.41,8.41,8.41,0,0,0-8.41,8.41"/><path class="cls-18" d="M958.33,364.3a8.41,8.41,0,1,0,8.41-8.41,8.42,8.42,0,0,0-8.41,8.41"/><path class="cls-18" d="M953.79,381.55a8.42,8.42,0,1,0,8.41-8.41,8.41,8.41,0,0,0-8.41,8.41"/><path class="cls-19" d="M957.85,379.64a17,17,0,1,0,17-17,17,17,0,0,0-17,17"/><path class="cls-18" d="M970.41,363.2a17,17,0,0,0,14.35,30.32,17,17,0,1,1-14.35-30.32"/><path class="cls-19" d="M974.68,380.12a11.74,11.74,0,1,0,11.73-11.74,11.73,11.73,0,0,0-11.73,11.74"/><path class="cls-19" d="M964.19,362.73a10.9,10.9,0,1,0,10.9-10.89,10.9,10.9,0,0,0-10.9,10.89"/><path class="cls-19" d="M954.46,371.22a10.13,10.13,0,1,0,10.13-10.13,10.13,10.13,0,0,0-10.13,10.13"/><path class="cls-19" d="M960.75,383.07a8.42,8.42,0,1,0,8.41-8.42,8.42,8.42,0,0,0-8.41,8.42"/><path class="cls-19" d="M978.76,367.35a8.08,8.08,0,1,0,8.07-8.07,8.07,8.07,0,0,0-8.07,8.07"/><g class="cls-13"><rect class="cls-9" x="490.89" y="180.04" width="26.1" height="14.1"/><path class="cls-14" d="M510.73,182.27c-.56-1.3-2.55-2.26-4.93-2.26a6.34,6.34,0,0,0-4.39,1.49,12.64,12.64,0,0,0-2.67-.28c-4.34,0-7.85,2.07-7.85,4.62,0,2.14,2.47,3.94,5.83,4.46,1.58,2.25,5.34,3.84,9.73,3.84,5.82,0,10.54-2.78,10.54-6.21,0-2.52-2.57-4.69-6.26-5.66"/></g><path class="cls-15" d="M516.08,168H511.7v23.37c0,.57,1,1,2.19,1s2.19-.47,2.19-1Z"/><g class="cls-16"><rect class="cls-9" x="511.7" y="153.94" width="4.38" height="25.9"/><path class="cls-17" d="M516.08,153.92,511.7,156v23.36c0,.58,1,.57,2.19,0s2.19-1.51,2.19-2.09Z"/></g><path class="cls-18" d="M501.89,168.64a8.41,8.41,0,1,0,8.41-8.41,8.42,8.42,0,0,0-8.41,8.41"/><path class="cls-18" d="M496.14,142.32a8.42,8.42,0,1,0,8.41-8.41,8.42,8.42,0,0,0-8.41,8.41"/><path class="cls-18" d="M491.6,159.56a8.42,8.42,0,1,0,8.41-8.41,8.42,8.42,0,0,0-8.41,8.41"/><path class="cls-19" d="M495.66,157.65a17,17,0,1,0,17-17,17,17,0,0,0-17,17"/><path class="cls-18" d="M508.22,141.21a17,17,0,0,0,14.35,30.32,17,17,0,1,1-14.35-30.32"/><path class="cls-19" d="M512.49,158.13a11.74,11.74,0,1,0,11.73-11.73,11.73,11.73,0,0,0-11.73,11.73"/><path class="cls-19" d="M502,140.75a10.9,10.9,0,1,0,10.9-10.9,10.9,10.9,0,0,0-10.9,10.9"/><path class="cls-19" d="M492.27,149.23A10.13,10.13,0,1,0,502.4,139.1a10.12,10.12,0,0,0-10.13,10.13"/><path class="cls-19" d="M498.56,161.08a8.42,8.42,0,1,0,8.41-8.41,8.42,8.42,0,0,0-8.41,8.41"/><path class="cls-19" d="M516.57,145.37a8.08,8.08,0,1,0,8.07-8.08,8.07,8.07,0,0,0-8.07,8.08"/><g class="cls-13"><rect class="cls-9" x="268.72" y="155.14" width="26.1" height="14.2"/><path class="cls-14" d="M288.56,157.44c-.56-1.29-2.55-2.25-4.93-2.25a6.39,6.39,0,0,0-4.39,1.48,12.71,12.71,0,0,0-2.67-.28c-4.34,0-7.85,2.07-7.85,4.62,0,2.15,2.47,3.94,5.83,4.47,1.58,2.25,5.34,3.83,9.73,3.83,5.82,0,10.54-2.77,10.54-6.2,0-2.53-2.58-4.7-6.26-5.67"/></g><path class="cls-15" d="M293.91,143.16h-4.38v23.36c0,.58,1,1,2.19,1s2.19-.46,2.19-1Z"/><g class="cls-16"><rect class="cls-9" x="289.53" y="129.14" width="4.38" height="25.8"/><path class="cls-17" d="M293.91,129.1l-4.38,2.09v23.36h0c0,.57,1,.57,2.19,0s2.19-1.51,2.19-2.08Z"/></g><path class="cls-18" d="M279.72,143.82a8.41,8.41,0,1,0,8.41-8.41,8.41,8.41,0,0,0-8.41,8.41"/><path class="cls-18" d="M274,117.49a8.41,8.41,0,1,0,8.41-8.41,8.41,8.41,0,0,0-8.41,8.41"/><path class="cls-18" d="M269.43,134.74a8.42,8.42,0,1,0,8.41-8.41,8.41,8.41,0,0,0-8.41,8.41"/><path class="cls-19" d="M273.49,132.83a17,17,0,1,0,17-17,17,17,0,0,0-17,17"/><path class="cls-18" d="M286.05,116.39a17,17,0,0,0,14.35,30.32,17,17,0,1,1-14.35-30.32"/><path class="cls-19" d="M290.32,133.3a11.73,11.73,0,1,0,11.73-11.73,11.73,11.73,0,0,0-11.73,11.73"/><path class="cls-19" d="M279.83,115.92A10.9,10.9,0,1,0,290.73,105a10.9,10.9,0,0,0-10.9,10.89"/><path class="cls-19" d="M270.1,124.41a10.13,10.13,0,1,0,10.13-10.13,10.13,10.13,0,0,0-10.13,10.13"/><path class="cls-19" d="M276.39,136.25a8.42,8.42,0,1,0,8.41-8.41,8.42,8.42,0,0,0-8.41,8.41"/><path class="cls-19" d="M294.4,120.54a8.07,8.07,0,1,0,8.07-8.07,8.07,8.07,0,0,0-8.07,8.07"/><g class="cls-13"><rect class="cls-9" x="429.12" y="163.84" width="31.03" height="16.8"/><path class="cls-14" d="M452.71,166.48c-.67-1.54-3-2.68-5.86-2.68a7.55,7.55,0,0,0-5.22,1.76,15.36,15.36,0,0,0-3.18-.33c-5.15,0-9.33,2.46-9.33,5.5,0,2.54,2.94,4.68,6.93,5.31,1.88,2.67,6.35,4.55,11.57,4.55,6.92,0,12.53-3.3,12.53-7.37,0-3-3.06-5.59-7.44-6.74"/></g><path class="cls-15" d="M459.07,149.5h-5.21v27.78h0c0,.68,1.17,1.24,2.61,1.24s2.6-.56,2.6-1.24h0Z"/><g class="cls-16"><rect class="cls-9" x="453.87" y="132.74" width="5.21" height="30.8"/><path class="cls-17" d="M459.07,132.78l-5.21,2.49v27.78h0c0,.68,1.17.68,2.61,0s2.6-1.79,2.6-2.48Z"/></g><path class="cls-18" d="M442.2,150.28a10,10,0,1,0,10-10,10,10,0,0,0-10,10"/><path class="cls-18" d="M435.36,119a10,10,0,1,0,10-10,10,10,0,0,0-10,10"/><path class="cls-18" d="M430,139.49a10,10,0,1,0,10-10,10,10,0,0,0-10,10"/><path class="cls-19" d="M434.79,137.22A20.26,20.26,0,1,0,455,117a20.26,20.26,0,0,0-20.25,20.26"/><path class="cls-18" d="M449.72,117.67a20.26,20.26,0,0,0,17.07,36.05,20.26,20.26,0,1,1-17.07-36"/><path class="cls-19" d="M454.8,137.78a13.95,13.95,0,1,0,13.95-14,14,14,0,0,0-13.95,14"/><path class="cls-19" d="M442.33,117.11a13,13,0,1,0,13-13,13,13,0,0,0-13,13"/><path class="cls-19" d="M430.76,127.2a12,12,0,1,0,12-12,12,12,0,0,0-12,12"/><path class="cls-19" d="M438.24,141.29a10,10,0,1,0,10-10,10,10,0,0,0-10,10"/><path class="cls-19" d="M459.65,122.61a9.6,9.6,0,1,0,9.6-9.6,9.6,9.6,0,0,0-9.6,9.6"/><g class="cls-13"><rect class="cls-9" x="216.98" y="186.04" width="39.51" height="21.4"/><path class="cls-14" d="M247,189.5c-.86-2-3.87-3.41-7.47-3.41a9.61,9.61,0,0,0-6.64,2.24,19.42,19.42,0,0,0-4-.43c-6.56,0-11.88,3.14-11.88,7,0,3.24,3.75,6,8.82,6.76,2.4,3.4,8.09,5.8,14.74,5.8,8.81,0,16-4.2,16-9.39,0-3.82-3.9-7.11-9.47-8.57"/></g><path class="cls-15" d="M255.12,167.87h-6.63v35.37h0c0,.87,1.48,1.58,3.31,1.58s3.32-.71,3.32-1.58h0Z"/><g class="cls-16"><rect class="cls-9" x="248.49" y="146.64" width="6.63" height="39.1"/><path class="cls-17" d="M255.12,146.59l-6.63,3.17v35.37h0c0,.87,1.48.86,3.31,0s3.32-2.29,3.32-3.16h0Z"/></g><path class="cls-18" d="M233.63,168.87a12.74,12.74,0,1,0,12.74-12.73,12.74,12.74,0,0,0-12.74,12.73"/><path class="cls-18" d="M224.93,129a12.74,12.74,0,1,0,12.73-12.73A12.73,12.73,0,0,0,224.93,129"/><path class="cls-18" d="M218.06,155.13a12.74,12.74,0,1,0,12.73-12.73,12.74,12.74,0,0,0-12.73,12.73"/><path class="cls-19" d="M224.2,152.24A25.79,25.79,0,1,0,250,126.45a25.79,25.79,0,0,0-25.79,25.79"/><path class="cls-18" d="M243.21,127.36a25.78,25.78,0,0,0,21.73,45.89,25.79,25.79,0,1,1-21.73-45.89"/><path class="cls-19" d="M249.68,153a17.76,17.76,0,1,0,17.76-17.76A17.76,17.76,0,0,0,249.68,153"/><path class="cls-19" d="M233.8,126.65a16.5,16.5,0,1,0,16.49-16.5,16.49,16.49,0,0,0-16.49,16.5"/><path class="cls-19" d="M219.07,139.49a15.33,15.33,0,1,0,15.33-15.33,15.33,15.33,0,0,0-15.33,15.33"/><path class="cls-19" d="M228.59,157.42a12.74,12.74,0,1,0,12.74-12.73,12.74,12.74,0,0,0-12.74,12.73"/><path class="cls-19" d="M255.85,133.64a12.22,12.22,0,1,0,12.22-12.22,12.22,12.22,0,0,0-12.22,12.22"/><rect class="cls-25" x="597.92" y="206.07" width="76.68" height="2.83"/><rect class="cls-25" x="597.92" y="214.09" width="76.68" height="2.83"/><path class="cls-23" d="M606.58,222.11h-7.47V202.47a3.74,3.74,0,0,1,7.47,0Z"/><path class="cls-23" d="M623.45,222.11H616V202.47a3.74,3.74,0,0,1,7.47,0Z"/><path class="cls-23" d="M640.31,222.11h-7.46V202.47a3.73,3.73,0,1,1,7.46,0Z"/><path class="cls-23" d="M656.64,222.11h-7.46V202.47a3.73,3.73,0,0,1,7.46,0Z"/><path class="cls-23" d="M673,222.11h-7.46V202.47a3.73,3.73,0,0,1,7.46,0Z"/><rect class="cls-25" x="520.85" y="206.07" width="76.68" height="2.83"/><rect class="cls-25" x="520.85" y="214.09" width="76.68" height="2.83"/><path class="cls-23" d="M529.51,222.11h-7.46V202.47a3.73,3.73,0,0,1,7.46,0Z"/><path class="cls-23" d="M546.38,222.11h-7.46V202.47a3.73,3.73,0,0,1,7.46,0Z"/><path class="cls-23" d="M563.25,222.11h-7.47V202.47a3.74,3.74,0,0,1,7.47,0Z"/><path class="cls-23" d="M579.58,222.11h-7.47V202.47a3.74,3.74,0,0,1,7.47,0Z"/><path class="cls-23" d="M595.91,222.11h-7.47V202.47a3.74,3.74,0,0,1,7.47,0Z"/><rect class="cls-25" x="442.39" y="206.07" width="76.68" height="2.83"/><rect class="cls-25" x="442.39" y="214.09" width="76.68" height="2.83"/><path class="cls-23" d="M451.06,222.11h-7.47V202.47a3.74,3.74,0,0,1,7.47,0Z"/><path class="cls-23" d="M467.92,222.11h-7.46V202.47a3.73,3.73,0,0,1,7.46,0Z"/><path class="cls-23" d="M484.79,222.11h-7.46V202.47a3.73,3.73,0,0,1,7.46,0Z"/><path class="cls-23" d="M501.12,222.11h-7.46V202.47a3.73,3.73,0,0,1,7.46,0Z"/><path class="cls-23" d="M517.45,222.11H510V202.47a3.73,3.73,0,0,1,7.46,0Z"/><path class="cls-48" d="M138.52,256.15a5.21,5.21,0,1,1,5.21-5.21,5.21,5.21,0,0,1-5.21,5.21"/><path class="cls-48" d="M138.52,279.21a5.21,5.21,0,1,1,5.21-5.21,5.21,5.21,0,0,1-5.21,5.21"/><path class="cls-48" d="M138.52,302.27a5.21,5.21,0,1,1,5.21-5.21,5.21,5.21,0,0,1-5.21,5.21"/><path class="cls-48" d="M138.52,325.33a5.21,5.21,0,1,1,5.21-5.21,5.21,5.21,0,0,1-5.21,5.21"/><path class="cls-48" d="M138.52,348.39a5.21,5.21,0,1,1,5.21-5.21,5.21,5.21,0,0,1-5.21,5.21"/><path class="cls-48" d="M138.52,371.45a5.21,5.21,0,1,1,5.21-5.21,5.21,5.21,0,0,1-5.21,5.21"/><path class="cls-48" d="M138.52,394.51a5.21,5.21,0,1,1,5.21-5.21,5.21,5.21,0,0,1-5.21,5.21"/><path class="cls-48" d="M378.75,363.76a5.21,5.21,0,1,1,5.21-5.2,5.2,5.2,0,0,1-5.21,5.2"/><path class="cls-48" d="M378.75,386.82a5.21,5.21,0,1,1,5.21-5.2,5.2,5.2,0,0,1-5.21,5.2"/><path class="cls-48" d="M378.75,409.88a5.21,5.21,0,1,1,5.21-5.2,5.2,5.2,0,0,1-5.21,5.2"/><path class="cls-48" d="M725.9,363.76a5.21,5.21,0,1,1,5.2-5.2,5.2,5.2,0,0,1-5.2,5.2"/><path class="cls-48" d="M725.9,386.82a5.21,5.21,0,1,1,5.2-5.2,5.2,5.2,0,0,1-5.2,5.2"/><path class="cls-48" d="M725.9,409.88a5.21,5.21,0,1,1,5.2-5.2,5.2,5.2,0,0,1-5.2,5.2"/><path class="cls-48" d="M287.3,520.33a5.21,5.21,0,1,1,5.21,5.2,5.21,5.21,0,0,1-5.21-5.2"/><path class="cls-48" d="M264.24,520.33a5.21,5.21,0,1,1,5.21,5.2,5.21,5.21,0,0,1-5.21-5.2"/><path class="cls-48" d="M241.18,520.33a5.21,5.21,0,1,1,5.21,5.2,5.21,5.21,0,0,1-5.21-5.2"/><path class="cls-48" d="M218.12,520.33a5.21,5.21,0,1,1,5.2,5.2,5.2,5.2,0,0,1-5.2-5.2"/><path class="cls-48" d="M464.26,267.64a5.21,5.21,0,1,1-5.21-5.21,5.21,5.21,0,0,1,5.21,5.21"/><path class="cls-48" d="M487.32,267.64a5.21,5.21,0,1,1-5.21-5.21,5.21,5.21,0,0,1,5.21,5.21"/><path class="cls-48" d="M510.38,267.64a5.21,5.21,0,1,1-5.21-5.21,5.21,5.21,0,0,1,5.21,5.21"/><path class="cls-48" d="M533.44,267.64a5.21,5.21,0,1,1-5.21-5.21,5.21,5.21,0,0,1,5.21,5.21"/><path class="cls-48" d="M556.5,267.64a5.21,5.21,0,1,1-5.21-5.21,5.21,5.21,0,0,1,5.21,5.21"/><path class="cls-48" d="M579.56,267.64a5.21,5.21,0,1,1-5.21-5.21,5.21,5.21,0,0,1,5.21,5.21"/><path class="cls-48" d="M602.62,267.64a5.21,5.21,0,1,1-5.21-5.21,5.21,5.21,0,0,1,5.21,5.21"/><path class="cls-48" d="M625.68,267.64a5.21,5.21,0,1,1-5.21-5.21,5.21,5.21,0,0,1,5.21,5.21"/><path class="cls-48" d="M648.74,267.64a5.21,5.21,0,1,1-5.21-5.21,5.21,5.21,0,0,1,5.21,5.21"/><path class="cls-48" d="M820.82,509.91a5.21,5.21,0,1,1-5.21-5.2,5.21,5.21,0,0,1,5.21,5.2"/><path class="cls-48" d="M843.88,509.91a5.21,5.21,0,1,1-5.21-5.2,5.21,5.21,0,0,1,5.21,5.2"/><path class="cls-48" d="M866.94,509.91a5.21,5.21,0,1,1-5.21-5.2,5.21,5.21,0,0,1,5.21,5.2"/><path class="cls-48" d="M890,509.91a5.21,5.21,0,1,1-5.21-5.2,5.21,5.21,0,0,1,5.21,5.2"/><path class="cls-48" d="M913.06,509.91a5.21,5.21,0,1,1-5.21-5.2,5.21,5.21,0,0,1,5.21,5.2"/><path class="cls-48" d="M936.12,509.91a5.21,5.21,0,1,1-5.21-5.2,5.21,5.21,0,0,1,5.21,5.2"/><path class="cls-49" d="M352.85,160.59s-10.4,9.56-3.61,21.27,26.38,4.16,28.24,14c2.07,11-24.89,38.5-24.89,38.5l1.9-1.14S364,224.5,411,224.5c18.89,0,18.44-25.84,12.35-31.42-11.11-10.18-46.87-14.69-39-24.41s9.93-8.08,9.93-8.08Z"/><g class="cls-8"><rect class="cls-9" x="267.32" y="432.84" width="46.74" height="9.3"/><path class="cls-10" d="M309.43,442.1H271.94a4.63,4.63,0,1,1,0-9.26h37.49a4.63,4.63,0,0,1,0,9.26"/></g><g class="cls-8"><rect class="cls-9" x="455.7" y="487.04" width="46.75" height="9.2"/><path class="cls-10" d="M497.82,496.26H460.33a4.63,4.63,0,0,1,0-9.26h37.49a4.63,4.63,0,1,1,0,9.26"/></g><g class="cls-8"><rect class="cls-9" x="463.11" y="399.04" width="172.64" height="24.1"/><path class="cls-10" d="M631.13,408.31H597.85a4.63,4.63,0,0,0-3.29-1.39H550.18a4.62,4.62,0,0,0-3.3-7.86H509.39a4.64,4.64,0,0,0-4.63,4.62,4.73,4.73,0,0,0,.1.93H467.73a4.63,4.63,0,0,0,0,9.26h37.5a4.64,4.64,0,0,0,4.62-4.63,4.73,4.73,0,0,0-.09-.93h9.3a4.62,4.62,0,0,0,3.29,7.87h23.79a4.6,4.6,0,0,0-.65,2.32,4.65,4.65,0,0,0,4.63,4.63h37.5a4.64,4.64,0,0,0,4.62-4.63,4.44,4.44,0,0,0-.18-1.22,4.56,4.56,0,0,0,1.57.29h37.5a4.63,4.63,0,0,0,0-9.26"/></g><g class="cls-8"><rect class="cls-9" x="790.58" y="366.44" width="46.74" height="9.3"/><path class="cls-10" d="M832.69,375.7H795.2a4.63,4.63,0,1,1,0-9.25h37.49a4.63,4.63,0,1,1,0,9.25"/></g><g class="cls-8"><rect class="cls-9" x="770.45" y="92.14" width="46.75" height="9.3"/><path class="cls-10" d="M812.57,101.43H775.08a4.63,4.63,0,1,1,0-9.25h37.49a4.63,4.63,0,1,1,0,9.25"/></g><path class="cls-50" d="M490.19,465.61s4.94-1.55,7.27.47,1.07,10.11,7.72,10.26L505,483a8.77,8.77,0,0,1-7.35-4.36c-2.69-4.5-.9-10.26-6.1-10.41s-1.35-2.65-1.35-2.65"/><path class="cls-50" d="M460.23,443.06l.16-4.66s5.36.09,8.4,3.42c4.81,5.29,3.42,19.9,3.42,19.9l-6.84.32Z"/><path class="cls-51" d="M494.29,469.81c0,4.95-2.19,9-8.55,9h-19.6c-6.36,0-8.08-4-8.08-9s5.15-9,11.52-9h13.19c6.35,0,11.52,4,11.52,9"/><rect class="cls-51" x="458.06" y="449.91" width="10.57" height="21.46"/><path class="cls-51" d="M459.92,441.51h-9.17v17.42h9.17a8.71,8.71,0,0,0,0-17.42"/><path class="cls-52" d="M450,441.51a8.71,8.71,0,0,0,0,17.42h.78V441.51Z"/><path class="cls-30" d="M461.94,448.51a1.24,1.24,0,1,1-1.24-1.25,1.24,1.24,0,0,1,1.24,1.25"/><path class="cls-51" d="M471.28,442.13a3.81,3.81,0,1,1-4.9-.64,3.51,3.51,0,0,1,4.9.64"/><path class="cls-53" d="M458.06,489.87c0,2.75,1.91,2.8,4.27,2.8s4.28-.05,4.28-2.8v-1.4h-8.55Z"/><path class="cls-51" d="M462.33,467.32c-2.36,0-4.27,2.23-4.27,5v16.17h8.55V472.3c0-2.75-1.92-5-4.28-5"/><path class="cls-51" d="M494.29,470.93c0-2.94-1.92-5.32-4.27-5.32s-4.28,2.38-4.28,5.32v17.54h8.55Z"/><path class="cls-53" d="M485.74,488.47v1.4c0,2.94,1.91,2.8,4.28,2.8s4.27.14,4.27-2.8v-1.4Z"/><path class="cls-50" d="M787.73,75.55s-4.24-1.34-6.25.4-.92,8.69-6.64,8.83l.16,5.75a7.55,7.55,0,0,0,6.33-3.75c2.31-3.87.77-8.82,5.24-9s1.16-2.27,1.16-2.27"/><path class="cls-50" d="M813.5,56.16l-.14-4s-4.61.07-7.22,2.94c-4.14,4.55-2.94,17.12-2.94,17.12l5.88.26Z"/><path class="cls-51" d="M784.21,79.16c0,4.26,1.88,7.71,7.35,7.71h16.86c5.47,0,7-3.45,7-7.71s-4.44-7.7-9.91-7.7H794.12c-5.47,0-9.91,3.45-9.91,7.7"/><rect class="cls-51" x="806.28" y="62.04" width="9.09" height="18.46"/><path class="cls-51" d="M813.76,54.82h7.89v15h-7.89a7.49,7.49,0,0,1,0-15"/><path class="cls-52" d="M822.32,54.82a7.49,7.49,0,0,1,0,15h-.67v-15Z"/><path class="cls-30" d="M812,60.84a1.07,1.07,0,1,0,1.07-1.07A1.06,1.06,0,0,0,812,60.84"/><path class="cls-51" d="M804,55.35a3.28,3.28,0,0,0,5.41,3.54A3.27,3.27,0,0,0,804,55.35"/><path class="cls-53" d="M815.37,96.41c0,2.37-1.65,2.41-3.68,2.41s-3.68,0-3.68-2.41v-1.2h7.36Z"/><path class="cls-51" d="M811.69,77c2,0,3.68,1.92,3.68,4.28V95.21H808V81.3c0-2.36,1.65-4.28,3.68-4.28"/><path class="cls-51" d="M784.21,80.12c0-2.52,1.65-4.57,3.67-4.57s3.68,2,3.68,4.57V95.21h-7.35Z"/><path class="cls-53" d="M791.56,95.21v1.2c0,2.53-1.64,2.41-3.68,2.41s-3.68.12-3.68-2.41v-1.2Z"/><path class="cls-53" d="M277.2,411.43s-4.94-1.56-7.27.46-1.07,10.11-7.71,10.27l.18,6.68a8.74,8.74,0,0,0,7.35-4.35c2.69-4.51.9-10.26,6.1-10.42s1.35-2.64,1.35-2.64"/><path class="cls-53" d="M307.16,388.88l-.16-4.67s-5.35.09-8.39,3.43c-4.82,5.28-3.42,19.9-3.42,19.9l6.84.31Z"/><path class="cls-30" d="M273.11,415.63c0,4.94,2.18,9,8.55,9h19.59c6.37,0,8.09-4,8.09-9s-5.16-9-11.53-9H284.63c-6.36,0-11.52,4-11.52,9"/><rect class="cls-30" x="298.76" y="395.72" width="10.57" height="21.46"/><path class="cls-30" d="M307.47,387.32h9.18v17.42h-9.18a8.71,8.71,0,0,1,0-17.42"/><path class="cls-54" d="M317.42,387.32a8.71,8.71,0,0,1,0,17.42h-.77V387.32Z"/><path class="cls-50" d="M305.45,394.32a1.25,1.25,0,1,0,1.24-1.24,1.24,1.24,0,0,0-1.24,1.24"/><path class="cls-30" d="M296.12,387.94a3.81,3.81,0,1,0,4.89-.63,3.5,3.5,0,0,0-4.89.63"/><path class="cls-53" d="M309.34,435.69c0,2.75-1.92,2.8-4.28,2.8s-4.28-.05-4.28-2.8v-1.4h8.56Z"/><path class="cls-30" d="M305.06,413.14c2.36,0,4.28,2.23,4.28,5v16.17h-8.56V418.12c0-2.75,1.92-5,4.28-5"/><path class="cls-30" d="M273.11,416.74c0-2.93,1.91-5.31,4.27-5.31s4.28,2.38,4.28,5.31v17.55h-8.55Z"/><path class="cls-53" d="M281.66,434.29v1.4c0,2.93-1.92,2.8-4.28,2.8s-4.28.13-4.28-2.8v-1.4Z"/><path class="cls-53" d="M825.23,348.87s3.85-1.21,5.67.36.84,7.89,6,8l-.14,5.21a6.83,6.83,0,0,1-5.73-3.39c-2.1-3.52-.7-8-4.76-8.13s-1-2.06-1-2.06"/><path class="cls-53" d="M801.87,331.29l.12-3.64s4.18.07,6.55,2.67c3.76,4.12,2.67,15.52,2.67,15.52l-5.34.24Z"/><path class="cls-30" d="M828.42,352.14c0,3.86-1.7,7-6.66,7H806.48c-5,0-6.31-3.13-6.31-7s4-7,9-7h10.28c5,0,9,3.13,9,7"/><rect class="cls-30" x="800.17" y="336.63" width="8.25" height="16.73"/><path class="cls-30" d="M801.63,330.08h-7.15v13.58h7.15a6.79,6.79,0,0,0,0-13.58"/><path class="cls-54" d="M793.87,330.08a6.79,6.79,0,1,0,0,13.58h.61V330.08Z"/><path class="cls-50" d="M803.21,335.53a1,1,0,1,1-1-1,1,1,0,0,1,1,1"/><path class="cls-30" d="M810.48,330.56a3,3,0,1,1-3.81-.49,2.74,2.74,0,0,1,3.81.49"/><path class="cls-53" d="M800.18,367.78c0,2.15,1.49,2.19,3.33,2.19s3.33,0,3.33-2.19v-1.09h-6.66Z"/><path class="cls-30" d="M803.51,350.2a3.65,3.65,0,0,0-3.34,3.89v12.6h6.67v-12.6a3.64,3.64,0,0,0-3.33-3.89"/><path class="cls-30" d="M828.42,353c0-2.29-1.49-4.15-3.33-4.15s-3.33,1.86-3.33,4.15v13.67h6.66Z"/><path class="cls-53" d="M821.76,366.69v1.1c0,2.28,1.49,2.18,3.33,2.18s3.33.1,3.33-2.18v-1.1Z"/><path class="cls-55" d="M613,390.89q-.06,3-.13,6c-.15,5.33-.37,10.65-.69,16h5.74v-22Z"/><path class="cls-56" d="M622.84,390.89q.06,3,.13,6c.15,5.33.37,10.65.69,16h-5.74v-22Z"/><polygon class="cls-57" points="645.65 362.42 617.92 362.42 590.2 362.42 571.56 390.89 613.01 390.89 617.92 390.89 622.2 390.89 664.29 390.89 645.65 362.42"/><polygon class="cls-58" points="638.52 342.77 617.92 342.77 597.33 342.77 584.46 362.42 654.26 369.1 638.52 342.77"/><polygon class="cls-57" points="633.93 328.06 617.92 328.06 601.92 328.06 589.96 346.2 643.57 342.77 633.93 328.06"/><polygon class="cls-58" points="617.92 294.59 617.92 294.59 596 328.06 641.2 332.62 617.92 294.59"/><g class="cls-8"><rect class="cls-9" x="618.02" y="294.54" width="46.36" height="96.4"/><polygon class="cls-10" points="649.83 368.67 654.35 369.1 638.8 343.08 643.65 342.77 636.7 332.16 641.29 332.62 618.01 294.59 618.01 390.89 622.28 390.89 664.38 390.89 649.83 368.67"/></g><path class="cls-55" d="M525.53,381.17q-.06,3-.13,6c-.15,5.33-.37,10.65-.69,16h5.73v-22Z"/><path class="cls-56" d="M535.36,381.17q.06,3,.13,6,.21,8,.68,16h-5.73v-22Z"/><polygon class="cls-57" points="558.16 352.7 530.44 352.7 502.72 352.7 484.07 381.18 525.53 381.18 530.44 381.18 534.71 381.18 576.81 381.18 558.16 352.7"/><polygon class="cls-58" points="551.04 333.05 530.44 333.05 509.85 333.05 496.98 352.7 566.78 359.38 551.04 333.05"/><polygon class="cls-57" points="546.45 318.34 530.44 318.34 514.44 318.34 502.48 336.48 556.08 333.06 546.45 318.34"/><polygon class="cls-58" points="530.44 284.87 530.44 284.87 508.52 318.34 553.72 322.9 530.44 284.87"/><g class="cls-8"><rect class="cls-9" x="530.53" y="284.84" width="46.37" height="96.3"/><polygon class="cls-10" points="562.34 358.95 566.87 359.38 551.32 333.36 556.17 333.05 549.22 322.44 553.81 322.9 530.53 284.87 530.53 381.18 534.8 381.18 576.9 381.18 562.34 358.95"/></g><path class="cls-55" d="M480.68,392.63c0,1.61-.07,3.22-.11,4.82q-.17,6.44-.55,12.85h4.61V392.63Z"/><path class="cls-56" d="M488.58,392.63c0,1.61.06,3.22.11,4.82q.17,6.44.55,12.85h-4.61V392.63Z"/><polygon class="cls-57" points="506.92 369.74 484.63 369.74 462.34 369.74 447.35 392.63 480.68 392.63 484.63 392.63 488.06 392.63 521.9 392.63 506.92 369.74"/><polygon class="cls-58" points="501.19 353.95 484.63 353.95 468.07 353.95 457.73 369.75 513.84 375.11 501.19 353.95"/><polygon class="cls-57" points="497.5 342.12 484.63 342.12 471.76 342.12 462.15 356.7 505.24 353.95 497.5 342.12"/><polygon class="cls-58" points="484.63 315.21 484.63 315.21 467 342.12 503.34 345.79 484.63 315.21"/><g class="cls-8"><rect class="cls-9" x="484.7" y="315.24" width="37.28" height="77.4"/><polygon class="cls-10" points="510.27 374.76 513.91 375.11 501.41 354.2 505.31 353.95 499.73 345.42 503.41 345.79 484.7 315.21 484.7 392.63 488.13 392.63 521.98 392.63 510.27 374.76"/></g><path class="cls-55" d="M568.16,402.35c0,1.61-.06,3.22-.11,4.82q-.16,6.43-.55,12.85h4.61V402.35Z"/><path class="cls-56" d="M576.06,402.35c0,1.61.07,3.22.11,4.82q.17,6.43.55,12.85h-4.61V402.35Z"/><polygon class="cls-57" points="594.4 379.46 572.11 379.46 549.82 379.46 534.83 402.35 568.16 402.35 572.11 402.35 575.54 402.35 609.39 402.35 594.4 379.46"/><polygon class="cls-58" points="588.67 363.67 572.11 363.67 555.55 363.67 545.21 379.46 601.32 384.83 588.67 363.67"/><polygon class="cls-57" points="584.98 351.84 572.11 351.84 559.24 351.84 549.63 366.42 592.72 363.67 584.98 351.84"/><polygon class="cls-58" points="572.11 324.93 572.11 324.93 554.49 351.84 590.82 355.51 572.11 324.93"/><g class="cls-8"><rect class="cls-9" x="572.18" y="324.94" width="37.28" height="77.4"/><polygon class="cls-10" points="597.75 384.48 601.39 384.83 588.89 363.92 592.79 363.67 587.21 355.14 590.89 355.51 572.18 324.93 572.18 402.35 575.62 402.35 609.46 402.35 597.75 384.48"/></g></g></g></g></svg>