<svg xmlns="http://www.w3.org/2000/svg" viewBox="0 0 73.41 73.41">
    <defs>
        <style>
            .cls-1 {
                fill: #a83923;
                stroke: #231815;
                stroke-miterlimit: 10;
                stroke-width: 4px;
            }

            .cls-2 {
                fill: #fff;
            }
        </style>
    </defs>
    <g>
        <path class="cls-1"
            d="M36.7,71.41h0A34.81,34.81,0,0,1,2,36.7H2A34.81,34.81,0,0,1,36.7,2h0A34.81,34.81,0,0,1,71.41,36.7h0A34.81,34.81,0,0,1,36.7,71.41Z" />
        <path class="cls-2"
            d="M49.88,31.51c-3.47-3.8-9.37-5.91-15.05-6.29V16.14L13,33.12l21.83,17V39.71c16.59,0,19.24,13,19.85,17.56h.86C55.87,54.55,57.28,39.61,49.88,31.51Z" />
    </g>
</svg>