<svg xmlns="http://www.w3.org/2000/svg" viewBox="0 0 46.61 46.61"><defs><style>.cls-1{fill:#dd7e44;}.cls-2{fill:#e2a062;}.cls-3{fill:#f0e531;}.cls-4,.cls-5{fill:none;stroke:#231815;stroke-miterlimit:10;}.cls-4{stroke-width:0.8px;}.cls-5{stroke-width:1.2px;}</style></defs><title>資產 3</title><g id="圖層_2" data-name="圖層 2"><g id="圖層_1-2" data-name="圖層 1"><path class="cls-1" d="M25.71,17.75a1.88,1.88,0,0,0-1.43.6,2.86,2.86,0,0,0-.59,2,2.77,2.77,0,0,0,.56,1.89,1.71,1.71,0,0,0,1.37.62c.85,0,2-.26,2-2.59s-1.08-2.53-1.89-2.53m-2.59-9A14.91,14.91,0,1,0,38,23.61,14.92,14.92,0,0,0,23.12,8.7m9.45,17a7.48,7.48,0,0,1-4.45,1.78H26.53a8.16,8.16,0,0,1-2.37-.5l-.71-.28v1.88h1.67v4.53H14.77V28.54h1.56v-10H14.79V14h8.66v.66l.71-.27a9.4,9.4,0,0,1,2.34-.57l1.59,0a7.19,7.19,0,0,1,4.44,1.88,6.52,6.52,0,0,1,2.11,5,6.28,6.28,0,0,1-2.07,5"/><path class="cls-2" d="M23.4.6A22.71,22.71,0,1,0,46.11,23.3,22.7,22.7,0,0,0,23.4.6m0,39.83A17.13,17.13,0,1,1,40.53,23.3,17.15,17.15,0,0,1,23.4,40.43"/><path class="cls-3" d="M23.4,6.7A16.61,16.61,0,1,0,40,23.3,16.62,16.62,0,0,0,23.4,6.7m0,31.51A14.91,14.91,0,1,1,38.31,23.3,14.92,14.92,0,0,1,23.4,38.21"/><path class="cls-3" d="M15.58,32.24V28.76h1.56V17.68H15.6V14.21h7.61v1l.38-.2A9,9,0,0,1,27.78,14a6.7,6.7,0,0,1,4.69,1.77,6,6,0,0,1,1.93,4.64A5.71,5.71,0,0,1,32.51,25a7.26,7.26,0,0,1-5,1.69,7.23,7.23,0,0,1-3.9-1l-.4-.25v3.38h1.68v3.48Zm10.13-15A2.33,2.33,0,0,0,23.9,18a3.33,3.33,0,0,0-.73,2.37,3.25,3.25,0,0,0,.68,2.23,2.29,2.29,0,0,0,1.77.81c1.66,0,2.5-1,2.5-3.12s-.81-3.06-2.41-3.06"/><path class="cls-4" d="M40.17,23.3A16.87,16.87,0,1,1,23.3,6.44,16.87,16.87,0,0,1,40.17,23.3Z"/><path class="cls-4" d="M38,23.3A14.65,14.65,0,1,1,23.3,8.65,14.65,14.65,0,0,1,38,23.3Z"/><path class="cls-5" d="M46,23.3A22.71,22.71,0,1,1,23.3.6,22.71,22.71,0,0,1,46,23.3Z"/><path class="cls-5" d="M15.24,18V14h8.13v.85a9.22,9.22,0,0,1,4.31-1.09,7,7,0,0,1,4.87,1.84,6.26,6.26,0,0,1,2,4.83,6,6,0,0,1-2,4.76,7.56,7.56,0,0,1-5.18,1.76,7.45,7.45,0,0,1-4-1V28.5h1.68v4H15.21v-4h1.56V18Zm8.09,2.41A3,3,0,0,0,24,22.43a2,2,0,0,0,1.56.71c1.49,0,2.24-1,2.24-2.86s-.72-2.79-2.15-2.79a2.1,2.1,0,0,0-1.62.68A3.08,3.08,0,0,0,23.33,20.36Z"/></g></g></svg>