<svg xmlns="http://www.w3.org/2000/svg" viewBox="0 0 41.83 40.4"><defs><style>.cls-1{fill:#f4e629;}</style></defs><title>資產 5</title><g id="圖層_2" data-name="圖層 2"><g id="圖層_1-2" data-name="圖層 1"><path class="cls-1" d="M21.42,2s-1.91-.72-3,2.84-4.69,8-4.69,8L3.27,14.42,1.69,16.53,3.93,19l6,6.2L8.55,32.05l-.33,5.14,1.92,2.05L18,35l3.89-1.59,3.83,2.51,5.61,3a11.71,11.71,0,0,0,2.31-.79c.07-.2-2.7-9.71-2.7-9.71L32,25.78l2.91-3.57,3.83-3.7,1-3-4.16-2.37-5.88-.07L27.1,13l-.86-3.5L24.53,4.39Z"/><path d="M6.59,35.84c.58-2.54,1.22-5.55,2-8.52a2.23,2.23,0,0,0-.83-2.57c-2-1.72-4-3.54-6-5.28C.39,18.31-.38,17,.19,15.18A3.82,3.82,0,0,1,4,12.47c2.61-.17,5.2-.5,7.8-.65a2.34,2.34,0,0,0,2.34-1.65c1-2.53,2.16-5,3.2-7.51A3.69,3.69,0,0,1,21,0a3.74,3.74,0,0,1,3.52,2.63c1.05,2.57,2.22,5.1,3.24,7.69a2.07,2.07,0,0,0,2,1.5c2.72.17,5.43.46,8.14.71a3.83,3.83,0,0,1,3.68,2.7,3.76,3.76,0,0,1-1.39,4.18c-2,1.79-4.06,3.63-6.17,5.36a2.34,2.34,0,0,0-.86,2.72c.65,2.64,1.19,5.31,1.81,8a3.8,3.8,0,0,1-5.9,4.18c-2.27-1.4-4.59-2.72-6.81-4.19a2.38,2.38,0,0,0-3,.05C17,37,14.61,38.43,12.17,39.76c-2.83,1.53-5.72-.3-5.58-3.92m2.77.47c.11,1.27.75,1.44,1.75.85,2.39-1.41,4.82-2.78,7.16-4.28A4.44,4.44,0,0,1,23.6,33c2.13,1.4,4.33,2.7,6.55,4a3.1,3.1,0,0,0,1.69.38c.94-.44,0-3.37-.17-4q-.6-2.79-1.26-5.55a4.38,4.38,0,0,1,1.52-4.82c1.32-1.09,2.61-2.21,3.89-3.35a21.86,21.86,0,0,0,2.33-2.18c.34-.4.9-.9.58-1.41-.6-1-2.87-.81-3.82-.91-1.88-.19-3.76-.35-5.64-.5a4.2,4.2,0,0,1-3.95-2.87c-1-2.48-2-4.93-3.12-7.36a3.43,3.43,0,0,0-.84-1.09c-.67-.58-1.36.39-1.65,1-1.06,2.32-2.11,4.65-3,7a4.72,4.72,0,0,1-4.62,3.27c-1.67.1-3.34.28-5,.44A14.36,14.36,0,0,0,4,15.46c-2.69.87.8,3,1.79,3.9,1.23,1.11,2.47,2.2,3.75,3.24A4.72,4.72,0,0,1,11.28,28c-.74,2.74-1.28,5.53-1.92,8.32"/></g></g></svg>