<svg xmlns="http://www.w3.org/2000/svg" viewBox="0 0 45.72 45.72"><defs><style>.cls-1{fill:#fff;}.cls-1,.cls-2{fill-rule:evenodd;}.cls-2{fill:#070001;}</style></defs><title>資產 2</title><g id="圖層_2" data-name="圖層 2"><g id="圖層_1-2" data-name="圖層 1"><path class="cls-1" d="M44.09,23.05A21.18,21.18,0,1,1,22.92,1.88,21.17,21.17,0,0,1,44.09,23.05"/><path class="cls-2" d="M22.86,0A22.88,22.88,0,1,1,6.7,6.7,22.8,22.8,0,0,1,22.86,0M11.17,30.16a.47.47,0,0,0,.22-.18.63.63,0,0,0,.06-.31.73.73,0,0,0-.17-.51.77.77,0,0,0-.59-.18.81.81,0,0,0-.56.17.65.65,0,0,0-.19.5A.81.81,0,0,0,10,30a.39.39,0,0,0,.18.18.41.41,0,0,0-.22.28,1.68,1.68,0,0,0,0,.41,1.32,1.32,0,0,0,.07.51.53.53,0,0,0,.25.24,1,1,0,0,0,.46.09.94.94,0,0,0,.47-.1.47.47,0,0,0,.24-.24,1.37,1.37,0,0,0,.06-.47,1.21,1.21,0,0,0-.08-.55.43.43,0,0,0-.22-.17m-.36-.56a.29.29,0,0,0,0-.17s0-.05-.09-.05a.08.08,0,0,0-.08.05.34.34,0,0,0,0,.17v.2a.3.3,0,0,0,0,.16.11.11,0,0,0,.18,0,.62.62,0,0,0,0-.18Zm0,1.08a.38.38,0,0,0,0-.19s0,0-.1,0a.1.1,0,0,0-.09,0,.46.46,0,0,0,0,.2V31a.51.51,0,0,0,0,.22.12.12,0,0,0,.1.05.11.11,0,0,0,.1-.05.88.88,0,0,0,0-.22Zm5.33,3.52H14.9v.47h.65l-.47,2.14h.65l.42-2Zm15.53-.47h-1.4l0,1.32h.65a.38.38,0,0,1,0-.14.05.05,0,0,1,0-.06.09.09,0,0,1,.07,0,.14.14,0,0,1,.11,0,.46.46,0,0,1,0,.2v.52c0,.18,0,.28,0,.3a.09.09,0,0,1,0,.07A.11.11,0,0,1,31,36a.13.13,0,0,1-.13-.11,3.13,3.13,0,0,1,0-.35v-.17h-.65v.14a1.22,1.22,0,0,0,.08.54.46.46,0,0,0,.27.26,1.17,1.17,0,0,0,.82,0,.57.57,0,0,0,.25-.16.62.62,0,0,0,.11-.25,1.9,1.9,0,0,0,0-.4v-.37a.89.89,0,0,0-.14-.58.5.5,0,0,0-.41-.16.52.52,0,0,0-.39.18v-.44h.81Zm4.56-5h-.86l-.57,1.71v.44h.78v.46h.65v-.46h.18v-.44h-.18Zm-.65,1.71V29.36l-.29,1.12Zm.77-14h-.71a11.4,11.4,0,0,0,.66-1.06,1.24,1.24,0,0,0,.11-.48.66.66,0,0,0-.2-.48.81.81,0,0,0-.59-.2.89.89,0,0,0-.34.07.58.58,0,0,0-.23.18.68.68,0,0,0-.11.25,3,3,0,0,0,0,.35v.09h.58v-.24a.45.45,0,0,1,0-.24.13.13,0,0,1,.11,0c.05,0,.09,0,.11,0a.34.34,0,0,1,0,.16.94.94,0,0,1-.12.38c-.08.17-.34.6-.76,1.29v.38h1.43ZM31,9.41h-.39a1.19,1.19,0,0,1-.71.42v.3h.06a.85.85,0,0,1,.29,0,.14.14,0,0,1,.08.09,2.11,2.11,0,0,1,0,.37V12H31ZM15.43,9.36H15a1.18,1.18,0,0,1-.71.41v.31h.06a.65.65,0,0,1,.29,0,.12.12,0,0,1,.08.09,2.11,2.11,0,0,1,0,.37V12h.65Zm1.25,0H16.3a1.17,1.17,0,0,1-.72.41v.31h.07a.65.65,0,0,1,.29,0,.14.14,0,0,1,.08.09,2.76,2.76,0,0,1,0,.37V12h.65Zm-6.16,5.33h-.39a1.13,1.13,0,0,1-.71.41v.31h.06a.85.85,0,0,1,.29,0,.14.14,0,0,1,.08.09,2.11,2.11,0,0,1,0,.37v1.39h.65Zm1.78.88a2.17,2.17,0,0,0,0-.43.62.62,0,0,0-.11-.25.7.7,0,0,0-.25-.18,1,1,0,0,0-.39-.07.87.87,0,0,0-.44.1.53.53,0,0,0-.25.29,1.82,1.82,0,0,0-.06.54v.91a1.32,1.32,0,0,0,0,.4.56.56,0,0,0,.13.24.53.53,0,0,0,.24.17,1.14,1.14,0,0,0,.39.06.79.79,0,0,0,.32-.06.53.53,0,0,0,.25-.17.5.5,0,0,0,.13-.25,2.17,2.17,0,0,0,0-.43Zm-.65-.22a.76.76,0,0,0,0-.26s0-.05-.09-.05a.11.11,0,0,0-.1.05,1.26,1.26,0,0,0,0,.26v1.27a1.28,1.28,0,0,0,0,.28.1.1,0,0,0,.09,0,.1.1,0,0,0,.1-.05.73.73,0,0,0,0-.25ZM7.26,24.23a1.91,1.91,0,0,0,.16.84,1.07,1.07,0,0,0,.52.51,2.07,2.07,0,0,0,.93.19,2,2,0,0,0,.8-.15,1.28,1.28,0,0,0,.56-.43,1.34,1.34,0,0,0,.23-.62c0-.21,0-.64,0-1.28v-.75c0-.59,0-1,0-1.19a1.33,1.33,0,0,0-.22-.59,1.16,1.16,0,0,0-.54-.43,2.21,2.21,0,0,0-.88-.15,2,2,0,0,0-.77.13,1.15,1.15,0,0,0-.51.36,1.07,1.07,0,0,0-.23.51,5.67,5.67,0,0,0,0,.84v.43a2.9,2.9,0,0,0,.08.75.84.84,0,0,0,.36.48,1,1,0,0,0,.65.2,1.09,1.09,0,0,0,.5-.1.74.74,0,0,0,.3-.33v.86c0,.2,0,.33,0,.4a.27.27,0,0,1-.08.16.24.24,0,0,1-.17.07.32.32,0,0,1-.2-.07.3.3,0,0,1-.08-.17c0-.06,0-.22,0-.47ZM8.6,22.56c0,.22,0,.36.09.41a.24.24,0,0,0,.18.08.22.22,0,0,0,.21-.1.73.73,0,0,0,.07-.39v-1a.91.91,0,0,0-.07-.46.2.2,0,0,0-.2-.11.34.34,0,0,0-.19.08.73.73,0,0,0-.09.46Zm16.2,11.9a2.1,2.1,0,0,0-.15-.84,1.12,1.12,0,0,0-.52-.51,2.08,2.08,0,0,0-.93-.18,2.06,2.06,0,0,0-.81.14,1.25,1.25,0,0,0-.78,1c0,.21,0,.64,0,1.28v.74c0,.6,0,1,0,1.2a1.22,1.22,0,0,0,.22.59,1.19,1.19,0,0,0,.53.43,2.26,2.26,0,0,0,.89.15,2.2,2.2,0,0,0,.76-.13,1.26,1.26,0,0,0,.52-.37,1.09,1.09,0,0,0,.23-.5,6,6,0,0,0,0-.84v-.43a2.52,2.52,0,0,0-.08-.75.86.86,0,0,0-.35-.48,1.14,1.14,0,0,0-.66-.2.94.94,0,0,0-.49.11.72.72,0,0,0-.3.32v-.86a3.79,3.79,0,0,1,0-.4.25.25,0,0,1,.08-.16.24.24,0,0,1,.17-.07.27.27,0,0,1,.19.07.23.23,0,0,1,.08.17c0,.06,0,.22,0,.47Zm-1.34,1.67a.85.85,0,0,0-.06-.38.21.21,0,0,0-.21-.11.21.21,0,0,0-.2.1.73.73,0,0,0-.07.39v1a1.13,1.13,0,0,0,.06.46.22.22,0,0,0,.21.11.28.28,0,0,0,.18-.09q.09-.08.09-.45ZM38.15,22.56a1.18,1.18,0,0,0,.44-.36,1.38,1.38,0,0,0,.12-.66,1.53,1.53,0,0,0-.34-1,1.75,1.75,0,0,0-1.3-.38A1.77,1.77,0,0,0,36,20.4a1.22,1.22,0,0,0-.35,1v.46h1.33v-.44a.86.86,0,0,1,.06-.4.19.19,0,0,1,.19-.1.2.2,0,0,1,.18.09.79.79,0,0,1,.06.38v.29a1.18,1.18,0,0,1-.05.39.31.31,0,0,1-.16.16,3.37,3.37,0,0,1-.59,0v.79a1.87,1.87,0,0,1,.52.05.37.37,0,0,1,.21.18,1.26,1.26,0,0,1,.07.46v.37a2.31,2.31,0,0,1-.05.62.21.21,0,0,1-.21.12c-.09,0-.16,0-.18-.09a1.27,1.27,0,0,1,0-.45v-.87H35.6v.42A3.37,3.37,0,0,0,35.71,25a1,1,0,0,0,.48.53,2.44,2.44,0,0,0,1.91,0,1,1,0,0,0,.51-.54,2.63,2.63,0,0,0,.14-1,2.49,2.49,0,0,0-.14-1.1.82.82,0,0,0-.46-.34M22.26,7h-.79A2.37,2.37,0,0,1,20,7.89v.63h.13a1.84,1.84,0,0,1,.6.06.27.27,0,0,1,.16.19,5.16,5.16,0,0,1,0,.75v2.89h1.34Zm3.42,4.46H24.2a20.7,20.7,0,0,0,1.37-2.18,2.49,2.49,0,0,0,.23-1,1.34,1.34,0,0,0-.41-1,1.67,1.67,0,0,0-1.21-.4,1.62,1.62,0,0,0-.7.13,1.13,1.13,0,0,0-.48.38,1.28,1.28,0,0,0-.23.51,4.48,4.48,0,0,0-.05.72v.19h1.21V8.35A1,1,0,0,1,24,7.88a.26.26,0,0,1,.23-.12.27.27,0,0,1,.23.11.58.58,0,0,1,.07.33,2.08,2.08,0,0,1-.24.79c-.17.34-.69,1.22-1.56,2.65v.77h3ZM12,6.77l.48.68-.53.37-.48-.68c-.27.19-.52.39-.78.6l.54.63-.5.42-.54-.64-.75.69.59.6-.46.45L9,9.3c-.21.21-.42.44-.62.66l.64.55L8.57,11l-.64-.55c-.21.25-.41.5-.6.76L8,11.7l-.38.53L7,11.74c-.17.24-.34.49-.5.74L9.09,14l-.73,1.27L5.71,13.74l-.34.68.79.36-.27.59L5.1,15c-.14.3-.26.6-.38.91l.82.29-.22.62-.82-.3c-.11.32-.21.64-.31,1l.85.23-.17.63L4,18.13c-.07.29-.13.59-.19.89l.85.16-.11.64-.86-.16c-.06.31-.1.63-.14.95l.87.09-.06.64-.87-.08c0,.29,0,.58,0,.88H6.52V23.6H3.46c0,.3,0,.6,0,.89l.87-.09.06.65-.86.09c0,.32.08.65.14,1L4.57,26l.12.64-.86.16c.07.33.15.66.23,1l.84-.23.17.63-.83.23c.08.29.18.58.27.86l.82-.29.22.61-.81.29c.11.3.24.6.37.89l.78-.36.27.59-.78.36c.11.23.22.45.34.67l2.64-1.52.73,1.27L6.46,33.26c.16.25.32.49.49.73l.68-.49L8,34l-.69.49c.2.26.4.52.61.77l.63-.55.43.5-.63.54c.22.25.45.5.69.74l.58-.59.47.46L9.53,37l.67.6.52-.63.5.42L10.7,38l.76.58.47-.66.53.37L12,39l.63.41,1.5-2.6,1.27.73-1.5,2.59c.25.14.51.26.77.38l.32-.72.6.27-.33.72c.3.13.6.25.91.36l.26-.74.61.22-.26.73c.32.11.64.21,1,.29l.2-.74.63.16-.2.75c.29.07.59.13.88.18l.14-.75.64.12-.14.74c.32.05.63.09.95.12l.07-.74.65.06-.07.74.76,0V39.33h1.46v2.93c.3,0,.6,0,.89-.06l-.07-.72.65-.07.07.72,1-.14-.13-.71.64-.11.13.7,1-.23L27.64,41l.63-.17.19.68.85-.28-.24-.66.61-.22.24.65.87-.36L30.5,40l.59-.27.29.62L32,40l-1.44-2.5,1.27-.73,1.43,2.49c.24-.16.48-.31.71-.48l-.39-.54.53-.38.39.54c.25-.19.51-.39.75-.6l-.43-.5.5-.42.43.5c.24-.22.49-.45.73-.69L36,36.23l.46-.47.46.46q.31-.33.6-.66l-.49-.42.42-.49.49.41c.19-.24.39-.49.57-.75L38,33.94l.38-.53.52.37c.14-.2.28-.41.41-.63l-2.45-1.41.73-1.27,2.45,1.41.36-.72-.58-.26.27-.6.58.27c.13-.3.25-.59.36-.89l-.6-.22.22-.61.6.21c.1-.31.2-.63.29-.95L41,28l.17-.63.61.16c.07-.29.13-.58.19-.87l-.62-.11.12-.64L42,26c0-.31.1-.62.13-.93L41.53,25l.07-.65.62.06c0-.26,0-.52,0-.79H39.45V22.14h2.82c0-.26,0-.52-.05-.77l-.62.06-.06-.65.62-.06c0-.32-.08-.64-.13-.95l-.62.11-.11-.64.62-.11c-.06-.33-.14-.65-.22-1l-.61.17-.17-.63.61-.17c-.08-.28-.16-.57-.26-.85l-.6.22-.22-.61.6-.22c-.11-.29-.22-.59-.35-.87l-.58.26-.27-.59.58-.27c-.11-.25-.24-.49-.36-.74l-2.46,1.43L36.88,14l2.46-1.42c-.13-.21-.27-.42-.41-.63l-.53.38L38,11.81l.54-.38c-.19-.26-.38-.51-.59-.76l-.5.42-.42-.5.51-.42c-.22-.25-.45-.5-.68-.74l-.47.47L36,9.44,36.42,9c-.21-.21-.43-.41-.65-.6l-.44.51-.49-.42.44-.52c-.25-.2-.49-.4-.75-.59l-.39.56-.53-.38L34,7c-.24-.17-.48-.32-.72-.48L31.85,9l-1.27-.73L32,5.74l-.77-.39L31,6l-.59-.27.29-.65-.89-.37-.24.68-.62-.22.25-.68c-.32-.11-.64-.21-1-.3l-.18.7-.63-.16L27.58,4l-.88-.2-.13.73-.64-.11.13-.73-.94-.14-.07.75-.65-.06.07-.75-.75,0v3H22.25v-3l-.75,0,.07.77-.65.06-.07-.77-1,.12.13.77-.64.11-.13-.77c-.34.06-.67.13-1,.21l.21.77-.63.17-.21-.77-.86.26.27.76-.61.22-.27-.76L15.26,5l.33.74L15,6l-.34-.75-.78.39,1.51,2.61L14.12,9,12.61,6.37c-.21.13-.42.26-.62.4m4.89,7.87C18.57,17,20.29,19.15,22,21.27a1.68,1.68,0,0,0-.33,1.22,3.59,3.59,0,0,0,.08.35c-.14.29-.29.58-.44.87l1.74,1.13.72-.92a1.75,1.75,0,0,0,.32-.12c.39.46.78.91,1.16,1.37.22-.18.44-.36.67-.53-.37-.5-.75-1-1.12-1.48a1.71,1.71,0,0,0,.24-1,47.56,47.56,0,0,0,3.43-5.72l-1.74-1.13A38.41,38.41,0,0,0,23,20.63l-.11,0c-1.71-2.18-3.49-4.37-5.35-6.55-.22.17-.45.35-.66.53"/></g></g></svg>