<svg xmlns="http://www.w3.org/2000/svg" viewBox="0 0 47.48 47.42"><defs><style>.cls-1{fill:#359bd0;}.cls-2{fill:#0c68aa;}.cls-3{fill:#fff;}</style></defs><title>資產 1</title><g id="圖層_2" data-name="圖層 2"><g id="圖層_1-2" data-name="圖層 1"><path class="cls-1" d="M23.37,23.16a6.81,6.81,0,0,1-4.8-2,6.54,6.54,0,0,1-2-4.71,7.2,7.2,0,0,1,6.86-7,6.88,6.88,0,0,1,4.83,2.09,7,7,0,0,1,2.08,4.93,7.21,7.21,0,0,1-7,6.78Z"/><path class="cls-2" d="M23.44,44.21a22,22,0,0,1-11.28-3.35,3.44,3.44,0,0,1-1.75-4.09A13.86,13.86,0,0,1,24,25.39,13.38,13.38,0,0,1,37.26,36.5a3.44,3.44,0,0,1-1.66,3.87,22.87,22.87,0,0,1-12.16,3.84h0"/><path class="cls-3" d="M7,35.94C1.34,29.75.13,17.63,7.33,9.43A21.57,21.57,0,0,1,23.48,2a20.86,20.86,0,0,1,14.7,6.06c8.83,8.66,7.29,21.79,2.31,27.39l-1,1.13L39,35.13a18,18,0,0,0-9-10.41l-1-.53.76-.83C32.29,20.64,33.2,18,32.65,15a9,9,0,0,0-9-7.4,8.92,8.92,0,0,0-9,8.62,9.69,9.69,0,0,0,3,7.1l.76.81-1,.55C12.64,27.39,9.71,31,8.48,35.58l-.41,1.54Z"/><path d="M23.67,47.34C12.43,48.39-.13,37.92,0,23.29.11,10.68,10.89,0,23.75,0A23.81,23.81,0,0,1,47.48,24.1c-.06,13-11.64,24.36-23.81,23.24M40.11,35.46c4.78-5.38,6.18-17.89-2.27-26.19A20.21,20.21,0,0,0,8.26,10.6C1.14,18.7,2.89,30.46,7.91,36c1.38-5.21,4.7-8.8,9.36-11.43a10.55,10.55,0,0,1-3.22-7.72,9.68,9.68,0,0,1,3.67-7.32,10.21,10.21,0,0,1,12.69.14,9.8,9.8,0,0,1,3.37,5.82c.65,3.54-.64,6.46-3.08,9.11a18.93,18.93,0,0,1,9.41,10.91m-15.8-8.6A13,13,0,0,0,11.53,37.54a2.59,2.59,0,0,0,1.35,3.16c7.63,4.55,15.1,4.2,22.52-.47a2.58,2.58,0,0,0,1.27-3A12.49,12.49,0,0,0,24.31,26.86m-.66-4A6.35,6.35,0,0,0,29.76,17a6.24,6.24,0,0,0-6-6.13,6.31,6.31,0,0,0-6,6.18,6,6,0,0,0,5.91,5.88"/></g></g></svg>