<svg xmlns="http://www.w3.org/2000/svg" viewBox="0 0 47.69 47.9"><defs><style>.cls-1{fill:#fff;}.cls-2{fill:#070001;}.cls-3{fill:#de621f;fill-rule:evenodd;}.cls-4{fill:none;stroke:#070001;stroke-miterlimit:22.93;stroke-width:2.96px;}</style></defs><title>資產 6</title><g id="圖層_2" data-name="圖層 2"><g id="圖層_1-2" data-name="圖層 1"><path class="cls-1" d="M44.93,25.32A21.13,21.13,0,1,1,23.79,4.19,21.14,21.14,0,0,1,44.93,25.32"/><path class="cls-2" d="M22.81,2.27A22.82,22.82,0,1,0,45.63,25.08,22.81,22.81,0,0,0,22.81,2.27m0,41.74A18.93,18.93,0,1,1,41.75,25.08,18.93,18.93,0,0,1,22.81,44"/><path class="cls-3" d="M10.63,16.53c1.22-6.52,25-4.82,28.63-12.9q3.36,7.43,6.7,14.86c-7.29,8.89-18,4.65-24.45,10.45l7.31,16.22-5.4.72Z"/><path class="cls-4" d="M10.63,16.53c1.22-6.52,25-4.82,28.63-12.9q3.36,7.43,6.7,14.86c-7.29,8.89-18,4.65-24.45,10.45l7.31,16.22-5.4.72Z"/></g></g></svg>