<svg xmlns="http://www.w3.org/2000/svg" viewBox="0 0 113.33 118.8"><defs><style>.cls-1{fill:#fff;}.cls-2{fill:#bdbebd;}.cls-3{fill:#d89bbd;}.cls-4,.cls-5{fill:none;stroke:#231815;stroke-width:3px;}.cls-4{stroke-miterlimit:10;}.cls-5{stroke-linecap:round;stroke-linejoin:round;}.cls-6{fill:#44a9d8;}.cls-7{fill:#f0cc94;}</style></defs><title>資產 12</title><g id="圖層_2" data-name="圖層 2"><g id="圖層_1-2" data-name="圖層 1"><polygon class="cls-1" points="36.95 95.24 26.91 114.03 43.9 103.22 44.41 97.04 36.95 95.24"/><polygon class="cls-1" points="69.12 96.78 68.61 101.67 85.6 114.8 75.56 94.21 69.12 96.78"/><polygon class="cls-2" points="32.14 36.81 43.47 47.62 41.24 53.62 24.25 52.77 25.45 58.95 39.86 58.95 43.3 65.81 31.45 76.62 36.09 81.25 47.24 69.07 52.73 72.16 53.42 88.8 59.08 88.12 58.91 71.64 65.78 68.9 75.73 79.37 80.71 75.93 70.75 65.12 72.81 59.29 87.74 59.8 87.57 52.42 72.3 53.11 69.38 47.45 81.91 36.46 76.07 33.2 66.29 42.3 59.08 40.58 59.6 25.31 53.59 25.31 53.59 40.93 46.73 42.81 37.12 32 32.14 36.81"/><path class="cls-1" d="M72.3,55.6A15.71,15.71,0,1,1,56.6,39.9,15.7,15.7,0,0,1,72.3,55.6"/><path class="cls-3" d="M62.69,56a5.84,5.84,0,1,1-5.84-5.84A5.83,5.83,0,0,1,62.69,56"/><path class="cls-4" d="M99.68,56a43,43,0,1,1-43-43A43,43,0,0,1,99.68,56Z"/><path class="cls-4" d="M72.21,56A15.55,15.55,0,1,1,56.66,40.44,15.55,15.55,0,0,1,72.21,56Z"/><path class="cls-4" d="M62.45,56a5.79,5.79,0,1,1-5.79-5.79A5.78,5.78,0,0,1,62.45,56Z"/><line class="cls-4" x1="31.69" y1="36.17" x2="43.72" y2="47.29"/><line class="cls-4" x1="36.79" y1="31.74" x2="47.12" y2="43.43"/><line class="cls-4" x1="53.18" y1="24.78" x2="54.02" y2="41.15"/><line class="cls-4" x1="59.93" y1="25.18" x2="59.15" y2="40.76"/><line class="cls-4" x1="89.08" y1="52.95" x2="72.71" y2="53.79"/><line class="cls-4" x1="88.68" y1="59.7" x2="73.09" y2="58.92"/><line class="cls-4" x1="25.01" y1="59.32" x2="41.38" y2="58.48"/><line class="cls-4" x1="25.41" y1="52.57" x2="40.99" y2="53.34"/><line class="cls-4" x1="59.55" y1="88.05" x2="58.71" y2="71.69"/><line class="cls-4" x1="52.8" y1="87.65" x2="53.57" y2="72.07"/><line class="cls-4" x1="81.97" y1="36.17" x2="69.94" y2="47.29"/><line class="cls-4" x1="76.86" y1="31.74" x2="66.53" y2="43.43"/><line class="cls-4" x1="81.97" y1="75.87" x2="69.94" y2="64.75"/><line class="cls-4" x1="76.86" y1="80.3" x2="66.53" y2="68.61"/><line class="cls-4" x1="31.69" y1="75.87" x2="43.72" y2="64.75"/><line class="cls-4" x1="36.79" y1="80.3" x2="47.12" y2="68.61"/><polyline class="cls-5" points="37.25 95.78 24.65 117.18 44.4 102.22"/><polyline class="cls-5" points="75.89 95.78 88.49 117.18 68.74 102.22"/><line class="cls-5" x1="17.18" y1="117.3" x2="94.47" y2="117.3"/><path class="cls-6" d="M68.52,13.42A11.92,11.92,0,1,1,56.6,1.5,11.92,11.92,0,0,1,68.52,13.42"/><path class="cls-7" d="M38.34,25.58A11.83,11.83,0,1,1,26.52,13.76,11.82,11.82,0,0,1,38.34,25.58"/><path class="cls-7" d="M25.34,56A11.92,11.92,0,1,1,13.42,44.06,11.92,11.92,0,0,1,25.34,56"/><path class="cls-7" d="M111.44,55.54A11.83,11.83,0,1,1,99.61,43.72a11.83,11.83,0,0,1,11.83,11.82"/><path class="cls-7" d="M68.52,99.48A11.92,11.92,0,1,1,56.6,87.56,11.92,11.92,0,0,1,68.52,99.48"/><path class="cls-7" d="M96.92,25.58A11.83,11.83,0,1,1,85.09,13.76,11.83,11.83,0,0,1,96.92,25.58"/><path class="cls-7" d="M38.14,87.51A11.92,11.92,0,1,1,26.22,75.59,11.91,11.91,0,0,1,38.14,87.51"/><path class="cls-7" d="M96.92,86.82A11.83,11.83,0,1,1,85.09,75,11.83,11.83,0,0,1,96.92,86.82"/><path class="cls-7" d="M68.47,13.32A11.83,11.83,0,1,1,56.65,1.5,11.83,11.83,0,0,1,68.47,13.32"/><path class="cls-4" d="M38.14,25.77A11.92,11.92,0,1,1,26.22,13.86,11.92,11.92,0,0,1,38.14,25.77Z"/><path class="cls-4" d="M25.34,56A11.92,11.92,0,1,1,13.42,44.06,11.92,11.92,0,0,1,25.34,56Z"/><path class="cls-4" d="M111.83,56A11.92,11.92,0,1,1,99.91,44.06,11.92,11.92,0,0,1,111.83,56Z"/><path class="cls-4" d="M68.52,99.48A11.92,11.92,0,1,1,56.6,87.56,11.92,11.92,0,0,1,68.52,99.48Z"/><path class="cls-4" d="M97.19,25.77A11.92,11.92,0,1,1,85.27,13.86,11.93,11.93,0,0,1,97.19,25.77Z"/><path class="cls-4" d="M68.52,13.42A11.92,11.92,0,1,1,56.6,1.5,11.92,11.92,0,0,1,68.52,13.42Z"/><path class="cls-4" d="M38.14,87.51A11.92,11.92,0,1,1,26.22,75.59,11.91,11.91,0,0,1,38.14,87.51Z"/><path class="cls-4" d="M97.19,87.51A11.92,11.92,0,1,1,85.27,75.59,11.92,11.92,0,0,1,97.19,87.51Z"/></g></g></svg>