<svg xmlns="http://www.w3.org/2000/svg" viewBox="0 0 109.88 119.44"><defs><style>.cls-1{fill:#fff;}.cls-2,.cls-4,.cls-5{fill:none;stroke:#231815;}.cls-2,.cls-5{stroke-linecap:round;stroke-linejoin:round;}.cls-2,.cls-4{stroke-width:3px;}.cls-3{fill:#1aa5ae;}.cls-4{stroke-miterlimit:10;}.cls-5{stroke-width:2px;}</style></defs><title>資產 11</title><g id="圖層_2" data-name="圖層 2"><g id="圖層_1-2" data-name="圖層 1"><path class="cls-1" d="M24.81,119.41s-18.54,1-18.54-21.11V65H108.38l0,39.34s-2.7,15.09-16.6,15.09Z"/><path class="cls-2" d="M94.72,117.94H19.89A13.66,13.66,0,0,1,6.27,104.32V61.19A13.66,13.66,0,0,1,19.89,47.57h74.7a13.77,13.77,0,0,1,13.75,13.62v43.13A13.66,13.66,0,0,1,94.72,117.94Z"/><rect class="cls-3" x="6.37" y="46.12" width="101.67" height="18.86"/><polygon class="cls-3" points="103.06 21.34 6.99 46.16 2.48 27.85 98.55 3.03 103.06 21.34"/><polygon class="cls-1" points="11.81 64.71 23.78 46.82 43.47 46.82 31.5 66.12 11.81 64.71"/><polygon class="cls-1" points="51.19 64.71 63.16 46.82 82.85 46.82 70.88 66.12 51.19 64.71"/><polygon class="cls-1" points="90.7 64.32 103.32 46.43 106.92 46.56 106.79 64.58 90.7 64.32"/><polygon class="cls-1" points="18.63 24.81 10.91 44.89 6.66 45.27 1.77 27.64 18.63 24.81"/><polygon class="cls-1" points="38.84 18.89 31.37 39.74 50.03 34.21 55.44 14.26 38.84 18.89"/><polygon class="cls-1" points="75.26 9.37 68.44 29.32 86.71 23.91 93.53 4.09 75.26 9.37"/><rect class="cls-2" x="6.37" y="46.12" width="102.01" height="18.86"/><line class="cls-4" x1="24.77" y1="45.98" x2="11.57" y2="64.7"/><line class="cls-4" x1="44.43" y1="45.98" x2="31.22" y2="64.7"/><line class="cls-4" x1="63.67" y1="45.98" x2="50.46" y2="64.7"/><line class="cls-4" x1="82.91" y1="45.98" x2="69.7" y2="64.7"/><line class="cls-4" x1="102.14" y1="45.98" x2="88.94" y2="64.7"/><polygon class="cls-2" points="103.26 19.75 6.26 46.32 1.5 28.07 98.5 1.5 103.26 19.75"/><line class="cls-4" x1="11.22" y1="44.74" x2="19.27" y2="23.29"/><line class="cls-4" x1="38.29" y1="18.33" x2="30.24" y2="39.77"/><line class="cls-4" x1="56.91" y1="13.47" x2="48.86" y2="34.92"/><line class="cls-4" x1="75.52" y1="8.61" x2="67.47" y2="30.05"/><line class="cls-4" x1="94.14" y1="3.75" x2="86.09" y2="25.2"/><path class="cls-1" d="M72.62,91.53A16.34,16.34,0,1,1,55.7,75.8,16.34,16.34,0,0,1,72.62,91.53"/><polygon class="cls-3" points="67.09 91.94 67.16 91.94 67.13 91.92 67.16 91.9 67.09 91.9 51.68 83.08 51.68 100.75 67.09 91.94"/><polygon class="cls-5" points="66.94 91.94 67.01 91.94 66.97 91.92 67.01 91.9 66.94 91.9 51.83 83.25 51.83 100.58 66.94 91.94"/><path class="cls-5" d="M72.84,92.12A16.12,16.12,0,1,1,56.73,76,16.11,16.11,0,0,1,72.84,92.12Z"/></g></g></svg>