<svg xmlns="http://www.w3.org/2000/svg" viewBox="0 0 162.08 114.03"><defs><style>.cls-1{fill:#aebfcf;}.cls-1,.cls-2,.cls-3,.cls-5,.cls-7{stroke:#231815;}.cls-1,.cls-2,.cls-3,.cls-5,.cls-7,.cls-8{stroke-miterlimit:10;}.cls-1,.cls-3,.cls-6,.cls-8{stroke-width:1.56px;}.cls-2{fill:#d7574e;stroke-width:1.5px;}.cls-3{fill:#1998b8;}.cls-4{fill:#d61918;}.cls-5{fill:#1e3049;stroke-width:1.45px;}.cls-6,.cls-8{fill:none;stroke:#cee3bf;}.cls-6{stroke-linecap:round;stroke-linejoin:round;}.cls-7{fill:#fff;stroke-width:1.52px;}</style></defs><title>資產 4</title><g id="圖層_2" data-name="圖層 2"><g id="圖層_1-2" data-name="圖層 1"><path class="cls-1" d="M30.34,28.61S34.57,46.49,43.42,51L32.3,61.46S18.23,50.32,14.91,33.13Z"/><path class="cls-2" d="M58.82,46.12s-24.59-8-29.33,5.63S39,71.59,44,72.19,58.82,46.12,58.82,46.12Z"/><path class="cls-3" d="M29.7,16.6s3.76-10.5-.76-12.7-5.32-.08-5.32-.08-3.77-6.06-7.87-1.06c0,0-4.81-2.07-6.06,3.78,0,0-5.68,1.49-5,5.4,0,0-5.39,1.36-3.54,5.47a21.65,21.65,0,0,0,16.2,11.77C26.52,30.72,29.7,16.6,29.7,16.6Z"/><path class="cls-2" d="M7.18,24s5.14,23.76,18.75,19.22,4.88-27.12,4.88-27.12S22.74,8.93,7.18,24Z"/><path class="cls-1" d="M130.48,87.57S127.93,69.37,119.54,64l12-9.36s13,12.4,14.68,29.82Z"/><path class="cls-2" d="M104.39,46.12s24.58-8,29.32,5.63-9.48,19.84-14.51,20.44S104.39,46.12,104.39,46.12Z"/><path class="cls-3" d="M115.44,35l5.9-17L106,24.23a34.88,34.88,0,0,0-45.22,0L45.52,18l5.9,17A52.78,52.78,0,0,0,43.59,63c0,.39,0,.79,0,1.18h79.65c0-.39,0-.79,0-1.18A52.78,52.78,0,0,0,115.44,35Z"/><polygon class="cls-4" points="109.05 26.28 113.2 30.72 115.57 23.76 109.05 26.28"/><polygon class="cls-4" points="57.81 26.28 53.66 30.72 51.29 23.76 57.81 26.28"/><path class="cls-5" d="M56.11,45.43s.55,12.09,15.24,9.75a77.18,77.18,0,0,1,26,.14s12.22,3.16,13.46-10.3S98.42,25.1,82.89,25.1,54.73,32.52,56.11,45.43Z"/><path class="cls-6" d="M77,48.06s1.45,2.41,6.59,2.41,6-2.57,6-2.57"/><path class="cls-2" d="M109.72,71.5H55.82L44.26,82.08c.79,7.69,2.92,15.86,8.06,20,11.29,9,31.21,8.24,31.21,8.24s27.19,0,34.47-13a41.34,41.34,0,0,0,4.41-14.34L122,83Z"/><path class="cls-7" d="M122.6,63.92s-77.85-.09-78.33.39a92.75,92.75,0,0,0,0,17.77L55.82,71.5h53.9L122,83l.45,0A79.7,79.7,0,0,0,122.6,63.92Z"/><path class="cls-3" d="M134.93,93.45s-7.72,8-4.51,11.9,4.83,2.25,4.83,2.25,1,7.08,6.75,4.18c0,0,3.54,3.86,7.08-1,0,0,5.79,1,6.75-2.9,0,0,5.47,1,5.47-3.53a21.66,21.66,0,0,0-10-17.37C143.61,81.87,134.93,93.45,134.93,93.45Z"/><path class="cls-2" d="M131.71,96S121.1,74.15,134.6,69.33s20.59,18.33,20.59,18.33S153.26,98.28,131.71,96Z"/><polyline class="cls-8" points="66.19 35.61 71.5 39.31 66.19 42.91"/><polyline class="cls-8" points="101.91 35.61 96.6 39.31 101.91 42.91"/></g></g></svg>