<svg xmlns="http://www.w3.org/2000/svg" xmlns:xlink="http://www.w3.org/1999/xlink" viewBox="0 0 1201.86 621.47"><defs><style>.cls-1{isolation:isolate;}.cls-2{fill:#cac585;}.cls-3{fill:#a69e53;}.cls-4,.cls-52{fill:#fff;}.cls-5{fill:#e49828;}.cls-6{fill:#ebb56c;}.cls-7{fill:#c08123;}.cls-8{fill:#c89b5e;}.cls-9{fill:#eea327;}.cls-10{fill:#58595b;}.cls-11{fill:#939498;}.cls-12,.cls-13,.cls-47{fill:none;}.cls-12,.cls-13{stroke:#d1d3d4;stroke-miterlimit:10;}.cls-12{stroke-width:3.54px;}.cls-13{stroke-width:1.77px;}.cls-14{fill:#bcbdbf;}.cls-15{fill:#289199;}.cls-16{fill:#27a9ab;}.cls-17{fill:#9ad3d9;}.cls-18{fill:#412348;opacity:0.19;}.cls-19{fill:#b6c939;}.cls-20{fill:#00512c;}.cls-21{fill:#4f1626;}.cls-22{fill:#611429;}.cls-23{fill:#e15c74;}.cls-24{fill:#e46b7e;}.cls-25{fill:#f1f1f1;}.cls-26{fill:#e8e6e6;}.cls-27{font-size:132.67px;fill:#3e3a39;font-family:Arial-BoldMT, Arial;font-weight:700;letter-spacing:-0.08em;}.cls-28{fill:#231815;}.cls-29{fill:#b0dce2;}.cls-30{fill:#727277;}.cls-31{fill:#2f2b2a;}.cls-32{fill:#393534;}.cls-33{fill:#003127;}.cls-34{fill:#cbd4d4;}.cls-35{fill:#f3f4f5;}.cls-36{fill:#ebebee;}.cls-37{fill:#69c2b6;}.cls-38{fill:#60beb2;}.cls-39{fill:#abb1b6;}.cls-40{fill:#2f9b97;}.cls-41{fill:#9c999f;}.cls-42{fill:#afaeb4;}.cls-43{fill:#f7f9f9;}.cls-44{fill:#419890;}.cls-45{fill:#c3c5ca;}.cls-46{fill:#a4a9a9;}.cls-47{stroke:#abb1b6;stroke-linecap:round;stroke-linejoin:round;stroke-width:0.59px;}.cls-48{fill:#293331;}.cls-49{fill:#939695;}.cls-50{fill:#f4cf21;}.cls-51{fill:#7f7e82;}.cls-52{mix-blend-mode:soft-light;}.cls-53{fill:#5bb4a5;}.cls-54{fill:#4dabaa;}.cls-55{fill:#e3e2e5;}.cls-56{fill:#cfd0d5;}.cls-57,.cls-58,.cls-59,.cls-60,.cls-61,.cls-62,.cls-63,.cls-64,.cls-65,.cls-66,.cls-67,.cls-68,.cls-69,.cls-70,.cls-71,.cls-72{stroke:#040000;stroke-width:0.5px;}.cls-57{fill:url(#radial-gradient);}.cls-58{fill:url(#radial-gradient-2);}.cls-59{fill:url(#radial-gradient-3);}.cls-60{fill:url(#radial-gradient-4);}.cls-61{fill:url(#radial-gradient-5);}.cls-62{fill:url(#radial-gradient-6);}.cls-63{fill:url(#radial-gradient-7);}.cls-64{fill:url(#radial-gradient-8);}.cls-65{fill:url(#radial-gradient-9);}.cls-66{fill:url(#radial-gradient-10);}.cls-67{fill:url(#radial-gradient-11);}.cls-68{fill:url(#radial-gradient-12);}.cls-69{fill:url(#radial-gradient-13);}.cls-70{fill:url(#radial-gradient-14);}.cls-71{fill:url(#radial-gradient-15);}.cls-72{fill:url(#radial-gradient-16);}</style><radialGradient id="radial-gradient" cx="1069" cy="73.84" r="150.74" gradientTransform="translate(17.15) scale(0.99 1)" gradientUnits="userSpaceOnUse"><stop offset="0.21" stop-color="#fff"/><stop offset="1"/></radialGradient><radialGradient id="radial-gradient-2" cx="1069.04" cy="73.84" r="150.7" xlink:href="#radial-gradient"/><radialGradient id="radial-gradient-3" cx="1068.97" cy="73.84" r="150.6" xlink:href="#radial-gradient"/><radialGradient id="radial-gradient-4" cx="1152.59" cy="-46" r="168.38" xlink:href="#radial-gradient"/><radialGradient id="radial-gradient-5" cx="1152.57" cy="-45.96" r="168.34" xlink:href="#radial-gradient"/><radialGradient id="radial-gradient-6" cx="1068.97" cy="73.84" r="150.52" xlink:href="#radial-gradient"/><radialGradient id="radial-gradient-7" cx="1152.59" cy="-45.94" r="168.34" xlink:href="#radial-gradient"/><radialGradient id="radial-gradient-8" cx="1068.97" cy="73.84" r="150.57" xlink:href="#radial-gradient"/><radialGradient id="radial-gradient-9" cx="1068.96" cy="73.84" r="150.57" xlink:href="#radial-gradient"/><radialGradient id="radial-gradient-10" cx="1152.59" cy="-45.94" r="168.33" xlink:href="#radial-gradient"/><radialGradient id="radial-gradient-11" cx="1068.97" cy="73.84" r="150.59" xlink:href="#radial-gradient"/><radialGradient id="radial-gradient-12" cx="1068.97" cy="73.84" r="150.57" xlink:href="#radial-gradient"/><radialGradient id="radial-gradient-13" cx="1152.58" cy="-45.95" r="168.34" xlink:href="#radial-gradient"/><radialGradient id="radial-gradient-14" cx="1068.97" cy="73.84" r="150.59" xlink:href="#radial-gradient"/><radialGradient id="radial-gradient-15" cx="1152.58" cy="-45.91" r="168.31" xlink:href="#radial-gradient"/><radialGradient id="radial-gradient-16" cx="1068.97" cy="73.83" r="150.61" xlink:href="#radial-gradient"/></defs><title>資產 1</title><g class="cls-1"><g id="圖層_2" data-name="圖層 2"><g id="圖層_1-2" data-name="圖層 1"><path class="cls-2" d="M1201.86,597.72v-574A23.78,23.78,0,0,0,1178.1,0H23.75A23.78,23.78,0,0,0,0,23.75v574a23.78,23.78,0,0,0,23.75,23.75H1178.1A23.78,23.78,0,0,0,1201.86,597.72Z"/><path class="cls-3" d="M1121.05,318.15a28.68,28.68,0,0,0-5.75.58c0-1,.07-1.9.07-2.86a70.5,70.5,0,0,0-46.45-66.27c.08-1.09.13-2.19.13-3.31A46.59,46.59,0,0,0,999,206,88.67,88.67,0,0,0,849.52,265a77.31,77.31,0,1,0-43.9,147.36,101.21,101.21,0,0,0,16.27,21.44c-12.27,12.66-34,28.44-63.49,24.22,0,0,55.33,40.14,100.36-.52a100.29,100.29,0,0,0,24.43,5.66,73.86,73.86,0,0,0,109.8-13,84.1,84.1,0,0,0,111-79.71c0-.39,0-.77,0-1.16a28.42,28.42,0,1,0,17.08-51.13Z"/><path class="cls-4" d="M1115.37,311.33a28.78,28.78,0,0,0-5.76.58c0-1,.08-1.9.08-2.86a70.5,70.5,0,0,0-46.45-66.27c.07-1.1.13-2.2.13-3.31a46.61,46.61,0,0,0-70.06-40.28,88.67,88.67,0,0,0-149.47,58.95,77.31,77.31,0,1,0-43.9,147.36,101.42,101.42,0,0,0,16.26,21.44c-12.26,12.66-34,28.44-63.48,24.22,0,0,55.33,40.14,100.36-.52a100.18,100.18,0,0,0,24.43,5.66,73.85,73.85,0,0,0,109.79-13,84.11,84.11,0,0,0,111-79.71c0-.39,0-.77,0-1.16a28.42,28.42,0,1,0,17.08-51.13Z"/><path class="cls-5" d="M564.08,146.41s32-45.72,92.63-52.74,80.67-19,78.75-50.64c0,0,20.5,43.38-12.2,76.29s-54.13,22.4-47.81,66.43C675.45,185.75,648.69,144.11,564.08,146.41Z"/><path class="cls-6" d="M592.34,119.57s27.7-5.91,58.21,11.21c0,0,22.71,12.73,28.84,23.33,0,0,8.5-9.76,16.29-13.06,0,0-17.13-24-45.18-33.07s-26.24-6.25-26.24-6.25S604.35,108.18,592.34,119.57Z"/><path class="cls-6" d="M668.1,91.94s40.74,11.4,46.6,34.48a93.62,93.62,0,0,0,11.63-10S720,98.12,692.47,88Z"/><path class="cls-6" d="M721.27,77s13.91,4.49,17.79,16.8c0,0,3.7-10,2.77-15.14a20.61,20.61,0,0,0-13.37-8.44Z"/><path class="cls-7" d="M731.62,83A55.52,55.52,0,0,1,716,102.18c7,6.63,9.62,12.6,10.17,14A61.63,61.63,0,0,0,739,93.51,23.72,23.72,0,0,0,731.62,83Z"/><path class="cls-7" d="M703.74,110.22c-.72.38-1.4.78-2.14,1.15a148.76,148.76,0,0,0-21.73,13.27A99.75,99.75,0,0,1,695.61,141a149.22,149.22,0,0,0,26.1-20.12c-3.78,3.31-7,5.59-7,5.59C713.11,120.16,709,114.77,703.74,110.22Z"/><path class="cls-7" d="M675.45,185.75c-2.38-16.63-.81-25.47,3.83-31.82-3-5.08-9.79-10.64-16-15A134.74,134.74,0,0,0,645,161.68C667.09,172.75,675.45,185.75,675.45,185.75Z"/><path class="cls-7" d="M735.3,72.69a20,20,0,0,1,6.36,5.68,80.18,80.18,0,0,0-6.1-35.13C736.7,50,738.17,60.92,735.3,72.69Z"/><path class="cls-8" d="M679.73,154.45s8.49-9.77,16.29-13.06a94.35,94.35,0,0,0-11.8-12.9l-15.76,14.35C673.14,146.52,677.51,150.62,679.73,154.45Z"/><path class="cls-8" d="M726.66,116.81s-1.72-5-7.21-11.12l-12.37,7.71a30.2,30.2,0,0,1,8,13.36A93.94,93.94,0,0,0,726.66,116.81Z"/><path class="cls-8" d="M739.39,94.09s3.71-10,2.77-15.14a18.45,18.45,0,0,0-4.29-4.45c-1.34,3-3,6.51-4.66,9.93A22.84,22.84,0,0,1,739.39,94.09Z"/><path class="cls-5" d="M524.59,146.41s-32-45.72-92.63-52.74-80.67-19-78.75-50.64c0,0-20.5,43.38,12.2,76.29s54.13,22.4,47.81,66.43C413.22,185.75,440,144.11,524.59,146.41Z"/><path class="cls-6" d="M496.33,119.57s-27.7-5.91-58.21,11.21c0,0-22.71,12.73-28.84,23.33,0,0-8.5-9.76-16.29-13.06,0,0,17.13-24,45.18-33.07s26.24-6.25,26.24-6.25S484.32,108.18,496.33,119.57Z"/><path class="cls-6" d="M420.57,91.94s-40.74,11.4-46.6,34.48a93.62,93.62,0,0,1-11.63-10S368.7,98.12,396.2,88Z"/><path class="cls-6" d="M367.4,77s-13.91,4.49-17.79,16.8c0,0-3.7-10-2.77-15.14a20.61,20.61,0,0,1,13.37-8.44Z"/><path class="cls-7" d="M357.05,83a55.52,55.52,0,0,0,15.58,19.23c-7,6.63-9.62,12.6-10.17,14A61.63,61.63,0,0,1,349.7,93.51,23.72,23.72,0,0,1,357.05,83Z"/><path class="cls-7" d="M384.93,110.22c.72.38,1.4.78,2.14,1.15a148.76,148.76,0,0,1,21.73,13.27A99.75,99.75,0,0,0,393.06,141,149.22,149.22,0,0,1,367,120.83c3.78,3.31,7,5.59,7,5.59C375.56,120.16,379.72,114.77,384.93,110.22Z"/><path class="cls-7" d="M413.22,185.75c2.38-16.63.81-25.47-3.83-31.82,3-5.08,9.79-10.64,16-15a134.74,134.74,0,0,1,18.32,22.78C421.58,172.75,413.22,185.75,413.22,185.75Z"/><path class="cls-7" d="M353.37,72.69A20,20,0,0,0,347,78.37a80.18,80.18,0,0,1,6.1-35.13C352,50,350.5,60.92,353.37,72.69Z"/><path class="cls-8" d="M408.94,154.45s-8.49-9.77-16.29-13.06a94.35,94.35,0,0,1,11.8-12.9l15.76,14.35C415.53,146.52,411.16,150.62,408.94,154.45Z"/><path class="cls-8" d="M362,116.81s1.72-5,7.21-11.12l12.37,7.71a30.2,30.2,0,0,0-8,13.36A93.94,93.94,0,0,1,362,116.81Z"/><path class="cls-8" d="M349.28,94.09s-3.71-10-2.77-15.14a18.45,18.45,0,0,1,4.29-4.45c1.34,3,3,6.51,4.66,9.93A22.84,22.84,0,0,0,349.28,94.09Z"/><path class="cls-9" d="M532.35,540.28s-3.66,15.43,5,26.62c0,0-12.34-1.35-21.22,7.52H552s-8.67-17.94-9.25-35.1C542.77,539.32,536.6,535.66,532.35,540.28Z"/><path class="cls-9" d="M591.75,540.48s3.67,15.43-5,26.61c0,0,12.34-1.35,21.21,7.52H572.08s8.68-17.93,9.26-35.1C581.34,539.51,587.51,535.85,591.75,540.48Z"/><path class="cls-9" d="M481.28,410.1c-2.06-.51-50.4,40.63-69.94,78.17,0,0-20.57-3.73-21.73,4.12s10.54,5.14,12.73,5.27c0,0-13.76,7.84-10.67,12.08s13-4.11,15-5.66c0,0-9,11.83-2.44,12.6s10.15-10.28,10.15-10.28-.77,14.14,5.66,11.7,3.21-19.29,2.06-21.47c0,0,38.82-63,76.88-81.13Z"/><path class="cls-9" d="M612.1,419c1.11,1.81,54.47,27,104.66-6.93,0,0,12.09,17.05,18.4,12.26s-3.93-11.05-5.41-12.67c0,0,14.3,1.61,15.06-3.57s-11.13-3.75-13.68-4.09c0,0,14.07-5.33,9.92-10.47s-13.82,3.43-13.82,3.43,7.4-13.42,1.09-16.17-12.73,15.38-13.43,17.75c0,0-44.54,33.38-111.69,4.19Z"/><path class="cls-10" d="M736,370.85l-29.93,68.33s-3.57,9.83,3.58,13.4,14.29-8,14.29-8l34.83-67Z"/><circle class="cls-11" cx="752.51" cy="352.54" r="25.9"/><circle class="cls-12" cx="752.06" cy="352.54" r="25.9"/><path class="cls-13" d="M735.32,334.23s-7.71,21.44,4.35,35.84c0,0,6.7-10.72,19.09-5.69s5.36,10.71,5.36,10.71"/><path class="cls-13" d="M748,326.86s4,34.84-.67,46.89"/><path class="cls-13" d="M762.78,328.87s11.73,31.49-8,47.56"/><path class="cls-13" d="M774.84,338.92s7.71,18.09-13.73,37.51"/><path class="cls-13" d="M726.61,352.54s10-17.64,29.14-15.63S778.19,358,778.19,358"/><path class="cls-13" d="M729,365.05S736.32,349,755.75,352s17.75,16.41,17.75,16.41"/><polygon class="cls-14" points="730.85 369.74 727.72 378.22 759.43 389.39 764.79 377.33 730.85 369.74"/><path class="cls-9" d="M751.39,405.58c0,3.7-3.67,6.69-8.2,6.69s-8.21-3-8.21-6.69,3.68-6.7,8.21-6.7S751.39,401.88,751.39,405.58Z"/><ellipse class="cls-9" cx="734.65" cy="421.32" rx="6.03" ry="5.02"/><path class="cls-15" d="M459.54,412.72a177,177,0,0,0,26.36,10.21c-3.66,4.43-7.07,8.55-10.1,12.29-3.35,4.13-6.22,7.77-8.22,10.44-1,1.33-1.78,2.41-2.31,3.16s-.8,1.18-.8,1.18a49.94,49.94,0,0,0,12.7-5.79c-.36.35-.72.69-1.05,1a43.69,43.69,0,0,0-4.85,6.07,51.23,51.23,0,0,0-5.3,10.46,40.06,40.06,0,0,0-1.39,4.41,63.58,63.58,0,0,0,7.32-4.85,90.8,90.8,0,0,0-4,11.23c-1.1,3.68-1.91,7-2.51,9.43-.27,1.24-.52,2.21-.66,2.91s-.2,1.09-.2,1.09a27.25,27.25,0,0,0,6.3-4.5,50.32,50.32,0,0,0-1.77,6.69,43.64,43.64,0,0,0-.64,10.19A57,57,0,0,0,471.26,513a53.87,53.87,0,0,0,2,5.36c.51-2.09.92-4.19,1.29-6.29.94,2.39,1.91,4.58,2.89,6.7a82.4,82.4,0,0,0,3.9,7.39,47,47,0,0,0,8.08,10.32,26.82,26.82,0,0,0,2.9,2.39c.72.51,1.11.75,1.11.75-.42-1.57-.82-3.14-1.23-4.7,15.52,10.5,38.6,12,63.86,12,18.2,0,36.17-.47,51.18-4.45l-.37.51c-.62.9-1.11,1.62-1.44,2.14s-.49.83-.49.83a26.23,26.23,0,0,0,12.9-3.13,31.36,31.36,0,0,0,4-2.45,23.91,23.91,0,0,0,.11,3.13,34.83,34.83,0,0,0,9.14-8.91c1.19-1.66,2.18-3.24,3.08-4.66s1.72-2.65,2.52-3.72c.41-.54.79-1,1.23-1.5l.22-.24c-.16,1.27-.3,2.41-.42,3.38-.13,1.32-.3,2.36-.37,3.1s-.1,1.16-.1,1.16a29,29,0,0,0,10.18-13.41,36.76,36.76,0,0,0,2.36-15.65q-.12-1.84-.39-3.51c.65.9,1.23,1.69,1.69,2.43a13.54,13.54,0,0,1,1.21,2.44c.12.32.2.58.25.76s.08.27.08.27a8.88,8.88,0,0,0,1.62-3.77,17.1,17.1,0,0,0,.26-4.06c-.07-1.32-.19-2.5-.34-3.68s-.35-2.34-.58-3.48a60.65,60.65,0,0,0-2.75-9.43c1.42,1.22,2.73,2.25,3.83,3.08s1.79,1.32,2.36,1.7.91.59.91.59A34.42,34.42,0,0,0,653.46,472a49.83,49.83,0,0,0-6.76-9.38c1.23.73,2.39,1.34,3.41,1.83.84.39,1.6.73,2.26,1s1.25.46,1.72.63c.95.32,1.46.47,1.46.47-4.48-6-8.83-11.91-12.66-17.81-2.2-3.37-4.24-6.72-6.07-10,2.69,1.41,4.37,2.07,4.37,2.07-3.15-6.12-7.17-11.73-10.79-17l-2.27-3.29c-.42-1-.84-1.88-1.28-2.7-.17-.32-.34-.63-.51-.92,1.82-.77,3.62-1.58,5.4-2.4-23,7.44,3-43-68-49.39C478.63,357.53,481.72,422.37,459.54,412.72Z"/><path class="cls-16" d="M501.54,431.22c-1.09.86-2,1.88-3.11,2.77-.67.56-1.37,1.08-2.07,1.6s-1,1.09-2,0c-1.47-1.61-1.95-3.61-4-4.7-.37-.2-.89.22-.62.62,1.13,1.64,1.79,3.45,2.79,5.15.57,1,1.29,2.1,2.57,2.1s2.73-1.31,3.72-2.07a21.29,21.29,0,0,0,4.43-4.2C504.05,431.45,502.43,430.52,501.54,431.22Z"/><path class="cls-16" d="M522,434.9c-1.09.86-2,1.89-3.11,2.78-.67.55-1.37,1.08-2.07,1.59s-1,1.09-2,0c-1.48-1.6-2-3.6-4-4.7-.38-.2-.9.23-.63.62,1.13,1.65,1.79,3.45,2.79,5.16.57,1,1.29,2.09,2.58,2.1s2.72-1.32,3.72-2.08a21.71,21.71,0,0,0,4.42-4.19C524.49,435.14,522.86,434.2,522,434.9Z"/><path class="cls-16" d="M515.94,419.83c-1.09.86-2,1.88-3.11,2.77-.67.56-1.37,1.08-2.07,1.6s-1,1.09-2,0c-1.48-1.61-2-3.61-4-4.7-.38-.2-.9.23-.63.62,1.13,1.64,1.79,3.45,2.79,5.15.57,1,1.29,2.1,2.58,2.1s2.72-1.31,3.72-2.07a21.49,21.49,0,0,0,4.42-4.2C518.46,420.06,516.83,419.13,515.94,419.83Z"/><path class="cls-16" d="M540.06,420.5c-1.09.86-2,1.88-3.11,2.77-.67.56-1.37,1.08-2.07,1.6s-1,1.09-2,0c-1.48-1.61-2-3.61-4-4.7-.37-.2-.89.23-.62.62,1.13,1.64,1.79,3.45,2.79,5.15.57,1,1.29,2.1,2.58,2.1s2.72-1.31,3.71-2.07a21.29,21.29,0,0,0,4.43-4.2C542.57,420.73,541,419.8,540.06,420.5Z"/><path class="cls-16" d="M560.83,420.17c-1.1.85-2.05,1.88-3.12,2.77-.66.56-1.36,1.08-2.07,1.59s-1,1.1-2,.05c-1.48-1.61-2-3.61-4-4.7-.38-.2-.89.22-.62.61,1.13,1.65,1.79,3.45,2.79,5.16.57,1,1.29,2.09,2.57,2.1s2.73-1.32,3.72-2.08a21.51,21.51,0,0,0,4.43-4.19C563.34,420.4,561.72,419.47,560.83,420.17Z"/><path class="cls-16" d="M580.92,419.5c-1.09.85-2,1.88-3.11,2.77-.67.56-1.36,1.08-2.07,1.59s-1,1.1-2,.05c-1.48-1.61-2-3.61-4-4.7-.38-.2-.9.22-.63.61,1.14,1.65,1.8,3.45,2.8,5.16.57,1,1.28,2.09,2.57,2.1s2.73-1.32,3.72-2.08a21.76,21.76,0,0,0,4.43-4.19C583.44,419.73,581.81,418.8,580.92,419.5Z"/><path class="cls-16" d="M599.68,413.13c-1.09.86-2,1.88-3.11,2.77-.67.56-1.37,1.08-2.07,1.6s-1,1.09-2,0c-1.48-1.61-2-3.61-4-4.7-.38-.2-.9.23-.63.62,1.13,1.64,1.79,3.45,2.79,5.15.57,1,1.29,2.1,2.58,2.1s2.72-1.31,3.72-2.07a22,22,0,0,0,4.43-4.19C602.2,413.36,600.57,412.43,599.68,413.13Z"/><path class="cls-16" d="M618.11,409.11c-1.1.86-2.05,1.88-3.12,2.77-.67.56-1.36,1.08-2.07,1.6s-1,1.09-2,0c-1.48-1.61-2-3.61-4-4.7-.38-.2-.9.23-.62.62,1.13,1.64,1.79,3.45,2.79,5.15.57,1,1.28,2.1,2.57,2.1s2.73-1.31,3.72-2.07a21.76,21.76,0,0,0,4.43-4.19C620.62,409.35,619,408.41,618.11,409.11Z"/><path class="cls-16" d="M611.07,422.85c-1.09.85-2,1.88-3.11,2.77-.67.56-1.37,1.08-2.07,1.59s-1,1.1-2,.05c-1.48-1.61-2-3.61-4-4.7-.38-.2-.9.22-.63.61,1.13,1.65,1.79,3.45,2.79,5.16.57,1,1.29,2.09,2.58,2.1s2.72-1.32,3.72-2.08a21.71,21.71,0,0,0,4.42-4.19C613.59,423.08,612,422.15,611.07,422.85Z"/><path class="cls-16" d="M593,426.87c-1.09.85-2,1.88-3.11,2.77-.67.56-1.37,1.08-2.07,1.59s-1,1.1-2,0c-1.48-1.6-2-3.6-4-4.69-.38-.21-.9.22-.63.61,1.13,1.65,1.8,3.45,2.79,5.16.57,1,1.29,2.09,2.58,2.1s2.73-1.32,3.72-2.08a22,22,0,0,0,4.43-4.19C595.5,427.1,593.87,426.17,593,426.87Z"/><path class="cls-16" d="M629.16,426.2c-1.09.85-2,1.88-3.11,2.77-.67.56-1.37,1.08-2.07,1.59s-1,1.1-2,0c-1.47-1.6-2-3.6-4-4.69-.37-.21-.89.22-.62.61,1.13,1.65,1.79,3.45,2.79,5.16.57,1,1.29,2.09,2.58,2.1s2.72-1.32,3.71-2.08a21.51,21.51,0,0,0,4.43-4.19C631.67,426.43,630.05,425.5,629.16,426.2Z"/><path class="cls-16" d="M609.86,436.72c-1.09.85-2,1.88-3.11,2.77-.67.56-1.36,1.08-2.07,1.59s-1,1.1-2,0c-1.48-1.6-2-3.6-4-4.69-.38-.2-.9.22-.63.61,1.14,1.65,1.8,3.45,2.8,5.16.57,1,1.28,2.09,2.57,2.1s2.73-1.32,3.72-2.08a22,22,0,0,0,4.43-4.19C612.38,437,610.75,436,609.86,436.72Z"/><path class="cls-16" d="M629,441.4c-1.1.86-2.05,1.89-3.12,2.78-.66.56-1.36,1.08-2.07,1.59s-1,1.1-2,0c-1.48-1.6-2-3.6-4-4.7-.38-.2-.89.23-.62.62,1.13,1.65,1.79,3.45,2.79,5.16.57,1,1.29,2.09,2.57,2.1s2.73-1.32,3.72-2.08a21.51,21.51,0,0,0,4.43-4.19C631.47,441.64,629.85,440.71,629,441.4Z"/><path class="cls-16" d="M614.55,453.13c-1.09.86-2,1.88-3.11,2.77-.67.56-1.36,1.08-2.07,1.59s-1,1.1-2,.05c-1.48-1.61-2-3.61-4-4.7-.38-.2-.9.22-.63.62,1.13,1.64,1.8,3.45,2.8,5.15.57,1,1.28,2.1,2.57,2.1s2.73-1.31,3.72-2.07a21.8,21.8,0,0,0,4.43-4.2C617.07,453.36,615.44,452.43,614.55,453.13Z"/><path class="cls-16" d="M636.33,453.46c-1.1.86-2.05,1.89-3.12,2.78-.66.55-1.36,1.08-2.07,1.59s-1,1.09-2,0c-1.48-1.6-2-3.6-4-4.7-.38-.2-.89.23-.62.62,1.13,1.65,1.79,3.45,2.79,5.15.57,1,1.29,2.1,2.57,2.11s2.73-1.32,3.72-2.08a21.51,21.51,0,0,0,4.43-4.19C638.84,453.7,637.22,452.76,636.33,453.46Z"/><path class="cls-16" d="M624.27,465.19c-1.1.86-2,1.88-3.12,2.77-.66.56-1.36,1.08-2.07,1.59s-1,1.1-2,.05c-1.48-1.61-2-3.61-4-4.7-.38-.2-.89.22-.62.62,1.13,1.64,1.79,3.44,2.79,5.15.57,1,1.29,2.1,2.57,2.1s2.73-1.31,3.72-2.08A21.51,21.51,0,0,0,626,466.5C626.78,465.42,625.16,464.49,624.27,465.19Z"/><path class="cls-16" d="M642,465.52c-1.09.86-2,1.88-3.11,2.77-.67.56-1.37,1.08-2.07,1.6s-1,1.09-2,0c-1.48-1.61-2-3.61-4-4.7-.38-.2-.9.23-.63.62,1.13,1.64,1.79,3.45,2.79,5.15.57,1,1.29,2.1,2.58,2.1s2.72-1.31,3.71-2.07a21.51,21.51,0,0,0,4.43-4.19C644.54,465.76,642.91,464.82,642,465.52Z"/><path class="cls-16" d="M634.65,475.91c-1.09.85-2,1.88-3.11,2.77-.67.56-1.37,1.08-2.07,1.59s-1,1.1-2,.05c-1.48-1.61-2-3.61-4-4.7-.38-.2-.9.22-.63.61,1.13,1.65,1.79,3.45,2.79,5.16.57,1,1.29,2.09,2.58,2.1s2.72-1.32,3.72-2.08a21.71,21.71,0,0,0,4.42-4.19C637.17,476.14,635.54,475.21,634.65,475.91Z"/><path class="cls-16" d="M616.23,478.92c-1.09.86-2,1.88-3.11,2.77-.67.56-1.37,1.08-2.07,1.6s-1,1.09-2,0c-1.48-1.61-2-3.61-4-4.7-.37-.2-.89.22-.62.62,1.13,1.64,1.79,3.45,2.79,5.15.57,1,1.29,2.1,2.57,2.1s2.73-1.31,3.72-2.07a21.29,21.29,0,0,0,4.43-4.2C618.74,479.15,617.12,478.22,616.23,478.92Z"/><path class="cls-16" d="M643.36,486.29c-1.09.86-2,1.88-3.11,2.77-.67.56-1.37,1.08-2.07,1.6s-1,1.09-2,0c-1.48-1.61-2-3.61-4-4.7-.38-.2-.9.22-.63.62,1.13,1.64,1.79,3.45,2.79,5.15.57,1,1.29,2.1,2.58,2.1s2.72-1.31,3.71-2.07a21.29,21.29,0,0,0,4.43-4.2C645.88,486.52,644.25,485.59,643.36,486.29Z"/><path class="cls-16" d="M627.62,488.63c-1.1.86-2,1.89-3.12,2.78-.66.55-1.36,1.08-2.07,1.59s-1,1.1-2,0c-1.48-1.6-2-3.6-4-4.7-.38-.2-.89.23-.62.62,1.13,1.65,1.79,3.45,2.79,5.16.57,1,1.29,2.09,2.57,2.1s2.73-1.32,3.72-2.08a21.51,21.51,0,0,0,4.43-4.19C630.13,488.87,628.51,487.94,627.62,488.63Z"/><path class="cls-16" d="M615.56,502.37c-1.09.86-2,1.88-3.11,2.77-.67.56-1.37,1.08-2.07,1.59s-1,1.1-2,0c-1.48-1.61-2-3.61-4-4.7-.37-.2-.89.22-.62.62,1.13,1.64,1.79,3.45,2.79,5.15.57,1,1.29,2.1,2.57,2.1s2.73-1.31,3.72-2.07a21.29,21.29,0,0,0,4.43-4.2C618.07,502.6,616.45,501.67,615.56,502.37Z"/><path class="cls-16" d="M638.67,501.36c-1.09.86-2,1.88-3.11,2.78-.67.55-1.37,1.07-2.07,1.59s-1,1.09-2,0c-1.48-1.6-2-3.6-4-4.7-.38-.2-.9.23-.63.62,1.13,1.64,1.79,3.45,2.79,5.15.57,1,1.29,2.1,2.58,2.11s2.72-1.32,3.72-2.08a21.71,21.71,0,0,0,4.42-4.19C641.19,501.6,639.56,500.66,638.67,501.36Z"/><path class="cls-16" d="M625.56,511.37c-1.09.86-2,1.88-3.11,2.77-.67.56-1.37,1.08-2.07,1.59s-1,1.1-2,0c-1.47-1.61-1.95-3.61-4-4.7-.37-.2-.89.22-.62.62,1.13,1.64,1.79,3.45,2.79,5.15.57,1,1.29,2.1,2.57,2.1s2.73-1.31,3.72-2.07a21.29,21.29,0,0,0,4.43-4.2C628.07,511.6,626.45,510.67,625.56,511.37Z"/><path class="cls-16" d="M611.16,521.42c-1.1.86-2,1.88-3.12,2.77-.67.56-1.36,1.08-2.07,1.59s-1,1.1-2,.05c-1.48-1.61-2-3.61-4-4.7-.38-.2-.9.22-.62.62,1.13,1.64,1.79,3.44,2.79,5.15.57,1,1.29,2.1,2.57,2.1s2.73-1.31,3.72-2.08a21.49,21.49,0,0,0,4.43-4.19C613.67,521.65,612,520.72,611.16,521.42Z"/><path class="cls-16" d="M497,418.29c-1.09.86-2,1.88-3.11,2.78-.67.55-1.37,1.07-2.07,1.59s-1,1.09-2,0c-1.48-1.61-2-3.6-4-4.7-.38-.2-.9.23-.63.62,1.13,1.64,1.79,3.45,2.79,5.15.57,1,1.29,2.1,2.58,2.11s2.72-1.32,3.72-2.08a21.71,21.71,0,0,0,4.42-4.19C499.5,418.53,497.87,417.59,497,418.29Z"/><path class="cls-16" d="M505.89,446.63c-1.09.86-2,1.88-3.11,2.77-.67.56-1.37,1.08-2.07,1.59s-1,1.1-2,.05c-1.48-1.61-2-3.61-4-4.7-.38-.2-.9.22-.63.62,1.13,1.64,1.8,3.45,2.79,5.15.57,1,1.29,2.1,2.58,2.1s2.73-1.31,3.72-2.07a21.8,21.8,0,0,0,4.43-4.2C508.41,446.86,506.78,445.93,505.89,446.63Z"/><path class="cls-16" d="M488.27,440.74c-1.09.85-2,1.88-3.11,2.77-.67.56-1.37,1.08-2.07,1.59s-1,1.1-2,0c-1.48-1.6-2-3.6-4-4.69-.38-.21-.9.22-.63.61,1.13,1.65,1.8,3.45,2.79,5.16.57,1,1.29,2.09,2.58,2.1s2.72-1.32,3.72-2.08a22,22,0,0,0,4.43-4.19C490.79,441,489.16,440,488.27,440.74Z"/><path class="cls-16" d="M486.8,457.68c-1.09.86-2,1.88-3.11,2.77-.67.56-1.37,1.08-2.07,1.6s-1,1.09-2,0c-1.48-1.61-2-3.61-4-4.7-.38-.2-.9.23-.63.62,1.13,1.64,1.79,3.45,2.79,5.15.57,1,1.29,2.1,2.58,2.1s2.72-1.31,3.71-2.07a21.51,21.51,0,0,0,4.43-4.19C489.32,457.91,487.69,457,486.8,457.68Z"/><path class="cls-16" d="M504.22,461.7c-1.09.86-2,1.88-3.11,2.77-.67.56-1.37,1.08-2.07,1.6s-1,1.09-2,0c-1.48-1.61-2-3.61-4-4.7-.37-.2-.89.23-.62.62,1.13,1.64,1.79,3.45,2.79,5.15.57,1,1.29,2.1,2.57,2.1s2.73-1.31,3.72-2.07a21.51,21.51,0,0,0,4.43-4.19C506.73,461.93,505.11,461,504.22,461.7Z"/><path class="cls-16" d="M489.81,477.44c-1.09.86-2,1.89-3.11,2.78q-1,.82-2.07,1.59c-.83.61-1,1.1-2,0-1.48-1.6-2-3.6-4-4.7-.38-.2-.9.23-.62.62,1.13,1.65,1.79,3.45,2.79,5.16.57,1,1.28,2.09,2.57,2.1s2.73-1.32,3.72-2.08a21.76,21.76,0,0,0,4.43-4.19C492.33,477.68,490.7,476.75,489.81,477.44Z"/><path class="cls-16" d="M484.79,495.53c-1.09.86-2,1.88-3.11,2.78-.67.55-1.37,1.07-2.07,1.59s-1,1.09-2,0c-1.48-1.61-2-3.6-4-4.7-.38-.2-.9.23-.63.62,1.13,1.64,1.79,3.45,2.79,5.15.57,1,1.29,2.1,2.58,2.1s2.72-1.31,3.72-2.07a21.71,21.71,0,0,0,4.42-4.19C487.31,495.77,485.68,494.83,484.79,495.53Z"/><path class="cls-16" d="M499.53,490.17c-1.09.86-2,1.88-3.11,2.78-.67.55-1.37,1.07-2.07,1.59s-1,1.09-2,0c-1.47-1.61-1.95-3.6-4-4.7-.37-.2-.89.23-.62.62,1.13,1.64,1.79,3.45,2.79,5.15.57,1,1.29,2.1,2.57,2.11s2.73-1.32,3.72-2.08a21.51,21.51,0,0,0,4.43-4.19C502,490.41,500.42,489.47,499.53,490.17Z"/><path class="cls-16" d="M496.85,505.25c-1.09.85-2,1.88-3.11,2.77-.67.56-1.37,1.08-2.07,1.59s-1,1.1-2,.05c-1.48-1.61-2-3.61-4-4.7-.37-.2-.89.22-.62.61,1.13,1.65,1.79,3.45,2.79,5.16.57,1,1.29,2.1,2.58,2.1s2.72-1.32,3.71-2.08a21.51,21.51,0,0,0,4.43-4.19C499.36,505.48,497.74,504.55,496.85,505.25Z"/><path class="cls-16" d="M509.24,521.32c-1.09.86-2,1.89-3.11,2.78-.67.55-1.37,1.08-2.07,1.59s-1,1.09-2,0c-1.48-1.6-2-3.6-4-4.7-.38-.2-.9.23-.63.62,1.13,1.65,1.8,3.45,2.79,5.16.57,1,1.29,2.09,2.58,2.1s2.72-1.32,3.72-2.08a22,22,0,0,0,4.43-4.19C511.76,521.56,510.13,520.63,509.24,521.32Z"/><path class="cls-17" d="M572.44,531.47a36.35,36.35,0,0,0,35-37.75c-.64-16.36-5.62-33.48-17.72-45.37-27.65-27.17-66-18.16-83.61,22.93-11,25.73-.81,39.59,4.41,45.17,9.36,10,21.69,11.89,35.08,14.81,8.36,1.82,12.49,1.44,24.09.29C569.75,531.55,570.76,531.53,572.44,531.47Z"/><path class="cls-16" d="M708.52,275.39c0-.58,0-1.16,0-1.75.78.87,1.5,1.66,2.12,2.41a22.38,22.38,0,0,1,2.48,3.56c.25.46.45.85.56,1.11l.2.41a15,15,0,0,0,1.37-6.32,33.75,33.75,0,0,0-.6-6.26c-.66-3.83-1.5-7.4-2.47-10.93A154.85,154.85,0,0,0,707,242.48c1.5,1.2,2.87,2.24,4.06,3.16l3.68,2.85c.86.7,1.37,1.07,1.37,1.07a38.51,38.51,0,0,0-2.82-12.33c-1.51-3.89-3.33-7.45-5-10.72-.82-1.64-1.6-3.18-2.31-4.74s-1.44-3.12-2.16-4.68c-1.08-2.37-2.16-4.75-3.26-7.06a57.84,57.84,0,0,0,6.36,2.6c-7.1-16.15-19.74-29.45-30.55-38.69l-1.21-1c2,.22,3.56.27,4.67.29s1.78,0,1.78,0a128,128,0,0,0-19-16.37c-6.57-4.69-13.13-8.75-19-12.16l-.49-.28c1.13,0,2.19,0,3.18,0a53.67,53.67,0,0,0,6.44-.57c1.48-.21,2.26-.36,2.26-.36L640,136c-78-38.26-158.25-20-200.48,7.33-2,1.32-3.61,2.4-4.7,3.17s-1.68,1.21-1.68,1.21A77.08,77.08,0,0,0,451,147.1l-.57.42c-3.46.87-6.73,1.89-9.84,3a115.4,115.4,0,0,0-21.2,10.27,139.81,139.81,0,0,0-14.2,10c-1.68,1.37-3,2.48-3.91,3.29s-1.37,1.27-1.37,1.27a69.63,69.63,0,0,0,16.48-1.25c-1.64,1.29-3.21,2.6-4.71,3.91a124.74,124.74,0,0,0-9.6,9.38,113.71,113.71,0,0,0-16.71,23.07q3.54-1.44,7-3.14A86.16,86.16,0,0,0,385,221.7a83.57,83.57,0,0,0-5.24,20.17c-.35,2.51-.45,4.55-.52,5.92s-.05,2.13-.05,2.13c1.83-2.16,3.6-4.37,5.32-6.6l-.45.79c-1.42,2.56-2.69,5.06-3.78,7.54-.17.41-.34.81-.5,1.21a13.1,13.1,0,0,0-.52,1.43q-.21.69-.39,1.38c-.1.44-.18.88-.26,1.31a23.29,23.29,0,0,0-.3,2.52c0,.8-.07,1.59,0,2.34a29.42,29.42,0,0,0,1.34,7.86,32.07,32.07,0,0,0,2,4.91c-.1,2.14-.16,4.29-.16,6.44,0,55.27,29.8,94.63,74.18,116.15,22.19,9.65,59.46,21.53,100.15,16.08,23.73-3.18,49.08-6.81,72.05-14.25C675.89,376.69,708.52,333.63,708.52,275.39Z"/><path class="cls-16" d="M703.35,274.5c0-.58,0-1.16,0-1.75.72.87,1.37,1.65,1.93,2.4a22,22,0,0,1,2.27,3.56c.23.47.41.85.52,1.12s.17.4.17.4a16,16,0,0,0,1.26-6.31,36.85,36.85,0,0,0-.55-6.27c-.6-3.82-1.37-7.4-2.26-10.92-1.36-5.4-3-10.49-4.68-15.14,1.37,1.19,2.62,2.24,3.71,3.16l3.36,2.85c.79.69,1.25,1.07,1.25,1.07a41.7,41.7,0,0,0-2.58-12.33c-1.37-3.89-3-7.45-4.53-10.72-.74-1.65-1.45-3.18-2.1-4.74s-1.32-3.12-2-4.68c-1-2.37-2-4.75-3-7.06a49.45,49.45,0,0,0,5.8,2.6c-6.48-16.15-18-29.45-27.9-38.69l-1.11-1c1.8.21,3.26.26,4.27.29s1.63,0,1.63,0a121.3,121.3,0,0,0-17.37-16.37,210.08,210.08,0,0,0-17.38-12.16l-.45-.29c1,0,2,0,2.91-.05a41.73,41.73,0,0,0,5.88-.57c1.35-.2,2.07-.36,2.07-.36l-13.73-7.36c-71.28-38.27-144.54-20-183.1,7.33-1.85,1.32-3.31,2.4-4.3,3.17s-1.53,1.2-1.53,1.2a63.4,63.4,0,0,0,16.33-.65l-.52.43a89.14,89.14,0,0,0-9,3,101,101,0,0,0-19.37,10.27,128,128,0,0,0-13,10c-1.54,1.38-2.76,2.49-3.58,3.3s-1.25,1.27-1.25,1.27a58.59,58.59,0,0,0,15.05-1.25c-1.49,1.29-2.93,2.59-4.3,3.91a118.61,118.61,0,0,0-8.76,9.38,114.09,114.09,0,0,0-15.26,23.07q3.22-1.44,6.36-3.14A89.92,89.92,0,0,0,403.1,241c-.32,2.51-.41,4.54-.47,5.92s-.05,2.13-.05,2.13c1.67-2.17,3.28-4.37,4.86-6.6l-.41.79c-1.3,2.56-2.46,5.05-3.46,7.54l-.45,1.21c-.17.48-.37,1-.48,1.42s-.24.93-.35,1.38-.17.88-.24,1.32c-.16.88-.2,1.69-.28,2.52s-.06,1.58,0,2.33a32.49,32.49,0,0,0,1.23,7.87,34.5,34.5,0,0,0,1.8,4.91q-.13,3.21-.14,6.44c0,55.27,27.21,94.62,67.75,116.15,20.26,9.65,54.3,21.53,91.46,16.08,21.68-3.18,44.83-6.82,65.81-14.26C673.55,375.79,703.35,332.74,703.35,274.5Z"/><path class="cls-15" d="M712.37,257.19c-1.51-5.47-4-10.55-2.06-8.52,1.52,1.21-1.42-4.68-.21-3.75,1.6,1.25,2.87,2.22,3.73,2.89s2.9,2.18,2.9,2.18c-.17-4.27-1.82-9.58-3.35-13.49s-3-7.32-4.69-10.63c-.83-1.67-1.88-3-2.6-4.61s-1.53-3.44-2.26-5c-1.1-2.4-1.15-3.19-2.26-5.53,3.94,1.84,5.42,1.92,5.42,1.92-7.2-16.34-19.58-29.34-30.55-38.69l-1.23-1c2,.22,3.62.27,4.74.29s1.81,0,1.81,0A154.43,154.43,0,0,0,661,155.05a168.23,168.23,0,0,0-15.84-10.49l-.5-.29c1.15,0,2.23,0,3.23-.05,2.81,0,5.39-.54,6.9-.58,3-.09-1.54-2.17-1.54-2.17L638,134a216.13,216.13,0,0,0-62.14-19.52,185.71,185.71,0,0,1,51.82,18.62l13.93,7.45s-.73.16-2.1.37a42.8,42.8,0,0,1-6,.57c-.91.05-1.9.07-3,.06l.46.28c5.47,3.45,11.55,7.56,17.64,12.31a122.78,122.78,0,0,1,17.61,16.57s-.58,0-1.65,0a42.15,42.15,0,0,1-4.33-.29l1.12,1c10,9.35,21.74,22.81,28.32,39.16a52,52,0,0,1-5.9-2.64c1,2.34,2,4.75,3,7.15.67,1.58,1.32,3.17,2,4.73s1.39,3.14,2.14,4.8c1.51,3.31,3.2,6.92,4.6,10.85A42.08,42.08,0,0,1,698.2,248s-.47-.38-1.27-1.08L693.52,244c-1.1-.93-2.37-2-3.76-3.2,1.7,4.71,3.37,9.86,4.75,15.33.91,3.56,1.68,7.18,2.29,11.05a36.65,36.65,0,0,1,.56,6.34,16.24,16.24,0,0,1-1.28,6.39l-.17-.41c-.11-.27-.29-.65-.53-1.13a23.08,23.08,0,0,0-2.3-3.6c-.57-.76-1.23-1.56-2-2.43,0,.59,0,1.18,0,1.77,0,58.93-30.23,102.5-74.77,125.11-21.28,7.53-44.77,11.2-66.76,14.42-37.71,5.52-72.24-6.5-92.8-16.26-41.12-21.79-68.73-61.61-68.73-117.55q0-3.25.14-6.51a34.9,34.9,0,0,1-1.82-5,32.57,32.57,0,0,1-1.25-8c0-.76,0-1.56,0-2.37s.12-1.65.28-2.54c.08-.44.15-.88.25-1.34s.23-.92.35-1.39.31-1,.48-1.44l.47-1.23c1-2.51,2.19-5,3.5-7.63l.42-.79c-1.6,2.25-3.24,4.48-4.93,6.67,0,0,0-.75.05-2.15s.15-3.45.47-6a91.39,91.39,0,0,1,11.67-35c-2.12,1.14-4.27,2.21-6.45,3.18a115.52,115.52,0,0,1,15.48-23.34c2.62-3.12,9-5.52,12.34-8.69,1.4-1.33,7.55-5.14,9.07-6.44-3.21.67-14.63,2.76-17.91,2.91-1.5,1.2-3,2.41-4.36,3.63a122.63,122.63,0,0,0-9.73,9.49,114.91,114.91,0,0,0-16.95,23.35q3.58-1.47,7.06-3.18a87.56,87.56,0,0,0-7.46,14.57A84.76,84.76,0,0,0,374,241.11c-.36,2.54-.45,4.6-.52,6s-.06,2.15-.06,2.15c1.86-2.19,3.65-4.42,5.4-6.67-.15.26-.31.53-.45.8-1.45,2.59-2.73,5.11-3.84,7.63l-.51,1.22c-.19.48-.4,1-.53,1.44s-.27.94-.39,1.4-.18.89-.26,1.33a23.6,23.6,0,0,0-.31,2.55c0,.8-.07,1.61,0,2.36a29.69,29.69,0,0,0,1.36,8,33.52,33.52,0,0,0,2,5c-.09,2.17-.15,4.34-.15,6.52,0,55.93,30.23,95.76,75.26,117.54,22.5,9.76,60.31,21.79,101.6,16.27,24.08-3.22,49.79-6.9,73.1-14.43,48.76-22.6,83.64-61.75,83.64-120.68,0-.59.26-1.67.25-2.26.8.88-.53-2.26.1-1.51a22.89,22.89,0,0,1,2.52,3.61c.25.47.45.86.57,1.12s1.42,2.14,1.42,2.14a16.65,16.65,0,0,0,1.67-6.7,40.25,40.25,0,0,0-.33-6.86C714.8,265.13,713.37,260.75,712.37,257.19Z"/><path class="cls-18" d="M544.22,235.24A44.74,44.74,0,1,0,590.44,192,44.74,44.74,0,0,0,544.22,235.24Z"/><circle class="cls-4" cx="589.1" cy="231.95" r="40.67" transform="translate(165.06 702.09) rotate(-69.44)"/><path class="cls-19" d="M562.56,232.57a26.32,26.32,0,1,0,27.18-25.42A26.32,26.32,0,0,0,562.56,232.57Z"/><path class="cls-20" d="M575.31,233a13.56,13.56,0,1,0,14-13.1A13.56,13.56,0,0,0,575.31,233Z"/><path class="cls-4" d="M578.6,215.15c-1.36,4.66,4.34,10.43,12.74,12.87s16.3.65,17.66-4-4.35-10.43-12.74-12.87S580,210.48,578.6,215.15Z"/><path class="cls-4" d="M572.77,244.3c-1.07,2.39,1.54,5.9,5.84,7.84s8.67,1.57,9.75-.82-1.54-5.9-5.85-7.84S573.85,241.91,572.77,244.3Z"/><path class="cls-18" d="M441,246.7a44.74,44.74,0,1,0,46.21-43.23A44.73,44.73,0,0,0,441,246.7Z"/><circle class="cls-4" cx="485.83" cy="243.41" r="40.67" transform="translate(107.13 633.11) rotate(-72.43)"/><path class="cls-19" d="M459.28,244a26.32,26.32,0,1,0,27.19-25.42A26.33,26.33,0,0,0,459.28,244Z"/><path class="cls-20" d="M472,244.46a13.56,13.56,0,1,0,14-13.1A13.55,13.55,0,0,0,472,244.46Z"/><path class="cls-4" d="M473.6,226.4c-1.43,4.88,4.55,10.92,13.34,13.48s17.08.68,18.5-4.2-4.55-10.92-13.34-13.49S475,221.51,473.6,226.4Z"/><path class="cls-4" d="M469.5,255.76c-1.08,2.39,1.54,5.9,5.84,7.84s8.66,1.57,9.74-.82-1.54-5.9-5.84-7.84S470.57,253.37,469.5,255.76Z"/><path class="cls-21" d="M581.11,316.05c-24,2.38-54.82-20.38-92.15-16.68-29.77,2.95-50.87,19.79-47.46,53.46,5,49.25,98.49,47.45,125.77,44.75,32.57-3.23,101.47-20.25,97.34-61.05C658,271.44,592.83,314.89,581.11,316.05Z"/><path class="cls-22" d="M630.35,380.83a50.24,50.24,0,0,0,.89-15.75c-2.41-23.79-21.28-42.68-46.6-50a17.24,17.24,0,0,1-3.53.93c-7.85.78-16.46-1.16-25.77-4-1,.06-1.9.13-2.86.22-40.14,4-70,34.05-66.62,67.17a50.76,50.76,0,0,0,3.39,13.7c29,7,63.24,5.86,78,4.4C583.73,396,609.45,390.79,630.35,380.83Z"/><path class="cls-23" d="M483.89,391.77c30.07,8.6,67.68,7.36,83.38,5.81,19.06-1.89,50.53-8.51,72.56-21.84C620.1,364.28,591.3,358.56,560,361.66,528.27,364.81,500.88,376.34,483.89,391.77Z"/><path class="cls-24" d="M512.74,373.67c11.88,8.45,30.35,12.89,50.51,10.9,19.86-2,36.86-9.74,46.87-20.11a163.06,163.06,0,0,0-97.38,9.21Z"/><path class="cls-25" d="M511.36,397.22l6.88-20.72,5.77,9.22s39.49,3.6,76.11-7.54l.86-9.65s9.28,12.06,12.51,19C613.49,387.56,575.28,405.69,511.36,397.22Z"/><path class="cls-25" d="M513.54,300.46l.07,48.49,14.22-14.16s35.64,4.21,65.15-4.4l9.53,10,2.72-33.89s-24,12.76-43.63,7.2S524.27,301.28,513.54,300.46Z"/><path class="cls-26" d="M561.6,313.69c-19.67-5.57-37.33-12.41-48.06-13.23l0,12.88c13.32,5.67,53.68,20.13,90.68,5.43l1-12.28S581.27,319.25,561.6,313.69Z"/><path class="cls-26" d="M613.49,387.56a49.32,49.32,0,0,0-2.67-4.85c-37.09,17.76-84.52,11.54-97.73,9.32l-1.73,5.19C575.28,405.69,613.49,387.56,613.49,387.56Z"/><text class="cls-27" transform="translate(811.94 387.3)">ABC</text><path class="cls-4" d="M364.23,347.17l-69.46,12.12a121.87,121.87,0,0,0-50.1-17.65c-53.86-6.8-101.7,20.8-106.86,61.64s34.34,79.45,88.2,86.25,101.69-20.8,106.85-61.64c1.84-14.64-2-29-10.27-41.69Z"/><path class="cls-28" d="M214.55,400.05c2.24-10.23-19.37-33.34-19.37-33.34l-4.32,41.42a10.71,10.71,0,0,0-3.17-.95,10.28,10.28,0,1,0,9.22,11.51l3.85-30.57s9.05,6.56,8.22,10.59-9.38,8.69-9.38,8.69S212.3,410.28,214.55,400.05Zm-.91,35a9.07,9.07,0,0,0-3.37-1.12,9.16,9.16,0,1,0,7.95,10.24l3.36-26.66,27.49-5.77-2.9,18.58a10.68,10.68,0,0,0-4.49-1.67,10.28,10.28,0,1,0,9.22,11.52l5.4-42.8-39,8.46Zm89.65-1.17c-1.79-8.51-15.32-7.35-13.75-7.15s7.56,8.28,5.75,12.51S282,445.84,282,445.84l3.86-30.57a10.59,10.59,0,1,0-11.79,8.86,10.82,10.82,0,0,0,4.34-.34l-4.34,34.43,6.27.79,1-2.75C281.83,452.5,305.09,442.38,303.29,433.87Z"/><path class="cls-3" d="M273,144.73a39.39,39.39,0,0,0-36.49-39.28,26.16,26.16,0,0,0,.67-5.85A25.78,25.78,0,0,0,190.16,85c-4.14-5-11-8.34-18.85-8.34-12.66,0-22.93,8.66-22.93,19.34a16.36,16.36,0,0,0,.19,2.43C121.9,101.11,101.1,122.74,101.1,149c0,18.58,10.39,34.83,25.89,43.7-.06.71-.1,1.43-.1,2.15a25.07,25.07,0,0,0,40.68,19.62,53,53,0,0,0,94.37-42.38A39.26,39.26,0,0,0,273,144.73Zm-85.42-35.11,0,0,0,.07Zm12.58,14.28c-.31-.53-.63-1.05-1-1.57.49.26,1,.51,1.5.74Zm80.72,56.65c-8.31,0-15,7.38-15,16.48s6.73,16.48,15,16.48,15-7.38,15-16.48S289.22,180.55,280.91,180.55Zm22.21,21.95c-3.56,0-6.45,3.17-6.45,7.07s2.89,7.06,6.45,7.06,6.45-3.16,6.45-7.06S306.68,202.5,303.12,202.5Z"/><path class="cls-4" d="M273.75,139.72a39.39,39.39,0,0,0-36.5-39.28A25.79,25.79,0,0,0,190.87,80c-4.14-5-11-8.34-18.85-8.34-12.66,0-22.92,8.66-22.92,19.35a16.12,16.12,0,0,0,.19,2.42c-26.68,2.66-47.47,24.29-47.47,50.59,0,18.58,10.39,34.82,25.89,43.7-.06.71-.1,1.42-.1,2.15a25.06,25.06,0,0,0,40.68,19.61,53,53,0,0,0,94.37-42.37A39.28,39.28,0,0,0,273.75,139.72ZM188.33,104.6l0,0,0,.08Zm12.58,14.28c-.31-.52-.63-1-1-1.56.49.26,1,.5,1.49.73Zm80.72,56.66c-8.31,0-15.05,7.37-15.05,16.47s6.74,16.48,15.05,16.48,15-7.38,15-16.48S289.94,175.54,281.63,175.54Zm22.2,22c-3.56,0-6.44,3.16-6.44,7.06s2.88,7.06,6.44,7.06,6.45-3.16,6.45-7.06S307.4,197.49,303.83,197.49Z"/><path class="cls-3" d="M1008.21,119.47a46.19,46.19,0,0,0-.91,9.1,45.57,45.57,0,0,0,82,27.33,21.55,21.55,0,0,0,35-16.86c0-.63,0-1.24-.09-1.85,13.33-7.63,22.26-21.59,22.26-37.56,0-22.61-17.88-41.2-40.8-43.49a14.24,14.24,0,0,0,.16-2.08c0-9.18-8.83-16.63-19.71-16.63a20.9,20.9,0,0,0-16.2,7.17,22.17,22.17,0,0,0-39.87,17.57,33.85,33.85,0,0,0-21.84,57.3Zm63.85-53.69,0-.06,0,0Zm-11.23,11.53c.44-.2.87-.41,1.29-.64-.29.45-.56.9-.83,1.35C1061.14,77.78,1061,77.54,1060.83,77.31ZM979,140.88c0,7.83,5.79,14.17,12.94,14.17s12.93-6.34,12.93-14.17-5.79-14.16-12.93-14.16S979,133.06,979,140.88Zm-11.7,10.78a5.57,5.57,0,1,0,5.55-6.07A5.83,5.83,0,0,0,967.27,151.66Z"/><path class="cls-4" d="M1007.59,115.16a46.19,46.19,0,0,0-.91,9.1,45.57,45.57,0,0,0,82,27.33,21.54,21.54,0,0,0,35-16.86c0-.63,0-1.24-.08-1.85,13.32-7.63,22.25-21.59,22.25-37.56,0-22.61-17.87-41.2-40.8-43.49a14.24,14.24,0,0,0,.16-2.08c0-9.18-8.82-16.63-19.71-16.63a20.93,20.93,0,0,0-16.2,7.17,22.17,22.17,0,0,0-40.45,12.54,22.39,22.39,0,0,0,.58,5,33.85,33.85,0,0,0-21.84,57.31Zm63.85-53.69a.14.14,0,0,0,0-.06l0,0ZM1060.22,73c.43-.2.86-.41,1.28-.64-.28.45-.56.9-.83,1.35Zm-81.86,63.57c0,7.83,5.79,14.17,12.93,14.17s12.93-6.34,12.93-14.17-5.79-14.16-12.93-14.16S978.36,128.75,978.36,136.57Zm-11.7,10.78a5.56,5.56,0,1,0,5.54-6.07A5.82,5.82,0,0,0,966.66,147.35Z"/><path class="cls-29" d="M235.29,123.77c3.13.4,2.8,16.72,2.35,18.12s-16.78,5.8-17.9,5.59c-.57-.1-.65-5.42-1-10.4-.33-4.69-1-9.05-.45-9.28C220.08,127,232.16,123.37,235.29,123.77Z"/><path class="cls-29" d="M212.47,128.81c3.13.45,3.58,18.56,3.13,20.13s-17.22,4.7-18.34,4.47c-.56-.11-.34-5.87-.44-11.29s-.54-10.36,0-10.63C198.61,130.6,209.34,128.36,212.47,128.81Z"/><path class="cls-29" d="M186.58,132c.78,1.45,1.87,23.61,0,23.61-12,0-29.58-4.2-34.62-6.33-2-.86,1.24-24.16,4.48-24.38,1.36-.09,5,1.6,13.87,3.92C179.7,131.27,186.18,131.24,186.58,132Z"/><path class="cls-30" d="M234.45,163.2c1.23.14,2,2.23,1.73,4.66s-1.5,4.3-2.74,4.16-2-2.23-1.74-4.67S233.21,163.06,234.45,163.2Z"/><path class="cls-30" d="M210.77,170.34c1.35.16,2.19,2.43,1.89,5.09s-1.64,4.67-3,4.52-2.19-2.43-1.89-5.08S209.42,170.19,210.77,170.34Z"/><path class="cls-31" d="M232.17,177.64h.15s-4.91-.06-6.34-1.49a7,7,0,0,1-1.95-3.22l-.07-.15.6-.25a23.64,23.64,0,0,1-.28-3c-.14-3.68.38-9.62,4.68-11.9l.81-.35,4.61,1.08c-2.7-.3-5.39,3.76-6,9.09S229.47,177.33,232.17,177.64Z"/><path class="cls-31" d="M208.29,186.07l.16,0h0s-4.51-.24-5.74-.83a5.88,5.88,0,0,1-3-3.39l.59-.19h0s-.19-1.16-.28-2.9c-.22-4.07.63-11.73,5.37-14.52l5.12.79c-2.88-.11-5.68,4.25-6.33,9.91S205.35,185.73,208.29,186.07Z"/><path class="cls-32" d="M238,163.46a15.27,15.27,0,0,1,.26,2.7,18,18,0,0,1-.12,2.4c-.6,5.23-3.2,9.24-5.85,9.09h-.15c-2.7-.31-4.73-5-4.12-10.33s3.39-9.35,6.33-9c1.54.21,2.76,1.75,3.41,4.06C237.88,162.74,238,163.1,238,163.46Zm-1.85,4.4c.28-2.43-.5-4.52-1.73-4.66s-2.47,1.72-2.75,4.15.5,4.53,1.74,4.67S235.9,170.3,236.18,167.86Z"/><path class="cls-32" d="M214.54,170a15.64,15.64,0,0,1,.41,3.33,19.77,19.77,0,0,1-.12,2.85c0,.11,0,.21,0,.32-.72,5.54-3.5,9.75-6.34,9.59l-.16,0c-2.94-.34-5.13-5.27-4.47-11.07s3.54-10.11,6.67-9.95l.21,0C212.49,165.27,213.88,167.21,214.54,170Zm-1.88,5.43c.3-2.66-.54-4.93-1.89-5.09s-2.69,1.88-3,4.53.54,4.93,1.89,5.08S212.36,178.08,212.66,175.43Z"/><path class="cls-33" d="M206.91,163.81c7.6-2,7.64,5.8,7.63,6.19-.66-2.79-2-4.73-3.84-4.93l-.21,0-5.63-.39A8,8,0,0,1,206.91,163.81Z"/><path class="cls-33" d="M230.72,157c7.23-1.77,7.07,5.45,7.07,5.45h0c-.65-2.31-1.86-3.88-3.41-4.06l-5.37-.62,0-.11A7.48,7.48,0,0,1,230.72,157Z"/><path class="cls-34" d="M240.88,162.14c1,.16,1.35.84,1,1.67-.16.41-1.44,1.24-3.53,2.35h-.07a15.27,15.27,0,0,0-.26-2.7C239.85,162.63,240.88,162.14,240.88,162.14Z"/><path class="cls-34" d="M214.83,176.18a19.77,19.77,0,0,0,.12-2.85c3.27-1.29,6.42-2.58,9.33-3.81a23.64,23.64,0,0,0,.28,3l-.6.25c-2.92,1.23-6,2.49-9.17,3.71C214.8,176.39,214.82,176.29,214.83,176.18Z"/><path class="cls-34" d="M200.28,181.68h0l-.59.19A74.49,74.49,0,0,1,188,184.78l-.14-.16a1.69,1.69,0,0,0,.42-2.35.84.84,0,0,0,0-.1c3.66-.89,7.61-2.06,11.65-3.39C200.09,180.52,200.28,181.68,200.28,181.68Z"/><path class="cls-34" d="M186.47,182.6c.62-.13,1.24-.28,1.88-.43a.84.84,0,0,1,0,.1,1.69,1.69,0,0,1-.42,2.35c-2.9,2.35-14.11,2.13-24.52,0-13.08-2.69-17.34-7.49-18.23-8.62-1.23-1.56.23-4,.23-4s.78,4.81,15.66,8.5C161,180.48,179.05,184.23,186.47,182.6Z"/><path class="cls-35" d="M192.4,157.94A34.7,34.7,0,0,0,164.21,168v.1l-.91-.16c-1-.2-2-.44-3-.69l0-.09c-1-11.74-12.8-16.11-12.8-16.11,1.38-17.75,3.47-26.56,8.67-31l.11.12s25,9.4,35.9,7.55,39.76-7.32,44.62-10.34l.16-.3c6.1,7.34,5.18,23.09,4.85,26.94C237.82,147.42,192.4,157.94,192.4,157.94Zm45.24-16.05c.45-1.4.78-17.72-2.35-18.12s-15.21,3.23-17,4c-.52.23.12,4.59.45,9.28.35,5,.43,10.3,1,10.4C220.86,147.69,237.19,143.29,237.64,141.89Zm-22,7.05c.45-1.57,0-19.68-3.13-20.13s-13.86,1.79-15.65,2.68c-.54.27-.11,5.28,0,10.63s-.12,11.18.44,11.29C198.38,153.64,215.16,150.51,215.6,148.94Zm-29,6.66c2.33.12.78-22.16,0-23.61-.4-.75-6.88-.72-16.27-3.18-8.86-2.32-12.51-4-13.87-3.92-3.24.22-6.52,23.52-4.48,24.38C157,151.4,174.61,155,186.58,155.6Z"/><path class="cls-36" d="M237,117.1l-.16.3c-3.69,3.2-33.51,9.17-44.42,11s-36.1-8.23-36.1-8.23l-.11-.12a15.12,15.12,0,0,1,5.48-2.89c7.68-2.38,54.67-14.27,72.92-2.24A10.88,10.88,0,0,1,237,117.1Z"/><path class="cls-37" d="M164.2,168.11V168a34.7,34.7,0,0,1,28.19-10.07c-.79,14.19-3.7,23.19-4.05,24.23-.64.15-1.26.3-1.88.43-7.42,1.63-25.44-2.12-25.44-2.12-14.88-3.69-15.66-8.5-15.66-8.5a63.11,63.11,0,0,1,0-15.44c.5-4.16,2.13-5.48,2.13-5.48s11.8,4.37,12.8,16.11l0,.09C157,166.34,166.76,168.53,164.2,168.11Z"/><path class="cls-38" d="M204.86,164.66c-4.74,2.79-5.08,10.05-4.86,14.12-4,1.33-8,2.5-11.65,3.39.35-1,3.26-10,4.05-24.23,0,0,45.42-10.52,49.46-13.9-.05.56-.08.87-.08.87s.11,5.48-.06,8.5-.84,8.73-.84,8.73-1,.49-2.85,1.32c-.07-.36-.15-.72-.24-1.05h0s.16-7.22-7.07-5.45a7.48,7.48,0,0,0-1.76.66c-4.3,2.28-4.82,8.22-4.68,11.9-2.91,1.23-6.06,2.52-9.33,3.81a15.64,15.64,0,0,0-.41-3.33c0-.39,0-8.15-7.63-6.19A8,8,0,0,0,204.86,164.66Z"/><path class="cls-39" d="M187.49,184.71a2.78,2.78,0,0,0,.77-1.08,2.23,2.23,0,0,0-.08-1.29h0a.15.15,0,0,1,.11-.19.16.16,0,0,1,.16.05,1.93,1.93,0,0,1,.38.74,1.61,1.61,0,0,1,0,.87,1.76,1.76,0,0,1-.46.74,2.32,2.32,0,0,1-.7.43.14.14,0,0,1-.2-.08.14.14,0,0,1,0-.17Z"/><path class="cls-40" d="M192.55,158c-.07,2.06-.18,4.13-.39,6.18s-.47,4.11-.79,6.15a71.6,71.6,0,0,1-2.91,12,.16.16,0,0,1-.2.1.16.16,0,0,1-.1-.19v0c.59-2,1.06-4,1.5-6s.81-4,1.12-6.06c.67-4.05,1.1-8.14,1.45-12.25a.16.16,0,0,1,.17-.14A.15.15,0,0,1,192.55,158Z"/><path class="cls-41" d="M190.63,129.08c.65,4.78,1.13,9.58,1.51,14.39a116.65,116.65,0,0,1,.34,14.48.09.09,0,0,1-.09.07.08.08,0,0,1-.07-.08c.1-2.41,0-4.82,0-7.23s-.25-4.81-.43-7.21c-.34-4.81-.84-9.61-1.37-14.4a.07.07,0,0,1,.06-.09C190.59,129,190.62,129,190.63,129.08Z"/><path class="cls-42" d="M156.45,125c-.53.08-.9.66-1.18,1.15a11.4,11.4,0,0,0-.73,1.63,30.3,30.3,0,0,0-1,3.45c-.58,2.34-1,4.72-1.33,7.1a60.08,60.08,0,0,0-.68,7.19c0,.6,0,1.2,0,1.8a4.26,4.26,0,0,0,.36,1.67c.08.18.45.23.71.36s.56.22.84.31c.57.2,1.14.39,1.72.56,4.62,1.36,9.37,2.27,14.09,3.24a117.11,117.11,0,0,0,14.32,1.86c.6,0,1.2.06,1.81.07l.9,0a1.32,1.32,0,0,0,.33,0,1,1,0,0,0,.18-.31,14.66,14.66,0,0,0,.47-3.53c.1-2.41,0-4.82,0-7.23s-.12-4.82-.26-7.23c-.08-1.2-.16-2.4-.3-3.59,0-.3-.08-.6-.13-.89s-.1-.61-.28-.63a8.64,8.64,0,0,0-1.7-.39,102,102,0,0,1-14.28-2.56q-3.5-.95-7-2l-3.45-1.13c-.57-.18-1.14-.37-1.72-.54A6.63,6.63,0,0,0,156.45,125Zm0-.22a6.87,6.87,0,0,1,1.82.31c.58.16,1.16.34,1.74.52l3.46,1.06q3.47,1,7,1.92a123.32,123.32,0,0,0,14.2,2.65,8.23,8.23,0,0,1,1.82.42c.07,0,.17.11.25.19a.5.5,0,0,1,.13.25,4.35,4.35,0,0,1,.11.46c.05.31.1.61.14.91.14,1.2.25,2.41.33,3.62.17,2.41.29,4.82.34,7.24s0,4.84-.16,7.26a16.85,16.85,0,0,1-.49,3.63,1,1,0,0,1-.28.46c-.26.16-.39.06-.54.09l-.91,0c-.61,0-1.21,0-1.82-.05a110.72,110.72,0,0,1-14.4-1.72,105.32,105.32,0,0,1-14.09-3.46c-.58-.17-1.15-.37-1.72-.56-.29-.09-.57-.21-.86-.32l-.42-.16a.8.8,0,0,1-.44-.31,4.34,4.34,0,0,1-.41-1.83c0-.61-.05-1.22,0-1.83a62.62,62.62,0,0,1,.64-7.23,64,64,0,0,1,1.41-7.12,32.39,32.39,0,0,1,1.08-3.47,11.3,11.3,0,0,1,.76-1.66C155.38,125.53,155.71,124.9,156.43,124.78Z"/><path class="cls-43" d="M210.62,170.34h.15c1.35.16,2.19,2.43,1.89,5.09s-1.55,4.53-2.84,4.53h-.15c-1.35-.15-2.19-2.43-1.89-5.08s1.54-4.53,2.84-4.53m0-.59h0c-1.62,0-3.1,2.17-3.43,5.05-.35,3.07.69,5.54,2.41,5.74h.22c1.62,0,3.1-2.17,3.42-5.06a6.88,6.88,0,0,0-1-4.87,2.14,2.14,0,0,0-1.44-.86Z"/><path class="cls-43" d="M234.31,163.19h.14c1.23.14,2,2.23,1.73,4.66s-1.42,4.16-2.61,4.16h-.13c-1.24-.14-2-2.23-1.74-4.67s1.42-4.16,2.61-4.16m0-.59h0c-1.54,0-2.88,2-3.2,4.68s.65,5.14,2.26,5.32h.2c1.54,0,2.89-2,3.2-4.68s-.65-5.14-2.26-5.32Z"/><path class="cls-44" d="M200,178.78a20.92,20.92,0,0,1-.3-6.47A12.76,12.76,0,0,1,202,166a8.41,8.41,0,0,1,2.69-2.3,9.41,9.41,0,0,1,3.35-1,7.38,7.38,0,0,1,3.5.4,5,5,0,0,1,2.64,2.36.47.47,0,0,1-.22.62.48.48,0,0,1-.58-.13,5.15,5.15,0,0,0-5.12-1.57,7.51,7.51,0,0,0-4.86,2.7,13.68,13.68,0,0,0-2.44,5.42,43.55,43.55,0,0,0-1,6.25l0,0S200,178.79,200,178.78Z"/><path class="cls-44" d="M224.12,169.53A16.47,16.47,0,0,1,224,164a10.51,10.51,0,0,1,2.21-5.3,7.85,7.85,0,0,1,5.2-2.73,8.51,8.51,0,0,1,2.93.11,4.81,4.81,0,0,1,2.64,1.44.47.47,0,0,1,0,.66.48.48,0,0,1-.58,0l0,0a6.26,6.26,0,0,0-4.66-.59,7,7,0,0,0-4.11,2.26,11.39,11.39,0,0,0-2.2,4.43,36,36,0,0,0-.93,5.22.17.17,0,0,1-.17.14A.19.19,0,0,1,224.12,169.53Z"/><path class="cls-42" d="M196.88,131.62a1.6,1.6,0,0,0-.11.45c0,.2,0,.4,0,.6,0,.4,0,.8,0,1.21l.1,2.43.24,4.87c.13,3.25,0,6.51.1,9.74,0,.4,0,.81.05,1.21a4,4,0,0,0,.18,1.06h0s-.08,0,0,0h.39l.6-.06,1.19-.16c1.6-.24,3.2-.53,4.79-.84a78.53,78.53,0,0,0,9.42-2.33,9.78,9.78,0,0,0,1.1-.46,1.72,1.72,0,0,0,.46-.29.4.4,0,0,0,.12-.15,1.93,1.93,0,0,0,0-.27,23.88,23.88,0,0,0,.11-2.41c0-1.62,0-3.24-.13-4.86a46,46,0,0,0-1.34-9.59,7.51,7.51,0,0,0-.92-2.17,1.19,1.19,0,0,0-.85-.55,7.69,7.69,0,0,0-1.18,0,46.64,46.64,0,0,0-4.82.51c-1.6.24-3.19.53-4.78.86A31.38,31.38,0,0,0,196.88,131.62Zm-.13-.26a32,32,0,0,1,4.72-1.35c1.58-.35,3.18-.67,4.79-.94a33,33,0,0,1,4.87-.53,8.83,8.83,0,0,1,1.25.05,1.59,1.59,0,0,1,1.12.73,8.08,8.08,0,0,1,1,2.3,33.13,33.13,0,0,1,.86,4.82c.19,1.62.35,3.24.45,4.86s.16,3.25.17,4.88c0,.82,0,1.63-.07,2.46a2.1,2.1,0,0,1-.06.33.66.66,0,0,1-.23.34,2.31,2.31,0,0,1-.55.37,10.53,10.53,0,0,1-1.15.5,76.31,76.31,0,0,1-9.47,2.39c-1.6.32-3.2.62-4.81.87l-1.21.17-.62.06-.32,0h-.2a.53.53,0,0,1-.18-.07.47.47,0,0,1-.12-.13,3.78,3.78,0,0,1-.27-1.31c0-.41-.05-.82-.07-1.23-.08-3.26,0-6.51-.09-9.75l-.1-4.87,0-2.44q0-.62,0-1.23c0-.2,0-.41.06-.62a2.21,2.21,0,0,1,.06-.32l.06-.16A.7.7,0,0,1,196.75,131.36Z"/><path class="cls-42" d="M218.35,127.93a1.42,1.42,0,0,0-.09.43,5.42,5.42,0,0,0,0,.57c0,.38,0,.77.06,1.16l.23,2.33c.16,1.56.33,3.12.46,4.68.28,3.12.29,6.28.65,9.35a4.69,4.69,0,0,0,.11.54.79.79,0,0,0,.08.22s0,0,0,0-.05,0,0,0a8.11,8.11,0,0,0,1.1-.16c.76-.14,1.53-.31,2.28-.5,1.52-.36,3-.77,4.54-1.19a67.2,67.2,0,0,0,8.85-3,2.58,2.58,0,0,0,.82-.55,7.41,7.41,0,0,0,.16-1.11q.09-1.17.12-2.34c0-1.56,0-3.12,0-4.68s-.16-3.12-.37-4.67a22,22,0,0,0-.43-2.29,7,7,0,0,0-.82-2.12,1.22,1.22,0,0,0-.76-.63,4.64,4.64,0,0,0-1.12,0,19.87,19.87,0,0,0-2.3.32c-1.53.29-3.05.63-4.57,1A88.22,88.22,0,0,0,218.35,127.93Zm-.12-.26a92.42,92.42,0,0,1,9-2.79c1.52-.4,3.05-.77,4.6-1a23,23,0,0,1,2.36-.29,5.6,5.6,0,0,1,1.22,0,1.67,1.67,0,0,1,1,.81,7.87,7.87,0,0,1,.84,2.25,23.15,23.15,0,0,1,.4,2.33c.2,1.56.33,3.13.39,4.69s.09,3.14.07,4.71c0,.79,0,1.57-.1,2.36a7.75,7.75,0,0,1-.16,1.21,1.2,1.2,0,0,1-.5.52,4.74,4.74,0,0,1-.53.3,36.51,36.51,0,0,1-4.42,1.69c-1.49.49-3,.95-4.5,1.37s-3,.84-4.55,1.22c-.76.18-1.52.37-2.3.53a7.32,7.32,0,0,1-1.22.17.51.51,0,0,1-.3-.08.83.83,0,0,1-.16-.21,1.92,1.92,0,0,1-.12-.33c-.06-.21-.09-.41-.13-.61-.23-1.58-.29-3.14-.38-4.7l-.27-4.69c-.08-1.56-.2-3.12-.33-4.68l-.16-2.35c0-.39,0-.78,0-1.18q0-.3,0-.6C218,128.12,217.93,127.92,218.23,127.67Z"/><path class="cls-45" d="M158.82,119.41a30.14,30.14,0,0,1,8.1-.18,69.32,69.32,0,0,1,8,1.25,45.46,45.46,0,0,1,7.71,2.45,33.27,33.27,0,0,1,7,4,.23.23,0,0,1-.27.38h0a27.17,27.17,0,0,0-3.44-2,39.4,39.4,0,0,0-3.63-1.63,48.24,48.24,0,0,0-7.6-2.31c-2.6-.56-5.23-1-7.87-1.32-1.32-.16-2.65-.25-4-.3a21.49,21.49,0,0,0-3.94.14h0a.22.22,0,0,1-.26-.2A.23.23,0,0,1,158.82,119.41Z"/><path class="cls-46" d="M155.88,177.4c-1.11.21-.89,5.34-.67,6.27s12.1,4,12.41,3.24,1.41-6.28.46-6.82S157.3,177.14,155.88,177.4Z"/><path class="cls-47" d="M167.29,159.9a3.47,3.47,0,1,0-3.47,3.47A3.47,3.47,0,0,0,167.29,159.9Z"/><path class="cls-48" d="M214.5,153.89a5.72,5.72,0,0,0-1.8.4,2.06,2.06,0,0,0-1.36.9.58.58,0,0,0,.9.7,3.33,3.33,0,0,1,1.09-.35,5.65,5.65,0,0,0,1.51-.42A.67.67,0,0,0,214.5,153.89Z"/><path class="cls-4" d="M215.88,152.4c.11,1.7.12,3.4.17,5.09s.12,3.39.16,5.09c0,.43,0,.85,0,1.27s.08.85.08,1.27l0,2.55c.1,1.69.13,3.39.1,5.09a0,0,0,0,1-.05.05.06.06,0,0,1-.06-.05c-.12-1.69-.18-3.39-.17-5.08l-.11-2.55c0-.42,0-.85,0-1.27s0-.85-.05-1.27c-.06-1.7-.18-3.39-.12-5.09s-.13-3.39-.12-5.09a.06.06,0,0,1,.06-.06A.05.05,0,0,1,215.88,152.4Z"/><path class="cls-4" d="M150.53,154.34l-.46,0a3.94,3.94,0,0,0-3.71,4.14,4.2,4.2,0,0,0,2.11,3.74,3.5,3.5,0,0,0,1.6.39,3.94,3.94,0,0,0,3.7-4.13A4,4,0,0,0,150.53,154.34Zm30.19,7.08a3.64,3.64,0,0,0-.48,0,4,4,0,0,0-3.88,4.14,4.18,4.18,0,0,0,2.22,3.74,3.73,3.73,0,0,0,1.66.4,4.17,4.17,0,0,0,.48-8.25Z"/><path class="cls-49" d="M156.67,178a.67.67,0,0,0,0,1.33A.67.67,0,0,0,156.67,178Z"/><path class="cls-49" d="M156.78,183.05a1.06,1.06,0,0,0-.09-.25.6.6,0,0,0-1,0,.58.58,0,0,0-.09.25.67.67,0,0,0,.06.48.6.6,0,0,0,.53.3.62.62,0,0,0,.44-.18A.65.65,0,0,0,156.78,183.05Z"/><path class="cls-49" d="M166.51,185a.59.59,0,0,0,0,1.18A.59.59,0,0,0,166.51,185Z"/><path class="cls-49" d="M167.66,180.48a.75.75,0,0,0-1,.25l.06-.07a1.09,1.09,0,0,0-.13.17.84.84,0,0,0-.13.44.74.74,0,0,0,.54.71.75.75,0,0,0,.86-.41.55.55,0,0,0,.12-.27A.75.75,0,0,0,167.66,180.48Z"/><path class="cls-50" d="M143.3,147.44c-.9-.76-1.69-1.7-2.54-2.52s-1.94-2.35-3.09-2.25a.71.71,0,0,0-.64.89c.1.55.52.82.93,1.16.56.46,1.09.95,1.63,1.44a20,20,0,0,0,3,2.31A.65.65,0,0,0,143.3,147.44Z"/><path class="cls-50" d="M140.72,151.83c-1-.69-2-1.33-3-2s-2-1.59-3.09-1.25a.63.63,0,0,0-.35.94c.66.89,2.13,1.19,3.12,1.66a8.05,8.05,0,0,0,3.21,1.05C140.84,152.2,140.86,151.93,140.72,151.83Z"/><path class="cls-50" d="M142.34,155.42a11.85,11.85,0,0,1-3.62.16c-.94-.05-2.15-.38-2.82.45a.69.69,0,0,0,0,.94c.78.9,2.59.44,3.63.29a4.91,4.91,0,0,0,3-1.46A.23.23,0,0,0,142.34,155.42Z"/><path class="cls-41" d="M199.45,150h-.07c-1.64.16-2.32,3.28-2.32,3.28H197c0-.7.05-1.55.09-2.51a2.84,2.84,0,0,1,2.11-1.93h.18A7.7,7.7,0,0,0,199.45,150Z"/><path class="cls-51" d="M204.85,148.66a3,3,0,1,1-3-2.73A2.88,2.88,0,0,1,204.85,148.66Z"/><path class="cls-4" d="M201.75,146.55a1.66,1.66,0,0,0-1.13.51.15.15,0,0,0,.09.22,1.1,1.1,0,0,0,.51,0,3.34,3.34,0,0,0,.69-.18A.3.3,0,0,0,201.75,146.55Z"/><path class="cls-4" d="M202.91,146.89a.25.25,0,0,0,0,.5A.25.25,0,0,0,202.91,146.89Z"/><path class="cls-52" d="M178.07,134.27c-1.64,0-3.3,1.42-4.7,2.19a41.09,41.09,0,0,0-4.57,2.6.66.66,0,0,0,.44,1.23,17.62,17.62,0,0,0,4.63-1.91c.8-.39,1.59-.8,2.38-1.21a6.57,6.57,0,0,0,2.4-1.51A.83.83,0,0,0,178.07,134.27Z"/><path class="cls-52" d="M184,136.82c-1.25-1.07-3,.32-4.12,1.05-1.69,1.12-3.42,2.15-5.1,3.28-1.86,1.24-3.66,2.54-5.52,3.77s-4.19,2.28-6,3.68c-.28.22-.25.81.21.77,1.87-.18,3.72-1.29,5.35-2.18,1.95-1.06,3.79-2.38,5.65-3.59s3.55-2.11,5.29-3.21c.78-.5,1.55-1,2.35-1.46s1.62-.48,2-1.29A.7.7,0,0,0,184,136.82Z"/><path class="cls-52" d="M180.84,141.82c-1.2.19-2.25,1.53-3.15,2.28s-2.46,1.5-3.14,2.57a.15.15,0,0,0,.09.22c1.21.33,2.68-.67,3.66-1.27,1.15-.71,2.92-1.63,3.37-3C181.84,142.11,181.31,141.75,180.84,141.82Z"/><path class="cls-52" d="M203.53,133a13.15,13.15,0,0,0-1.64,1.25c-.42.35-1.13.77-1.38,1.28a.63.63,0,0,0,.37.91c.61.22,1.35-.31,1.84-.61s1.21-.76,1.79-1.15A1,1,0,0,0,203.53,133Z"/><path class="cls-52" d="M209.17,132.35a12.7,12.7,0,0,0-1.82,1.91,38.16,38.16,0,0,1-2.92,2.62c-.91.76-1.84,1.49-2.8,2.18-.56.4-1.43.78-1.69,1.47a.42.42,0,0,0,.2.48c.67.33,1.44-.13,2-.44a27.46,27.46,0,0,0,3.39-2.22c1-.77,2-1.59,3-2.45.69-.63,1.84-1.52,2-2.48A1,1,0,0,0,209.17,132.35Z"/><path class="cls-52" d="M227.71,128.73c-1.76-.39-3.24,2-4.18,3.21-.3.39-1.49,2.15-.37,2.24.6.06,1.36-.84,1.74-1.23.54-.58,1.09-1.14,1.68-1.66s1.24-.71,1.59-1.42A.78.78,0,0,0,227.71,128.73Z"/><path class="cls-52" d="M233,128.74c-.05-.53-.56-1.12-1.15-.88-.89.35-1.42,1.4-2.07,2.08-1,1-2.11,2-3.19,2.92s-2.09,1.88-3.07,2.88a3.8,3.8,0,0,0-1.36,2.28.48.48,0,0,0,.72.41,15.26,15.26,0,0,0,2-1.79c1.06-.95,2.22-1.8,3.33-2.7s2-1.68,3-2.58C231.86,130.74,233.08,129.75,233,128.74Z"/><path class="cls-53" d="M179.69,170.39l.06.08a.48.48,0,0,0-.53-.22,2.58,2.58,0,0,0-1.38,1c-.14.21.09.44.3.4a4,4,0,0,0,.68-.26c.25-.1.51-.16.76-.27a.46.46,0,0,0,.23-.34A.3.3,0,0,0,179.69,170.39Z"/><path class="cls-53" d="M182,170.46a1.87,1.87,0,0,0-1.13.65,1.47,1.47,0,0,0-.46.66.06.06,0,0,0-.05.09c.14.29.42.23.67.14a5.52,5.52,0,0,0,.55-.26c.22-.11.48-.17.69-.3C182.71,171.19,182.57,170.4,182,170.46Z"/><path class="cls-53" d="M184.49,171a.41.41,0,0,0-.3-.3c-.35-.09-.6.17-.81.41a3.17,3.17,0,0,0-.4.56c-.16.3.17.68.48.48S184.62,171.63,184.49,171Z"/><path class="cls-53" d="M148.48,163.31a.55.55,0,0,0-.68-.39c-.34.08-.49.43-.65.7s-.2.4-.31.59a.45.45,0,0,0,.6.61,2.16,2.16,0,0,0,.56-.48c.11-.13.22-.26.32-.4A.78.78,0,0,0,148.48,163.31Z"/><path class="cls-53" d="M150.09,164.07a.4.4,0,0,0-.5-.38.9.9,0,0,0-.64.65c0,.11-.06.22-.09.33s-.07.2-.09.31a.24.24,0,0,0,.29.29,1.55,1.55,0,0,0,.59-.32A.92.92,0,0,0,150.09,164.07Z"/><path class="cls-53" d="M151.52,163.92a.33.33,0,0,0-.39-.22c-.38.09-.52.33-.71.64a1.91,1.91,0,0,0-.34.85c0,.2.22.29.37.21a2.66,2.66,0,0,0,.72-.58A.92.92,0,0,0,151.52,163.92Z"/><path class="cls-53" d="M182.33,179.23a2.65,2.65,0,0,0-1.06.38.39.39,0,0,0,0,.67,1.55,1.55,0,0,0,1.12.1c.35-.06.84-.32.85-.73S182.62,179.2,182.33,179.23Z"/><path class="cls-53" d="M185.13,179.55a.48.48,0,0,0-.42-.24.44.44,0,0,0-.3.11.18.18,0,0,1-.07.05l.07,0a.34.34,0,0,0-.12.12l.05-.08-.06.05-.05.07a.36.36,0,0,0-.12.08.58.58,0,0,0,0,.79.64.64,0,0,0,.74.1A.73.73,0,0,0,185.13,179.55Z"/><path class="cls-53" d="M184.34,179.47Z"/><path class="cls-53" d="M184.45,177.41a.86.86,0,0,0-.77.21c-.2.19-.26.59.06.7a.32.32,0,0,0,.16,0s.15,0,0,0l.13,0a1,1,0,0,0,.39,0A.49.49,0,0,0,184.45,177.41Z"/><path class="cls-54" d="M222.2,167h0Z"/><path class="cls-54" d="M222.23,167.12l0-.11a.35.35,0,0,0-.15-.19c.07.05,0,0-.07-.06a.54.54,0,0,0-.3-.08.78.78,0,0,0-.55.14,1.93,1.93,0,0,0-.36.28l-.07.07c-.12.15-.13.17,0,0l0,0a.55.55,0,0,0,.24.92,1.12,1.12,0,0,0,.85-.17,1,1,0,0,0,.47-.53.78.78,0,0,0,0-.22S222.23,167.16,222.23,167.12Z"/><path class="cls-54" d="M222.22,167.08a.08.08,0,0,0,0,0Z"/><path class="cls-54" d="M222.42,165.9h0S222.43,165.89,222.42,165.9Z"/><path class="cls-54" d="M222.77,164.87a1,1,0,0,0-1,0,1.73,1.73,0,0,0-.62.64.47.47,0,0,0,.64.64,2.1,2.1,0,0,1,.26-.13l.12-.07.2-.08a1.07,1.07,0,0,0,.53-.58A.42.42,0,0,0,222.77,164.87Z"/><path class="cls-54" d="M237.05,148.77c-.12-.32-.52-.31-.78-.18a6.22,6.22,0,0,1-.71.29.23.23,0,0,0,0,.45,1.72,1.72,0,0,0,.78.11.78.78,0,0,0,.53-.19C237,149.12,237.12,148.94,237.05,148.77Z"/><path class="cls-54" d="M238,150c-.44-.3-.92.05-1.31.27a.24.24,0,0,0,0,.42,1.89,1.89,0,0,0,.6.26.74.74,0,0,0,.91-.48A.41.41,0,0,0,238,150Z"/><path class="cls-54" d="M239.81,147.45c-.42-.12-.73.14-1,.38s-.51.28-.64.49h0a.37.37,0,0,0,0,.38c.2.36.65.2,1,.1l.44-.14a1.36,1.36,0,0,0,.3-.13l.12-.09.06-.05a.61.61,0,0,0,.12-.16A.53.53,0,0,0,239.81,147.45Z"/><path class="cls-55" d="M233.69,120a1.08,1.08,0,0,0-.93,0,1,1,0,0,0-.59.4l-.07.09a.59.59,0,0,0-.06.14.53.53,0,0,0-.08.46.59.59,0,0,0,.54.43.65.65,0,0,0,.21,0c-.15,0-.1,0,.13,0a.76.76,0,0,0,.39-.1h0l.11,0a1.23,1.23,0,0,0,.47-.27A.7.7,0,0,0,233.69,120Z"/><path class="cls-55" d="M236.94,120a.61.61,0,0,0-.58-.45,1.35,1.35,0,0,0-.74.35,5.58,5.58,0,0,0-.46.39.45.45,0,0,0-.07.54.47.47,0,0,0,.5.2,2.07,2.07,0,0,0,1.2-.44A.61.61,0,0,0,236.94,120Z"/><path class="cls-55" d="M235.17,118.62a1,1,0,0,0-.35.22l-.09.07c.07-.06,0,0,0,0a.9.9,0,0,1-.44,0c-.37,0-.46.49-.18.66a1.22,1.22,0,0,0,.9.23.88.88,0,0,0,.73-.77A.45.45,0,0,0,235.17,118.62Z"/><path class="cls-55" d="M150.4,145.74a.72.72,0,0,0-.67,0,.28.28,0,0,0-.41.16.64.64,0,0,0-.08.14l0,.07a.46.46,0,0,0,0,.26.64.64,0,0,0,.42.4c.33.13.93-.11,1-.49A.5.5,0,0,0,150.4,145.74Z"/><path class="cls-55" d="M150.16,144.71a.49.49,0,0,0-.46-.35.71.71,0,0,0-.38.09s0,0,0,0a.28.28,0,0,0-.39.1.54.54,0,0,0-.05.11v0l0,0a.62.62,0,0,0-.07.23.46.46,0,0,0,.24.42,1,1,0,0,0,1-.15A.48.48,0,0,0,150.16,144.71Z"/><path class="cls-55" d="M194.88,134.14a.65.65,0,0,0-.22.11.46.46,0,1,0,.63.63,1,1,0,0,0,.11-.23A.42.42,0,0,0,194.88,134.14Z"/><path class="cls-55" d="M195,135.7a1.06,1.06,0,0,0-.46.13l-.06,0-.07,0-.14,0a.49.49,0,0,0-.37.48.51.51,0,0,0,.51.51.88.88,0,0,0,1-.8A.42.42,0,0,0,195,135.7Z"/><path class="cls-56" d="M206.15,110.41a1.57,1.57,0,0,0-1,.11,2.11,2.11,0,0,0-.94.54.25.25,0,0,0,.11.41,1.84,1.84,0,0,0,.81,0,4.94,4.94,0,0,0,1-.17A.45.45,0,0,0,206.15,110.41Z"/><path class="cls-56" d="M201.24,111.68a6,6,0,0,0-2.2.41.13.13,0,0,0,0,.25,3,3,0,0,0,2.37,0A.34.34,0,0,0,201.24,111.68Z"/><path class="cls-56" d="M204.53,112.37a1.53,1.53,0,0,0-1.7.33.35.35,0,0,0,.27.64,4.26,4.26,0,0,0,1.43-.49A.29.29,0,0,0,204.53,112.37Z"/><path class="cls-4" d="M204,163.83a1.39,1.39,0,0,0-.8.69,2.16,2.16,0,0,0-.44,1.11.12.12,0,0,0,.17.1,4.91,4.91,0,0,0,.7-.74,2.26,2.26,0,0,0,.6-.93A.19.19,0,0,0,204,163.83Z"/><path class="cls-4" d="M204.93,163.35a.22.22,0,0,0,0,.43A.22.22,0,0,0,204.93,163.35Z"/><path class="cls-4" d="M228.65,156.69c-.45.08-.83.55-1.11.88a3,3,0,0,0-.63,1.23.16.16,0,0,0,.27.16c.32-.27.57-.59.87-.89a6.3,6.3,0,0,0,.94-.92A.31.31,0,0,0,228.65,156.69Z"/><path class="cls-4" d="M229.86,156.05a.29.29,0,0,0,0,.57A.29.29,0,0,0,229.86,156.05Z"/><path class="cls-4" d="M186.07,129.53c-.25,0-.5.09-.75.14s-.56.08-.82.17a.24.24,0,0,0,0,.46,2.91,2.91,0,0,0,1.68,0C186.61,130.22,186.55,129.47,186.07,129.53Z"/><path class="cls-4" d="M187.51,129.49a.44.44,0,0,0,0,.87A.44.44,0,0,0,187.51,129.49Z"/><path class="cls-4" d="M214.33,153a.75.75,0,0,0-.44.1.39.39,0,0,0-.08.61l.1.07a.47.47,0,0,0,.17,0h.25A.42.42,0,0,0,214.33,153Z"/><path class="cls-57" d="M1034.24,85c-.23,1.8,1.26,4.08,1.26,4.08,2.45-3.66,9.35-6.84,9.35-6.84,2.15-4.56,8.11-10.77,8.11-10.77h0l-1.5-4A34.26,34.26,0,0,0,1034.24,85Z"/><path class="cls-58" d="M1044.85,82.25s-6.9,3.18-9.35,6.84a41,41,0,0,0-1.26,14.44l7.85,8,9.23-6.21,1.61-15-8.07-8Z"/><path class="cls-59" d="M1088.71,78a35.7,35.7,0,0,0-11.5-8.4c-7.41.5-11.23,3-11.23,3h0l.27,11.61h0l12.25,8.8,11.07-3.5C1090.62,84.65,1088.71,78,1088.71,78Z"/><path class="cls-60" d="M1053,71.48s-5.94,6.19-8.1,10.75l8.07,8h0l13.32-6L1066,72.62C1057.64,70.74,1053,71.48,1053,71.48Z"/><path class="cls-61" d="M1035.5,89.09s-1.49-2.28-1.26-4.08a34.55,34.55,0,0,0-2,21.2,14.15,14.15,0,0,1,2-2.68A41,41,0,0,1,1035.5,89.09Z"/><path class="cls-62" d="M1075.56,66a33.82,33.82,0,0,0-24.08,1.44l1.5,4c.29,0,4.93-.68,13,1.14,0,0,3.82-2.48,11.23-3h0A7,7,0,0,0,1075.56,66Z"/><path class="cls-63" d="M1092.85,78.52A34.08,34.08,0,0,0,1075.56,66a7,7,0,0,1,1.65,3.61,35.81,35.81,0,0,1,11.5,8.4v0A4.94,4.94,0,0,1,1092.85,78.52Z"/><path class="cls-64" d="M1092.85,78.52a4.94,4.94,0,0,0-4.13-.45c.12.44,1.86,6.75.88,11.45,2.17,2.2,4.75,11.21,5.14,12.61l4.45.33a35.22,35.22,0,0,0,.2-3.72A34.34,34.34,0,0,0,1092.85,78.52Z"/><path class="cls-65" d="M1034.24,103.53a14.15,14.15,0,0,0-2,2.68,34.3,34.3,0,0,0,13.22,20.27l2.55-3.26a38.44,38.44,0,0,1-5.9-11.73Z"/><path class="cls-66" d="M1063.27,114.06l-.25.1.25-.1-11.94-8.79h0l-9.23,6.21a38.44,38.44,0,0,0,5.9,11.73l0,0s2.91,1.68,12.94,1.84l2.34-11Z"/><path class="cls-67" d="M1063.27,114.06l0,0L1061,125h0s5.72,4.14,10.08,5.13c0,0,8.53-2.56,13.31-5.91,0,0,1.77-2.47,2.86-10.9h0l-10-5.55A141.64,141.64,0,0,1,1063.27,114.06Z"/><path class="cls-68" d="M1078.53,93l-12.25-8.8-13.35,6-1.6,15,11.94,8.79a140.64,140.64,0,0,0,13.93-6.27c.21-2,1.19-11.16,1.35-14.78Z"/><path class="cls-69" d="M1089.6,89.52h0l-11,3.49c-.16,3.62-1.14,12.82-1.35,14.78h0l10,5.55c.16-.16,5.23-5.43,7.52-11.21h0C1094.35,100.73,1091.77,91.72,1089.6,89.52Z"/><path class="cls-70" d="M1094.73,102.13c-2.33,5.87-7.53,11.22-7.53,11.22-1,8.14-2.73,10.71-2.85,10.88a13.41,13.41,0,0,0,3.85-.09,34.28,34.28,0,0,0,11-21.68Z"/><path class="cls-71" d="M1084.35,124.23v0c-4.64,3.25-12.79,5.76-13.28,5.91a5.2,5.2,0,0,1-1.86,2.63,33.74,33.74,0,0,0,19-8.65A13.41,13.41,0,0,1,1084.35,124.23Z"/><path class="cls-72" d="M1071.06,130.16h0c-4.36-1-10.08-5.13-10.08-5.13-10-.16-12.94-1.84-12.94-1.84l-2.57,3.29a33.7,33.7,0,0,0,20,6.52,34.16,34.16,0,0,0,3.8-.21A5.2,5.2,0,0,0,1071.06,130.16Z"/></g></g></g></svg>