<svg xmlns="http://www.w3.org/2000/svg" viewBox="0 0 129.75 114.14"><defs><style>.cls-1{fill:#117b9e;}.cls-2{fill:#a6c6e5;}.cls-3{fill:#fff;}.cls-4{fill:none;stroke:#000;stroke-linecap:round;stroke-linejoin:round;stroke-width:3px;}.cls-5{fill:#e79115;}</style></defs><title>資產 9</title><g id="圖層_2" data-name="圖層 2"><g id="圖層_1-2" data-name="圖層 1"><path class="cls-1" d="M15.84,20.88H.66L1.94,104.4l47.62.77s13.13.77,15.45,7.21c0,0,4.89-6.18,19.56-7.73h44.28l-.26-83.77-14.16-.26L113.14,90.5,108,91.78s-36.3,1.29-42.48,17c0,0-10.81-13.9-25-15.19S16.36,92,16.36,92Z"/><path class="cls-2" d="M65.35,23.33v85.4l.17,0S73.25,90.5,113.15,90.5l.25-81.72S86.91-1.39,65.35,23.33"/><path class="cls-3" d="M65,23.71S50.85-.48,16.1,9l.26,83s41.44-1.8,47.11,16.22l1.88.47V23.33l-.34.38"/><path class="cls-4" d="M64.75,112.64s0-21.09-48.39-21.09V8.63S49.42-1.43,64.75,24.44Z"/><path class="cls-4" d="M16.1,21.09H1.5v83.82h47s9.6.26,16.29,7.73"/><path class="cls-4" d="M65,112.64s0-21.09,48.4-21.09V8.63S80.33-1.43,65,24.44Z"/><path class="cls-4" d="M113.65,21.09h14.6v83.82h-47s-9.6.26-16.3,7.73"/><path class="cls-5" d="M106.28,1.66V38.47L99.07,32l-6.95,5.56L92,2.69a44.31,44.31,0,0,1,14.33-1"/><path class="cls-4" d="M106.28,1.66V38.47L99.07,32l-6.95,5.56L92,2.69A44.31,44.31,0,0,1,106.28,1.66Z"/></g></g></svg>