<svg xmlns="http://www.w3.org/2000/svg" viewBox="0 0 156.89 135.59"><defs><style>.cls-1{fill:#231815;}.cls-2{fill:#d6574e;}.cls-3{fill:none;stroke:#231815;stroke-miterlimit:10;stroke-width:3px;}.cls-4{font-size:59.67px;fill:#fff;font-family:Impact;letter-spacing:0.1em;}.cls-5{letter-spacing:0.1em;}.cls-6{letter-spacing:0em;}</style></defs><title>資產 17</title><g id="圖層_2" data-name="圖層 2"><g id="圖層_1-2" data-name="圖層 1"><path class="cls-1" d="M73.05,126.76l-6.48-23a7,7,0,0,0-3.24-1.6V102a3.09,3.09,0,0,0-.44.07,3.32,3.32,0,0,0-.45-.07v.16a6.94,6.94,0,0,0-3.23,1.6l-6.48,23H20.93v8.83h83.92v-8.83Z"/><path class="cls-2" d="M112.7,113.41H13.07A11.61,11.61,0,0,1,1.5,101.84v-61A11.61,11.61,0,0,1,13.07,29.22H112.7a11.6,11.6,0,0,1,11.57,11.57v61.05a11.6,11.6,0,0,1-11.57,11.57"/><rect class="cls-3" x="1.5" y="29.22" width="122.77" height="84.19" rx="11.57"/><text class="cls-4" transform="translate(18.96 94.68) scale(1.2 1)">1<tspan class="cls-5" x="28.69" y="0">:</tspan><tspan class="cls-6" x="46.66" y="0">1</tspan></text><path d="M139.65,35h-.33a8.15,8.15,0,0,0-8.13,8.13V77.67a8.15,8.15,0,0,0,8.13,8.13h.33a17.29,17.29,0,0,0,17.24-17.24V52.27A17.29,17.29,0,0,0,139.65,35"/><path d="M139,44.44C139,19.94,111.64,0,78.07,0,52.17,0,30,11.87,21.23,28.54H30c8.6-12.39,26.92-21,48.09-21,29.4,0,53.31,16.54,53.31,36.87a25.75,25.75,0,0,1-.19,3.05h7.6c.1-1,.16-2,.16-3.05"/></g></g></svg>