<svg xmlns="http://www.w3.org/2000/svg" viewBox="0 0 116.64 116.64"><defs><style>.cls-1{fill:#dd7e44;}.cls-2{fill:#e2a062;}.cls-3{fill:#f0e531;}.cls-4,.cls-5{fill:none;stroke:#231815;stroke-miterlimit:10;}.cls-4{stroke-width:2px;}.cls-5{stroke-width:3px;}</style></defs><title>資產 15</title><g id="圖層_2" data-name="圖層 2"><g id="圖層_1-2" data-name="圖層 1"><path class="cls-1" d="M64.35,44.42a4.7,4.7,0,0,0-3.6,1.5c-1,1-1.46,2.72-1.46,5a6.93,6.93,0,0,0,1.39,4.72,4.34,4.34,0,0,0,3.44,1.58c2.12,0,4.95-.67,4.95-6.5,0-5.67-2.69-6.33-4.72-6.33m-6.5-22.65A37.32,37.32,0,1,0,95.17,59.08,37.36,37.36,0,0,0,57.85,21.77M81.52,64.18a18.77,18.77,0,0,1-11.13,4.47l-4,0a20.13,20.13,0,0,1-5.93-1.26l-1.79-.69v4.72h4.21V82.75H37V71.44h3.91V46.33H37V35H58.67v1.66L60.45,36a23.26,23.26,0,0,1,5.87-1.42l4-.08a18,18,0,0,1,11.12,4.69,16.35,16.35,0,0,1,5.28,12.6c0,5.2-1.75,9.38-5.18,12.4"/><path class="cls-2" d="M58.57,1.5a56.82,56.82,0,1,0,56.82,56.82A56.82,56.82,0,0,0,58.57,1.5m0,99.69a42.87,42.87,0,1,1,42.87-42.87,42.92,42.92,0,0,1-42.87,42.87"/><path class="cls-3" d="M58.57,16.76a41.56,41.56,0,1,0,41.56,41.56A41.62,41.62,0,0,0,58.57,16.76m0,78.88A37.32,37.32,0,1,1,95.89,58.32,37.36,37.36,0,0,1,58.57,95.64"/><path class="cls-3" d="M39,80.68V72h3.91V44.26H39.05v-8.7h19v2.56l1-.5A22.61,22.61,0,0,1,69.53,35a16.72,16.72,0,0,1,11.72,4.41A14.91,14.91,0,0,1,86.1,51c0,4.88-1.55,8.62-4.73,11.42S74,66.67,68.84,66.67a18.11,18.11,0,0,1-9.76-2.53l-1-.63V72h4.2v8.7ZM64.35,43.11A5.92,5.92,0,0,0,59.8,45C58.59,46.3,58,48.29,58,51a8.1,8.1,0,0,0,1.72,5.59,5.7,5.7,0,0,0,4.42,2c4.16,0,6.26-2.63,6.26-7.81s-2-7.64-6-7.64"/><path class="cls-4" d="M100.53,58.32A42.21,42.21,0,1,1,58.32,16.11,42.21,42.21,0,0,1,100.53,58.32Z"/><path class="cls-4" d="M95,58.32A36.66,36.66,0,1,1,58.32,21.66,36.66,36.66,0,0,1,95,58.32Z"/><path class="cls-5" d="M115.14,58.32A56.82,56.82,0,1,1,58.32,1.5,56.82,56.82,0,0,1,115.14,58.32Z"/><path class="cls-5" d="M38.14,44.91v-10H58.49V37a23.13,23.13,0,0,1,10.79-2.73,17.58,17.58,0,0,1,12.18,4.6A15.66,15.66,0,0,1,86.51,51q0,7.56-5,11.92t-13,4.39a18.68,18.68,0,0,1-10.1-2.62v6.63h4.2v10H38.08v-10H42V44.91Zm20.25,6A7.48,7.48,0,0,0,60,56.13a5,5,0,0,0,3.91,1.78q5.61,0,5.61-7.16,0-7-5.38-7A5.35,5.35,0,0,0,60,45.47Q58.4,47.21,58.39,51Z"/></g></g></svg>