<svg xmlns="http://www.w3.org/2000/svg" viewBox="0 0 118.66 109.92"><defs><style>.cls-1{fill:#82c1d7;}.cls-2{fill:#fff;}.cls-3,.cls-4{fill:none;stroke-linecap:round;stroke-linejoin:round;stroke-width:3px;}.cls-3{stroke:#000;}.cls-4{stroke:#231815;}</style></defs><title>資產 10</title><g id="圖層_2" data-name="圖層 2"><g id="圖層_1-2" data-name="圖層 1"><path class="cls-1" d="M97.36,1.5H19.5A13.62,13.62,0,0,0,5.92,15.09v71.7A13.62,13.62,0,0,0,19.5,100.37h3.58V85.61A12.75,12.75,0,0,1,35.8,72.89H81.06A12.75,12.75,0,0,1,93.78,85.61l2.64,14.76h.94a13.62,13.62,0,0,0,13.58-13.58V15.09A13.62,13.62,0,0,0,97.36,1.5"/><path class="cls-2" d="M74.48,49.12A16.39,16.39,0,1,1,58.09,32.73,16.39,16.39,0,0,1,74.48,49.12"/><path class="cls-3" d="M74.48,49.12A16.39,16.39,0,1,1,58.09,32.73,16.39,16.39,0,0,1,74.48,49.12Z"/><path class="cls-2" d="M94,85.69C91.7,78.24,88.31,73,81.32,73H36.06A12.76,12.76,0,0,0,23.34,85.69l-5.6,22.66H35.07l4.55-13.72,2,13.72H75.83L77.2,93.51l5.49,14.84H98.22Z"/><path class="cls-3" d="M97.7,1.5H19.85A13.63,13.63,0,0,0,6.26,15.09v71.7a13.63,13.63,0,0,0,13.59,13.58l3.57-14.76c2.6-8.53,5.73-12.72,12.72-12.72H78.92c7,0,13.3,4.49,15.2,12.72l2.75,14.8.83,0a13.62,13.62,0,0,0,13.58-13.58V15.09A13.62,13.62,0,0,0,97.7,1.5Z"/><polyline class="cls-3" points="19.85 100.37 17.74 108.35 34.98 108.35 39.62 94.63 41.59 108.35 75.83 108.35 77.2 93.51 82.69 108.35 98.22 108.35 95.56 92.65"/><line class="cls-4" x1="1.5" y1="108.42" x2="117.16" y2="108.42"/></g></g></svg>