<svg xmlns="http://www.w3.org/2000/svg" viewBox="0 0 110.61 110.61"><defs><style>.cls-1{fill:#b3c0b7;}.cls-2{fill:none;stroke:#070001;stroke-miterlimit:22.93;stroke-width:3px;}</style></defs><title>資產 14</title><g id="圖層_2" data-name="圖層 2"><g id="圖層_1-2" data-name="圖層 1"><path class="cls-1" d="M99.45,48.15a45,45,0,0,0-2.25-8.48l7.25-5A23,23,0,0,0,98,23.51L90,27a41.85,41.85,0,0,0-3-3.34c-1-1-2-2-3.15-2.88l3.77-8A23,23,0,0,0,76.39,6.41L71.18,13.5a43.53,43.53,0,0,0-8.47-2.29L62,2.42a22.93,22.93,0,0,0-12.88,0l-1,8.75a43.52,43.52,0,0,0-8.48,2.23l-5-7.24A23,23,0,0,0,23.5,12.6L27,20.66a40.14,40.14,0,0,0-3.34,3,40.73,40.73,0,0,0-2.88,3.14l-8-3.77A23,23,0,0,0,6.41,34.22l7.09,5.22a42.83,42.83,0,0,0-2.29,8.45l-8.79.73a22.89,22.89,0,0,0,0,12.87l8.74,1a44.35,44.35,0,0,0,2.24,8.47L6.16,76A22.79,22.79,0,0,0,12.6,87.1l8.07-3.53a38.48,38.48,0,0,0,3,3.35,40.48,40.48,0,0,0,3.14,2.86l-3.77,8a23,23,0,0,0,11.15,6.45l5.22-7.09a45.77,45.77,0,0,0,8.45,2.29l.73,8.77a22.89,22.89,0,0,0,12.87,0l1-8.73a45.12,45.12,0,0,0,8.47-2.25l5,7.25A23,23,0,0,0,87.1,98L83.57,90c1.17-1,2.28-2,3.35-3s2-2,2.86-3.15l8,3.78a23.09,23.09,0,0,0,6.45-11.16l-7.08-5.21a44.25,44.25,0,0,0,2.29-8.47l8.77-.71a22.71,22.71,0,0,0,0-12.87ZM76.2,76.2a29.55,29.55,0,1,1,8.65-20.89A29.5,29.5,0,0,1,76.2,76.2"/><path class="cls-2" d="M62.71,11.21a43.53,43.53,0,0,1,8.47,2.29l5.21-7.09a23,23,0,0,1,11.15,6.44l-3.77,8a40.87,40.87,0,0,1,3.15,2.88A41.85,41.85,0,0,1,90,27L98,23.51a23,23,0,0,1,6.44,11.15l-7.25,5a45,45,0,0,1,2.25,8.48l8.73,1a22.71,22.71,0,0,1,0,12.87l-8.77.71a44.25,44.25,0,0,1-2.29,8.47l7.08,5.21a23.09,23.09,0,0,1-6.45,11.16l-8-3.78c-.9,1.1-1.86,2.15-2.86,3.15S84.74,89,83.57,90L87.1,98A23,23,0,0,1,76,104.45l-5-7.25a45.12,45.12,0,0,1-8.47,2.25l-1,8.73a22.89,22.89,0,0,1-12.87,0l-.73-8.77a45.77,45.77,0,0,1-8.45-2.29l-5.22,7.08a23,23,0,0,1-11.15-6.44l3.77-8a40.48,40.48,0,0,1-3.14-2.86,36.93,36.93,0,0,1-3-3.35L12.6,87.1A22.79,22.79,0,0,1,6.16,76l7.24-5a43.61,43.61,0,0,1-2.23-8.47l-8.75-1a22.89,22.89,0,0,1,0-12.87l8.79-.73a42.83,42.83,0,0,1,2.29-8.45L6.41,34.22a23,23,0,0,1,6.44-11.15l8,3.77A40.73,40.73,0,0,1,23.7,23.7a38.46,38.46,0,0,1,3.34-3L23.5,12.6A23,23,0,0,1,34.65,6.16l5,7.24a43.52,43.52,0,0,1,8.48-2.23l1-8.75A22.93,22.93,0,0,1,62,2.42Z"/><path class="cls-2" d="M76.2,34.42a29.55,29.55,0,1,0,8.65,20.89A29.44,29.44,0,0,0,76.2,34.42Z"/></g></g></svg>