<svg xmlns="http://www.w3.org/2000/svg" viewBox="0 0 238.22 279.26"><defs><style>.cls-1,.cls-2,.cls-3{fill:#d7574e;}.cls-1,.cls-2,.cls-6,.cls-7{stroke:#231815;stroke-miterlimit:10;}.cls-1{stroke-width:8.13px;}.cls-2{stroke-width:6.59px;}.cls-4{fill:#107b9e;}.cls-5{fill:#f0cd96;}.cls-6,.cls-7{fill:none;}.cls-6{stroke-width:11.01px;}.cls-7{stroke-width:7.32px;}.cls-8{fill:#231815;}.cls-9{fill:#040000;}</style></defs><title>資產 2</title><g id="圖層_2" data-name="圖層 2"><g id="圖層_1-2" data-name="圖層 1"><rect class="cls-1" x="97.65" y="25.46" width="39.14" height="29.28"/><rect class="cls-2" x="192.68" y="60.19" width="25.66" height="29.28" transform="translate(128.12 -129.73) rotate(49.27)"/><rect class="cls-3" x="87.18" y="4.71" width="60.82" height="30.41" rx="11.53"/><path class="cls-3" d="M196.59,55.36,227,86.8s11.4-13.72,5.54-24.81S205.06,40.26,196.59,55.36Z"/><ellipse class="cls-4" cx="116.67" cy="161.75" rx="114.65" ry="110.03"/><ellipse class="cls-5" cx="116.05" cy="160.52" rx="87.53" ry="90.3"/><path d="M116.46,108.77h0a6.19,6.19,0,0,1-6.17-6.17V94a6.18,6.18,0,0,1,6.17-6.16h0A6.18,6.18,0,0,1,122.62,94v8.63A6.18,6.18,0,0,1,116.46,108.77Z"/><path d="M116.46,237.8h0a6.18,6.18,0,0,1-6.17-6.16V223a6.18,6.18,0,0,1,6.17-6.16h0a6.18,6.18,0,0,1,6.16,6.16v8.63A6.18,6.18,0,0,1,116.46,237.8Z"/><rect x="174.81" y="152.33" width="12.33" height="20.96" rx="6.16" transform="translate(343.78 -18.17) rotate(90)"/><rect x="45.78" y="152.33" width="12.33" height="20.96" rx="6.16" transform="translate(214.75 110.87) rotate(90)"/><path d="M154.67,124.6h0a6.18,6.18,0,0,1,0-8.72l6.1-6.1a6.18,6.18,0,0,1,8.72,0h0a6.19,6.19,0,0,1,0,8.71l-6.1,6.11A6.2,6.2,0,0,1,154.67,124.6Z"/><path d="M63.43,215.84h0a6.18,6.18,0,0,1,0-8.72l6.1-6.1a6.18,6.18,0,0,1,8.72,0h0a6.2,6.2,0,0,1,0,8.72l-6.11,6.1A6.19,6.19,0,0,1,63.43,215.84Z"/><path d="M154.67,201h0a6.18,6.18,0,0,1,8.72,0l6.1,6.1a6.2,6.2,0,0,1,0,8.72h0a6.2,6.2,0,0,1-8.72,0l-6.1-6.1A6.18,6.18,0,0,1,154.67,201Z"/><path d="M63.43,109.78h0a6.17,6.17,0,0,1,8.71,0l6.11,6.1a6.2,6.2,0,0,1,0,8.72h0a6.2,6.2,0,0,1-8.72,0l-6.1-6.11A6.17,6.17,0,0,1,63.43,109.78Z"/><circle class="cls-6" cx="116.46" cy="162.81" r="110.95" transform="translate(-81.01 130.03) rotate(-45)"/><circle class="cls-7" cx="116.46" cy="162.81" r="88.92" transform="translate(-81.01 130.03) rotate(-45)"/><path class="cls-8" d="M97.78,40.14A16.36,16.36,0,0,1,81.44,23.8V16.34A16.36,16.36,0,0,1,97.78,0H137.6a16.36,16.36,0,0,1,16.34,16.34V23.8A16.36,16.36,0,0,1,137.6,40.14Zm0-30.51a6.73,6.73,0,0,0-6.72,6.71V23.8a6.73,6.73,0,0,0,6.72,6.71H137.6a6.72,6.72,0,0,0,6.71-6.71V16.34a6.72,6.72,0,0,0-6.71-6.71Z"/><path class="cls-8" d="M189.25,54.05l3-3.31c.44-.49.83-.89,1.21-1.26a23.85,23.85,0,0,1,16.69-6.27,28.11,28.11,0,0,1,20.25,8.4,29.46,29.46,0,0,1,7.78,18.65c.4,7.55-2.09,14.5-6.84,19.06-.39.38-.8.74-1.31,1.17l-3.46,2.9Zm37.52,25.56a16.61,16.61,0,0,0,1.8-8.84,20,20,0,0,0-5.11-12.49,18.75,18.75,0,0,0-13.33-5.46,15.86,15.86,0,0,0-7.22,1.64Z"/><circle class="cls-3" cx="118.53" cy="163.89" r="12.85"/><path class="cls-3" d="M111.19,169.42,86,137.16a5.08,5.08,0,0,1,.91-7.09c3.18-2.73,7.45.73,7.45.73l29.84,24.43"/><path class="cls-9" d="M122.2,149.22l.08-.09c-.22-.18-21.5-17.31-24.2-19.47-3.71-3-9.43-5.13-13.34-1.44-4.44,4.18-2.14,9.86-.29,12.31l19.38,24.8a14.65,14.65,0,1,0,18.37-16.11ZM87.37,131c2.27-2.13,6.29,0,8.31,1.65s13.86,11.14,20.21,16.25a14.71,14.71,0,0,0-11.7,10.65L87.5,138.18C87.36,138,84.31,133.9,87.37,131Zm31,43.16a10.82,10.82,0,1,1,10.82-10.81A10.82,10.82,0,0,1,118.34,174.17Z"/></g></g></svg>