<svg xmlns="http://www.w3.org/2000/svg" xmlns:xlink="http://www.w3.org/1999/xlink" viewBox="0 0 271.53 166.31"><defs><style>.cls-1,.cls-5{fill:#fff;}.cls-2{fill:none;stroke:#231815;stroke-miterlimit:10;stroke-width:12px;}.cls-3,.cls-6{opacity:0.36;}.cls-3{fill:url(#radial-gradient);}.cls-4{fill:url(#radial-gradient-2);}.cls-5{opacity:0.13;}.cls-6{fill:url(#radial-gradient-3);}.cls-7{fill:url(#radial-gradient-4);}</style><radialGradient id="radial-gradient" cx="74.58" cy="82.21" r="38.97" gradientUnits="userSpaceOnUse"><stop offset="0" stop-color="#484747"/><stop offset="0.87" stop-color="#3a393a"/><stop offset="1" stop-color="#373738"/></radialGradient><radialGradient id="radial-gradient-2" cx="74.58" cy="91.56" r="38.97" xlink:href="#radial-gradient"/><radialGradient id="radial-gradient-3" cx="187.97" cy="82.21" r="38.97" xlink:href="#radial-gradient"/><radialGradient id="radial-gradient-4" cx="187.97" cy="91.56" r="38.97" xlink:href="#radial-gradient"/></defs><title>資產 1</title><g id="圖層_2" data-name="圖層 2"><g id="圖層_1-2" data-name="圖層 1"><path class="cls-1" d="M194.22,7.39c-24.21,0-45.57,13.08-58.46,33-12.89-20-34.24-33-58.45-33C37.93,7.39,6,41.94,6,84.55S37.93,161.7,77.31,161.7c24.21,0,45.56-13.08,58.45-33,12.89,20,34.25,33,58.46,33,39.38,0,71.31-34.54,71.31-77.15S233.6,7.39,194.22,7.39Z"/><path class="cls-2" d="M194.22,6C170,6,148.65,19.08,135.76,39c-12.89-20-34.24-33-58.45-33C37.93,6,6,40.54,6,83.16s31.93,77.15,71.31,77.15c24.21,0,45.56-13.08,58.45-33,12.89,19.95,34.25,33,58.46,33,39.38,0,71.31-34.54,71.31-77.15S233.6,6,194.22,6Z"/><path class="cls-3" d="M113.55,82.21a39,39,0,1,1-39-39A39,39,0,0,1,113.55,82.21Z"/><path class="cls-4" d="M113.55,91.56a39,39,0,1,1-39-39A39,39,0,0,1,113.55,91.56Z"/><path class="cls-5" d="M103,86.11c0,12.59-11,22.81-24.55,22.81S53.93,98.7,53.93,86.11s11-22.8,24.56-22.8S103,73.52,103,86.11Z"/><path class="cls-1" d="M91.73,78.31c0,5.6-4.89,10.14-10.91,10.14S69.91,83.91,69.91,78.31s4.88-10.13,10.91-10.13S91.73,72.72,91.73,78.31Z"/><path class="cls-6" d="M226.94,82.21a39,39,0,1,1-39-39A39,39,0,0,1,226.94,82.21Z"/><path class="cls-7" d="M226.94,91.56a39,39,0,1,1-39-39A39,39,0,0,1,226.94,91.56Z"/><path class="cls-5" d="M216.43,86.11c0,12.59-11,22.81-24.56,22.81S167.32,98.7,167.32,86.11s11-22.8,24.55-22.8S216.43,73.52,216.43,86.11Z"/><path class="cls-1" d="M205.11,78.31c0,5.6-4.88,10.14-10.9,10.14s-10.92-4.54-10.92-10.14,4.89-10.13,10.92-10.13S205.11,72.72,205.11,78.31Z"/></g></g></svg>