<svg xmlns="http://www.w3.org/2000/svg" viewBox="0 0 49.9 38.5"><defs><style>.cls-1{fill:#fff;}</style></defs><title>資產 7</title><g id="圖層_2" data-name="圖層 2"><g id="圖層_1-2" data-name="圖層 1"><path class="cls-1" d="M39.75,1.87a15.31,15.31,0,0,1,6.3,7.23,41.23,41.23,0,0,1,1.75,5,55.08,55.08,0,0,1,1.26,5.54c.31,1.82.54,3.66.68,5.46a53,53,0,0,1,.15,5.33v0A9.14,9.14,0,0,1,49,34.22,7.31,7.31,0,0,1,38.8,37.58h0A8.34,8.34,0,0,1,36,35.23a18.37,18.37,0,0,1-1.67-2.68,12.69,12.69,0,0,0-3.8-4.61l-.09-.06a10.82,10.82,0,0,0-11.13.06h0a12.59,12.59,0,0,0-3.79,4.61,18.37,18.37,0,0,1-1.67,2.68,8.55,8.55,0,0,1-2.76,2.35l-.12.05C5.54,40.38.15,36.23,0,30.4v0a53,53,0,0,1,.15-5.33c.14-1.8.37-3.64.68-5.46A55.08,55.08,0,0,1,2.1,14.05a43.07,43.07,0,0,1,1.76-5,15.15,15.15,0,0,1,6.3-7.23C14.05-.39,17.58-.1,21.3.21,22.49.3,23.71.4,25,.4S27.41.3,28.61.21c3.72-.31,7.24-.6,11.14,1.66ZM22.08,20.58a1.16,1.16,0,0,1,0-2.31h5.74a1.16,1.16,0,0,1,0,2.31Zm0-10.55a1.16,1.16,0,0,1,0-2.31h5.74a1.16,1.16,0,0,1,0,2.31ZM14.25,8.87a1.16,1.16,0,0,1,2.31,0V13h4.12a1.16,1.16,0,0,1,0,2.31H16.56v4.12a1.16,1.16,0,1,1-2.31,0V15.3H10.13a1.16,1.16,0,1,1,0-2.31h4.12V8.87Zm20.64,0A1.92,1.92,0,1,1,33,10.79a1.92,1.92,0,0,1,1.92-1.92Zm-1.44,5.28a1.92,1.92,0,1,1-1.92-1.93,1.92,1.92,0,0,1,1.92,1.93Zm1.44,1.43A1.92,1.92,0,1,1,33,17.51a1.92,1.92,0,0,1,1.92-1.93Zm5.27-1.43a1.92,1.92,0,1,1-1.92-1.93,1.92,1.92,0,0,1,1.92,1.93Zm-2.33-9C35,3.53,32,3.78,28.91,4c-1.29.11-2.6.21-4,.21s-2.67-.1-4-.21c-3.11-.25-6.07-.5-8.91,1.16a11.34,11.34,0,0,0-4.7,5.42A37.06,37.06,0,0,0,5.79,15.1a49.49,49.49,0,0,0-1.17,5.13c-.29,1.7-.5,3.41-.63,5.1s-.18,3.4-.15,5v0a5.43,5.43,0,0,0,.53,2.24c1.38,2.85,4.67,2.66,6.49.34a14.34,14.34,0,0,0,1.31-2.14,16.24,16.24,0,0,1,5-6h0a14.76,14.76,0,0,1,15.41-.07l.12.07a16.24,16.24,0,0,1,5,6A15.22,15.22,0,0,0,39,32.88c1.81,2.32,5.1,2.52,6.5-.34a5.59,5.59,0,0,0,.53-2.24c0-1.56,0-3.24-.15-5s-.35-3.4-.64-5.1a49.49,49.49,0,0,0-1.17-5.13,37.06,37.06,0,0,0-1.59-4.49,11.38,11.38,0,0,0-4.69-5.42Z"/></g></g></svg>