<svg xmlns="http://www.w3.org/2000/svg" viewBox="0 0 29.34 39.61"><defs><style>.cls-1{fill:#fff;}</style></defs><title>資產 6</title><g id="圖層_2" data-name="圖層 2"><g id="圖層_1-2" data-name="圖層 1"><path class="cls-1" d="M14.67,0h0a9.59,9.59,0,0,1,9.57,9.57V18.3a9.56,9.56,0,0,1-2.81,6.77h0a9.54,9.54,0,0,1-6.76,2.81h0a9.56,9.56,0,0,1-6.76-2.81L7.83,25A9.59,9.59,0,0,1,5.09,18.3V9.57A9.61,9.61,0,0,1,14.67,0ZM8.15,13h13V9.57A6.54,6.54,0,0,0,14.67,3h0A6.56,6.56,0,0,0,8.15,9.57V13Zm13,1.83h-13V18.3A6.5,6.5,0,0,0,10,22.85l.08.06a6.45,6.45,0,0,0,4.6,1.93h0a6.51,6.51,0,0,0,4.61-1.93h0a6.46,6.46,0,0,0,1.91-4.61V14.85ZM5.64,39.6a1.52,1.52,0,0,1,0-3h7.51V32.9a14.66,14.66,0,0,1-8.84-4.23,14.41,14.41,0,0,1-3.18-4.76A14.59,14.59,0,0,1,0,18.3V13.94a1.53,1.53,0,1,1,3.05,0V18.3a11.64,11.64,0,0,0,.88,4.44,11.73,11.73,0,0,0,6.3,6.31,11.62,11.62,0,0,0,12.66-2.53,11.81,11.81,0,0,0,2.52-3.78,11.46,11.46,0,0,0,.88-4.44V13.94a1.53,1.53,0,1,1,3.05,0V18.3A14.7,14.7,0,0,1,16.2,32.9v3.66h7.52a1.52,1.52,0,0,1,0,3H5.64Z"/></g></g></svg>