<svg xmlns="http://www.w3.org/2000/svg" viewBox="0 0 36.04 36.04"><defs><style>.cls-1{fill:#fff;}</style></defs><title>資產 5</title><g id="圖層_2" data-name="圖層 2"><g id="圖層_1-2" data-name="圖層 1"><path class="cls-1" d="M36,0H32.2V4.37H28.74V0H7.31V4.37H3.93V0H0V36H3.93V32.63H7.31V36H28.74V32.63H32.2V36H36ZM7.31,12.46H3.93v-5H7.31Zm0,8.64H3.93V16H7.31ZM3.93,24.59H7.31v4.64H3.93ZM32.2,12.46H28.77v-5H32.2Zm0,8.64H28.77V16H32.2Zm-3.43,3.49H32.2v4.64H28.77ZM25,33.79h-14v-15H25Zm0-17.17h-14v-15H25Z"/></g></g></svg>