<svg xmlns="http://www.w3.org/2000/svg" viewBox="0 0 93.92 93.92"><defs><style>.cls-1{fill:#fff;}.cls-2{fill:#eb9e71;}</style></defs><title>資產 1</title><g id="圖層_2" data-name="圖層 2"><g id="圖層_1-2" data-name="圖層 1"><circle class="cls-1" cx="46.96" cy="46.96" r="42.44"/><path class="cls-2" d="M0,47A47,47,0,1,0,47,0,47,47,0,0,0,0,47Zm85.38,0A38.42,38.42,0,1,1,47,8.54,38.46,38.46,0,0,1,85.38,47Z"/><path class="cls-2" d="M27.13,24.94c-.17,1.86-1.4,18.44,7.34,28a21.07,21.07,0,0,0,14.75,6.74V69.4L72.59,51.22,49.22,33V44.17c-8.75-.68-18.08-6-18.08-19.07l-4-.18,2,.18ZM32.4,40.46c4.65,5.32,11.76,7.81,18.83,7.81h2v-7l12.81,10-12.81,10V55.73h-2c-5.82,0-10.47-1.85-13.8-5.5A23.47,23.47,0,0,1,32.4,40.46Z"/></g></g></svg>