<svg xmlns="http://www.w3.org/2000/svg" viewBox="0 0 93.92 93.92"><defs><style>.cls-1{fill:#fff;}.cls-2{fill:#eb9e71;}</style></defs><title>資產 4</title><g id="圖層_2" data-name="圖層 2"><g id="圖層_1-2" data-name="圖層 1"><circle class="cls-1" cx="46.96" cy="46.96" r="42.44"/><path class="cls-2" d="M0,47A47,47,0,1,0,47,0,47,47,0,0,0,0,47Zm85.38,0A38.42,38.42,0,1,1,47,8.54,38.46,38.46,0,0,1,85.38,47Z"/><path class="cls-2" d="M47,25.1h0A10.69,10.69,0,0,1,57.62,35.75v9.73A10.64,10.64,0,0,1,54.49,53h0A10.54,10.54,0,0,1,47,56.14h0A10.55,10.55,0,0,1,39.44,53l-.09-.1a10.61,10.61,0,0,1-3.05-7.43V35.75A10.7,10.7,0,0,1,47,25.1ZM39.7,39.6H54.22V35.75A7.27,7.27,0,0,0,47,28.49h0a7.31,7.31,0,0,0-7.26,7.26V39.6Zm14.52,2H39.7v3.84a7.27,7.27,0,0,0,2.06,5.07l.08.06A7.18,7.18,0,0,0,47,52.76h0a7.23,7.23,0,0,0,5.14-2.15h0a7.2,7.2,0,0,0,2.12-5.13V41.64ZM36.91,69.19a1.69,1.69,0,1,1,0-3.38h8.36V61.73a16.82,16.82,0,0,1-4.54-1.15A16.56,16.56,0,0,1,35.43,57a16.34,16.34,0,0,1-4.8-11.55V40.62a1.7,1.7,0,0,1,3.4,0v4.86A12.93,12.93,0,0,0,47,58.43a13,13,0,0,0,12-8,12.62,12.62,0,0,0,1-4.94V40.62a1.7,1.7,0,0,1,3.39,0v4.86a16.13,16.13,0,0,1-1.24,6.25,16.35,16.35,0,0,1-13.38,10v4.08H57a1.69,1.69,0,0,1,0,3.38H36.91Z"/></g></g></svg>