<svg xmlns="http://www.w3.org/2000/svg" viewBox="0 0 93.92 93.92"><defs><style>.cls-1{fill:#fff;}.cls-2{fill:#eb9e71;}</style></defs><title>資產 2</title><g id="圖層_2" data-name="圖層 2"><g id="圖層_1-2" data-name="圖層 1"><circle class="cls-1" cx="46.96" cy="46.96" r="42.44"/><path class="cls-2" d="M0,47A47,47,0,1,0,47,0,47,47,0,0,0,0,47Zm85.38,0A38.42,38.42,0,1,1,47,8.54,38.46,38.46,0,0,1,85.38,47Z"/><path class="cls-2" d="M36.74,38.63V55.29l.09.08L48.5,64.31V29.63l-11.76,9Zm21.11-6.7a1.74,1.74,0,0,1,1.78-3,21.16,21.16,0,0,1,7.49,7.69A21,21,0,0,1,59.63,65a1.73,1.73,0,1,1-1.78-3,17.6,17.6,0,0,0,6.26-6.42,17.51,17.51,0,0,0-6.26-23.66ZM34.65,39H27.56V54.94h7.09V39Zm.46-3.48,14-10.72A1.74,1.74,0,0,1,52,26.11V37.64A10.1,10.1,0,0,1,52,56.3V67.82h0a1.79,1.79,0,0,1-.36,1.07,1.75,1.75,0,0,1-2.43.32L35.11,58.41H25.82a1.73,1.73,0,0,1-1.74-1.73V37.26a1.75,1.75,0,0,1,1.74-1.75ZM52,39.94V54a8.14,8.14,0,0,0,2.44-2.08,8,8,0,0,0-2.44-12Z"/></g></g></svg>