<svg xmlns="http://www.w3.org/2000/svg" viewBox="0 0 196.43 181.43"><defs><style>.cls-1{fill:#fad3b8;}.cls-2,.cls-3{fill:none;stroke:#231815;stroke-linecap:round;stroke-linejoin:round;}.cls-2{stroke-width:8.37px;}.cls-3{stroke-width:5.45px;}.cls-4{fill:#231815;}</style></defs><title>資產 3</title><g id="圖層_2" data-name="圖層 2"><g id="圖層_1-2" data-name="圖層 1"><path class="cls-1" d="M91.35,12.28S56.56,24,57.94,70.48L42.79,95.28s-9.47,15,3.27,15h10l-1.9,10.85,36.62,4S75.51,140.39,58,136.6l2.52,9s4.46,17.81,18.36,16.07a22,22,0,0,0,13.89-7.12v22.73h73.6l-4-47.18s30.3-20.32,30.3-61.64S149.89-13.54,91.35,12.28Z"/><path class="cls-2" d="M91,12.28S56.22,24,57.6,70.48L42.45,95.28s-9.48,15,3.27,15h10l-1.89,10.85,36.62,4S74.59,139.86,57,136.07l3.1,9.49s4.47,17.81,18.37,16.07a22,22,0,0,0,13.89-7.12v22.73H166l-4-47.18s30.31-20.32,30.31-61.64S149.55-13.54,91,12.28Z"/><path class="cls-3" d="M131,70.48s14.81-16.53,28.24-.34-5.86,48.21-25.14,33.4"/><path class="cls-4" d="M30.21,139.91a17.2,17.2,0,0,1-4.2-2.46l0,0c-.37-.31-.78-.67-1.2-1.09A17,17,0,0,1,21.2,131,16.5,16.5,0,0,1,20,124.59a16.85,16.85,0,0,1,1.26-6.33l0-.08a16.69,16.69,0,0,1,9-8.89,2.31,2.31,0,0,0,1.25-3,2.28,2.28,0,0,0-3-1.22c-.63.26-1.25.55-1.87.87a21.19,21.19,0,0,0-9.54,10.43l-.07.14a21.39,21.39,0,0,0-1.58,8.06,21.12,21.12,0,0,0,6.17,14.92c.43.43.94.89,1.46,1.35l.1,0a19,19,0,0,0,3.47,2.31,14.23,14.23,0,0,0,1.87.87,2.23,2.23,0,0,0,2.94-1.22A2.31,2.31,0,0,0,30.21,139.91Zm-.4,16a32,32,0,0,1-15.93-8.65,32.73,32.73,0,0,1-6.94-10.37A32,32,0,0,1,25.49,94.56a33.26,33.26,0,0,1,4.32-1.26,2.25,2.25,0,1,0-.93-4.41,37.16,37.16,0,0,0-5,1.42,36.54,36.54,0,0,0-21.14,48.3A36.72,36.72,0,0,0,23.91,158.9s4.55,1.34,4.95,1.42a2.27,2.27,0,0,0,.95-4.43Z"/></g></g></svg>