<svg xmlns="http://www.w3.org/2000/svg" viewBox="0 0 336.51 189.37"><defs><style>.cls-1{fill:#107b9e;}.cls-2{fill:#d7574e;}.cls-3{fill:#f0cd96;}.cls-4{fill:#17a6af;}.cls-5{fill:#eb9e71;}.cls-6{font-size:20.94px;font-family:Arial-BoldMT, Arial;font-weight:700;letter-spacing:-0.05em;}.cls-6,.cls-8{fill:#fff;}.cls-7{fill:none;}</style></defs><title>資產 1</title><g id="圖層_2" data-name="圖層 2"><g id="圖層_1-2" data-name="圖層 1"><path class="cls-1" d="M187.85,167.74H319.53a17,17,0,0,0,17-17h0a17,17,0,0,0-17-17H187.85a17,17,0,0,0-17,17h0A17,17,0,0,0,187.85,167.74Z"/><path class="cls-2" d="M17,167.74H148.66a17,17,0,0,0,17-17h0a17,17,0,0,0-17-17H17a17,17,0,0,0-17,17H0A17,17,0,0,0,17,167.74Z"/><path class="cls-1" d="M234,85.25,273.42,56l2.12-1.18a131.82,131.82,0,0,1,25.11,76.83H249.19A80.39,80.39,0,0,0,234,85.25Z"/><path class="cls-2" d="M87.32,131.64H35.87A131.77,131.77,0,0,1,61.21,54.48L103,84.59A80.51,80.51,0,0,0,87.32,131.64Z"/><path class="cls-3" d="M168.26,51.45a80.66,80.66,0,0,0-25.23,4L127.62,6.36a132.93,132.93,0,0,1,81.56.1L193.73,55.58A80.49,80.49,0,0,0,168.26,51.45Z"/><path class="cls-4" d="M234,85.25a81.14,81.14,0,0,0-40.26-29.67L209.18,6.46a132.65,132.65,0,0,1,66.36,48.35L273.42,56Z"/><path class="cls-5" d="M103,84.59,61.21,54.48A132.69,132.69,0,0,1,127.62,6.36L143,55.49A81.33,81.33,0,0,0,103,84.59Z"/><text class="cls-6" transform="translate(31.28 158.74) scale(1.06 1)">POOR</text><text class="cls-6" transform="translate(245.39 158.74) scale(1.06 1)">GOOD</text><path class="cls-7" d="M168.26,117.06a9.31,9.31,0,0,1,8.81,12.41H159.44a9.34,9.34,0,0,1,8.82-12.41Z"/><path class="cls-7" d="M168.26,117.06a9.35,9.35,0,0,1,9.34,9.34c0,.06,0,.13,0,.19H158.92v-.19A9.35,9.35,0,0,1,168.26,117.06Z"/><path class="cls-8" d="M251.36,103a19.79,19.79,0,1,0,19.76-19.77A19.83,19.83,0,0,0,251.36,103Zm5.38-.09a14.41,14.41,0,1,1,14.35,14.55A14.42,14.42,0,0,1,256.74,102.86Zm6.56,4.89a7.88,7.88,0,0,0,8,6.19,7.66,7.66,0,0,0,7.6-6,7.61,7.61,0,0,0-1.23-.18ZM277.84,104a2.91,2.91,0,0,0,3.17-2.86,3.21,3.21,0,0,0-3.06-3.3,3.39,3.39,0,0,0-3.12,3.09A3.1,3.1,0,0,0,277.84,104Zm-16.57-3a3.07,3.07,0,1,0,6.14-.17,3.25,3.25,0,0,0-3.15-3A3.18,3.18,0,0,0,261.27,101Z"/><path class="cls-8" d="M148.11,27.14A19.79,19.79,0,1,0,167.88,7.38,19.85,19.85,0,0,0,148.11,27.14Zm5.38-.08a14.41,14.41,0,1,1,14.35,14.55A14.42,14.42,0,0,1,153.49,27.06Zm21.1,1.16a2.91,2.91,0,0,0,3.17-2.86,3.2,3.2,0,0,0-3.06-3.3,3.38,3.38,0,0,0-3.12,3.08A3.1,3.1,0,0,0,174.59,28.22Zm-16.57-3a3.07,3.07,0,1,0,6.14-.17,3.24,3.24,0,0,0-3.15-3A3.18,3.18,0,0,0,158,25.22Zm3.52,9.14a1.31,1.31,0,0,0,1.3,1.31h9.87a1.31,1.31,0,1,0,0-2.61h-9.87A1.3,1.3,0,0,0,161.54,34.36Z"/><path class="cls-8" d="M82.47,48.7a19.79,19.79,0,1,0,19.77-19.77A19.85,19.85,0,0,0,82.47,48.7Zm5.38-.08A14.41,14.41,0,1,1,102.2,63.16,14.43,14.43,0,0,1,87.85,48.62ZM109,49.78a2.93,2.93,0,0,0,3.17-2.87,3.21,3.21,0,0,0-3.06-3.3,3.39,3.39,0,0,0-3.12,3.09A3.11,3.11,0,0,0,109,49.78Zm-16.57-3a3.07,3.07,0,1,0,6.14-.18,3.24,3.24,0,0,0-3.15-3A3.19,3.19,0,0,0,92.38,46.78ZM96,56.58a1.31,1.31,0,0,0,1.71.71l4-1.64,4.15,1.71a1.32,1.32,0,0,0,1.71-.71,1.31,1.31,0,0,0-.71-1.71L102.24,53h0l-.07,0L102,53a.62.62,0,0,0-.19,0h-.06l-.24,0h0a1.31,1.31,0,0,0-.28.09l-4.5,1.84A1.31,1.31,0,0,0,96,56.58Z"/><path class="cls-8" d="M214,48.47a19.79,19.79,0,1,0,19.77-19.76A19.85,19.85,0,0,0,214,48.47Zm5.39-.08a14.41,14.41,0,1,1,14.35,14.55A14.42,14.42,0,0,1,219.41,48.39Zm21.1,1.16a2.9,2.9,0,0,0,3.16-2.86,3.19,3.19,0,0,0-3-3.3,3.38,3.38,0,0,0-3.12,3.08A3.09,3.09,0,0,0,240.51,49.55Zm-16.57-3a3.07,3.07,0,1,0,6.13-.17,3.23,3.23,0,0,0-3.15-3A3.17,3.17,0,0,0,223.94,46.55Zm1.66,6.91a8.55,8.55,0,0,0,8,6.12h0c6,0,8.19-5.38,8.28-5.61a1.3,1.3,0,0,0-.74-1.7,1.32,1.32,0,0,0-1.7.74A6.48,6.48,0,0,1,233.63,57h0c-4.19,0-5.46-4.18-5.47-4.23a1.33,1.33,0,0,0-1.63-.89A1.31,1.31,0,0,0,225.6,53.46Z"/><path class="cls-8" d="M45.54,102.39A19.79,19.79,0,1,0,65.31,82.62,19.86,19.86,0,0,0,45.54,102.39Zm5.39-.08a14.4,14.4,0,1,1,14.35,14.55A14.43,14.43,0,0,1,50.93,102.31ZM72,103.47a2.92,2.92,0,0,0,3.16-2.87,3.2,3.2,0,0,0-3-3.3A3.38,3.38,0,0,0,69,100.39,3.1,3.1,0,0,0,72,103.47Zm-16.57-3a3.07,3.07,0,1,0,6.13-.18,3.24,3.24,0,0,0-3.15-3A3.18,3.18,0,0,0,55.46,100.47Zm1.62,10.86a1.31,1.31,0,1,0,2.43,1,6.52,6.52,0,0,1,5.85-3.94h0c4.15,0,5.42,4.06,5.47,4.23a1.32,1.32,0,0,0,1.26.93,1.24,1.24,0,0,0,.38,0,1.31,1.31,0,0,0,.88-1.62,8.56,8.56,0,0,0-8-6.12h0C59.35,105.73,57.17,111.11,57.08,111.33Z"/><circle class="cls-8" cx="168.21" cy="142.69" r="42.33" transform="translate(-28.72 43.32) rotate(-13.53)"/><path class="cls-4" d="M121.42,142.74a46.8,46.8,0,0,0,93.59-.08C215.08,117.18,193.78,96,168.16,96S121.35,117.18,121.42,142.74Zm12.73-.19a34.12,34.12,0,0,1,34.69-34.11c18.44.2,33.47,15.64,33.43,34.36S186.76,177.12,168.08,177A34.18,34.18,0,0,1,134.15,142.55Z"/><path class="cls-4" d="M176.81,137.84a8,8,0,0,1,7.38-7.3c3.92,0,7.4,3.71,7.23,7.81a6.89,6.89,0,0,1-7.49,6.77A7.34,7.34,0,0,1,176.81,137.84Z"/><path class="cls-4" d="M151.81,130.57a7.65,7.65,0,0,1,7.44,7.05,7.25,7.25,0,1,1-14.5.4A7.51,7.51,0,0,1,151.81,130.57Z"/><path class="cls-4" d="M150.78,150.52a3.1,3.1,0,0,1,3.85,2.1c0,.1,3,9.95,12.94,10h.09c9.91,0,13.65-8.9,13.83-9.32a3.1,3.1,0,0,1,5.77,2.28c-.22.54-5.38,13.25-19.6,13.25h-.12c-11.59-.06-17.41-9.49-18.87-14.46A3.1,3.1,0,0,1,150.78,150.52Z"/></g></g></svg>