<svg xmlns="http://www.w3.org/2000/svg" viewBox="0 0 172.08 198.34"><defs><style>.cls-1{fill:#107b9e;}.cls-2{fill:#231815;}.cls-3{fill:#fff;}.cls-4{fill:#d7d7d8;}</style></defs><title>資產 2</title><g id="圖層_2" data-name="圖層 2"><g id="圖層_1-2" data-name="圖層 1"><path class="cls-1" d="M73.77,6.23S31.12,7.41,31.12,44.92s.4,52.91.4,52.91S40.2,132.18,73,132.18s42.24-32,41.85-39.88,0-49.75,0-49.75S111.67,8.59,73.77,6.23Z"/><path class="cls-2" d="M72.51,198.32H26.32a5.17,5.17,0,0,1,0-10.34h41.3V164.11l-2.38-.25a72.62,72.62,0,0,1-43.84-21A73,73,0,0,1,0,91.47V69a5.19,5.19,0,1,1,10.37,0V91.47a62,62,0,0,0,4.72,23.81A63.11,63.11,0,0,0,49,149.18a62.38,62.38,0,0,0,68-13.6,63.34,63.34,0,0,0,13.57-20.3c3.13-7.46,3.28-4.9,3.28-13.24V94.51a5.17,5.17,0,1,1,10.33,0V102c0,9.65-.41,8.43-4.07,17.23a73,73,0,0,1-59.65,44.59l-2.38.25V188h41.3a5.17,5.17,0,0,1,0,10.34H73.06l-.28,0ZM72.77,138a46.1,46.1,0,0,1-32.86-13.67l-.35-.39A46.4,46.4,0,0,1,26.2,91.47V46.53a46.52,46.52,0,0,1,79.46-32.86,46.06,46.06,0,0,1,13.67,32.86V91.47A46.69,46.69,0,0,1,72.77,138ZM47.34,117.13A36.15,36.15,0,0,0,109,91.47V88H36.57v3.51A35.94,35.94,0,0,0,46.83,116.7l.11.11ZM72.77,10.33a36.36,36.36,0,0,0-36.2,36.2V82H109V46.53a36.24,36.24,0,0,0-36.19-36.2Z"/><path class="cls-3" d="M73.13,17.67a30.15,30.15,0,1,0,30.14,30.15A30.18,30.18,0,0,0,73.13,17.67Zm0,55.27A25.12,25.12,0,1,1,98.25,47.82,25.15,25.15,0,0,1,73.13,72.94Z"/><path class="cls-3" d="M73.13,27.72a20.1,20.1,0,1,0,20.1,20.1A20.13,20.13,0,0,0,73.13,27.72Zm0,35.17A15.07,15.07,0,1,1,88.2,47.82,15.1,15.1,0,0,1,73.13,62.89Z"/><polygon class="cls-3" points="113.69 124.89 92.13 115.44 77.33 92.94 79.98 86.61 82.94 84.88 84.41 81.05 67.94 51.22 70.38 45.26 74.72 42.84 83.93 51.57 89.87 60.88 102.47 55.61 110.93 51.14 118.68 52.16 124.45 48.12 131.65 58.64 147.84 85.12 150.1 100.41 113.69 124.89"/><polygon class="cls-4" points="119.37 143.61 126.68 144.13 167.1 119.51 168.33 111.38 161.34 100.49 153.66 99.76 111.89 126.31 111.35 132.38 119.37 143.61"/><path class="cls-2" d="M170.38,108.23l-4.44-6.87a11.32,11.32,0,0,0-12.37-5.06L149.41,82a3,3,0,0,0-.33-.79h0L131.38,50.59a9.44,9.44,0,0,0-9.75-4.87,11.9,11.9,0,0,0-3.74,1.36A9.45,9.45,0,0,0,115,49.57a9.28,9.28,0,0,0-7.14-1.82,10.28,10.28,0,0,0-3.75,1.3,11,11,0,0,0-3,2.63l0,.07a7.48,7.48,0,0,0-1,1.56,9.4,9.4,0,0,0-4-.26l-.19.05a9.36,9.36,0,0,0-3.56,1.26,11.67,11.67,0,0,0-2.42,1.88L83.05,44.59a9.33,9.33,0,0,0-9.72-4.87A10.45,10.45,0,0,0,69.55,41a11.27,11.27,0,0,0-3,2.62,9.32,9.32,0,0,0-.65,10.84L81.29,81.05a9,9,0,0,0-2.81,1.11,10,10,0,0,0-3,2.62l-.1.09a9.24,9.24,0,0,0-.55,10.75l8.62,14.9c4.56,7.86,5.08,8.07,12.45,11.06l1.46.61,11.07,4.52c-.06.21-.13.42-.18.63a11.26,11.26,0,0,0,1.38,8.61l4.44,6.87a11.21,11.21,0,0,0,7,5.07,11.37,11.37,0,0,0,5.59-.06,11.54,11.54,0,0,0,3-1.28l37-22.71a11.33,11.33,0,0,0,3.7-15.61ZM100,115.85l0,0-1.48-.59c-5.3-2.15-5.7-2.33-9-8.11L80.79,92.21a2.83,2.83,0,0,1,0-3.11l.07-.08a3.33,3.33,0,0,1,1-.93,3.13,3.13,0,0,1,1.35-.42A2.56,2.56,0,0,1,86,89.16l7.5,12.92a3.44,3.44,0,0,0,6-3.43Q85.66,74.86,71.88,51.07A2.71,2.71,0,0,1,72,47.88,3.1,3.1,0,0,1,73,47a2.88,2.88,0,0,1,1.31-.47A2.72,2.72,0,0,1,77.12,48L93.8,76.8a3.44,3.44,0,0,0,6-3.43l-5.21-9,0-.11c-1.91-3.4,3.3-6.34,5.24-2.94l.67,1.17h0l4.51,7.8a3.44,3.44,0,0,0,6-3.42L106.34,59a2.78,2.78,0,0,1,.06-3l.07-.08a4.59,4.59,0,0,1,1.07-.93,5.38,5.38,0,0,1,1.29-.41,2.69,2.69,0,0,1,2.8,1.47l2.63,4.51,1.88,3.3a3.5,3.5,0,0,0,4.74,1.24,3.45,3.45,0,0,0,1.25-4.67l-1.95-3.34,0-.06a2.68,2.68,0,0,1,.11-3.08l0,0a4.18,4.18,0,0,1,1.06-.87,3.8,3.8,0,0,1,1.33-.48,2.68,2.68,0,0,1,2.77,1.54L143,84.33l4.41,15.16-34,20.85a10.23,10.23,0,0,0-1.07.75,3.41,3.41,0,0,0-.91-.57L100,115.79Zm65.58-.5a4.85,4.85,0,0,1-2.22,3.07l-37,22.71a4.92,4.92,0,0,1-3.75.59,5,5,0,0,1-3.11-2.29L115,132.57a4.9,4.9,0,0,1-.59-3.74,5,5,0,0,1,2.22-3.08l37.05-22.7a4.86,4.86,0,0,1,1.29-.56,5,5,0,0,1,5.57,2.26l4.43,6.86A4.85,4.85,0,0,1,165.58,115.35Z"/></g></g></svg>