<svg xmlns="http://www.w3.org/2000/svg" xmlns:xlink="http://www.w3.org/1999/xlink" viewBox="0 0 240.94 133.07"><defs><style>.cls-1,.cls-5{fill:#fff;}.cls-10,.cls-2,.cls-9{fill:none;stroke:#231815;}.cls-2{stroke-miterlimit:10;}.cls-2,.cls-9{stroke-width:9.63px;}.cls-3,.cls-6{opacity:0.36;}.cls-3{fill:url(#radial-gradient);}.cls-4{fill:url(#radial-gradient-2);}.cls-5{opacity:0.13;}.cls-6{fill:url(#radial-gradient-3);}.cls-7{fill:url(#radial-gradient-4);}.cls-8{fill:#fad3b8;}.cls-10,.cls-9{stroke-linecap:round;stroke-linejoin:round;}.cls-10{stroke-width:4.04px;}</style><radialGradient id="radial-gradient" cx="39.45" cy="64.75" r="19.68" gradientUnits="userSpaceOnUse"><stop offset="0" stop-color="#484747"/><stop offset="0.87" stop-color="#3a393a"/><stop offset="1" stop-color="#373738"/></radialGradient><radialGradient id="radial-gradient-2" cx="39.45" cy="69.47" r="19.68" xlink:href="#radial-gradient"/><radialGradient id="radial-gradient-3" cx="96.71" cy="64.75" r="19.68" xlink:href="#radial-gradient"/><radialGradient id="radial-gradient-4" cx="96.71" cy="69.47" r="19.68" xlink:href="#radial-gradient"/></defs><title>資產 1</title><g id="圖層_2" data-name="圖層 2"><g id="圖層_1-2" data-name="圖層 1"><path class="cls-1" d="M99.86,27c-12.22,0-23,6.61-29.52,16.68C63.83,33.57,53.05,27,40.83,27c-19.89,0-36,17.45-36,39s16.13,39,36,39c12.22,0,23-6.61,29.51-16.68,6.51,10.07,17.3,16.68,29.52,16.68,19.89,0,36-17.44,36-39S119.75,27,99.86,27Z"/><path class="cls-2" d="M99.86,26.26c-12.22,0-23,6.61-29.52,16.68C63.83,32.87,53.05,26.26,40.83,26.26c-19.89,0-36,17.45-36,39s16.13,39,36,39c12.22,0,23-6.61,29.51-16.68,6.51,10.07,17.3,16.68,29.52,16.68,19.89,0,36-17.45,36-39S119.75,26.26,99.86,26.26Z"/><path class="cls-3" d="M59.13,64.75A19.68,19.68,0,1,1,39.45,45.07,19.68,19.68,0,0,1,59.13,64.75Z"/><path class="cls-4" d="M59.13,69.47A19.68,19.68,0,1,1,39.45,49.79,19.68,19.68,0,0,1,59.13,69.47Z"/><path class="cls-5" d="M53.82,66.72c0,6.35-5.55,11.51-12.4,11.51S29,73.07,29,66.72,34.57,55.2,41.42,55.2,53.82,60.36,53.82,66.72Z"/><path class="cls-1" d="M48.11,62.78a5.52,5.52,0,1,1-5.51-5.12A5.32,5.32,0,0,1,48.11,62.78Z"/><path class="cls-6" d="M116.39,64.75A19.68,19.68,0,1,1,96.71,45.07,19.68,19.68,0,0,1,116.39,64.75Z"/><path class="cls-7" d="M116.39,69.47A19.68,19.68,0,1,1,96.71,49.79,19.69,19.69,0,0,1,116.39,69.47Z"/><path class="cls-5" d="M111.08,66.72c0,6.35-5.55,11.51-12.4,11.51s-12.4-5.16-12.4-11.51S91.83,55.2,98.68,55.2,111.08,60.36,111.08,66.72Z"/><path class="cls-1" d="M105.36,62.78a5.52,5.52,0,1,1-5.5-5.12A5.32,5.32,0,0,1,105.36,62.78Z"/><path class="cls-8" d="M153,109.51V41.17S151.6,5.51,197.72,5.51c37.09,0,44.69,37.78,37.17,54.76S213.21,92.53,200.37,95.5a9.79,9.79,0,0,0-3.09,7.22v6.36S197.83,129,172.5,129C152.53,129,153,109.51,153,109.51Z"/><path class="cls-9" d="M151.64,108.82V40.47S150.22,4.81,196.33,4.81c37.1,0,44.7,37.78,37.17,54.76S211.82,91.84,199,94.81a9.74,9.74,0,0,0-3.1,7.21v6.37s.55,19.86-24.78,19.86C151.14,128.25,151.64,108.82,151.64,108.82Z"/><path class="cls-10" d="M180.84,102.45s-11.28-2.55-11.28-10.83,8.63-10,8.63-10,4-.85,4-7.64-9.73-9.34-9.73-9.34V46.41s-1.77-19.49,22.12-19.1c24.07.4,23.9,35.66,4.43,42.45"/></g></g></svg>