<svg xmlns="http://www.w3.org/2000/svg" viewBox="0 0 126.43 119.63"><defs><style>.cls-1{fill:#eec68e;}.cls-2{fill:#1b989c;}.cls-3{fill:#c45b47;}.cls-4{fill:#080102;}</style></defs><title>資產 4</title><g id="圖層_2" data-name="圖層 2"><g id="圖層_1-2" data-name="圖層 1"><polygon class="cls-1" points="14.9 71.39 49.72 105.67 35.26 113.17 17.04 108.89 5.26 114.78 3.65 105.67 9.01 98.17 4.19 89.6 14.9 71.39"/><polygon class="cls-1" points="64.72 20.49 100.62 54.24 110.8 42.46 116.15 24.78 105.97 7.1 89.9 3.35 76.51 9.78 64.72 20.49"/><polygon class="cls-2" points="14.9 74.06 64.72 20.49 100.08 52.1 46.51 104.07 14.9 74.06"/><polygon class="cls-3" points="56.15 33.35 88.56 65.23 100.08 52.1 66.33 20.49 56.15 33.35"/><path class="cls-4" d="M90.33.42A28.9,28.9,0,0,0,71.93,7L65.74.81a2.84,2.84,0,0,0-4,0L28.26,34.32a2.8,2.8,0,0,0,4,4L63.75,6.77l4.11,4.1L11.67,67.05a29.06,29.06,0,0,0-6.48,31L3.51,99.72h0A11,11,0,0,0,1,112.27c3.15,7.35,12.83,10.15,19.05,3.93h0l1.64-1.64a29.13,29.13,0,0,0,31-6.49l58.16-58.17A29,29,0,0,0,90.33.42ZM35.07,107a19.93,19.93,0,0,1-12.22-2.12,4.66,4.66,0,0,0-5.66,1L13.4,109.6l0,0c-2.11,2.13-5.36-1.13-3.26-3.27l0,0,3.93-3.94a4.66,4.66,0,0,0,.69-5.75,19.86,19.86,0,0,1-2-12,19.35,19.35,0,0,1,3.68-8.86l27.48,27.47A19.57,19.57,0,0,1,35.07,107Zm13-7.51L20.28,71.68,56.13,35.81,83.92,63.58ZM87.86,59.63,60.1,31.86l6.75-6.77L94.63,52.86Zm16.37-16.36L98.6,48.9,70.82,21.12l5.62-5.62.19-.21a19.65,19.65,0,0,1,27.6,28Z"/><polygon class="cls-4" points="56.8 119.25 126.43 119.25 110.36 104.02 72.3 104.02 56.8 119.25"/></g></g></svg>