<svg xmlns="http://www.w3.org/2000/svg" xmlns:xlink="http://www.w3.org/1999/xlink" viewBox="0 0 46.43 70.97"><defs><style>.cls-1{fill:none;}.cls-2{clip-path:url(#clip-path);}.cls-3{fill:#fff;}.cls-4{fill:#d7574e;}</style><clipPath id="clip-path" transform="translate(-16.23 -7.92)"><circle class="cls-1" cx="38.91" cy="38.91" r="38.91" transform="translate(-11.93 17.85) rotate(-22.5)"/></clipPath></defs><title>資產 2</title><g id="圖層_2" data-name="圖層 2"><g id="圖層_1-2" data-name="圖層 1"><g class="cls-2"><polygon class="cls-3" points="0 70.97 45.6 70.97 41.3 42.54 37.16 31.71 32.38 28.68 32.38 19.76 29.19 17.05 29.51 8.77 15.81 4.46 16.13 18.17 12.14 20.08 10.71 30.59 4.18 38.08 0 70.97"/><path class="cls-4" d="M21.67,55.46a17.86,17.86,0,0,1,9-15.44l1.37-.78v-10a.37.37,0,0,1,.37-.36h14a.37.37,0,0,1,.37.36v10L48.2,40a17.86,17.86,0,0,1,9,15.44V78.89h5.44V55.46A23.27,23.27,0,0,0,52.27,36.15v-6.9a5.81,5.81,0,0,0-2.65-4.86v-8.9L29.7,7.92V24.13a5.78,5.78,0,0,0-3.09,5.12v6.9A23.27,23.27,0,0,0,16.23,55.46V78.89h5.44ZM35.14,15.81l9,3.43v4.21h-9Z" transform="translate(-16.23 -7.92)"/><path class="cls-4" d="M57.37,63.32H20.88a2.56,2.56,0,0,1-2.55-2.55h0a2.56,2.56,0,0,1,2.55-2.55H57.37a2.56,2.56,0,0,1,2.55,2.55h0A2.56,2.56,0,0,1,57.37,63.32Z" transform="translate(-16.23 -7.92)"/></g></g></g></svg>