<svg xmlns="http://www.w3.org/2000/svg" xmlns:xlink="http://www.w3.org/1999/xlink" viewBox="0 0 45.28 84.18"><defs><style>.cls-1{fill:none;}.cls-2{clip-path:url(#clip-path);}.cls-3{fill:#fff;}.cls-4{fill:#d7574e;}</style><clipPath id="clip-path" transform="translate(-15.78 -3.66)"><circle class="cls-1" cx="38.91" cy="38.91" r="38.91"/></clipPath></defs><title>資產 3</title><g id="圖層_2" data-name="圖層 2"><g id="圖層_1-2" data-name="圖層 1"><g class="cls-2"><polygon class="cls-3" points="21.99 6.82 3.23 46.8 2.85 77.31 42.83 77.31 42.83 45.66 21.99 6.82"/><path class="cls-4" d="M38.52,3.66,16.18,49.29V82.07l-.4,1,4.81,4.81V84.57c6.08-.14,25.65,0,38.24.16l2.23,0V49.49Zm9,44c-1.39-2.47-3.82-5.09-7.88-5.09a9.73,9.73,0,0,0-8.17,4.59,8.38,8.38,0,0,0-5.07-2.44,9.05,9.05,0,0,0-3.23.33l5.49-11.21,9.57,3.73,10.07-4.06,5.77,11.73a7.73,7.73,0,0,0-2.67.15A8.32,8.32,0,0,0,47.51,47.67Zm-9-34,7.81,15.89-8.15,3.28-7.6-3ZM24.78,80.12l-4.19,0V51.58c1.11-1,3.34-2.68,5.39-2.46,1.33.13,2.56,1.08,3.68,2.79v28.2H24.78Zm9.29,0V51.57C34.5,50.46,36.14,47,39.63,47c3.91,0,5.18,5.76,5.19,5.81a2.27,2.27,0,0,0,.37.82V80.19l-6.49,0Zm15.52.11V52.11a5.24,5.24,0,0,1,2.87-2.43c1.18-.29,2.59.18,4.19,1.38V80.3Z" transform="translate(-15.78 -3.66)"/></g></g></g></svg>