<svg xmlns="http://www.w3.org/2000/svg" xmlns:xlink="http://www.w3.org/1999/xlink" viewBox="0 0 43.32 67.26"><defs><style>.cls-1{fill:none;}.cls-2{clip-path:url(#clip-path);}.cls-3{fill:#fff;}.cls-4{fill:#d7574e;}</style><clipPath id="clip-path" transform="translate(-17.31 -11.71)"><circle class="cls-1" cx="38.91" cy="38.91" r="38.91" transform="translate(-11.93 17.85) rotate(-22.5)"/></clipPath></defs><title>資產 5</title><g id="圖層_2" data-name="圖層 2"><g id="圖層_1-2" data-name="圖層 1"><g class="cls-2"><polygon class="cls-3" points="2.9 64.07 3.66 21.63 5.42 19.86 5.68 2.43 37 2.68 37.26 20.87 41.3 23.14 41.3 66.09 2.39 65.84 2.9 64.07"/></g><g class="cls-2"><path class="cls-4" d="M21.84,35.46H56.1V79h4.53V33.2a2.27,2.27,0,0,0-2.26-2.27H57.29V14A2.27,2.27,0,0,0,55,11.71H22.92A2.27,2.27,0,0,0,20.66,14v17H19.58a2.27,2.27,0,0,0-2.27,2.27V79h4.53Zm3.35-19.22H52.76V30.93H25.19Z" transform="translate(-17.31 -11.71)"/></g></g></g></svg>