<svg xmlns="http://www.w3.org/2000/svg" viewBox="0 0 92.31 108.78"><defs><style>.cls-1{fill:#e05c4f;}.cls-2{fill:#1f9ea8;}.cls-3{fill:#080102;}</style></defs><title>資產 3</title><g id="圖層_2" data-name="圖層 2"><g id="圖層_1-2" data-name="圖層 1"><polygon class="cls-1" points="38.71 14.9 37.21 29.9 87.59 18.5 85.79 4.71 38.71 14.9"/><ellipse class="cls-2" cx="19.82" cy="91.97" rx="15.89" ry="13.19"/><ellipse class="cls-2" cx="71.99" cy="78.47" rx="16.49" ry="12.59"/><path class="cls-3" d="M41.7,26.43l42.13-9.91V9.58L41.7,19.48v7Zm-20.84,48a23.93,23.93,0,0,1,12.35,3.34V16.12h0v-.2h0v-.12l0-.08v-.13l0-.19v-.13l0-.06v0l0-.06v0l0-.06v0l0-.06,0-.14v0a4.76,4.76,0,0,1,.29-.65l0-.05,0,0,0,0,0,0,.08-.13,0,0,0,0,.08-.12,0-.05,0,0,0-.05,0,0,0-.05,0,0,0,0,.05,0,.21-.21,0,0,0,0,.08-.07,0,0,0,0,.16-.13,0,0,0,0,0,0,0,0,.17-.11.05,0,.15-.08,0,0a4.16,4.16,0,0,1,.54-.23h0a3,3,0,0,1,.57-.15L87,.11a4.24,4.24,0,0,1,5,2.9l0,.06a4.55,4.55,0,0,1,.22,1.39V80.09a15.81,15.81,0,0,1-6.5,12.33,24.25,24.25,0,0,1-28.68,0h0a15.24,15.24,0,0,1,0-25,23.42,23.42,0,0,1,14.34-4.71,24,24,0,0,1,12.36,3.34V21.75L41.7,31.65V91.81h0a15.91,15.91,0,0,1-6.5,12.25,23.4,23.4,0,0,1-14.34,4.71A23.46,23.46,0,0,1,6.5,104.07a15.22,15.22,0,0,1,0-25,23.41,23.41,0,0,1,14.34-4.7ZM30,85.78a14.86,14.86,0,0,0-9.12-2.89,14.92,14.92,0,0,0-9.14,2.89,6.85,6.85,0,0,0,0,11.62,14.86,14.86,0,0,0,9.14,2.88A14.92,14.92,0,0,0,30,97.41a6.86,6.86,0,0,0,0-11.63ZM80.61,74.12a16,16,0,0,0-18.27,0,6.83,6.83,0,0,0,0,11.61h0a15.93,15.93,0,0,0,18.27,0,7.61,7.61,0,0,0,3.22-5.7h0v-.2a7.58,7.58,0,0,0-3.22-5.7h0Z"/></g></g></svg>