<svg xmlns="http://www.w3.org/2000/svg" viewBox="0 0 132.86 99.79"><defs><style>.cls-1{fill:#eec68e;}.cls-2{fill:#c45b47;}.cls-3{fill:#1b989c;}.cls-4{fill:#080102;}</style></defs><title>資產 5</title><g id="圖層_2" data-name="圖層 2"><g id="圖層_1-2" data-name="圖層 1"><polygon class="cls-1" points="105.91 14.78 89.48 2.64 12.34 6.93 6.62 20.5 5.19 82.64 15.19 93.36 86.62 92.64 103.05 83.36 105.91 75.5 105.91 14.78"/><polygon class="cls-2" points="128.94 27.28 105.19 49.6 129.84 71.57 128.94 27.28"/><circle class="cls-3" cx="34.66" cy="49.38" r="14.46" transform="translate(-19.64 75.68) rotate(-80.78)"/><circle class="cls-3" cx="75.91" cy="49.38" r="14.46" transform="translate(10.41 111.91) rotate(-76.72)"/><path class="cls-4" d="M22,0H89a22,22,0,0,1,22,22V40.32l16.56-16.56a3.12,3.12,0,0,1,5.31,2.2h0V73.83a3.1,3.1,0,0,1-5.31,2.2l0,0L111,59.49V77.85A22,22,0,0,1,89,99.79H22A22,22,0,0,1,0,77.85V22A22,22,0,0,1,22,0ZM75.84,32.05A17.84,17.84,0,0,1,88.46,37.3l.18.18a17.82,17.82,0,0,1-25.4,25v0a17.83,17.83,0,0,1,0-25.21h0l0,0a17.75,17.75,0,0,1,12.58-5.22ZM84,41.7a11.62,11.62,0,0,0-16.41,0v0a11.61,11.61,0,0,0,0,16.41h0A11.62,11.62,0,0,0,84.2,41.83L84,41.7ZM35.15,32.05A17.84,17.84,0,0,1,47.77,37.3l.18.18a17.82,17.82,0,0,1-25.4,25v0a17.82,17.82,0,0,1,0-25.21h0a17.8,17.8,0,0,1,12.61-5.25Zm8.22,9.65a11.62,11.62,0,0,0-16.43,0v0a11.61,11.61,0,0,0,0,16.41h0A11.62,11.62,0,0,0,43.51,41.83l-.14-.13ZM111,49.13v1.56l15.64,15.64V33.49L111,49.13ZM89,10.39H22A11.64,11.64,0,0,0,10.38,22V77.85A11.64,11.64,0,0,0,22,89.42H89a11.64,11.64,0,0,0,11.58-11.57V22A11.64,11.64,0,0,0,89,10.39Z"/></g></g></svg>