<svg xmlns="http://www.w3.org/2000/svg" viewBox="0 0 111.5 112.17"><defs><style>.cls-1{fill:#d7574e;}.cls-2{fill:#1b989c;}.cls-3{fill:#eec68e;}.cls-4{fill:#080102;}</style></defs><title>資產 6</title><g id="圖層_2" data-name="圖層 2"><g id="圖層_1-2" data-name="圖層 1"><polygon class="cls-1" points="80.07 88.31 25.67 87.38 18.23 80.41 16.83 49.25 8 40.42 6.14 28.79 5.67 17.17 16.37 7.4 32.64 1.82 47.52 9.73 54.5 24.14 60.08 12.05 72.17 4.61 84.72 4.61 97.74 13.91 99.14 28.79 96.81 42.74 86.12 51.11 85.19 79.48 80.07 88.31"/><polygon class="cls-2" points="88.44 67.85 105.65 79.48 107.04 52.97 88.44 67.85"/><path class="cls-3" d="M35.3,28.33a7,7,0,1,1-7-7A7,7,0,0,1,35.3,28.33Z"/><path class="cls-3" d="M82.71,27.09a7,7,0,1,1-7-7A7,7,0,0,1,82.71,27.09Z"/><path class="cls-4" d="M36.09,60a2.57,2.57,0,1,1,0-5.14h32a2.57,2.57,0,1,1,0,5.14ZM91,57.74l13.65-10a4.29,4.29,0,0,1,6.82,3.48h0V80.62A4.33,4.33,0,0,1,107.19,85a4.2,4.2,0,0,1-2.75-1L91,74.12v3.61A14.6,14.6,0,0,1,76.52,92.25H72.79l12.59,12.57a4.31,4.31,0,1,1-6.09,6.11L60.61,92.25H56.37v15.62a4.3,4.3,0,0,1-8.6,0V92.25H43.52L24.83,110.93a4.31,4.31,0,0,1-6.08-6.11l12.6-12.57H27.6A14.41,14.41,0,0,1,17.37,88l-.23-.21a14.56,14.56,0,0,1-4-10V52A28.19,28.19,0,0,1,28.19,0,28.35,28.35,0,0,1,52.08,13.25,28.18,28.18,0,1,1,91,52v5.73Zm11.88,1.95-8.53,6.24,8.53,6.24V59.69Zm-46.5-31.5a4.31,4.31,0,0,1-8.61,0,19.59,19.59,0,1,0-36.3,10.27,19.88,19.88,0,0,0,7.83,7.22,4.27,4.27,0,0,1,2.44,4.12l0,.51,0,27.42a5.75,5.75,0,0,0,1.56,4l.17.17a5.89,5.89,0,0,0,4.14,1.74H76.52a5.94,5.94,0,0,0,5.89-5.9V50.52c0-.09,0-.68,0-.68a4.32,4.32,0,0,1,2.37-4.12,19.83,19.83,0,0,0,7.91-7.26A19.58,19.58,0,1,0,56.39,28.19ZM72.77,25a4.51,4.51,0,1,0,6.39,0,4.52,4.52,0,0,0-6.39,0Zm-3.64-3.65a9.67,9.67,0,1,1,0,13.67,9.69,9.69,0,0,1,0-13.67ZM25,25a4.51,4.51,0,1,0,6.39,0A4.49,4.49,0,0,0,25,25Zm-3.64-3.65a9.67,9.67,0,1,1,0,13.67,9.69,9.69,0,0,1,0-13.67ZM36.09,76.8a2.57,2.57,0,1,1,0-5.14h32a2.57,2.57,0,1,1,0,5.14Z"/></g></g></svg>