<svg xmlns="http://www.w3.org/2000/svg" viewBox="0 0 122.52 106.32"><defs><style>.cls-1{fill:#f4c88e;}.cls-2{fill:#18a3b4;}.cls-3{fill:#cf4532;}.cls-4{fill:#080102;}</style></defs><title>資產 1</title><g id="圖層_2" data-name="圖層 2"><g id="圖層_1-2" data-name="圖層 1"><polygon class="cls-1" points="4.42 14.89 12.99 3.46 108.71 6.32 120.14 19.18 117.28 89.89 107.99 101.32 15.85 101.32 2.28 91.32 4.42 14.89"/><polygon class="cls-2" points="45.49 34.89 49.06 65.97 75.85 48.47 45.49 34.89"/><path class="cls-3" d="M82.41,87.13a6,6,0,1,1-6-6A6,6,0,0,1,82.41,87.13Z"/><path class="cls-4" d="M26.47,90a2.82,2.82,0,1,1,0-5.64H68.41a8.48,8.48,0,0,1,8-5.65,8.38,8.38,0,0,1,6,2.48h0a8.47,8.47,0,0,1,2,3.17H96A2.82,2.82,0,1,1,96,90H84.41a8.35,8.35,0,0,1-2,3.16v0a8.46,8.46,0,0,1-12,0L70.24,93a8.51,8.51,0,0,1-1.82-3ZM15.41,0h91.7A15.48,15.48,0,0,1,118,4.51l0,0a15.34,15.34,0,0,1,4.52,10.85v75.5A15.41,15.41,0,0,1,118,101.79l-.32.27a15.33,15.33,0,0,1-10.57,4.26H15.41a15.43,15.43,0,0,1-10.86-4.53l0,0A15.31,15.31,0,0,1,0,90.91V15.41A15.46,15.46,0,0,1,4.52,4.51l.32-.28A15.42,15.42,0,0,1,15.41,0Zm91.7,9.44H15.41a6,6,0,0,0-4,1.55l-.19.19a6.07,6.07,0,0,0-1.75,4.23v75.5a6,6,0,0,0,1.69,4.16l.05.07h0a6,6,0,0,0,4.22,1.74h91.7a5.93,5.93,0,0,0,4-1.58l.18-.16a6.07,6.07,0,0,0,1.76-4.23V15.41a6,6,0,0,0-1.69-4.18l-.06-.05h0a5.88,5.88,0,0,0-4.22-1.74ZM48.44,28.15,78.9,45.74a4.7,4.7,0,0,1,1.72,6.4,4.94,4.94,0,0,1-1.72,1.74h0L63.61,62.69l-15.3,8.86a4.72,4.72,0,0,1-7.05-4.07h0l0-35.33a4.7,4.7,0,0,1,7.17-4Zm2.22,12.13v19c5.51-3.19,11-6.32,16.51-9.51L50.66,40.28ZM73.58,87.07v.14h0a2.92,2.92,0,0,0,.72,1.84h0l.11.09a2.79,2.79,0,0,0,2,.81,2.75,2.75,0,0,0,2-.81h0a2.85,2.85,0,0,0,.82-1.93h0v-.14a2.87,2.87,0,0,0-.84-1.95h0a2.84,2.84,0,0,0-2-.81,2.82,2.82,0,0,0-2.84,2.76Z"/></g></g></svg>