<svg xmlns="http://www.w3.org/2000/svg" viewBox="0 0 122.52 106.32"><defs><style>.cls-1{fill:#1f9ea8;}.cls-2{fill:#e7c992;}.cls-3{fill:#cf4532;}.cls-4{fill:#080102;}</style></defs><title>資產 2</title><g id="圖層_2" data-name="圖層 2"><g id="圖層_1-2" data-name="圖層 1"><polygon class="cls-1" points="2.34 15.25 11.45 4.54 111.63 5.07 119.66 16.32 118.06 92.93 108.41 101.5 13.59 101.5 4.48 92.93 2.34 15.25"/><polygon class="cls-2" points="46.09 44.9 39.3 46.5 38.95 41.32 40.55 34 46.98 31.5 53.59 30.97 67.34 21.5 77.7 20.07 85.73 21.68 87.16 30.07 84.13 41.5 77.7 52.93 76.09 55.97 75.38 63.11 69.48 67.39 64.13 69.36 61.09 67.93 62.88 61.15 54.3 61.68 45.2 52.75 46.09 44.9"/><ellipse class="cls-3" cx="76.54" cy="86.86" rx="4.2" ry="4.91"/><path class="cls-3" d="M77.43,36.32a6.57,6.57,0,1,1-6.56-6.43A6.5,6.5,0,0,1,77.43,36.32Z"/><path class="cls-4" d="M26.47,90a2.82,2.82,0,1,1,0-5.64H68.41a8.48,8.48,0,0,1,8-5.65,8.38,8.38,0,0,1,6,2.48h0a8.47,8.47,0,0,1,2,3.17H96A2.82,2.82,0,1,1,96,90H84.41a8.35,8.35,0,0,1-2,3.16v0a8.46,8.46,0,0,1-12,0L70.24,93a8.51,8.51,0,0,1-1.82-3ZM15.41,0h91.7A15.48,15.48,0,0,1,118,4.51l0,0a15.34,15.34,0,0,1,4.52,10.85v75.5A15.41,15.41,0,0,1,118,101.79l-.32.27a15.33,15.33,0,0,1-10.57,4.26H15.41a15.43,15.43,0,0,1-10.86-4.53l0,0A15.31,15.31,0,0,1,0,90.91V15.41A15.46,15.46,0,0,1,4.52,4.51l.32-.28A15.42,15.42,0,0,1,15.41,0Zm91.7,9.44H15.41a5.94,5.94,0,0,0-4,1.55l-.19.19a6.07,6.07,0,0,0-1.75,4.23v75.5a6,6,0,0,0,1.69,4.16l.05.07h0a6,6,0,0,0,4.22,1.74h91.7a5.93,5.93,0,0,0,4-1.58l.18-.16a6.07,6.07,0,0,0,1.76-4.23V15.41a6,6,0,0,0-1.69-4.18l-.06-.05h0a5.88,5.88,0,0,0-4.22-1.74ZM73.58,87.07v.14h0a2.92,2.92,0,0,0,.72,1.84h0l.11.09a2.79,2.79,0,0,0,2,.81,2.75,2.75,0,0,0,2-.81h0a2.85,2.85,0,0,0,.82-1.93h0v-.14a2.87,2.87,0,0,0-.84-1.95h0a2.84,2.84,0,0,0-2-.81,2.82,2.82,0,0,0-2.84,2.76Zm-32.4-29.9a1.22,1.22,0,0,1,1.7,0,1.23,1.23,0,0,1,0,1.71l-3,3a1.18,1.18,0,0,1-1.7,0,1.21,1.21,0,0,1,0-1.69l3-3ZM78.47,36.4A7.45,7.45,0,1,1,71,29a7.45,7.45,0,0,1,7.44,7.45Zm-7.44-5a5,5,0,1,0,5,5,5,5,0,0,0-5-5ZM43.54,52.84a33.63,33.63,0,0,1,.29-4.6c.07-.54.15-1.09.25-1.63l-.44.17A9.36,9.36,0,0,0,41,48.51a2,2,0,0,1-2.82-.1,2.11,2.11,0,0,1-.35-.51,13.19,13.19,0,0,1,2.48-15.19h0A13.15,13.15,0,0,1,53,29.29l.37-.39,0,0h0a33.63,33.63,0,0,1,32.47-8.7,2,2,0,0,1,1.41,1.42v0a33.76,33.76,0,0,1,0,17.37,33.41,33.41,0,0,1-8.69,15l-.12.11-.28.28a13.36,13.36,0,0,1,.15,6.16,13,13,0,0,1-3.57,6.56l-.11.11a13,13,0,0,1-7.11,3.58,13.31,13.31,0,0,1-8-1.23,2,2,0,0,1-.88-2.69,1.81,1.81,0,0,1,.32-.46,9.15,9.15,0,0,0,1.73-2.69l.17-.44c-.54.1-1.08.19-1.63.26a34.61,34.61,0,0,1-4.77.29A2,2,0,0,1,53,63.3h0l-8.89-8.89a2,2,0,0,1-.58-1.57Zm4.23-4.08a32.2,32.2,0,0,0-.25,3.4l7.74,7.73a30.22,30.22,0,0,0,3.41-.24,30.88,30.88,0,0,0,4.11-.84,2.18,2.18,0,0,1,.63-.08,2,2,0,0,1,1.91,2.07,13.29,13.29,0,0,1-1,4.52,14.6,14.6,0,0,1-.77,1.53,9.44,9.44,0,0,0,3.31.07,9.14,9.14,0,0,0,4.94-2.5l.09-.08A9.21,9.21,0,0,0,74,54.56h0a2,2,0,0,1,.51-2.18l.65-.6.49-.48.07-.08A29.3,29.3,0,0,0,83.37,38a29.83,29.83,0,0,0,.29-14.24,29.91,29.91,0,0,0-14.23.29A29.44,29.44,0,0,0,56.2,31.7h0l-.55.57h0l-.53.59a2,2,0,0,1-2.24.57A9.39,9.39,0,0,0,47.64,33a9.22,9.22,0,0,0-4.56,2.5h0a9.25,9.25,0,0,0-2.58,5,9.38,9.38,0,0,0,.07,3.3,12.87,12.87,0,0,1,1.54-.75,13.08,13.08,0,0,1,4.48-1,2,2,0,0,1,2,2.52,31.35,31.35,0,0,0-.85,4.14Zm.78,15.79a1.2,1.2,0,0,1,1.69,1.69l-3,3a1.2,1.2,0,1,1-1.7-1.7l3-3Zm-3.68-3.69a1.21,1.21,0,0,1,1.69,0,1.19,1.19,0,0,1,0,1.69L39.8,69.31a1.19,1.19,0,0,1-1.69,0,1.2,1.2,0,0,1,0-1.7l6.76-6.75Z"/></g></g></svg>