<svg xmlns="http://www.w3.org/2000/svg" viewBox="0 0 30.17 30.17"><defs><style>.cls-1{fill:#fff;}</style></defs><title>資產 5</title><g id="圖層_2" data-name="圖層 2"><g id="圖層_1-2" data-name="圖層 1"><path class="cls-1" d="M16.34,3.85V0H13.83V3.85a11.31,11.31,0,0,0-10,10H0v2.51H3.85a11.33,11.33,0,0,0,10,10v3.84h2.51V26.33a11.35,11.35,0,0,0,10-10h3.84V13.83H26.33A11.33,11.33,0,0,0,16.34,3.85Zm7.45,10H21.24a6.29,6.29,0,0,0-4.9-4.9V6.39A8.8,8.8,0,0,1,23.79,13.83Zm-8.7,5a3.77,3.77,0,1,1,3.77-3.77A3.78,3.78,0,0,1,15.09,18.86ZM13.83,6.39V8.93a6.29,6.29,0,0,0-4.9,4.9H6.39A8.78,8.78,0,0,1,13.83,6.39Zm-7.44,10H8.93a6.32,6.32,0,0,0,4.9,4.91v2.54A8.8,8.8,0,0,1,6.39,16.34Zm10,7.45V21.25a6.32,6.32,0,0,0,4.9-4.91h2.55A8.83,8.83,0,0,1,16.34,23.79Z"/></g></g></svg>