<svg xmlns="http://www.w3.org/2000/svg" viewBox="0 0 45.78 47.86"><defs><style>.cls-1{fill:#c7912c;}.cls-2{fill:#6f3e1e;}</style></defs><title>資產 4</title><g id="圖層_2" data-name="圖層 2"><g id="圖層_1-2" data-name="圖層 1"><path class="cls-1" d="M10.76,2.79,11.33,20s1.52,10,11.94,9.47S35.2,18.89,35.2,18.89l.38-17Z"/><polygon class="cls-1" points="14.17 40.11 14.74 45.42 30.47 45.99 31.04 39.35 14.17 40.11"/><path class="cls-2" d="M9.72,22.84a14.59,14.59,0,0,0,11.09,8.21v6.41H12.49V43.7H10.41v4.16h25V43.7H33.3V37.46H25V31.05a14.58,14.58,0,0,0,11.09-8.22c5.92-.29,9.72-4.26,9.72-10.34V2.08H39.54V6.24h2.08v6.25c0,3.31-1.52,5.37-4.29,6a14.13,14.13,0,0,0,.13-1.85V0H8.32V16.65a16.11,16.11,0,0,0,.13,1.85c-2.77-.64-4.29-2.7-4.29-6V6.24H6.24V2.08H0V12.49C0,18.57,3.8,22.54,9.72,22.84ZM29.14,43.7H16.65V41.62H29.14ZM33.3,4.16V16.65a10.41,10.41,0,0,1-20.81,0V10.41H27.05V6.24H12.49V4.16Z"/></g></g></svg>