<svg xmlns="http://www.w3.org/2000/svg" viewBox="0 0 54.32 47.62"><defs><style>.cls-1{fill:#fff100;}.cls-2{fill:#5d3800;}</style></defs><title>資產 1</title><g id="圖層_2" data-name="圖層 2"><g id="圖層_1-2" data-name="圖層 1"><path class="cls-1" d="M39.14,14.34A12,12,0,1,0,22.63,25.52l-.81,4.72h11l-.52-5.06A12,12,0,0,0,39.14,14.34Z"/><path class="cls-2" d="M20.88,41.1H33.44V38H20.88Zm1.79,2v0a4.49,4.49,0,1,0,9,0v0ZM27.16.1a14.13,14.13,0,0,0-6.28,26.79v4.62H33.44V26.89A14.13,14.13,0,0,0,27.16.1Zm4.12,24.32-1,.4v3.55H28.73V19H30.3V15.8H24V19h1.57v9.42H24V24.82l-1-.4a11,11,0,1,1,8.24,0Zm-10.4,11.8H33.44V33.08H20.88Z"/><rect class="cls-2" y="10.2" width="9.6" height="3.54"/><rect class="cls-2" x="44.72" y="10.2" width="9.6" height="3.54"/><rect class="cls-2" x="1.86" y="1.77" width="9.6" height="3.54" transform="translate(1.97 -2.37) rotate(23.56)"/><rect class="cls-2" x="42.85" y="19.65" width="9.6" height="3.54" transform="translate(12.53 -17.26) rotate(23.56)"/><rect class="cls-2" x="1.55" y="18.08" width="9.6" height="3.54" transform="translate(-6.82 3.69) rotate(-21.44)"/><rect class="cls-2" x="43.17" y="1.74" width="9.6" height="3.54" transform="translate(2.04 17.77) rotate(-21.44)"/></g></g></svg>