<svg xmlns="http://www.w3.org/2000/svg" viewBox="0 0 33.88 52.54"><defs><style>.cls-1{fill:#f4e829;}.cls-2{fill:#eb9e71;}.cls-3{fill:#d7574e;}.cls-4{fill:#107b9e;}</style></defs><title>資產 3</title><g id="圖層_2" data-name="圖層 2"><g id="圖層_1-2" data-name="圖層 1"><circle class="cls-1" cx="17.48" cy="34.87" r="14.65"/><polygon class="cls-2" points="9.95 16.19 23.12 16.19 14.52 0.86 2.02 1.27 9.95 16.19"/><polygon class="cls-3" points="19.09 1.27 17.21 3.15 22.99 15.52 32.26 2.07 29.31 0.73 19.09 1.27"/><path class="cls-4" d="M17.06,25.42A10.07,10.07,0,1,0,27.13,35.49,10.09,10.09,0,0,0,17.06,25.42Zm0,17.66a7.59,7.59,0,1,1,7.58-7.59A7.59,7.59,0,0,1,17.06,43.08ZM27.48,22.34V19.59a4.23,4.23,0,0,0-1.25-3h0a3.91,3.91,0,0,0-.88-.68L33.47,1.86a1.17,1.17,0,0,0,.23-.69A1.18,1.18,0,0,0,32.52,0H19.07a1.16,1.16,0,0,0-1,.58l-1.13,2L15.81.59a1.15,1.15,0,0,0-1-.58H1.35A1.18,1.18,0,0,0,.18,1.17a1.23,1.23,0,0,0,.22.69L8.52,15.92a4.08,4.08,0,0,0-.87.68h0a4.23,4.23,0,0,0-1.25,3v2.76A16.94,16.94,0,1,0,33.88,35.6,17,17,0,0,0,27.48,22.34Zm-7.74-20H30.51L23.67,14.19,18.29,4.87Zm5.39,17.25v1.19a16.9,16.9,0,0,0-16.39,0V19.59a1.87,1.87,0,0,1,.56-1.34h0a1.85,1.85,0,0,1,1.28-.56H23.28a1.92,1.92,0,0,1,1.29.56h0A1.9,1.9,0,0,1,25.13,19.59ZM3.37,2.34H14.13L15.89,5.4l0,.06,5.71,9.89H10.88Zm13.57,46.3a13,13,0,1,1,13-13A13.06,13.06,0,0,1,16.94,48.64Z"/></g></g></svg>