<svg xmlns="http://www.w3.org/2000/svg" viewBox="0 0 58.27 53.86"><defs><style>.cls-1{fill:#eb9e71;}.cls-2{fill:#f0cd96;}.cls-3{fill:#f7f8f8;}.cls-4{fill:#b66444;}</style></defs><title>資產 2</title><g id="圖層_2" data-name="圖層 2"><g id="圖層_1-2" data-name="圖層 1"><path class="cls-1" d="M5.18,19.53H53.06L28.68,3.87Z"/><rect class="cls-2" x="12.51" y="20.92" width="33.73" height="22.74"/><rect class="cls-3" x="23.5" y="20.45" width="11.18" height="21.88"/><path class="cls-4" d="M2.43,53.86H55.84V49H2.43ZM29.13,0,0,18.54V30H4.86V22.34h5.4V41.26H8.17v4.19H50.1V41.26H48V22.34h5.41V30h4.86V18.54Zm-9.8,41.26H14.46V22.34h4.87Zm15.41,0H31.23V24.36H27v16.9H23.52V22.34H34.74Zm9.07,0H38.94V22.34h4.87ZM9.66,18.15,29.13,5.76,48.6,18.15Z"/></g></g></svg>