<svg xmlns="http://www.w3.org/2000/svg" viewBox="0 0 62.25 63.99"><defs><style>.cls-1{fill:#fff100;}.cls-2{fill:none;}.cls-3{fill:#6f3e1e;}</style></defs><title>資產 2</title><g id="圖層_2" data-name="圖層 2"><g id="圖層_1-2" data-name="圖層 1"><path class="cls-1" d="M21,27.33c-.38-.25-16.55-.51-16.55-.51l6.79,10.36,9.48-.88Z"/><path class="cls-1" d="M41.25,27.33c.38-.25,16.55-.51,16.55-.51l-6.32,10L42,35.92Z"/><path class="cls-1" d="M18.79,25.52l.57,14.79s1.52,10,11.94,9.47S43.24,39.17,43.24,39.17l.37-13.53Z"/><polygon class="cls-1" points="22.2 56.23 22.77 61.53 38.5 62.1 39.07 55.47 22.2 56.23"/><path class="cls-2" d="M18.64,44.72a13.38,13.38,0,0,0,3.13,3.51A14.53,14.53,0,0,1,18.64,44.72Z"/><rect class="cls-2" x="24.68" y="61.9" width="12.49" height="2.08"/><path class="cls-2" d="M30.92,47.34A10.42,10.42,0,0,0,41.33,36.93V24.45H20.52v2.08H35.08v4.16H20.52v6.24A10.42,10.42,0,0,0,30.92,47.34Z"/><path class="cls-2" d="M16.39,37.75c0-.27,0-.54,0-.82C16.36,36.93,16.35,37.23,16.39,37.75Z"/><path class="cls-2" d="M18.59,44.64c-.09-.13-.16-.27-.24-.4Z"/><path class="cls-3" d="M18.64,44.72a.35.35,0,0,1-.05-.08A.35.35,0,0,0,18.64,44.72Z"/><path class="cls-3" d="M28.84,51.33a16.3,16.3,0,0,1-7.07-3.1A14.49,14.49,0,0,0,28.84,51.33Z"/><path class="cls-3" d="M30.82,51.82a16.09,16.09,0,0,0-2-.49v1.51a14.64,14.64,0,0,0,2-.26C30,52.39,29.85,52.14,30.82,51.82Z"/><path class="cls-3" d="M30.82,52.58c.87-.19,1-.44,0-.76C29.85,52.14,30,52.39,30.82,52.58Z"/><polygon class="cls-3" points="43.46 25.88 43.46 28.89 55.24 28.89 53.91 30.56 43.46 30.56 43.46 33.41 51.64 33.41 50.25 35.16 43.46 35.16 43.46 38.49 51.77 38.49 62.25 25.88 43.46 25.88"/><polygon class="cls-3" points="43.4 40.48 54.51 40.48 48.89 47.54 44.03 47.54 46.86 43.96 42.37 43.96 43.4 40.48"/><polygon class="cls-3" points="18.79 25.88 18.79 28.89 7.01 28.89 8.34 30.56 18.79 30.56 18.79 33.41 10.61 33.41 12 35.16 18.79 35.16 18.79 38.49 10.48 38.49 0 25.88 18.79 25.88"/><polygon class="cls-3" points="18.85 40.48 7.74 40.48 13.36 47.54 17.97 47.54 14.98 43.82 19.72 43.82 18.85 40.48"/><rect class="cls-2" x="24.68" y="61.9" width="12.49" height="2.08"/><path class="cls-2" d="M41.33,36.93V24.45H20.52v2.08H35.08v4.16H20.52v6.24a10.41,10.41,0,1,0,20.81,0Z"/><path class="cls-3" d="M41.33,53.49H33V51.28A14.66,14.66,0,0,0,45.29,36.93V23.12H16.36V36.93c0,.28,0,.55,0,.82a15.91,15.91,0,0,0,2,6.49c.08.13.15.27.24.4a.35.35,0,0,0,.05.08,14.53,14.53,0,0,0,3.13,3.51,16.29,16.29,0,0,0,7,3.09v2.17H20.52v6.24H18.44V63.9h25V59.73H41.33ZM20.52,36.93V33.52H35.08V29.36H20.52V27.28H41.33v9.65a10.41,10.41,0,1,1-20.81,0Zm16.65,22.8H24.68V57.65H37.17Z"/><path class="cls-1" d="M30.69,2.69,27.56,8.34,22.78,9A49.3,49.3,0,0,0,26,12.79c.16,0-.44,5.6-.44,5.6l4.5-1.26a19.71,19.71,0,0,1,2.2.49l3.68.61-.77-4.94,4-4.95-5.71-1Z"/><path class="cls-2" d="M35.14,17.5l-.72-4.23a1.13,1.13,0,0,1,.33-1l3-3-4.23-.63h0A1.12,1.12,0,0,1,32.71,8l-1.9-3.84L28.93,8a1.14,1.14,0,0,1-.88.67l-4.23.63,3,3,0,0a1.13,1.13,0,0,1,.32,1l-.72,4.23,3.81-2a1.18,1.18,0,0,1,1.05,0Z"/><path class="cls-3" d="M36.67,21.2a1.72,1.72,0,0,1-.69-.15l-5.17-2.69L29,19.3,25.74,21a1.59,1.59,0,0,1-.76.19,1.62,1.62,0,0,1-1.44-.88,1.68,1.68,0,0,1-.17-1l1-5.65-4.09-4a1.64,1.64,0,0,1,0-2.31,1.54,1.54,0,0,1,.93-.47L26.8,6,29.35.91A1.64,1.64,0,0,1,30.81,0a1.59,1.59,0,0,1,.72.17,1.68,1.68,0,0,1,.75.74L34.82,6l5.66.84a1.6,1.6,0,0,1,1.07.64,1.62,1.62,0,0,1-.23,2.2l-4,3.95,1,5.64A1.66,1.66,0,0,1,38,20.52a1.61,1.61,0,0,1-1.07.66ZM27.2,11.9a1.64,1.64,0,0,1,.49,1.45l-.55,3.25,2.92-1.52a1.6,1.6,0,0,1,1.51,0l2.91,1.52-.55-3.25a1.65,1.65,0,0,1,.47-1.43l2.35-2.3-3.67-.54V9a1.66,1.66,0,0,1-.81-.78L30.81,5.3,29.37,8.2a1.64,1.64,0,0,1-1.24.94l-3.26.48Z"/></g></g></svg>