<svg xmlns="http://www.w3.org/2000/svg" viewBox="0 0 51.17 51.17"><defs><style>.cls-1{fill:#de7f44;}.cls-2{fill:#e3a162;}.cls-3{fill:#f1e633;}.cls-4,.cls-5,.cls-6{fill:none;stroke-miterlimit:10;}.cls-4,.cls-6{stroke:#231815;}.cls-4{stroke-width:0.86px;}.cls-5{stroke:#643410;stroke-width:2.44px;}.cls-6{stroke-width:1.29px;}</style></defs><title>資產 5</title><g id="圖層_2" data-name="圖層 2"><g id="圖層_1-2" data-name="圖層 1"><path class="cls-1" d="M28.17,19.63a2,2,0,0,0-1.54.64A3.08,3.08,0,0,0,26,22.43a3,3,0,0,0,.6,2,1.84,1.84,0,0,0,1.47.68c.91,0,2.13-.29,2.13-2.79S29,19.63,28.17,19.63ZM25.39,9.91a16,16,0,1,0,16,16A16,16,0,0,0,25.39,9.91ZM35.53,28.1A8,8,0,0,1,30.76,30H29.05a9.08,9.08,0,0,1-2.55-.54l-.76-.3v2h1.8v4.85H16.42V31.21H18.1V20.45H16.45V15.59h9.29v.71L26.5,16A10.52,10.52,0,0,1,29,15.4l1.7,0a7.68,7.68,0,0,1,4.77,2,7,7,0,0,1,2.26,5.4A6.74,6.74,0,0,1,35.53,28.1Z"/><path class="cls-2" d="M25.69,1.22A24.37,24.37,0,1,0,50.06,25.59,24.37,24.37,0,0,0,25.69,1.22Zm0,42.75A18.38,18.38,0,1,1,44.07,25.59,18.41,18.41,0,0,1,25.69,44Z"/><path class="cls-3" d="M25.69,7.77A17.82,17.82,0,1,0,43.51,25.59,17.84,17.84,0,0,0,25.69,7.77Zm0,33.82a16,16,0,1,1,16-16A16,16,0,0,1,25.69,41.59Z"/><path class="cls-3" d="M17.29,35.17V31.44H19V19.56H17.32V15.83h8.16v1.09l.41-.21a9.79,9.79,0,0,1,4.5-1.14,7.15,7.15,0,0,1,5,1.9,6.38,6.38,0,0,1,2.08,5,6.12,6.12,0,0,1-2,4.9,7.77,7.77,0,0,1-5.37,1.82,7.78,7.78,0,0,1-4.19-1.09l-.43-.27v3.63h1.81v3.73ZM28.17,19.06a2.55,2.55,0,0,0-2,.82,3.62,3.62,0,0,0-.78,2.55,3.48,3.48,0,0,0,.74,2.4,2.46,2.46,0,0,0,1.89.86c1.79,0,2.69-1.13,2.69-3.35S29.89,19.06,28.17,19.06Z"/><circle class="cls-4" cx="25.59" cy="25.59" r="18.1" transform="translate(-10.6 25.59) rotate(-45)"/><circle class="cls-4" cx="25.59" cy="25.59" r="15.72"/><circle class="cls-5" cx="25.59" cy="25.59" r="24.36" transform="translate(-10.6 25.59) rotate(-45)"/><path class="cls-6" d="M16.94,19.84V15.55h8.72v.91a9.91,9.91,0,0,1,4.63-1.17,7.56,7.56,0,0,1,5.22,2,6.74,6.74,0,0,1,2.16,5.19,6.45,6.45,0,0,1-2.12,5.11A8.09,8.09,0,0,1,30,29.45a8,8,0,0,1-4.33-1.13v2.84h1.8v4.29H16.91V31.16h1.67V19.84Zm8.68,2.59a3.22,3.22,0,0,0,.67,2.22,2.12,2.12,0,0,0,1.68.76c1.6,0,2.4-1,2.4-3.07s-.77-3-2.31-3a2.29,2.29,0,0,0-1.74.74A3.32,3.32,0,0,0,25.62,22.43Z"/></g></g></svg>