<svg xmlns="http://www.w3.org/2000/svg" viewBox="0 0 25.49 29.83"><defs><style>.cls-1{fill:#fff;}</style></defs><title>資產 4</title><g id="圖層_2" data-name="圖層 2"><g id="圖層_1-2" data-name="圖層 1"><path class="cls-1" d="M6.18,16.47A1.12,1.12,0,1,0,7.3,17.59,1.12,1.12,0,0,0,6.18,16.47Zm0,4.73A1.12,1.12,0,1,0,7.3,22.32,1.12,1.12,0,0,0,6.18,21.2Zm0-9.46A1.12,1.12,0,1,0,7.3,12.86,1.12,1.12,0,0,0,6.18,11.74Zm13.08.45H9.53a.67.67,0,0,0,0,1.34h9.73a.67.67,0,1,0,0-1.34Zm5.11-7.54H21.29V4a.67.67,0,0,0-.67-.67H17A4.44,4.44,0,0,0,12.75,0h0A4.44,4.44,0,0,0,8.46,3.37H4.87A.67.67,0,0,0,4.2,4v.61H1.12A1.12,1.12,0,0,0,0,5.77V28.71a1.12,1.12,0,0,0,1.12,1.12H24.37a1.12,1.12,0,0,0,1.12-1.12V5.77A1.12,1.12,0,0,0,24.37,4.65ZM10.58,2.25a3,3,0,0,1,2.16-.9h0a3.09,3.09,0,0,1,2.88,2H9.86A3,3,0,0,1,10.58,2.25Zm-5,2.46H20V6.83H5.54ZM23.25,27.59h-21V6.89h2v.62a.67.67,0,0,0,.67.67H20.62a.67.67,0,0,0,.67-.67V6.89h2Zm-4-5.94H9.53a.67.67,0,0,0,0,1.34h9.73a.67.67,0,1,0,0-1.34Zm0-4.73H9.53a.67.67,0,0,0,0,1.34h9.73a.67.67,0,0,0,0-1.34Z"/></g></g></svg>