<svg xmlns="http://www.w3.org/2000/svg" viewBox="0 0 43.53 55.58"><defs><style>.cls-1{fill:#fff;}</style></defs><title>資產 3</title><g id="圖層_2" data-name="圖層 2"><g id="圖層_1-2" data-name="圖層 1"><path class="cls-1" d="M33.19,14.33l-3.82-3.82-10.9,10.9,2.7,2.7,8.2-8.2L30.49,17,14.4,33.12v6.52h6.52L43.53,17,37,10.51Zm0,5.4,1.12,1.12-7,7-1.12-1.12ZM19.34,35.82H18.22V34.7l5.26-5.26,1.12,1.12ZM37,18.15,35.89,17,37,15.91,38.13,17Z"/><path class="cls-1" d="M39.37,26.78l-4.63,4.76V51H4.63V16.21H16.21V4.63h20L39.37,0H10.62L0,10.62v45H39.37ZM11.58,5.59v6h-6Z"/><rect class="cls-1" x="6.95" y="41.69" width="14.3" height="4.63"/><polygon class="cls-1" points="39.37 4.29 34.57 8.96 34.57 0 39.37 0 39.37 4.29"/></g></g></svg>