<svg xmlns="http://www.w3.org/2000/svg" viewBox="0 0 54.38 48.32"><defs><style>.cls-1{fill:#fff;}</style></defs><title>資產 5</title><g id="圖層_2" data-name="圖層 2"><g id="圖層_1-2" data-name="圖層 1"><path class="cls-1" d="M46.89,7.83V1.59l-2-.38c-.48-.09-10.68-1.89-17.66,6.2A21.35,21.35,0,0,0,9.94,0L7.66.24V7.83H0V48.32H54.38V7.83ZM20.8,43.32H5V12.83H7.66V40.2l2.54,0c5.12-.07,8.46,1.39,10.63,3.15ZM24.64,40a19.58,19.58,0,0,0-12-4.74V5.09a16,16,0,0,1,12,7.26Zm5.1.43V12.35A14,14,0,0,1,41.89,6V36.39C36.12,36.76,32.28,38.43,29.74,40.42Zm19.64,2.9h-15c2.17-1.15,5.35-2,10-2h2.5V12.83h2.49Z"/></g></g></svg>