<svg xmlns="http://www.w3.org/2000/svg" viewBox="0 0 47.85 50.02"><defs><style>.cls-1{fill:#fff;}</style></defs><title>資產 7</title><g id="圖層_2" data-name="圖層 2"><g id="圖層_1-2" data-name="圖層 1"><path class="cls-1" d="M10.16,23.86a15.24,15.24,0,0,0,11.59,8.59v6.7h-8.7v6.52H10.87V50H37V45.67H34.8V39.15H26.1v-6.7a15.24,15.24,0,0,0,11.59-8.59c6.18-.3,10.16-4.45,10.16-10.81V2.17H41.32V6.52H43.5v6.53c0,3.46-1.59,5.61-4.49,6.28a15.38,15.38,0,0,0,.14-1.93V0H8.7V17.4a13.59,13.59,0,0,0,.14,1.93c-2.9-.66-4.49-2.82-4.49-6.28V6.52H6.52V2.17H0V13.05C0,19.41,4,23.56,10.16,23.86ZM30.45,45.67h-13V43.5H30.45ZM34.8,4.35V17.4a10.88,10.88,0,0,1-21.75,0V10.87H28.27V6.52H13.05V4.35Z"/></g></g></svg>