<svg xmlns="http://www.w3.org/2000/svg" viewBox="0 0 48.65 53.08"><defs><style>.cls-1{fill:#fff;}</style></defs><title>資產 6</title><g id="圖層_2" data-name="圖層 2"><g id="圖層_1-2" data-name="圖層 1"><path class="cls-1" d="M48.65,4.42H39.81V0H35.38V4.42H13.27V0H8.85V4.42H0V53.08H48.65ZM8.85,8.85v4.42h4.42V8.85H35.38v4.42h4.43V8.85h4.42v6.63H4.42V8.85ZM4.42,48.65V19.9H44.23V48.65Z"/><rect class="cls-1" x="8.85" y="33.17" width="4.42" height="4.42"/><rect class="cls-1" x="15.48" y="33.17" width="4.42" height="4.42"/><rect class="cls-1" x="22.11" y="33.17" width="4.42" height="4.42"/><rect class="cls-1" x="15.48" y="26.54" width="4.42" height="4.42"/><rect class="cls-1" x="22.11" y="26.54" width="4.42" height="4.42"/><rect class="cls-1" x="8.85" y="39.81" width="4.42" height="4.42"/><rect class="cls-1" x="15.48" y="39.81" width="4.42" height="4.42"/><rect class="cls-1" x="22.11" y="39.81" width="4.42" height="4.42"/><rect class="cls-1" x="28.89" y="33.17" width="4.42" height="4.42"/><rect class="cls-1" x="35.52" y="33.17" width="4.42" height="4.42"/><rect class="cls-1" x="28.89" y="26.54" width="4.42" height="4.42"/><rect class="cls-1" x="35.52" y="26.54" width="4.42" height="4.42"/><rect class="cls-1" x="28.89" y="39.81" width="4.42" height="4.42"/><rect class="cls-1" x="35.52" y="39.81" width="4.42" height="4.42"/></g></g></svg>