<svg xmlns="http://www.w3.org/2000/svg" viewBox="0 0 43.15 54.61"><defs><style>.cls-1{fill:#fff;}</style></defs><title>資產 4</title><g id="圖層_2" data-name="圖層 2"><g id="圖層_1-2" data-name="圖層 1"><path class="cls-1" d="M43.15,49.81V9.59a4.8,4.8,0,0,0-4.8-4.8H36V2.4h-6.2L27.36,0H15.78l-2.4,2.4H7.19V4.79H4.79A4.8,4.8,0,0,0,0,9.59V49.81a4.8,4.8,0,0,0,4.79,4.8H38.35A4.8,4.8,0,0,0,43.15,49.81ZM12,7.19h3.38l2.4-2.4h7.6l2.41,2.4h3.38V12H12Zm-7.2,2.4h2.4v7.19H36V9.59h2.39V49.81H4.79Z"/><path class="cls-1" d="M28.76,38.35A4.78,4.78,0,0,0,24,33.56H19.18a4.79,4.79,0,0,0-4.8,4.79v4.8H28.76Z"/><path class="cls-1" d="M21.57,31.16a4.8,4.8,0,1,0-4.79-4.79A4.8,4.8,0,0,0,21.57,31.16Z"/><rect class="cls-1" x="19.18" y="7.19" width="4.79" height="2.4"/></g></g></svg>