<svg xmlns="http://www.w3.org/2000/svg" viewBox="0 0 44.36 55.91"><defs><style>.cls-1{fill:#f7f8f8;}.cls-2{fill:#b66444;}</style></defs><title>資產 1</title><g id="圖層_2" data-name="圖層 2"><g id="圖層_1-2" data-name="圖層 1"><circle class="cls-1" cx="22.18" cy="33.3" r="18.9" transform="translate(-17.05 25.44) rotate(-45)"/><path class="cls-2" d="M39.68,20.12l3.66-3.66-3.09-3.09L36.67,17a22.07,22.07,0,0,0-12.32-5.3V4.38h6.13V0H13.4V4.38h6.13V11.7a22.21,22.21,0,1,0,20.15,8.42Zm-17.5,31A17.37,17.37,0,1,1,39.55,33.72,17.38,17.38,0,0,1,22.18,51.09Z"/><polygon class="cls-2" points="35.37 35.94 19.6 35.94 19.6 19.92 23.6 19.92 23.6 31.94 35.37 31.94 35.37 35.94"/></g></g></svg>