<svg xmlns="http://www.w3.org/2000/svg" viewBox="0 0 41.83 40.4"><defs><style>.cls-1{fill:#fff;}.cls-2{fill:#107b9e;}</style></defs><title>資產 1</title><g id="圖層_2" data-name="圖層 2"><g id="圖層_1-2" data-name="圖層 1"><path class="cls-1" d="M21.42,2s-1.91-.72-3,2.84-4.69,8-4.69,8L3.27,14.42,1.69,16.53,3.93,19l6,6.2L8.55,32l-.33,5.15,1.92,2.05L18,35l3.89-1.58,3.83,2.51,5.61,3a12.4,12.4,0,0,0,2.31-.79c.07-.2-2.7-9.71-2.7-9.71L32,25.77l2.91-3.56,3.83-3.7,1-3-4.16-2.37-5.88-.07L27.1,13l-.86-3.5L24.52,4.39Z"/><path class="cls-2" d="M6.59,35.84c.58-2.54,1.22-5.55,2-8.52a2.23,2.23,0,0,0-.83-2.57c-2-1.72-4-3.54-6-5.28C.38,18.31-.38,17,.19,15.18A3.82,3.82,0,0,1,4,12.47c2.61-.17,5.2-.5,7.8-.65a2.34,2.34,0,0,0,2.34-1.65c1-2.53,2.16-5,3.2-7.51A3.69,3.69,0,0,1,21,0a3.74,3.74,0,0,1,3.52,2.63c1.05,2.57,2.22,5.1,3.24,7.69a2.07,2.07,0,0,0,2,1.5c2.72.17,5.43.46,8.14.71a3.82,3.82,0,0,1,3.68,2.69,3.77,3.77,0,0,1-1.39,4.19c-2,1.79-4.06,3.63-6.17,5.35a2.36,2.36,0,0,0-.86,2.73c.65,2.64,1.19,5.31,1.81,8a3.73,3.73,0,0,1-1.35,4.19,3.77,3.77,0,0,1-4.55,0c-2.26-1.4-4.59-2.72-6.81-4.19a2.36,2.36,0,0,0-3,.05C17,37,14.61,38.43,12.17,39.76,9.34,41.29,6.45,39.46,6.59,35.84Zm2.77.46c.11,1.28.75,1.45,1.75.86,2.39-1.41,4.82-2.78,7.16-4.28A4.44,4.44,0,0,1,23.6,33c2.13,1.4,4.33,2.7,6.55,4a3.1,3.1,0,0,0,1.69.38c.94-.44,0-3.37-.17-4q-.6-2.79-1.26-5.55a4.38,4.38,0,0,1,1.52-4.82c1.32-1.09,2.61-2.21,3.89-3.35a21.86,21.86,0,0,0,2.33-2.18c.34-.4.9-.9.58-1.42-.6-1-2.87-.81-3.82-.9-1.88-.19-3.76-.35-5.64-.5a4.2,4.2,0,0,1-3.95-2.87c-1-2.48-2-4.93-3.12-7.36a3.55,3.55,0,0,0-.83-1.09c-.68-.58-1.37.39-1.66,1-1.06,2.32-2.11,4.65-3,7a4.72,4.72,0,0,1-4.62,3.28c-1.67.1-3.34.28-5,.44A14.36,14.36,0,0,0,4,15.46c-2.69.87.8,3,1.79,3.9,1.23,1.11,2.47,2.2,3.75,3.24A4.72,4.72,0,0,1,11.28,28C10.54,30.73,10,33.52,9.36,36.3Z"/></g></g></svg>