<svg xmlns="http://www.w3.org/2000/svg" viewBox="0 0 43.63 54.41"><defs><style>.cls-1{fill:#b0bdc4;}.cls-2{fill:#4d4d4e;}</style></defs><title>資產 3</title><g id="圖層_2" data-name="圖層 2"><g id="圖層_1-2" data-name="圖層 1"><path class="cls-1" d="M35.74,9l.19,5.68-1.7,3-.95,8.34s-3,9.09-12.13,8.72-9.85-9.29-9.85-9.29L9.59,16.8,7.7,13l.76-4Z"/><polygon class="cls-1" points="29.58 44.84 29.77 52.04 14.05 52.61 13.86 45.03 29.58 44.84"/><path class="cls-2" d="M17.85,36v6.53h-6v7.36H9.12v4.54H34.51V49.87H31.73V42.51H25.78V36a14,14,0,0,0,8-6.25l9.87-5.93V8.8h-6v-2H6v2H0v15l9.88,5.93A13.93,13.93,0,0,0,17.85,36ZM8,24,4,21.56v-8.8H6v2.81l2,2v5.13C7.93,23.12,8,23.55,8,24Zm27.63,0c0-.42.07-.85.07-1.29V17.55l2-2V12.76h2v8.8ZM27.77,46.48v3.39H15.87V46.48ZM12.91,27v0l0,0a9.84,9.84,0,0,1-1-4.23v-4H23.8v-4H10.74l-.82-.82V10.78h23.8v3.15l-2,2v6.77a9.77,9.77,0,0,1-1,4.22l0,0v0a9.84,9.84,0,0,1-17.81,0ZM9.12,4.55H34.51V0H9.12Z"/></g></g></svg>